<?xml version="1.0" encoding="UTF-8" standalone="no"?>
<!-- Created with Inkscape (http://www.inkscape.org/) -->

<svg
   xmlns:dc="http://purl.org/dc/elements/1.1/"
   xmlns:cc="http://creativecommons.org/ns#"
   xmlns:rdf="http://www.w3.org/1999/02/22-rdf-syntax-ns#"
   xmlns:svg="http://www.w3.org/2000/svg"
   xmlns="http://www.w3.org/2000/svg"
   xmlns:sodipodi="http://sodipodi.sourceforge.net/DTD/sodipodi-0.dtd"
   xmlns:inkscape="http://www.inkscape.org/namespaces/inkscape"
   width="364.58331mm"
   height="364.58334mm"
   viewBox="0 0 364.5833 364.58335"
   version="1.1"
   id="svg5387"
   inkscape:version="0.92.2 (5c3e80d, 2017-08-06)"
   sodipodi:docname="AEIC-DesignCoeurDecalco.svg">
  <defs
     id="defs5381" />
  <sodipodi:namedview
     id="base"
     pagecolor="#ffffff"
     bordercolor="#666666"
     borderopacity="1.0"
     inkscape:pageopacity="0.0"
     inkscape:pageshadow="2"
     inkscape:zoom="0.49497474"
     inkscape:cx="1116.6203"
     inkscape:cy="649.0725"
     inkscape:document-units="mm"
     inkscape:current-layer="layer1"
     showgrid="false"
     fit-margin-top="50"
     fit-margin-left="50"
     fit-margin-right="50"
     fit-margin-bottom="50"
     inkscape:pagecheckerboard="true"
     inkscape:snap-global="true"
     inkscape:window-width="1920"
     inkscape:window-height="1017"
     inkscape:window-x="-9"
     inkscape:window-y="-9"
     inkscape:window-maximized="1" />
  <metadata
     id="metadata5384">
    <rdf:RDF>
      <cc:Work
         rdf:about="">
        <dc:format>image/svg+xml</dc:format>
        <dc:type
           rdf:resource="http://purl.org/dc/dcmitype/StillImage" />
        <dc:title />
      </cc:Work>
    </rdf:RDF>
  </metadata>
  <g
     inkscape:label="Calque 1"
     inkscape:groupmode="layer"
     id="layer1"
     transform="translate(1604.9493,424.6347)"
     style="opacity:1">
    <path
       style="opacity:1;fill:#ffffff;fill-opacity:1;stroke:none;stroke-width:0.13679881;stroke-linecap:round;stroke-linejoin:round;stroke-miterlimit:4;stroke-dasharray:none;stroke-dashoffset:0;stroke-opacity:1;paint-order:fill markers stroke"
       d="m -1422.6576,-374.6347 a 132.29167,132.29167 0 0 0 -132.2917,132.29167 132.29167,132.29167 0 0 0 132.2917,132.29167 132.29167,132.29167 0 0 0 132.2916,-132.29167 132.29167,132.29167 0 0 0 -132.2916,-132.29167 z m 6.229,12.02614 v 0.002 c 62.739,3.20034 113.1571,54.69296 114.0992,118.40621 0.9819,66.40349 -52.1476,121.12772 -118.551,122.10963 -66.4034,0.98183 -121.1268,-52.14753 -122.1087,-118.551 -0.6759,-45.71459 24.2937,-85.89387 61.5849,-106.81331 v -8.9e-4 c 0.044,-0.0201 0.055,-0.0376 0.1965,-0.005 2.137,0.74069 3.2683,3.4882 4.117,6.97707 0.1042,0.4289 0.2559,0.63668 -0.2392,0.94723 -34.3898,19.3804 -57.3471,56.47298 -56.7218,98.76254 0.3805,25.72776 9.4301,49.27341 24.3277,67.90382 2.6358,-26.34523 16.2407,-47.95637 34.5512,-56.49827 0.017,-2.0415 0.092,-4.12438 0.2318,-6.22687 -0.2218,0.21555 -0.4405,0.49034 -0.6699,0.64168 -0.4403,0.29069 -0.9639,0.47944 -1.5123,0.39256 -0.5483,-0.0874 -0.9899,-0.45426 -1.2584,-0.85041 -0.2472,-0.36498 -0.4113,-0.77455 -0.5251,-1.22647 -0.2267,-0.1138 -0.4282,-0.2149 -0.5232,-0.26275 -0.01,-0.003 -0.01,-0.003 -0.011,-0.005 0,-0.002 0,-0.002 -0.01,-0.005 0,-0.002 0,-0.002 -0.01,-0.005 0,-0.003 -0.011,-0.003 -0.01,-0.003 0,-0.003 0,-0.003 0,-0.003 -0.01,-0.005 -0.016,-0.009 -0.024,-0.0127 -0.016,-0.009 0,-4.7e-4 -0.027,-0.0147 10e-5,0 -0.026,-0.0122 -0.031,-0.0149 0,0 0,9e-5 0,0 -0.012,-0.007 -0.021,-0.0106 -0.028,-0.0142 0,-0.002 0,-9e-4 -0.018,-0.008 0,-0.002 -0.01,-0.004 -0.019,-0.01 0,-8.2e-4 -0.028,-0.0176 -0.042,-0.0267 -11.2984,-5.64962 -20.3635,-11.769 -26.3773,-17.95234 -6.0525,-6.22314 -9.1442,-12.67477 -7.7273,-18.73976 0.5518,-2.3624 1.7729,-4.50385 3.5143,-6.37583 4.6058,-5.63909 12.2268,-9.2563 20.3583,-12.62855 8.1495,-3.37972 16.8563,-6.49016 23.6099,-10.66728 6.7536,-4.17712 11.4639,-9.23623 12.2473,-16.79545 0.7831,-7.5557 -2.468,-17.96348 -12.5909,-32.55479 -0.7082,-0.67316 -1.3047,-1.40884 -1.4178,-2.44778 -0.1255,-1.1527 0.6841,-2.30998 1.7196,-2.87837 0.101,-0.0554 0.2084,-0.0985 0.3196,-0.12835 3.9235,-1.05591 8.0154,-1.5376 12.1834,-1.51886 v -8.9e-4 c 12.5039,0.0562 25.6921,4.62004 37.0705,11.72265 15.1712,9.47015 27.2356,23.49339 29.9232,38.07604 2.9444,15.97641 15.1495,27.74334 27.8468,38.34302 12.6973,10.59967 25.8973,19.85661 30.0188,31.69123 0,0.005 0,0.01 0.01,0.0142 0.9288,2.75912 2.0599,5.85146 1.2101,9.4893 -1.3588,5.81659 -6.6057,10.12485 -14.2396,13.02528 -2.9527,1.12191 -6.2908,2.04541 -9.9593,2.77544 8.6715,10.7622 14.5813,25.40241 16.197,41.88704 15.6627,-19.50522 24.8759,-44.38506 24.4767,-71.38343 -0.7769,-52.54348 -37.7056,-95.99069 -86.7827,-107.038 -0.3723,-0.0838 -0.5401,-0.17455 -0.9505,-0.49971 -3.4383,-3.24927 -11.1292,-6.82346 -17.5805,-10.16903 -0.5008,-0.22477 -0.3952,-0.83702 0.1528,-0.83157 z m -37.7604,5.81379 c -2.4242,0.003 -4.8093,0.18763 -7.1334,0.56491 15.5761,4.76264 40.4456,37.07505 42.3947,49.5632 1.0915,4.27875 4.1547,23.25559 -14.8359,19.39257 -23.4163,-4.76327 -41.3308,-3.34283 -63.4182,0.65507 -5.5822,2.63642 -7.8898,4.73432 -10.8588,8.38586 -0.021,0.0264 -0.043,0.0521 -0.065,0.077 -1.4703,1.57088 -2.4113,3.25597 -2.8417,5.09859 -1.0976,4.69826 1.2857,10.2064 6.9865,16.0678 5.5302,5.68623 14.0775,11.54685 24.8114,16.98816 0.028,-0.81129 0.1027,-1.68072 0.2228,-2.58974 0.056,-0.42393 0.1238,-0.85697 0.1989,-1.29417 -8.9986,-4.17354 -15.935,-8.61947 -20.4603,-13.13201 -4.6052,-4.59224 -6.8019,-9.42483 -5.6082,-13.98665 0.9927,-3.79333 4.2457,-6.69104 8.952,-8.7686 4.7063,-2.07757 10.9601,-3.40798 18.4295,-4.04612 3.7346,-0.31908 7.7744,-0.46382 12.0695,-0.42962 12.8856,0.10246 28.0785,1.80597 44.2996,5.1799 21.6746,4.50817 43.5059,12.95808 59.5654,21.98433 8.0297,4.51313 14.6147,9.16224 19.0457,13.60856 4.431,4.44599 6.8982,8.81114 5.8498,12.8175 -0.5716,2.18433 -2.1301,3.98431 -4.2458,5.4559 -2.1157,1.4716 -4.8231,2.6547 -7.9403,3.6338 -2.3828,0.74829 -5.0083,1.37404 -7.7862,1.89074 0.8376,0.82317 1.6554,1.67961 2.4534,2.56621 4.1852,-0.74595 7.9135,-1.72938 11.0946,-2.93809 7.1597,-2.72021 11.3997,-6.47407 12.4523,-10.97993 0.637,-2.72662 -0.1918,-5.10804 -1.1306,-7.89663 v -0.003 c -3.6279,-10.41604 -16.3401,-19.7341 -29.1414,-30.42055 -12.8018,-10.6869 -25.6825,-22.91661 -28.8378,-40.03726 -2.4646,-13.37285 -13.95,-26.99716 -28.6107,-36.14865 -10.961,-6.84207 -23.6325,-11.1566 -35.4261,-11.25776 v 1e-4 c -0.162,-0.001 -0.3238,-0.002 -0.4854,-0.002 z m -12.7533,74.9748 c -0.1074,9.1e-4 -0.2121,0.002 -0.319,0.003 -0.427,0.78215 -1.1703,1.8805 -2.0097,3.14963 -0.8863,1.34007 -1.8611,2.83169 -2.5676,4.10156 -0.3532,0.63493 -0.6385,1.21653 -0.809,1.666 -0.054,0.14254 -0.033,0.11902 -0.059,0.22987 0.2481,-0.0656 0.4481,-0.0919 0.9769,-0.35586 0.7089,-0.35347 1.5177,0.25206 1.3783,1.03183 -1.0522,5.86792 -0.789,12.01147 1.0539,14.62222 0.4119,0.58466 0.066,1.39843 -0.6412,1.50712 -1.6249,0.24952 -3.2671,2.02507 -4.5401,4.65577 -1.273,2.63073 -2.1559,5.98104 -2.5376,8.86876 -0.1906,1.44383 -0.2562,2.77465 -0.1988,3.82325 0.057,1.04317 0.2901,1.81517 0.4268,2.0214 0.028,-0.0141 0.066,-0.0349 0.1152,-0.0672 0.3734,-0.24649 1.1364,-1.09246 2.035,-2.6339 0.522,-0.89324 1.8931,-0.44796 1.7906,0.5815 -1.1759,11.77266 -0.048,23.41753 1.8588,30.32185 0.4767,1.72605 1.0032,3.15509 1.5292,4.1904 0.5259,1.03529 1.0826,1.64679 1.3797,1.81126 0.1485,0.082 0.2,0.0795 0.2675,0.0668 0.067,-0.0127 0.1953,-0.0591 0.3925,-0.2557 0.3945,-0.39353 0.9557,-1.36812 1.4662,-2.94842 0.289,-0.8863 1.5429,-0.8863 1.832,0 1.447,4.40869 3.87,14.99003 6.3434,22.54041 0.6183,1.88758 1.239,3.58105 1.8333,4.91528 0.5943,1.33415 1.1988,2.31588 1.5913,2.70112 0.1019,0.0998 0.1773,0.14942 0.2209,0.17443 0.01,-0.0118 0,-0.009 0.031,-0.0386 0.2361,-0.25373 0.7475,-1.32455 1.139,-3.20412 0.1835,-0.87096 1.3489,-1.0485 1.7835,-0.27173 2.7683,4.97223 7.5388,15.27258 11.4937,22.22073 0.9888,1.73704 1.9255,3.26212 2.7492,4.42125 0.8237,1.15919 1.586,1.95025 1.9527,2.17323 0.01,0.009 0.01,0.009 0.015,0.009 0.1712,-0.41054 0.3415,-1.69129 0.2336,-3.72498 -0.044,-0.85156 0.9579,-1.33686 1.5983,-0.77378 1.8401,1.62116 3.0619,3.4217 4.5284,4.72628 1.4666,1.30449 3.1146,2.20052 6.1347,2.20052 3.0202,0 4.6677,-0.89603 6.1343,-2.20052 1.4665,-1.30458 2.6883,-3.10512 4.5283,-4.72628 0.6405,-0.56388 1.6437,-0.0783 1.5988,0.77378 -0.1078,2.03369 0.062,3.31444 0.2332,3.72498 0.01,0 0.01,-1.6e-4 0.015,-0.009 0.3667,-0.22298 1.129,-1.01404 1.9527,-2.17323 0.8237,-1.15913 1.7604,-2.68421 2.7491,-4.42125 3.955,-6.94815 8.7255,-17.2485 11.4938,-22.22073 0.4348,-0.77588 1.599,-0.59846 1.783,0.27173 0.3915,1.87957 0.9034,2.95039 1.1395,3.20412 0.028,0.0322 0.022,0.0277 0.031,0.0386 0.044,-0.0246 0.1186,-0.0746 0.2205,-0.17443 0.3925,-0.38524 0.9974,-1.36697 1.5917,-2.70112 0.5944,-1.33423 1.2151,-3.0277 1.8334,-4.91528 2.4733,-7.55038 4.8964,-18.13172 6.3434,-22.54041 0.2895,-0.88537 1.542,-0.88537 1.8315,0 0.5105,1.5803 1.0726,2.55489 1.4671,2.94842 0.1973,0.19669 0.325,0.24342 0.3926,0.2557 0.067,0.0127 0.118,0.0151 0.2666,-0.0668 0.297,-0.16447 0.8542,-0.77597 1.3801,-1.81126 0.526,-1.03531 1.0525,-2.46435 1.5292,-4.1904 1.9072,-6.90432 3.0342,-18.54919 1.8583,-30.32185 -0.1036,-1.03054 1.2696,-1.4764 1.791,-0.5815 0.949,1.62789 1.7567,2.4748 2.0933,2.67106 0.041,0.0238 0.04,0.0216 0.058,0.031 0.014,-0.0209 0.03,-0.0464 0.05,-0.0846 0.1796,-0.34192 0.378,-1.28138 0.3953,-2.48212 0.018,-1.20072 -0.1055,-2.6798 -0.3643,-4.24677 -0.5176,-3.13394 -1.5923,-6.63199 -3.058,-9.09392 -0.7327,-1.23097 -1.5615,-2.19295 -2.3979,-2.74961 -0.8365,-0.55667 -1.6324,-0.74503 -2.5925,-0.51474 -0.7696,0.18429 -1.4209,-0.58632 -1.1109,-1.31437 0.9462,-2.22376 1.2959,-3.57855 1.4263,-4.62622 -0.5605,-0.25612 -1.1246,-0.51038 -1.6928,-0.76387 0.1217,0.27552 0.2066,0.58851 0.2252,0.94159 0.055,1.02799 -1.4876,1.10893 -1.5405,0.0808 -0.028,-0.53788 -0.2238,-0.69211 -0.4466,-0.83063 -0.2228,-0.13854 -0.4264,-0.16503 -0.4264,-0.16503 -0.5925,-0.0601 -0.8959,-0.74097 -0.5444,-1.22177 -0.926,-0.39748 -1.8606,-0.79108 -2.8041,-1.18039 -0.074,1.06617 -0.3677,2.25294 -0.7911,3.55248 1.2438,-0.15885 2.4344,-0.22385 3.5125,-0.26797 0.022,-0.003 0.045,-0.003 0.067,-0.003 1.2363,0.0395 1.247,1.87156 0.011,1.92551 -1.3602,0.0556 -2.8331,0.14682 -4.3239,0.40472 -0.014,0.0368 -0.026,0.0716 -0.04,0.10861 1.9357,7.81244 0.4425,16.5365 -1.9325,22.90713 -0.2362,0.63322 -1.034,0.83282 -1.5405,0.38546 -0.7179,-0.63491 -1.2693,-0.92793 -1.5701,-1.00417 -0.3008,-0.0762 -0.3165,-0.0509 -0.465,0.0766 -0.2969,0.25519 -0.7889,1.47944 -1.0741,3.12328 -0.2852,1.64401 -0.4841,3.66553 -0.8133,5.59834 -0.2933,1.72231 -0.7231,3.33158 -1.4695,4.66188 1.3438,2.31969 2.1023,4.8673 2.4196,7.54123 0.1863,1.56987 1.2382,6.97436 1.5659,10.78065 0.082,0.95162 0.1212,1.80871 0.082,2.53045 -0.039,0.72168 -0.01,1.32329 -0.62,1.93115 -0.3068,0.3039 -0.9158,0.44625 -1.3243,0.32438 -0.4085,-0.1219 -0.6705,-0.34912 -0.9369,-0.61866 -0.094,-0.0949 -0.2154,-0.33883 -0.3103,-0.4508 -0.2254,1.48176 -0.5463,2.95945 -1.3012,4.07191 -0.2967,0.43718 -0.6869,0.83202 -1.2119,1.06101 -0.525,0.22907 -1.1562,0.2452 -1.7407,0.0625 -1.1691,-0.36568 -2.254,-1.35003 -3.6084,-3.09034 -0.014,-0.018 -0.028,-0.0365 -0.041,-0.0555 -0.8937,-1.3356 -1.4343,-2.75715 -1.7633,-4.2059 -1.3016,2.61562 -2.8483,4.63638 -4.826,5.6223 -1.3875,0.69172 -3.0001,0.79953 -4.5984,0.20215 -1.5351,-0.57363 -3.0672,-1.77632 -4.6535,-3.57413 -0.7905,-0.40807 -1.2307,-0.47528 -2.0524,-0.45362 -0.8553,0.0227 -2.0944,0.17908 -4.0846,0.17908 -1.9902,0 -3.2299,-0.15644 -4.0851,-0.17908 -0.8218,-0.0218 -1.2619,0.0455 -2.0524,0.45362 -1.5863,1.79781 -3.1185,3.0005 -4.6535,3.57413 -1.5984,0.59738 -3.2109,0.48957 -4.5984,-0.20215 -1.9777,-0.98594 -3.5239,-3.00668 -4.8255,-5.6223 -0.329,1.44875 -0.8701,2.8703 -1.7638,4.2059 -0.013,0.019 -0.027,0.0375 -0.042,0.0555 -1.3545,1.74029 -2.4389,2.72466 -3.608,3.09034 -0.5845,0.18284 -1.2162,0.16667 -1.7412,-0.0625 -0.525,-0.22899 -0.9142,-0.62383 -1.2109,-1.06101 -0.755,-1.11246 -1.0763,-2.59012 -1.3017,-4.07191 -0.095,0.11197 -0.2161,0.35592 -0.3098,0.4508 -0.2665,0.26954 -0.5293,0.49676 -0.9378,0.61866 -0.4086,0.12187 -1.0171,-0.0209 -1.3238,-0.32438 -0.6142,-0.60786 -0.5817,-1.20947 -0.6206,-1.93115 -0.039,-0.72172 6e-4,-1.57883 0.082,-2.53045 0.3276,-3.80629 1.38,-9.21078 1.5663,-10.78065 0.3173,-2.67393 1.0754,-5.22156 2.4191,-7.54123 -0.7464,-1.3303 -1.1756,-2.93957 -1.469,-4.66188 -0.3292,-1.93281 -0.5285,-3.95433 -0.8137,-5.59834 -0.2852,-1.64384 -0.7767,-2.86809 -1.0737,-3.12328 -0.1485,-0.12753 -0.1647,-0.15293 -0.4654,-0.0766 -0.3008,0.0762 -0.8522,0.36926 -1.5701,1.00417 -0.5065,0.44688 -1.3038,0.24737 -1.54,-0.38546 -2.3564,-6.32119 -3.2552,-15.43818 -2.7299,-23.1323 -1.2314,-0.17035 -2.4397,-0.24247 -3.5699,-0.28868 -1.237,-0.0352 -1.2531,-1.86852 -0.017,-1.92546 0.032,0 0.064,-10e-6 0.095,0.003 0.9445,0.0387 1.9753,0.0936 3.0523,0.21296 -1.6069,-5.07838 -1.4621,-8.14643 -0.5105,-12.56555 -0.1301,0.0433 -0.3182,0.16153 -0.4409,0.19228 -0.6196,0.15504 -1.3347,0.19615 -1.862,-0.34741 -0.5273,-0.54356 -0.4503,-1.21532 -0.323,-1.72242 0.1273,-0.50712 0.36,-1.00991 0.6572,-1.55128 0.8013,-1.45956 2.068,-3.14608 3.2507,-4.46775 -2.1017,-0.0755 -4.149,-0.11222 -6.1328,-0.10768 z m 8.7078,0.21892 c -1.1435,1.07418 -3.2073,3.58863 -4.1378,5.28335 -0.1553,0.28293 -0.2101,0.46181 -0.2957,0.6755 0.3532,-0.11923 0.7623,-0.26667 1.431,-0.63557 0.7322,-0.40346 1.5956,0.25328 1.4023,1.06665 -1.3899,5.83357 -1.7602,8.11209 0.3742,14.28703 1.8113,0.36439 3.6822,0.98685 5.4545,2.08721 0.5586,-5.5113 5.2295,-9.83102 10.8849,-9.83102 v 0 c 5.7057,0 10.4074,4.39748 10.8967,9.9791 0.5885,-0.006 1.19,0 1.7821,-0.003 h 0.01 c 1.0109,0.0173 1.2873,-0.16951 1.494,-0.39063 0.2067,-0.22109 0.3745,-0.68207 0.6581,-1.33409 0.2837,-0.65208 0.7582,-1.4817 1.6914,-2.04681 0.931,-0.56382 2.2199,-0.85624 4.1128,-0.83632 1.8929,-0.0198 3.1823,0.2725 4.1134,0.83632 0.9332,0.56511 1.4073,1.39473 1.6909,2.04681 0.2836,0.65202 0.4514,1.113 0.6581,1.33409 0.2067,0.22112 0.4831,0.40792 1.494,0.39063 h 0.01 c 0.592,0.003 1.1936,-0.003 1.7821,0.003 0.4893,-5.58165 5.1909,-9.9791 10.8967,-9.9791 5.6556,0 10.3266,4.31998 10.885,9.83149 1.6077,-0.99817 3.2962,-1.6022 4.9482,-1.97813 0.6733,-2.00189 1.0188,-3.68362 1.0097,-4.72632 -2.3407,-0.93982 -4.7274,-1.85255 -7.152,-2.73171 -0.016,0.007 -0.026,0.0139 -0.045,0.0221 -0.245,0.10469 -0.4684,0.14684 -1.0314,0.25993 -0.4099,0.0823 -0.829,0.15017 -1.25,0.21202 -0.2049,0.0304 -0.4135,-0.0229 -0.5787,-0.14808 -1.8862,-1.43228 -4.227,-2.28323 -6.766,-2.28414 v 0 c 0,9.1e-4 -0.01,8.7e-4 -0.015,0.002 -2.63,0.004 -5.034,0.9205 -6.9395,2.452 -0.1439,0.11557 -0.3246,0.17563 -0.5091,0.16927 -1.4764,-0.0497 -2.7229,-0.0707 -3.5346,-0.0169 0,9.1e-4 0,8.8e-4 -0.01,0.002 -0.064,0.004 -0.1288,9e-4 -0.1903,-0.005 -1.0913,-0.10007 -1.8897,-0.84558 -2.2786,-1.67258 -0.3679,-0.78241 -0.4728,-1.62685 -0.5138,-2.42611 0,-9.1e-4 10e-5,-0.002 0,-0.002 -0.022,-0.41891 0.1674,-0.8186 0.4992,-1.06806 v 0 c 0.9459,-0.70836 1.8027,-1.25899 2.9328,-1.77034 -3.0516,-0.78711 -6.1161,-1.50604 -9.1747,-2.14223 -13.1641,-2.73807 -25.6407,-4.35738 -36.6911,-4.91245 z m 3.3194,0.93745 c 0.086,-3.6e-4 0.1746,-3.4e-4 0.2642,0 l 6e-4,2.9e-4 c 0.2389,9.1e-4 0.489,0.005 0.7498,0.0104 v 8.9e-4 c 2.1585,0.0501 4.9798,0.25957 7.9648,0.62148 5.9659,0.72327 12.4781,1.91967 15.8713,4.13726 v 0 c 0.3435,0.22557 0.5604,0.61107 0.5632,1.03846 0.01,0.7996 -0.039,1.64874 -0.3554,2.45196 -0.335,0.84931 -1.0826,1.64301 -2.1634,1.81365 -0.062,0.01 -0.1286,0.0169 -0.1946,0.0169 0,1e-5 0,1e-5 0,0 -0.8134,-0.002 -2.0569,0.0977 -3.5271,0.24162 -0.1834,0.0179 -0.3672,-0.0304 -0.518,-0.13634 -1.9992,-1.40675 -4.4566,-2.16976 -7.0815,-2.00537 -0.01,9.1e-4 -0.014,8.7e-4 -0.021,0.002 -2.5324,0.16338 -4.8136,1.16008 -6.6038,2.70916 -0.1564,0.13597 -0.3609,0.2032 -0.5674,0.18665 -0.424,-0.0349 -0.847,-0.0765 -1.2612,-0.13257 -2.2068,-0.29837 -4.1881,-0.87912 -5.5401,-2.21039 0,-9.1e-4 0,-0.002 0,-0.003 -0.049,-0.0485 -0.094,-0.10135 -0.1364,-0.16076 0,-9.1e-4 0,-0.002 0,-0.003 0,-9.1e-4 0,-9.3e-4 0,-0.002 -1.3228,-1.84781 -1.8737,-3.40333 -1.9471,-4.71359 -0.074,-1.31644 0.3638,-2.31149 0.7028,-2.89863 0,-9.1e-4 0,-8.7e-4 0,-0.002 0.032,-0.0557 0.062,-0.097 0.074,-0.11378 0.3383,-0.46165 0.9065,-0.60484 1.0812,-0.64732 v -0.002 c 0.2753,-0.0668 0.574,-0.10281 0.9031,-0.13211 0.01,-0.002 0.017,-0.004 0.025,-0.005 v 0.002 c 0.014,-9.1e-4 0.023,-0.004 0.037,-0.005 0.03,-0.003 0.059,-0.003 0.089,-0.002 0.4627,-0.0365 0.9946,-0.0562 1.6006,-0.0588 z m 0.2285,1.54095 v 4.2e-4 c -0.7145,-0.004 -1.3206,0.0154 -1.7892,0.055 -0.3133,0.0261 -0.5584,0.0621 -0.731,0.10392 -0.1343,0.0326 -0.1729,0.0298 -0.1823,0.0263 0,0.004 -10e-5,0.0134 -0.014,0.0334 -0.2545,0.44498 -0.54,1.08752 -0.488,2.0167 0.053,0.94367 0.4608,2.21177 1.6487,3.87874 0.9613,0.93809 2.6023,1.49546 4.6492,1.77222 0.3026,0.041 0.6268,0.0703 0.9514,0.0992 1.9875,-1.61569 4.4443,-2.70036 7.1826,-2.87555 0.013,-9.1e-4 0.027,-0.002 0.04,-0.002 0.019,0 0.027,3e-5 0.04,9.3e-4 2.835,-0.16297 5.4856,0.67172 7.6893,2.13466 1.3579,-0.13104 2.5456,-0.23224 3.4274,-0.23315 v 0 c 0.4718,-0.0739 0.7926,-0.4051 0.9712,-0.85792 0.1789,-0.4536 0.2244,-1.06585 0.228,-1.70504 -2.8749,-1.79908 -9.2573,-3.12266 -15.0593,-3.82608 -2.94,-0.35645 -5.7256,-0.56168 -7.8153,-0.61016 v -9.4e-4 c -0.2613,-0.006 -0.5116,-0.01 -0.7498,-0.0108 z m 44.8646,5.24859 v 4e-5 c -2.1312,0.69058 -3.1056,1.27264 -4.4099,2.23905 0.044,0.6434 0.1308,1.25536 0.3399,1.69982 0.2071,0.44055 0.5487,0.7499 1.0242,0.79357 0,-2e-5 0,2e-5 0,0 0.8801,-0.0556 2.0725,-0.0314 3.4359,0.0126 1.9674,-1.49487 4.3603,-2.46726 6.9818,-2.60336 -2.4401,-0.75463 -4.9006,-1.47101 -7.3734,-2.14175 z m -33.1927,7.55011 c -5.1085,-1.4e-4 -9.2499,3.89201 -9.25,8.69343 -10e-5,4.80159 4.1413,8.6939 9.25,8.6939 5.1086,-7e-5 9.2501,-3.89242 9.25,-8.6939 -10e-5,-4.80128 -4.1416,-8.69338 -9.25,-8.69343 z m 41.078,0 c -5.1083,5e-5 -9.2494,3.89215 -9.2495,8.69343 -10e-5,4.80148 4.141,8.69383 9.2495,8.6939 5.1087,1.2e-4 9.2505,-3.89231 9.2505,-8.6939 -2e-4,-4.80142 -4.1419,-8.69343 -9.2505,-8.69343 z m -63.3824,2.43814 c 1.0079,-0.0188 1.0651,1.48235 0.059,1.54048 0,0 -0.204,0.0264 -0.4268,0.16498 -0.2229,0.13851 -0.4183,0.2923 -0.4466,0.83016 -0.052,1.02873 -1.5962,0.94773 -1.5405,-0.0808 0.054,-1.01976 0.6378,-1.72657 1.1733,-2.05944 0.5355,-0.33294 1.07,-0.38692 1.07,-0.38692 0.018,-0.003 0.036,-0.005 0.054,-0.005 0.01,-9.1e-4 0.021,-8.8e-4 0.032,-0.002 0.01,0 0.017,-9.4e-4 0.026,-9.4e-4 z m 19.2592,0.7867 c 0.7166,-4.8e-4 1.4149,0.0857 2.0796,0.19224 1.0305,0.15132 0.7828,1.70059 -0.2435,1.52309 -1.6852,-0.27005 -3.1348,-0.37683 -4.6647,0.61444 -0.8644,0.57209 -1.7138,-0.73569 -0.8396,-1.29276 0.9816,-0.63606 1.9758,-0.91802 2.9456,-1.00553 0.2425,-0.0218 0.4836,-0.0314 0.7226,-0.0315 z m 47.1689,0 v 5e-5 c 0.2389,9e-5 0.4796,0.01 0.7221,0.0314 0.9698,0.0875 1.9639,0.36951 2.9456,1.00558 0.8912,0.55301 0.029,1.88157 -0.8391,1.29275 -1.5298,-0.99126 -2.98,-0.88449 -4.6652,-0.61443 -1.0019,0.14353 -1.2398,-1.34768 -0.243,-1.52309 0.6647,-0.10648 1.3629,-0.1932 2.0796,-0.19229 z m -23.5844,1.70739 c -1.7009,0 -2.6149,0.27214 -3.1173,0.57634 -0.5023,0.30416 -0.6935,0.64714 -0.9199,1.1677 -0.2264,0.52052 -0.4122,1.23342 -1.0182,1.88177 -0.6062,0.64833 -1.6014,1.02554 -2.9344,1.00271 -0.5851,0 -1.1767,9.1e-4 -1.7586,-0.003 -0.4895,5.58141 -5.1901,9.97909 -10.8957,9.97909 -5.7059,0 -10.4075,-4.39748 -10.8968,-9.97909 -0.2078,0.01 -0.4133,-0.0476 -0.5857,-0.16405 -1.465,-0.99429 -3.0509,-1.59541 -4.6431,-1.97066 -0.4383,6.9606 0.4043,15.17042 2.3204,20.98679 0.3769,-0.2268 0.7711,-0.5956 1.1493,-0.69148 0.7811,-0.19798 1.6323,0.002 2.1931,0.48373 1.1215,0.96367 1.4138,2.49968 1.7181,4.25382 0.3043,1.75406 0.5008,3.76792 0.8138,5.60539 0.2037,1.19586 0.4942,2.22443 0.8287,3.11764 0.5169,-0.64523 1.0452,-1.28648 1.7027,-1.87332 0.7915,-0.83263 1.9637,-1.17641 3.5186,-1.4888 1.5654,-0.31439 3.5311,-0.51858 5.8202,-0.65859 4.5782,-0.2801 10.4397,-0.29474 16.7062,-0.29474 6.2664,0 12.1278,0.0145 16.7061,0.29474 2.2891,0.14001 4.2543,0.3442 5.8197,0.65859 1.5549,0.31239 2.7272,0.65617 3.5186,1.4888 0.6575,0.58684 1.1858,1.22809 1.7027,1.87332 0.3345,-0.89321 0.6256,-1.92178 0.8293,-3.11764 0.3129,-1.83747 0.5089,-3.85133 0.8132,-5.60539 0.3044,-1.75414 0.5967,-3.29015 1.7182,-4.25382 0.5608,-0.48099 1.412,-0.68171 2.193,-0.48373 0.3849,0.0976 0.7852,0.47101 1.1691,0.70416 2.0565,-6.0159 3.2706,-13.92574 1.5297,-20.80014 -1.3315,0.38021 -2.646,0.93764 -3.875,1.7718 -0.172,0.11767 -0.3775,0.17643 -0.5857,0.16733 -0.4911,5.57985 -5.1917,9.97534 -10.8963,9.97534 -5.7056,0 -10.4067,-4.39768 -10.8962,-9.97909 -0.5819,0.005 -1.1735,0.003 -1.7587,0.003 -1.3329,0.0228 -2.3275,-0.35438 -2.9338,-1.00271 -0.6061,-0.64835 -0.7918,-1.36125 -1.0182,-1.88177 -0.2265,-0.52056 -0.4181,-0.86354 -0.9204,-1.1677 -0.5024,-0.3042 -1.4158,-0.57634 -3.1167,-0.57634 z m 23.5591,1.06167 c 0.073,0 0.1446,6.6e-4 0.2153,0.002 0.1508,0.002 0.2967,0.008 0.4381,0.0142 2.2622,0.11009 3.4114,0.86868 3.9755,1.11363 0.9861,0.39099 0.3464,1.8662 -0.6129,1.41353 -0.8526,-0.37012 -1.4641,-0.8911 -3.4378,-0.98716 -1.9738,-0.096 -5.2491,0.30961 -10.8578,2.13184 -1.0035,0.37185 -1.5065,-1.17544 -0.4761,-1.46479 5.0196,-1.63089 8.2815,-2.18562 10.5338,-2.22119 v -10e-5 c 0.075,-0.001 0.149,-0.002 0.2219,-0.002 z m -47.1187,7.1e-4 c 2.2587,0.002 5.5691,0.53745 10.7561,2.22269 1.0272,0.29139 0.5253,1.83372 -0.4766,1.4648 -5.6087,-1.82224 -8.884,-2.22791 -10.8578,-2.13185 -1.9737,0.096 -2.5846,0.61704 -3.4372,0.98717 -0.9594,0.45266 -1.5992,-1.02254 -0.6131,-1.41354 0.5642,-0.24496 1.7128,-1.00358 3.9751,-1.11368 0.1414,-0.008 0.2873,-0.0115 0.4382,-0.0142 v 9e-5 c 0.071,-0.001 0.1424,-0.002 0.2153,-0.002 z m 21.0218,0.78008 c 0.5198,0.006 0.9459,0.42586 0.9521,0.95178 0,0 0.1123,3.7161 -0.2275,7.97321 -0.3398,4.25715 -0.9691,9.02525 -3.1219,11.56053 l -0.012,0.0159 -0.015,0.0142 c -0.3734,0.40404 -0.6041,1.35575 -0.06,2.22401 0.5437,0.8672 1.9267,1.81479 5.0225,1.84936 3.0957,-0.0346 4.4797,-0.98211 5.0234,-1.84936 0.5444,-0.86828 0.3137,-1.82 -0.06,-2.22401 l -0.014,-0.0142 -0.013,-0.0159 c -2.1527,-2.53528 -2.782,-7.30338 -3.1218,-11.56053 -0.3398,-4.25711 -0.2276,-7.97321 -0.2276,-7.97321 0.01,-0.53174 0.4456,-0.95591 0.9774,-0.94864 0.5431,0.008 0.9724,0.46288 0.9486,1.00553 0,0 -0.1082,3.62826 0.2219,7.76307 0.33,4.13481 1.2602,8.80685 2.6696,10.46659 l -0.027,-0.0301 c 1.032,1.11669 1.2693,2.97568 0.2787,4.55565 -0.9906,1.58004 -3.1441,2.71543 -6.6462,2.75191 h -0.01 -0.01 c -3.502,-0.0364 -5.6542,-1.17187 -6.6447,-2.75191 -0.9819,-1.56635 -0.7575,-3.40593 0.2519,-4.52559 1.4092,-1.66018 2.3392,-6.33219 2.6692,-10.46659 0.33,-4.13481 0.2219,-7.76311 0.2219,-7.76311 -0.025,-0.53389 0.3892,-0.98623 0.9233,-1.00788 h 4e-4 c 0.017,-7e-4 0.034,-9.3e-4 0.051,-7.5e-4 z m 16.433,3.78868 c 0.1125,0.002 0.2233,0.0292 0.3245,0.0791 l 2.7736,1.3139 c 0.9671,0.42585 0.2819,1.87146 -0.66,1.39244 l -2.7736,-1.31253 c -0.7404,-0.33524 -0.5249,-1.44001 0.2873,-1.47231 v -5e-5 c 0.016,-6.8e-4 0.032,-8.4e-4 0.048,-5.1e-4 z m -27.7653,5.6e-4 c 0.8236,0.01 1.0596,1.13127 0.3098,1.47231 l -2.7735,1.31253 c -0.944,0.48481 -1.6327,-0.96917 -0.6596,-1.39244 l 2.773,-1.3139 c 0.109,-0.0534 0.229,-0.0812 0.3503,-0.0785 z m 46.241,1.81864 c 0.013,0 0.026,7e-4 0.038,0.002 0.077,0.004 0.1535,0.0191 0.2262,0.0456 l 2.9682,1.02104 c 0.9863,0.3276 0.4768,1.80695 -0.5021,1.45774 l -2.9682,-1.02103 c -0.8155,-0.26317 -0.6571,-1.46125 0.1989,-1.50336 l -1e-4,4e-5 c 0.013,-0.001 0.026,-0.002 0.039,-0.002 z m -64.7594,0.002 c 0.012,-2.3e-4 0.024,-1.9e-4 0.036,1.5e-4 v -5e-5 c 0.8672,0.0192 1.0466,1.23442 0.2219,1.50336 l -2.9682,1.02103 c -0.9789,0.34921 -1.4884,-1.13013 -0.5021,-1.45774 l 2.9682,-1.02103 c 0.079,-0.0283 0.1611,-0.044 0.2444,-0.0457 z m 1.4165,3.65372 c 0.741,0.0365 1.0076,0.99635 0.3916,1.40982 l -3.6498,2.52999 c -0.8498,0.61425 -1.7514,-0.6872 -0.8777,-1.26687 l 3.6484,-2.5305 c 0.1201,-0.0855 0.2622,-0.1347 0.4094,-0.14197 h 0.077 z m 61.966,3.7e-4 c 0.012,-2.2e-4 0.024,-1.7e-4 0.036,1e-4 0.1555,0.003 0.3065,0.053 0.433,0.14337 l 3.6475,2.53051 c 0.8736,0.57966 -0.028,1.88112 -0.8777,1.26687 l -3.6493,-2.53003 c -0.63,-0.42241 -0.3334,-1.39703 0.4108,-1.41082 z m -77.9069,13.61157 h 0.054 c 0.4647,0.0129 0.8123,0.43121 0.7399,0.89039 0,0 -1.5363,10.60051 3.3692,24.54725 0.3755,0.98511 -1.1288,1.51496 -1.4536,0.51192 -5.0206,-14.27418 -3.4419,-25.27823 -3.4419,-25.27823 0.048,-0.37224 0.3573,-0.65568 0.7323,-0.67133 z m 46.9121,9.13955 c -6.2629,0 -12.1058,0.0173 -16.5876,0.29145 -2.241,0.1371 -4.1441,0.34186 -5.5594,0.62613 -1.4152,0.28437 -2.3258,0.73107 -2.5107,0.92849 -0.021,0.0221 -0.043,0.0434 -0.065,0.0634 -3.0964,2.73906 -4.3186,6.1528 -4.7888,10.11547 -0.2218,1.8684 -1.2498,7.11109 -1.5603,10.71807 -0.071,0.80707 -0.084,1.47723 -0.068,2.02421 0.2924,-0.38179 0.5714,-0.71462 1.0332,-1.53342 0.4572,-0.80838 1.6808,-0.56576 1.7949,0.35586 0.2543,2.08526 0.6957,4.76428 1.3271,5.69469 0.1578,0.2326 0.2945,0.33671 0.3868,0.37701 0.092,0.0408 0.1673,0.0628 0.3953,-0.009 0.4525,-0.14154 1.4068,-0.83539 2.6382,-2.40925 3.059,-4.60692 1.2317,-10.90684 1.3468,-16.1246 0,-0.0457 0.01,-0.0912 0.013,-0.13633 0.3059,-1.84921 0.7749,-3.24028 1.4803,-4.30089 0.7055,-1.06051 1.6706,-1.75043 2.7435,-2.11915 2.1457,-0.73747 4.6311,-0.41989 7.6874,-0.42262 h 0.01 c 4.5035,0.0364 7.0499,0.59888 10.2861,0.59888 3.2361,0 5.7821,-0.56267 10.2856,-0.59888 h 0.01 c 3.0562,0 5.5416,-0.31485 7.6873,0.42262 1.0729,0.36872 2.0385,1.05864 2.744,2.11915 0.7055,1.06061 1.1744,2.45168 1.4803,4.30089 0.01,0.0451 0.013,0.0907 0.013,0.13633 0.115,5.21776 -1.7122,11.51768 1.3468,16.1246 1.2314,1.57386 2.1857,2.26771 2.6382,2.40925 0.228,0.0711 0.3029,0.0482 0.3953,0.009 0.092,-0.04 0.229,-0.14441 0.3869,-0.37701 0.6314,-0.93041 1.0727,-3.60943 1.327,-5.69469 0.1141,-0.92166 1.3378,-1.16428 1.7949,-0.35586 0.4618,0.8188 0.7404,1.15163 1.0328,1.53342 0.016,-0.54698 0,-1.21714 -0.068,-2.02421 -0.3105,-3.60698 -1.3385,-8.84967 -1.5603,-10.71807 -0.4702,-3.96267 -1.6925,-7.37641 -4.7888,-10.11547 -0.023,-0.02 -0.045,-0.0413 -0.066,-0.0634 -0.1849,-0.19742 -1.095,-0.64412 -2.5102,-0.92849 -1.4153,-0.28427 -3.3184,-0.48903 -5.5594,-0.62613 -4.4818,-0.27409 -10.3248,-0.29145 -16.5876,-0.29145 z m 13.9999,6.03247 c -1.0817,-8.2e-4 -2.3218,0.0362 -3.7061,0.035 -4.338,0.0355 -6.8424,0.59888 -10.2917,0.59888 -3.4492,0 -5.9536,-0.56295 -10.2917,-0.59888 h -0.01 c -1.1831,0 -2.2616,-0.0266 -3.2253,-0.0338 l -10e-5,8.9e-4 h -0.9251 c -1.1842,0.0146 -2.1589,0.0946 -2.9028,0.35028 -0.744,0.2557 -1.2785,0.63058 -1.7662,1.36369 -0.2155,0.32405 -0.4156,0.73332 -0.597,1.22882 0.181,0.37824 0.7434,0.75152 2.3218,0.72441 2.2489,0.0373 2.4386,-0.737 2.5037,-0.73428 0.065,0 0.3063,0.73812 2.4938,0.70045 2.1883,0.0364 2.4286,-0.69904 2.5051,-0.69904 0.077,0 0.3566,0.70108 2.492,0.66423 2.1366,0.0355 2.4161,-0.6647 2.5066,-0.6647 0.09,1.8e-4 0.4051,0.66634 2.4905,0.63041 1.736,0.0291 2.2454,-0.42802 2.3678,-0.8419 0.044,-0.11472 0.068,0 0.068,0 0.1223,0.41361 0.6316,0.87054 2.3679,0.84143 2.0853,0.0355 2.4006,-0.63041 2.491,-0.63041 0.09,-1.6e-4 0.3695,0.70055 2.5061,0.6647 2.1354,0.0364 2.4155,-0.66376 2.4919,-0.66376 0.076,0 0.3169,0.73485 2.5051,0.69811 2.1875,0.0382 2.4288,-0.69726 2.4939,-0.69999 0.065,0 0.2548,0.77241 2.5037,0.73475 1.5878,0.0273 2.1476,-0.35094 2.3251,-0.73146 -0.1804,-0.49222 -0.3788,-0.8993 -0.5933,-1.22177 -0.4876,-0.73311 -1.024,-1.10799 -1.768,-1.36369 -0.837,-0.28769 -1.9659,-0.35129 -3.3566,-0.35234 z m 5.9605,10.94676 -9e-4,4.7e-4 c -2.2608,2.88323 -7.7411,5.26082 -19.9606,5.55878 4e-4,2e-5 9e-4,4e-5 0,5e-5 v 0 c 5e-4,-1e-5 9e-4,-3e-5 0,-5e-5 -12.2091,-0.2977 -17.6906,-2.67136 -19.955,-5.55122 0.069,1.02693 0.122,2.08015 0.1148,3.1463 1.4954,4.04773 3.4049,6.95083 5.3134,7.90226 0.9608,0.47904 1.9021,0.55676 3.065,0.12219 1.1628,-0.43465 2.5388,-1.4443 4.0606,-3.21399 0.078,-0.0905 0.172,-0.16575 0.2774,-0.22188 1.097,-0.58448 2.0691,-0.73986 3.0932,-0.71266 1.024,0.0273 2.1463,0.17908 4.0339,0.17908 1.8875,0 3.0092,-0.15188 4.0333,-0.17908 1.0241,-0.0273 1.9967,0.12818 3.0937,0.71266 0.1054,0.0561 0.1995,0.13136 0.2774,0.22188 1.5219,1.76969 2.8978,2.77934 4.0606,3.21399 1.1628,0.43457 2.1042,0.35685 3.065,-0.12219 1.9085,-0.95143 3.818,-3.85453 5.3134,-7.90226 -0.01,-1.06887 0.045,-2.12493 0.1148,-3.15433 z m 16.1476,7.80398 c 0.4651,-0.005 0.8287,0.39984 0.7738,0.86168 -0.8112,7.74459 -2.0668,12.54634 -3.3198,15.58261 -1.2531,3.03615 -2.5421,4.3273 -3.3151,4.90823 -0.8264,0.65748 -1.7871,-0.6202 -0.9261,-1.23164 0.5748,-0.43201 1.6455,-1.42323 2.8178,-4.26373 1.1723,-2.84049 2.4088,-7.50951 3.2098,-15.15576 0.036,-0.39414 0.3639,-0.69684 0.7596,-0.70139 z m -39.9545,4.26237 c 0.6285,-5.4e-4 0.9937,0.71175 0.6257,1.22177 -3.8337,5.45154 -7.533,7.39845 -10.3274,7.89376 -2.7944,0.49534 -4.7047,-0.50065 -4.7047,-0.50065 -0.9424,-0.474 -0.1882,-1.88071 0.7282,-1.3581 0,0 1.3588,0.75771 3.708,0.34125 2.3493,-0.41644 5.6675,-2.04774 9.3342,-7.26195 0.1435,-0.21017 0.3815,-0.33608 0.636,-0.33608 z m 7.6742,0 c 0.2624,-0.008 0.5106,0.1189 0.6587,0.33561 3.6667,5.21413 6.9853,6.84553 9.3346,7.262 2.3492,0.41636 3.7076,-0.3413 3.7076,-0.3413 0.9164,-0.52261 1.6706,0.88409 0.7282,1.3581 0,0 -1.9103,0.99596 -4.7047,0.50065 -2.7944,-0.49533 -6.4933,-2.44224 -10.327,-7.89381 -0.3617,-0.50146 -0.015,-1.20323 0.6026,-1.22125 z m -16.44,30.14047 c 0.5281,-0.005 0.9042,0.51117 0.7385,1.01257 -0.2893,0.91841 0.051,2.29056 0.9158,3.83313 0.8644,1.54263 2.1969,3.21095 3.5882,4.72914 2.7826,3.03633 5.776,5.47136 5.776,5.47136 0.8258,0.64536 -0.1725,1.87291 -0.9726,1.19593 0,0 -3.0625,-2.48572 -5.9396,-5.62512 -1.4386,-1.56975 -2.8362,-3.30257 -3.7974,-5.01778 -0.9612,-1.7152 -1.5418,-3.45685 -1.0399,-5.05015 0.097,-0.32338 0.3934,-0.54636 0.731,-0.54908 z"
       id="path816"
       inkscape:connector-curvature="0" />
  </g>
</svg>
