<?xml version="1.0" encoding="UTF-8" standalone="no"?>
<!-- Created with Inkscape (http://www.inkscape.org/) -->

<svg
   xmlns:dc="http://purl.org/dc/elements/1.1/"
   xmlns:cc="http://creativecommons.org/ns#"
   xmlns:rdf="http://www.w3.org/1999/02/22-rdf-syntax-ns#"
   xmlns:svg="http://www.w3.org/2000/svg"
   xmlns="http://www.w3.org/2000/svg"
   xmlns:sodipodi="http://sodipodi.sourceforge.net/DTD/sodipodi-0.dtd"
   xmlns:inkscape="http://www.inkscape.org/namespaces/inkscape"
   width="2747.5513mm"
   height="2745.8423mm"
   viewBox="0 0 2747.5512 2745.8423"
   version="1.1"
   id="svg5387"
   inkscape:version="0.92.2 (5c3e80d, 2017-08-06)"
   sodipodi:docname="AEIC-DesignCoeur.svg">
  <defs
     id="defs5381" />
  <sodipodi:namedview
     id="base"
     pagecolor="#ffffff"
     bordercolor="#666666"
     borderopacity="1.0"
     inkscape:pageopacity="0.0"
     inkscape:pageshadow="2"
     inkscape:zoom="0.061871843"
     inkscape:cx="7122.2893"
     inkscape:cy="4292.7426"
     inkscape:document-units="mm"
     inkscape:current-layer="layer1"
     showgrid="false"
     fit-margin-top="50"
     fit-margin-left="50"
     fit-margin-right="50"
     fit-margin-bottom="50"
     inkscape:pagecheckerboard="true"
     inkscape:snap-global="true"
     inkscape:window-width="1920"
     inkscape:window-height="1017"
     inkscape:window-x="-9"
     inkscape:window-y="-9"
     inkscape:window-maximized="1" />
  <metadata
     id="metadata5384">
    <rdf:RDF>
      <cc:Work
         rdf:about="">
        <dc:format>image/svg+xml</dc:format>
        <dc:type
           rdf:resource="http://purl.org/dc/dcmitype/StillImage" />
        <dc:title></dc:title>
      </cc:Work>
    </rdf:RDF>
  </metadata>
  <g
     inkscape:label="Calque 1"
     inkscape:groupmode="layer"
     id="layer1"
     transform="translate(289.63584,2437.4731)"
     style="opacity:1">
    <path
       style="opacity:1;fill:#009e9d;fill-opacity:1;stroke:none;stroke-width:26.47556496;stroke-linecap:round;stroke-linejoin:round;stroke-miterlimit:4;stroke-dasharray:none;stroke-dashoffset:0;stroke-opacity:1;paint-order:markers stroke fill"
       clip-path="none"
       d="m 1152.6585,-2387.4727 c -6.0274,-0.06 -7.1891,6.675 -1.6807,9.1474 70.9649,36.8013 155.5652,76.1174 193.3855,111.8593 4.5147,3.5768 6.3608,4.5752 10.4558,5.4968 539.8479,121.5204 946.0636,599.4397 954.6096,1177.418 4.3912,296.98194 -96.9535,570.66017 -269.2441,785.21763 -17.7727,-181.33093 -82.7806,-342.37325 -178.167,-460.75741 40.3543,-8.03033 77.0733,-18.18874 109.553,-30.52977 83.9728,-31.90467 141.6882,-79.29571 156.635,-143.27816 9.348,-40.01625 -3.0934,-74.03179 -13.31,-104.38209 -0.03,-0.05 -0.05,-0.103 -0.07,-0.1561 -45.3366,-130.1809 -190.536,-232.0073 -330.2066,-348.6036 -139.6707,-116.5965 -273.9265,-246.0328 -306.3151,-421.7733 -29.5634,-160.4092 -162.2722,-314.6647 -329.1553,-418.8363 -125.1623,-78.1287 -270.23244,-128.3311 -407.77546,-128.9494 v 0.01 c -45.84775,-0.2061 -90.85904,5.0926 -134.01693,16.7076 -1.2242,0.3282 -2.40477,0.8025 -3.51649,1.4117 -11.38952,6.2523 -20.29561,18.9824 -18.91542,31.6621 1.24411,11.4283 7.80609,19.5207 15.59566,26.9254 111.35257,160.5044 147.11495,274.99 138.50035,358.1027 -8.61751,83.1515 -60.43054,138.8016 -134.72019,184.7499 -74.29016,45.9483 -170.0647,80.1636 -259.70885,117.3405 -89.44612,37.0947 -173.27778,76.884 -223.94096,138.914 -19.15557,20.5918 -32.587412,44.1478 -38.658263,70.1343 -15.584845,66.7148 18.423293,137.6828 85.000823,206.1373 66.15166,68.0167 165.86837,135.3297 290.15056,197.4756 0.1511,0.1001 0.44029,0.2852 0.4603,0.2942 0.12708,0.06 0.16711,0.09 0.20614,0.109 0.15109,0.08 0.1561,0.07 0.19612,0.09 0.0801,0.04 0.17512,0.08 0.3052,0.1561 0,10e-4 0.03,0 0.03,0 0.05,0.03 0.34222,0.1641 0.34122,0.1641 0.32021,0.1561 0.12208,0.06 0.3002,0.1611 0.0901,0.04 0.1591,0.09 0.26517,0.1401 0.03,0 5e-4,0 0.03,0.03 -0.03,0 0.05,0 0.0901,0.03 0.04,0.03 0.06,0.03 0.0901,0.05 0.03,0.03 0.04,0.03 0.0801,0.05 0.06,0.03 0.05,0.03 0.12408,0.06 1.04548,0.5263 3.26122,1.6387 5.75525,2.8905 1.25231,4.97107 3.05659,9.47641 5.77616,13.49112 2.95282,4.35763 7.81058,8.39386 13.84271,9.35469 6.03252,0.95562 11.79147,-1.12073 16.63513,-4.31821 2.52294,-1.66479 4.929,-4.68745 7.36869,-7.0584 -1.5377,23.12726 -2.35813,46.03897 -2.54926,68.49549 -201.4164,93.96085 -351.07031,331.68309 -380.06318,621.48062 -163.874466,-204.9344 -263.42026,-463.93658 -267.60498,-746.94191 -6.87828,-465.1852 245.65199,-873.2033 623.93912,-1086.3877 5.44654,-3.4161 3.77806,-5.7016 2.63191,-10.4195 -9.33578,-38.3776 -21.78038,-68.6006 -45.28748,-76.7482 -1.55231,-0.3542 -1.67119,-0.1611 -2.1615,0.06 v 0.01 c -410.202905,230.1138 -684.86888,672.0858 -677.43324,1174.9463 10.80053,730.43811 612.75774,1314.86131 1343.19551,1304.06118 730.4376,-10.80103 1314.8615,-612.76745 1304.0612,-1343.20578 -10.3631,-700.8458 -564.9626,-1267.2649 -1255.0919,-1302.4686 z m -410.02464,63.9601 v 0.01 c 129.72974,1.1128 269.11584,48.5726 389.68724,123.8354 161.2674,100.6664 287.607,250.5337 314.7177,397.635 34.7081,188.3272 176.3961,322.8539 317.2156,440.4098 140.8146,117.551 280.6485,220.0497 320.5562,334.6261 v 0.03 c 10.3267,30.67432 19.4425,56.87008 12.4361,86.8629 -11.5786,49.56436 -58.219,90.85674 -136.9748,120.77911 -34.9928,13.29576 -76.0043,24.1137 -122.041,32.31904 -8.779,-9.75255 -17.7739,-19.17368 -26.9874,-28.22858 30.5563,-5.68369 59.4366,-12.56657 85.6475,-20.79783 34.2898,-10.77001 64.0709,-23.78438 87.3434,-39.97202 23.2726,-16.18744 40.417,-35.98692 46.7044,-60.01456 11.5323,-44.06989 -15.607,-92.08676 -64.348,-140.99266 -48.7407,-48.9096 -121.1765,-100.0498 -209.5032,-149.6942 -176.654,-99.2887 -416.798,-192.2376 -655.2187,-241.8275 -178.43236,-37.1132 -345.55384,-55.8522 -487.2953,-56.9793 -47.24695,-0.3762 -91.68407,1.2165 -132.76561,4.7263 -82.16268,7.0196 -150.95496,21.6536 -202.72426,44.5069 -51.76899,22.8532 -87.55208,54.7282 -98.47139,96.4548 -13.13135,50.1801 11.03318,103.3384 61.68995,153.853 49.7778,49.638 126.07847,98.5435 225.0632,144.4524 -0.82654,4.8092 -1.57103,9.5724 -2.18733,14.2356 -1.32166,9.9992 -2.14089,19.563 -2.45119,28.4872 -118.07336,-59.8544 -212.09285,-124.3214 -272.92575,-186.8699 -62.70792,-64.4754 -88.92448,-125.0644 -76.85162,-176.7453 4.73508,-20.2688 15.08602,-38.8052 31.25884,-56.0848 0.24917,-0.2742 0.48932,-0.5573 0.71847,-0.8475 32.65926,-40.1669 58.0426,-63.2435 119.44607,-92.2442 242.96217,-43.9769 440.02196,-59.6021 697.6005,-7.2061 208.89692,42.4932 175.20182,-166.2519 163.19582,-213.3182 -21.4409,-137.3697 -295.00547,-492.806 -466.34209,-545.195 27.26905,-4.4268 55.30289,-6.439 83.80655,-6.1948 z m -145.62599,824.7139 v 0.01 c 21.8228,-0.05 44.34286,0.3542 67.46081,1.1842 -13.00927,14.5384 -26.94284,33.0901 -35.75737,49.1453 -3.26943,5.955 -5.8288,11.486 -7.22911,17.0643 -1.39981,5.5781 -2.24726,12.9674 3.55251,18.9466 5.79998,5.9791 13.6674,5.5267 20.48223,3.8213 1.34948,-0.3382 3.41853,-1.6386 4.85036,-2.1149 -10.46821,48.6103 -12.06095,82.3589 5.61576,138.221 -11.84782,-1.3134 -23.1866,-1.9173 -33.57526,-2.3426 -0.34923,-0.03 -0.69945,-0.03 -1.04978,-0.03 v 0 c -13.59975,0.6264 -13.42234,20.7931 0.18512,21.1805 12.43189,0.5083 25.72334,1.3012 39.26886,3.1751 -5.77856,84.6353 4.10737,184.9221 30.02804,254.45516 2.5988,6.96113 11.3683,9.15596 16.94013,4.24026 7.89654,-6.98395 13.96269,-10.20712 17.27104,-11.04562 3.30866,-0.8395 3.48607,-0.5603 5.11933,0.8426 3.26683,2.80701 8.67365,16.27377 11.81069,34.35604 3.13744,18.08417 5.32957,40.32095 8.95093,61.58189 3.2271,18.94543 7.94927,36.64745 16.15932,51.28077 -14.78052,25.51641 -23.11955,53.53995 -26.60982,82.9533 -2.04944,17.26844 -13.62617,76.71773 -17.23002,118.58699 -0.89858,10.46791 -1.33307,19.89635 -0.90459,27.83531 0.42728,7.93847 0.0701,14.55628 6.82595,21.24263 3.37429,3.33807 10.06785,4.9086 14.56157,3.56812 4.49373,-1.34097 7.38511,-3.8403 10.31622,-6.80523 1.03037,-1.04368 2.36454,-3.72722 3.40762,-4.95892 2.48001,16.29971 6.01441,32.55409 14.31852,44.79115 3.26362,4.80903 7.54521,9.15236 13.32037,11.6712 5.77486,2.52124 12.72388,2.69865 19.15346,0.68744 12.85977,-4.02251 24.78834,-14.85066 39.68744,-33.99382 0.1611,-0.19813 0.3142,-0.40126 0.4603,-0.6104 9.83039,-14.69156 15.78257,-30.32884 19.40152,-46.26501 14.31752,28.77182 31.32589,50.99989 53.08035,61.84535 15.26264,7.60885 33.00078,8.79463 50.58293,2.22345 16.88479,-6.31001 33.7389,-19.53932 51.1878,-39.31519 8.6962,-4.48972 13.5372,-5.23001 22.5765,-4.99015 9.4078,0.24916 23.0444,1.97008 44.9363,1.97008 21.8918,0 35.5228,-1.71982 44.9308,-1.97008 9.0391,-0.23815 13.8803,0.50133 22.5765,4.99015 17.4488,19.77587 34.3028,33.00518 51.1879,39.31519 17.5819,6.57118 35.3202,5.3854 50.5828,-2.22345 21.7545,-10.84516 38.768,-33.07353 53.0855,-61.84535 3.6189,15.93617 9.5658,31.57345 19.3965,46.26501 0.1431,0.20914 0.2962,0.41227 0.4553,0.6104 14.8991,19.14336 26.833,29.97131 39.6927,33.99382 6.4295,2.00941 13.3734,1.8323 19.1482,-0.68744 5.7749,-2.51884 10.0668,-6.86217 13.331,-11.6712 8.3038,-12.23706 11.833,-28.49174 14.3132,-44.79115 1.0429,1.2317 2.382,3.91524 3.4129,4.95892 2.9309,2.96493 5.8125,5.46426 10.3056,6.80523 4.4941,1.34048 11.1923,-0.22514 14.5669,-3.56812 6.7505,-6.68635 6.3923,-13.30416 6.8207,-21.24263 0.4282,-7.93926 0,-17.3674 -0.9046,-27.83531 -3.6039,-41.86926 -15.1755,-101.31855 -17.2247,-118.58699 -3.4903,-29.41335 -11.8343,-57.43669 -26.6151,-82.9533 8.2101,-14.63332 12.9376,-32.33534 16.1647,-51.28077 3.6213,-21.26094 5.8084,-43.49772 8.9458,-61.58189 3.1368,-18.08227 8.5486,-31.54903 11.8155,-34.35604 1.6335,-1.4029 1.8056,-1.6812 5.1143,-0.8426 3.3084,0.8386 9.3744,4.06167 17.271,11.04562 5.5724,4.921 14.3477,2.72517 16.9455,-4.24026 26.125,-70.07696 42.5499,-166.04156 21.258,-251.97836 0.1531,-0.4072 0.2862,-0.7895 0.4393,-1.1945 16.3992,-2.8369 32.6009,-3.8408 47.5631,-4.4522 13.5933,-0.5934 13.4752,-20.7459 -0.1241,-21.1804 v 0 c -0.2432,0 -0.4893,0 -0.7345,0.03 -11.8587,0.4853 -24.9556,1.2002 -38.638,2.9475 4.6582,-14.2949 7.8864,-27.3492 8.7028,-39.077 10.378,4.2824 20.6587,8.6121 30.8452,12.9843 -3.8671,5.2888 -0.5304,12.778 5.9879,13.4393 0,0 2.239,0.2912 4.6901,1.8152 2.4511,1.5237 4.6012,3.2205 4.9126,9.1372 0.5824,11.3088 17.5504,10.4182 16.9455,-0.8896 -0.2042,-3.8839 -1.138,-7.3268 -2.4771,-10.3575 6.2506,2.7884 12.4562,5.5855 18.6208,8.4029 -1.434,11.5243 -5.2809,26.4268 -15.6889,50.8881 -3.4101,8.0086 3.7542,16.4855 12.2192,14.4583 10.5612,-2.5331 19.3169,-0.4613 28.5182,5.6621 9.2008,6.1233 18.3166,16.7048 26.377,30.2454 16.1221,27.0813 27.9439,65.5598 33.6375,100.0332 2.847,17.2366 4.1999,33.5069 4.0076,46.7148 -0.1911,13.2081 -2.3724,23.5418 -4.3488,27.3029 -0.2221,0.4202 -0.3992,0.7004 -0.5533,0.9306 -0.2062,-0.1031 -0.1882,-0.08 -0.6415,-0.3413 -3.7029,-2.1589 -12.5873,-11.475 -23.0263,-29.3818 -5.7362,-9.8439 -20.8418,-4.9395 -19.7016,6.3965 12.9349,129.49917 0.5374,257.59295 -20.441,333.54048 -5.2445,18.98646 -11.0361,34.70609 -16.8212,46.09451 -5.7857,11.38821 -11.9143,18.11459 -15.1821,19.92367 -1.6336,0.90058 -2.1895,0.87457 -2.9319,0.73447 -0.7435,-0.13508 -2.1485,-0.64942 -4.3179,-2.81303 -4.3394,-4.32881 -10.5233,-15.04929 -16.1387,-32.43261 -3.1845,-9.73904 -16.9619,-9.73904 -20.1463,0 -15.9172,48.49557 -42.5712,164.89063 -69.7775,247.94479 -6.8018,20.76341 -13.6293,39.39134 -20.167,54.06779 -6.5375,14.67575 -13.1917,25.47508 -17.5091,29.71274 -1.1212,1.09772 -1.9437,1.64837 -2.4251,1.91845 -0.103,-0.11908 -0.03,-0.07 -0.3412,-0.42428 -2.5975,-2.79101 -8.228,-14.57028 -12.5345,-35.24554 -2.0244,-9.57203 -14.8304,-11.5235 -19.6137,-2.98884 -30.4511,54.6945 -82.9265,167.99855 -126.4311,244.4282 -10.876,19.107433 -21.1792,35.883152 -30.2402,48.633551 -9.061,12.7511 -17.4468,21.452864 -21.4804,23.90556 -0.08,0.101066 -0.101,0.103067 -0.1691,0.103067 -1.8834,-4.515939 -3.7515,-18.604409 -2.5648,-40.97497 0.4933,-9.373401 -10.5419,-14.714278 -17.5868,-8.51164 -20.2406,17.832707 -33.6803,37.638999 -49.8121,51.989339 -16.1319,14.34944 -34.2549,24.205556 -67.4764,24.205556 -33.2219,0 -51.35,-9.856116 -67.4818,-24.205556 -16.1318,-14.35034 -29.57191,-34.156632 -49.81249,-51.989339 -7.04488,-6.193928 -18.07036,-0.855557 -17.58134,8.51164 1.18667,22.370561 -0.68645,36.459031 -2.56997,40.97497 -0.07,0 -0.0901,0 -0.16911,-0.103067 -4.03333,-2.452696 -12.41949,-11.15446 -21.48018,-23.90556 -9.061,-12.750399 -19.36401,-29.526118 -30.24009,-48.633551 -43.50471,-76.42965 -95.98007,-189.7337 -126.43119,-244.4282 -4.78071,-8.54446 -17.59956,-6.59169 -19.61887,2.98884 -4.3063,20.67526 -9.93176,32.45453 -12.52926,35.24554 -0.3212,0.32021 -0.23815,0.2942 -0.34122,0.42428 -0.48031,-0.27518 -1.30895,-0.82053 -2.43048,-1.91845 -4.31711,-4.23766 -10.96624,-15.03699 -17.50379,-29.71274 -6.53766,-14.67645 -13.3651,-33.30438 -20.16703,-54.06779 -27.20681,-83.05416 -53.86026,-199.44922 -69.77762,-247.94479 -3.17947,-9.74934 -16.97194,-9.74934 -20.15141,0 -5.61516,17.38332 -11.78898,28.1038 -16.1283,32.43261 -2.16941,2.16221 -3.57533,2.67294 -4.31771,2.81303 -0.74249,0.1401 -1.30835,0.16711 -2.94242,-0.73447 -3.26762,-1.80908 -9.39171,-8.53546 -15.17688,-19.92367 -5.78546,-11.38842 -11.57673,-27.10805 -16.82125,-46.09451 -20.97765,-75.94753 -33.38122,-204.04131 -20.4463,-333.54048 1.12733,-11.3241 -13.95479,-16.2221 -19.69622,-6.3965 -9.88444,16.9558 -18.2777,26.2619 -22.38537,28.9733 -0.53735,0.3552 -0.95463,0.5844 -1.26683,0.7395 -1.50358,-2.2685 -4.06695,-10.7607 -4.69516,-22.2355 -0.63141,-11.5346 0.0901,-26.1735 2.18713,-42.0557 4.19843,-31.7649 13.91045,-68.6184 27.91317,-97.5564 14.00291,-28.9377 32.06777,-48.4688 49.9416,-51.2135 7.77537,-1.1956 11.58394,-10.1473 7.05309,-16.5785 -20.27279,-28.7183 -23.16687,-96.2972 -11.59334,-160.8443 1.534,-8.5775 -7.36309,-15.2383 -15.16127,-11.3502 -5.81669,2.9035 -8.01652,3.1929 -10.74529,3.9143 0.28918,-1.2193 0.06,-0.9606 0.65142,-2.5285 1.87552,-4.9442 5.01366,-11.3419 8.89919,-18.3261 7.77136,-13.9686 18.49504,-30.3763 28.24409,-45.117 9.23291,-13.9605 17.40983,-26.0423 22.10609,-34.6459 1.17766,-0.01 2.32961,-0.02 3.51118,-0.03 z m 95.80316,2.4097 v 0 c 121.55522,6.1058 258.79785,23.9182 403.60257,54.037 33.6451,6.998 67.3547,14.9062 100.9224,23.5644 -12.4316,5.6249 -21.8566,11.6821 -32.2618,19.474 h -0.03 c -3.65,2.7441 -5.7367,7.1405 -5.4916,11.7485 5e-4,0 0,0.01 0,0.02 0.4513,8.7919 1.6045,18.081 5.652,26.6876 4.2782,9.097 13.0602,17.2977 25.0639,18.3985 0.6765,0.06 1.3897,0.09 2.0942,0.05 0.03,-0.01 0.04,-0.01 0.06,-0.02 8.9286,-0.5914 22.6409,-0.3603 38.8807,0.1861 2.0297,0.07 4.0169,-0.5904 5.6004,-1.8616 20.9596,-16.8465 47.4045,-26.9319 76.3344,-26.972 0.06,-0.01 0.114,-0.01 0.1691,-0.02 h 0.03 c 27.9288,0.01 53.6781,9.3709 74.4262,25.126 1.8168,1.3765 4.1111,1.9636 6.3656,1.6288 4.63,-0.6804 9.241,-1.4265 13.7497,-2.3321 6.1927,-1.244 8.6505,-1.7079 11.3451,-2.8595 0.2011,-0.09 0.3102,-0.1632 0.4913,-0.2432 26.6704,9.6708 52.9241,19.7107 78.6716,30.0487 0.1001,11.4697 -3.7008,29.9687 -11.1073,51.9895 -18.1717,4.1352 -36.7451,10.7796 -54.43,21.7595 -6.1421,-60.6266 -57.5233,-108.1465 -119.7348,-108.1465 -62.7634,0 -114.4816,48.3722 -119.8638,109.7703 -6.4733,-0.06 -13.0903,0 -19.6033,-0.03 h -0.08 c -11.1195,0.1902 -14.1602,-1.8649 -16.4337,-4.2972 -2.2742,-2.432 -4.1193,-7.5029 -7.2392,-14.6751 -3.1198,-7.1728 -8.3352,-16.2984 -18.6001,-22.5146 -10.2416,-6.202 -24.4245,-9.4176 -45.2465,-9.1994 -20.8227,-0.2192 -34.9999,2.9974 -45.2412,9.1994 -10.2651,6.2162 -15.4853,15.3418 -18.6051,22.5146 -3.1201,7.1722 -4.9655,12.2431 -7.2395,14.6751 -2.274,2.4323 -5.3145,4.4874 -16.43342,4.2972 h -0.0801 c -6.51324,0.03 -13.12954,-0.04 -19.60336,0.03 -5.3822,-61.3978 -57.10006,-109.7703 -119.86382,-109.7703 h -0.04 c -62.2093,0 -113.58994,47.5172 -119.73464,108.1415 -19.49529,-12.1039 -40.07478,-18.951 -59.99945,-22.9593 -23.47778,-67.9243 -19.40473,-92.9882 -4.11588,-157.1575 2.12678,-8.947 -7.3706,-16.1711 -15.42524,-11.733 -7.35489,4.0579 -11.85602,5.6796 -15.74055,6.9912 0.94062,-2.3506 1.54381,-4.3184 3.25262,-7.4307 10.23486,-18.6419 32.93684,-46.301 45.51513,-58.117 z m 39.40304,10.311 c -7.88623,-0.03 -14.69656,0.1871 -20.51325,0.6464 -0.32621,-0.01 -0.65242,-0.01 -0.97763,0.02 -0.1511,0.02 -0.25417,0.05 -0.40327,0.06 v -0.02 c -0.0901,0.01 -0.18512,0.03 -0.27918,0.05 -3.61945,0.3222 -6.90509,0.7184 -9.93336,1.453 v 0.02 c -1.92205,0.4673 -8.17222,2.0425 -11.89334,7.1206 -0.13509,0.1851 -0.4573,0.6384 -0.81253,1.2514 0,0.01 -0.03,0.01 -0.03,0.02 -3.72883,6.4585 -8.54206,17.4036 -7.73063,31.8844 0.80752,14.4129 6.86757,31.5237 21.41824,51.8497 0,0.01 0,0.01 0.03,0.02 0.03,0.01 0,0.02 0.03,0.03 0.4653,0.6535 0.96462,1.2352 1.49957,1.7686 0.03,0.01 0.03,0.02 0.05,0.03 14.87188,14.644 36.66657,21.0321 60.94047,24.3141 4.55697,0.6164 9.20949,1.075 13.87373,1.4583 2.27188,0.1821 4.52144,-0.5574 6.24136,-2.053 19.69202,-17.0399 44.78575,-28.0034 72.64229,-29.8006 0.0801,-0.01 0.1561,-0.01 0.23315,-0.02 28.87399,-1.8083 55.90469,6.5853 77.8961,22.0596 1.65898,1.165 3.6806,1.697 5.69831,1.4996 16.17233,-1.5828 29.85013,-2.678 38.79815,-2.658 0.03,1e-4 0.03,1e-4 0.05,0 0.72647,0 1.45644,-0.08 2.14079,-0.1861 11.88864,-1.877 20.11216,-10.6073 23.79706,-19.9498 3.4852,-8.8354 4.0203,-18.1763 3.9094,-26.9719 -0.03,-4.7013 -2.4165,-8.9415 -6.1951,-11.4228 h -0.03 c -37.32417,-24.3935 -108.9589,-37.554 -174.58392,-45.51 -32.83467,-3.981 -63.86907,-6.2848 -87.61242,-6.8361 v -0.01 c -2.86887,-0.06 -5.61996,-0.1041 -8.24767,-0.1141 z m -0.39325,16.9505 c 2.6201,0.01 5.3738,0.05 8.24767,0.1191 v 0.01 c 22.98696,0.5333 53.6281,2.7911 85.96815,6.712 63.82195,7.7376 134.02854,22.2971 165.65303,42.0869 -0.04,7.0311 -0.54035,13.7656 -2.50774,18.7552 -1.96497,4.981 -5.49367,8.6246 -10.68345,9.4371 h -0.03 c -9.70041,0.01 -22.76392,1.1233 -37.70174,2.5648 -24.23968,-16.0924 -53.39755,-25.2742 -84.58225,-23.4815 -0.13809,-0.01 -0.22815,-0.01 -0.43429,-0.01 -0.14509,0 -0.29319,0.01 -0.43928,0.02 -30.12071,1.9271 -57.1462,13.8585 -79.00793,31.6311 -3.57122,-0.3182 -7.13774,-0.6404 -10.46601,-1.0911 -22.51536,-3.0443 -40.567,-9.1757 -51.14129,-19.4947 -13.0662,-18.3366 -17.55332,-32.2857 -18.1347,-42.6661 -0.57237,-10.221 2.56837,-17.2887 5.36739,-22.1835 0.59939,-0.8806 -0.96763,0.102 2.15641,-0.6564 1.89853,-0.4603 4.59429,-0.8556 8.04093,-1.1429 5.15395,-0.4353 11.82079,-0.6454 19.68081,-0.6054 z m 493.51058,57.7344 v 0 c 27.2003,7.3782 54.2658,15.2582 81.1072,23.5591 -28.8363,1.4971 -55.1582,12.1935 -76.7998,28.6371 -14.9968,-0.4844 -28.1134,-0.7505 -37.7949,-0.1391 0,3e-4 0,-2e-4 -0.03,0 -5.2313,-0.4803 -8.9886,-3.8827 -11.2674,-8.7287 -2.2994,-4.8891 -3.2554,-11.621 -3.7386,-18.6984 14.3479,-10.6305 25.0655,-17.0332 48.509,-24.6295 z m -365.11961,83.0515 c 56.19277,6e-4 101.74843,42.8134 101.75013,95.6275 8e-4,52.8162 -45.55575,95.632 -101.75013,95.6328 -56.19518,0 -101.75143,-42.8153 -101.74993,-95.6328 8e-4,-52.8157 45.55635,-95.629 101.74993,-95.6275 z m 451.85811,0 c 56.1944,0 101.7535,42.8118 101.7551,95.6275 8e-4,52.8175 -45.5591,95.6341 -101.7551,95.6328 -56.1936,-8e-4 -101.7464,-42.8166 -101.7448,-95.6328 8e-4,-52.8141 45.5529,-95.6269 101.7448,-95.6275 z m -697.20701,26.8221 c -0.10006,0 -0.19312,0.01 -0.29019,0.01 -0.11607,0.01 -0.23015,0.01 -0.34622,0.02 -0.19813,0.01 -0.39726,0.03 -0.59439,0.06 0,0 -5.87883,0.5934 -11.76916,4.2557 -5.89023,3.6616 -12.31642,11.4366 -12.9068,22.654 -0.6124,11.3144 16.36985,12.2056 16.94543,0.8896 0.3112,-5.9165 2.4614,-7.6083 4.9125,-9.1319 2.45109,-1.524 4.69515,-1.8149 4.69515,-1.8149 11.07031,-0.6394 10.4407,-17.1517 -0.64642,-16.9454 z m 211.85119,8.6511 c -2.62791,10e-4 -5.28083,0.1061 -7.94797,0.3462 -10.66854,0.9626 -21.60376,4.0642 -32.40159,11.0609 -9.61586,6.1278 -0.27318,20.5133 9.23551,14.2203 16.82816,-10.9039 32.77434,-9.7293 51.312,-6.7587 11.28945,1.9525 14.01402,-15.0895 2.67855,-16.754 -7.31176,-1.1722 -14.99296,-2.1202 -22.8765,-2.1149 z m 518.85892,0 c -7.8836,-0.01 -15.5648,0.9436 -22.8765,2.1149 -10.9646,1.9295 -8.3469,18.3328 2.6736,16.754 18.5376,-2.9706 34.4891,-4.1452 51.3169,6.7587 9.5474,6.477 19.0332,-8.1372 9.2302,-14.2203 -10.7981,-6.9967 -21.7333,-10.0983 -32.4016,-11.0609 -2.6671,-0.2401 -5.3147,-0.3452 -7.9426,-0.3462 z m -259.4294,18.781 c 18.71,0 28.7584,2.9936 34.2839,6.3398 5.5254,3.3458 7.6336,7.1186 10.1248,12.8447 2.4904,5.7258 4.5332,13.5679 11.2003,20.6997 6.6685,7.1316 17.6093,11.2809 32.2721,11.0297 6.4363,0 12.9441,0.03 19.345,-0.03 5.3845,61.3956 57.0963,109.7702 119.8587,109.7702 62.7507,0 114.457,-48.3505 119.8588,-109.7288 2.2902,0.1 4.5508,-0.5464 6.4431,-1.8408 13.5192,-9.1757 27.9781,-15.3072 42.6246,-19.4895 19.1498,75.6184 5.7947,162.6266 -16.8263,228.8015 -4.2229,-2.5647 -8.6264,-6.6728 -12.8606,-7.7461 -8.5912,-2.1777 -17.9544,0.03 -24.1226,5.321 -12.3368,10.6003 -15.5525,27.49672 -18.9001,46.79238 -3.3473,19.29456 -5.5032,41.44698 -8.9458,61.65923 -2.2409,13.15437 -5.4429,24.46873 -9.1218,34.29402 -5.6861,-7.09751 -11.4968,-14.15121 -18.7293,-20.60641 -8.7059,-9.15896 -21.6014,-12.94052 -38.7049,-16.37676 -17.2195,-3.45825 -38.837,-5.70441 -64.0171,-7.24451 -50.3605,-3.08311 -114.837,-3.24221 -183.7674,-3.24221 -68.9307,0 -133.40698,0.1611 -183.76726,3.24221 -25.18009,1.5401 -46.80326,3.78626 -64.02237,7.24451 -17.10373,3.43624 -29.99892,7.2178 -38.70489,16.37676 -7.23231,6.4552 -13.04349,13.5089 -18.72939,20.60641 -3.6793,-9.82529 -6.87568,-21.13965 -9.11654,-34.29402 -3.44264,-20.21225 -5.60384,-42.36467 -8.95112,-61.65923 -3.34758,-19.29566 -6.56297,-36.19208 -18.8998,-46.79238 -6.16862,-5.3009 -15.53161,-7.4987 -24.12301,-5.321 -4.1611,1.0547 -8.49653,5.1116 -12.64313,7.6063 -21.07721,-63.98 -30.34525,-154.2879 -25.52401,-230.8545 17.5141,4.1278 34.95916,10.7398 51.07404,21.677 1.89644,1.2814 4.15691,1.9146 6.4431,1.8047 5.3824,61.3977 57.09946,109.7702 119.86402,109.7702 62.76225,0 114.46931,-48.3746 119.85361,-109.7702 6.40097,0.04 12.9084,0.03 19.34459,0.03 14.66276,0.2511 25.60956,-3.8981 32.27756,-11.0297 6.667,-7.1318 8.7101,-14.9739 11.2003,-20.6997 2.4912,-5.7261 4.5944,-9.4989 10.1199,-12.8447 5.5254,-3.3462 15.5795,-6.3398 34.289,-6.3398 z m -261.52368,11.7019 c -1.65928,0.03 -3.26422,0.07 -4.81964,0.1561 -24.88519,1.211 -37.51982,9.5558 -43.72596,12.2503 -10.84706,4.301 -3.80988,20.5284 6.74299,15.5491 9.37871,-4.0714 16.09958,-9.8024 37.81031,-10.8589 21.71103,-1.0567 57.73949,3.4058 119.43504,23.4504 11.02148,4.0582 16.54217,-12.9076 5.24322,-16.1128 -58.89754,-19.1357 -95.79926,-24.7983 -120.68596,-24.4332 z m 518.23308,0 c -24.7755,0.3913 -60.6554,6.4935 -115.8719,24.4333 -11.3339,3.1829 -5.8005,20.203 5.2382,16.1127 61.6958,-20.0446 97.7237,-24.507 119.4348,-23.4504 21.7107,1.0566 28.4369,6.7876 37.8156,10.8589 10.5529,4.9793 17.59,-11.2481 6.743,-15.5491 -6.2059,-2.6944 -18.8466,-11.0392 -43.7313,-12.2502 -1.5554,-0.07 -3.1601,-0.1351 -4.8193,-0.1561 -1.5554,-0.03 -3.1575,-0.03 -4.8091,0 z m -285.1863,8.5736 c -5.8744,0.2382 -10.4316,5.2139 -10.1556,11.0867 0,0 1.1894,39.9111 -2.4408,85.394 -3.6299,45.4784 -13.8608,96.8707 -29.3612,115.1327 -11.1035,12.3162 -13.5726,32.5514 -2.7714,49.78125 10.8955,17.38041 34.5697,29.87074 73.0922,30.2711 h 0.114 0.1141 c 38.523,-0.40126 62.2112,-12.89069 73.1078,-30.2711 10.8966,-17.37965 8.2861,-37.82865 -3.0664,-50.11225 l 0.3002,0.3312 c -15.5031,-18.2572 -25.7358,-69.6498 -29.3662,-115.1327 -3.6304,-45.4829 -2.4408,-85.394 -2.4408,-85.394 0.2622,-5.9692 -4.4607,-10.9747 -10.4352,-11.0607 -5.8492,-0.08 -10.661,4.5858 -10.7504,10.435 0,0 -1.2351,40.8772 2.5027,87.7054 3.7379,46.8287 10.66,99.2775 34.3407,127.1656 l 0.1461,0.1751 0.1561,0.1561 c 4.1067,4.4442 6.6453,14.9129 0.6564,24.464 -5.9808,9.53962 -21.2042,19.96261 -55.2573,20.34276 -34.0529,-0.38025 -49.2671,-10.80364 -55.2472,-20.34276 -5.9881,-9.5508 -3.4503,-20.0195 0.6574,-24.464 l 0.1611,-0.1561 0.1351,-0.1751 c 23.6811,-27.8881 30.6031,-80.3369 34.3407,-127.1656 3.7381,-46.8282 2.5027,-87.7054 2.5027,-87.7054 -0.07,-5.9718 -5.0624,-10.7049 -11.0297,-10.461 z m -124.09376,41.6733 c -1.33407,-0.03 -2.65423,0.2762 -3.85251,0.8636 l -30.50375,14.453 c -10.70437,4.656 -3.12864,20.6496 7.25512,15.3167 l 30.50876,-14.4376 c 8.24767,-3.7514 5.65228,-16.0858 -3.40762,-16.1955 z m 304.88786,0 c -8.9336,0.3553 -11.3046,12.5079 -3.1597,16.1955 l 30.5092,14.4376 c 10.3608,5.2692 17.8983,-10.6323 7.2601,-15.3167 l -30.5091,-14.453 c -1.2729,-0.6264 -2.6831,-0.9236 -4.1005,-0.8636 z m -508.19639,20.0273 c -1.04949,-0.03 -2.09457,0.1451 -3.08211,0.5013 l -32.64965,11.2314 c -10.84936,3.6037 -5.24482,19.8765 5.52259,16.0352 l 32.64995,-11.2315 c 9.07181,-2.9583 7.09883,-16.3253 -2.44078,-16.5368 z m 711.53579,0 c -9.4157,0.4633 -11.1585,13.642 -2.1871,16.5368 l 32.6497,11.2315 c 10.7674,3.8413 16.3719,-12.4315 5.5226,-16.0352 l -32.6497,-11.2314 c -0.7995,-0.2912 -1.6378,-0.4603 -2.4874,-0.5013 -0.2822,-0.03 -0.5654,-0.03 -0.8486,0 z m -14.3288,40.1943 c -8.4735,-0.1911 -11.9519,10.7979 -4.9122,15.5181 l 40.1424,27.8304 c 9.3473,6.7568 19.265,-7.5596 9.6544,-13.9359 l -40.1219,-27.8354 c -1.3921,-0.9947 -3.0524,-1.544 -4.7627,-1.5772 z m -682.03022,0 h -0.84755 c -1.61975,0.08 -3.18287,0.6214 -4.50403,1.5618 l -40.13212,27.8354 c -9.61066,6.3764 0.3072,20.6927 9.65428,13.9359 l 40.14784,-27.8303 c 6.77641,-4.5482 3.8437,-15.1059 -4.30761,-15.5078 z m -175.33862,149.7265 c -4.12519,0.1721 -7.527,3.28963 -8.05625,7.38429 0,0 -17.3645,121.04449 37.86215,278.06049 3.57182,11.03339 20.11929,5.20529 15.9886,-5.63106 -53.95982,-153.41406 -37.06052,-270.01986 -37.06052,-270.01986 0.79552,-5.05098 -3.02797,-9.65166 -8.1394,-9.79386 z m 516.05154,100.53463 v 0 c 68.8909,0 133.1638,0.19112 182.4639,3.20618 24.6507,1.50808 45.5849,3.76065 61.1525,6.88769 15.5674,3.12803 25.5794,8.04133 27.6132,10.21294 0.2301,0.24316 0.4713,0.47731 0.7235,0.69746 34.0597,30.12971 47.5048,67.68055 52.6771,111.26992 2.4389,20.55248 13.7474,78.22202 17.1625,117.89884 0.7595,8.87778 0.9196,16.24968 0.7445,22.2665 -3.2163,-4.19984 -6.2809,-7.86112 -11.3607,-16.86788 -5.028,-8.89259 -18.4881,-6.22385 -19.7431,3.91444 -2.7974,22.93793 -7.6527,52.40712 -14.5975,62.64178 -1.7366,2.55856 -3.2401,3.70681 -4.256,4.1471 -1.0159,0.43028 -1.8406,0.68244 -4.3486,-0.10007 -4.9769,-1.55701 -15.4747,-9.18918 -29.0199,-26.50155 -33.6485,-50.67608 -13.5491,-119.97529 -14.8149,-177.37065 0,-0.50232 -0.06,-1.00365 -0.1461,-1.49957 -3.3645,-20.34144 -8.5232,-35.643 -16.2835,-47.3097 -7.7602,-11.66569 -18.3817,-19.25513 -30.1832,-23.31097 -23.603,-8.11208 -50.9424,-4.64853 -84.5613,-4.64853 h -0.09 c -49.5388,0.39826 -77.5441,6.58759 -113.1418,6.58759 -35.5977,0 -63.6086,-6.18763 -113.1467,-6.58759 h -0.0901 c -33.61898,0.03 -60.95868,-3.46355 -84.56164,4.64853 -11.80148,4.05584 -22.41799,11.64528 -30.17794,23.31097 -7.76025,11.6667 -12.91901,26.96826 -16.2835,47.3097 -0.0801,0.49632 -0.13209,0.99664 -0.1461,1.49957 -1.26572,57.39536 18.83366,126.69457 -14.81484,177.37065 -13.54552,17.31237 -24.04305,24.94454 -29.01969,26.50155 -2.50803,0.79052 -3.33297,0.54836 -4.34883,0.10007 -1.01586,-0.44329 -2.51944,-1.58854 -4.25567,-4.1471 -6.94532,-10.23466 -11.80048,-39.70385 -14.5979,-62.64178 -1.25512,-10.13779 -14.71458,-12.80653 -19.74285,-3.91444 -5.08041,9.00676 -8.1494,12.66804 -11.3659,16.86788 -0.17511,-6.01682 -0.03,-13.38872 0.74949,-22.2665 3.41502,-39.67682 14.72328,-97.34636 17.16257,-117.89884 5.17247,-43.58937 18.61732,-81.14021 52.67709,-111.26992 0.25116,-0.22015 0.49032,-0.4543 0.71847,-0.69746 2.03392,-2.17161 12.05094,-7.08491 27.61827,-10.21294 15.56733,-3.12704 36.50186,-5.37961 61.15251,-6.88769 49.30009,-3.01606 113.57276,-3.20618 182.46426,-3.20618 z m -148.79089,66.37 c 10.6008,0.0801 22.46502,0.37224 35.47829,0.37224 h 0.10807 c 47.71873,0.39526 75.26713,6.58799 113.20903,6.58799 37.9416,0 65.4902,-6.19774 113.2089,-6.58799 34.8051,0.03 61.3217,-2.13519 77.6891,3.49057 8.1839,2.81273 14.084,6.93682 19.4482,15.00106 2.3595,3.54721 4.5424,8.02503 6.5259,13.43955 -1.9523,4.18573 -8.1102,8.34613 -25.5758,8.04594 -24.7383,0.41427 -26.8283,-8.08226 -27.5408,-8.08226 -0.7164,0.03 -3.3702,8.11978 -27.4323,7.69961 -24.0706,0.40426 -26.7147,-7.6789 -27.5563,-7.6789 -0.8406,0 -3.9221,7.70171 -27.4115,7.30135 -23.5021,0.39426 -26.573,-7.31356 -27.5666,-7.31175 -0.9937,0.002 -4.4625,7.32476 -27.4012,6.93451 -19.0997,0.32021 -24.7014,-4.70626 -26.0464,-9.25613 0,0 -0.2652,-1.26182 -0.7445,0 -1.3466,4.55277 -6.9498,9.58154 -26.0464,9.26113 -22.939,0.39526 -26.4014,-6.93231 -27.3961,-6.93421 -0.9946,-0.002 -4.0695,7.70201 -27.5716,7.31176 -23.48943,0.40526 -26.57013,-7.30666 -27.41178,-7.30666 -0.84155,0 -3.48607,8.08957 -27.55634,7.68921 -24.06256,0.41427 -26.71969,-7.70462 -27.43215,-7.70462 -0.71647,-0.03 -2.80243,8.48733 -27.54063,8.07696 -17.3627,0.29819 -23.54893,-3.80778 -25.53962,-7.96839 1.9949,-5.45055 4.19633,-9.95268 6.56697,-13.5171 5.36419,-8.06424 11.24362,-12.18833 19.42745,-15.00106 8.18392,-2.81273 18.9044,-3.6923 31.93118,-3.85251 h 10.17643 z M 1305.6995,-714.884 c -0.7655,11.32337 -1.3418,22.93973 -1.2619,34.69728 -16.4499,44.52508 -37.4546,76.45907 -58.4477,86.92488 -10.5693,5.26943 -20.9241,6.12459 -33.7152,1.34437 -12.7908,-4.78121 -27.9263,-15.88744 -44.6671,-35.35411 -0.8566,-0.99565 -1.8917,-1.82338 -3.0511,-2.44079 -12.0669,-6.42928 -22.7651,-8.13939 -34.0304,-7.8391 -11.2648,0.2992 -23.6045,1.96998 -44.3671,1.96998 -20.763,0 -33.1078,-1.67008 -44.3726,-1.96998 -11.2647,-0.29919 -21.958,1.40982 -34.0251,7.8391 -1.1593,0.61741 -2.194,1.44504 -3.051,2.44079 -16.74075,19.46667 -31.87631,30.5729 -44.66723,35.35411 -12.79083,4.78022 -23.14547,3.92506 -33.71475,-1.34437 -20.99326,-10.46581 -41.99793,-42.3998 -58.44794,-86.92488 0.0801,-11.72763 -0.49933,-23.31307 -1.26182,-34.60933 24.90871,31.67962 85.20916,57.79112 219.51964,61.06425 h -0.03 c 134.4253,-3.27603 194.712,-29.43046 219.5817,-61.1471 z m 177.624,85.84387 c -4.3531,0.05 -7.9646,3.3796 -8.3562,7.71522 -8.8103,84.10865 -22.4127,135.46778 -35.3079,166.71322 -12.8948,31.24543 -24.673,42.14913 -30.9948,46.90122 -9.472,6.72588 1.0958,20.78013 10.1869,13.54782 8.5026,-6.39016 22.6819,-20.5927 36.4658,-53.99034 13.7838,-33.39894 27.5942,-86.21822 36.5178,-171.40867 0.6034,-5.08031 -3.3957,-9.53431 -8.5116,-9.47847 z m -439.4994,46.88562 c -2.7995,0.002 -5.4177,1.3854 -6.9965,3.69731 -40.33361,57.35613 -76.83386,75.30071 -102.67568,79.88149 -25.84172,4.58108 -40.78875,-3.75394 -40.78875,-3.75394 -10.07976,-5.74865 -18.37646,9.72503 -8.00992,14.93912 0,0 21.01338,10.95553 51.75149,5.50688 30.73841,-5.44844 71.43166,-26.86448 113.60196,-86.83141 4.0481,-5.61016 0.03,-13.44536 -6.8826,-13.43945 z m 84.4165,0 c -6.7981,0.19813 -10.6075,7.91805 -6.6292,13.43414 42.1703,59.96724 82.8585,81.38307 113.5969,86.83172 30.7384,5.44835 51.7515,-5.50718 51.7515,-5.50718 10.3665,-5.2141 2.0698,-20.68777 -8.01,-14.93913 0,0 -14.942,8.33423 -40.7837,3.75425 -25.8417,-4.58109 -62.347,-22.52647 -102.6807,-79.8818 -1.6288,-2.38385 -4.3587,-3.77516 -7.2448,-3.692 z m -180.84026,331.5453 c -3.71402,0.03 -6.97314,2.48262 -8.04113,6.03983 -5.5218,17.52631 0.86556,36.68478 11.43844,55.55206 10.57328,18.86728 25.94709,37.92819 41.77129,55.19553 31.64806,34.533375 65.33566,61.876273 65.33566,61.876273 8.801,7.446747 19.783,-6.056242 10.699,-13.155163 0,0 -32.9276,-26.78563 -63.5363,-60.18527 -15.30449,-16.70007 -29.96163,-35.05132 -39.47032,-52.02026 -9.50869,-16.96825 -13.25602,-32.06197 -10.07315,-42.16445 1.82288,-5.51539 -2.31501,-11.18888 -8.12349,-11.13855 z"
       id="rect3075"
       inkscape:connector-curvature="0"
       sodipodi:nodetypes="ccccsccccccsccccccccccsccccccccccccccccccccccccscccccscscccccccccccccccccccccccscsccccccscccccccccccccccccccccccccccccccccccccccccsccccccccccccccccccccccccccccccccccsccccccccccccccccccccccccccccccccccccsccccccsccccccccccccccccccccccccccccccccccccccccccccccccccccccccscccccccccccccssccccccccccccccccccccccccccccccccccccccccccccccccccccccccccccccccccccccccccccccccccccccccccccccccccccccccccssccccssccccccccccccsccccccccccccscccccsccccsccccccsccccccccccccccccscccsccccccccccccccccccccccccccccccccccccccccccccccccccccccccccsccccccccccccccccccccscccccccccccccccccccscscsccccccccccccccccccccccsccccccccccccccccccccccccccccccccccccccccccccccccccccccccccccccccccccccc" />
  </g>
</svg>
