<?xml version="1.0" encoding="UTF-8" standalone="no"?>
<!-- Created with Inkscape (http://www.inkscape.org/) -->

<svg
   xmlns:dc="http://purl.org/dc/elements/1.1/"
   xmlns:cc="http://creativecommons.org/ns#"
   xmlns:rdf="http://www.w3.org/1999/02/22-rdf-syntax-ns#"
   xmlns:svg="http://www.w3.org/2000/svg"
   xmlns="http://www.w3.org/2000/svg"
   xmlns:sodipodi="http://sodipodi.sourceforge.net/DTD/sodipodi-0.dtd"
   xmlns:inkscape="http://www.inkscape.org/namespaces/inkscape"
   width="200.00034"
   height="348.72235"
   viewBox="0 0 52.916754 92.266121"
   version="1.1"
   id="svg3376"
   inkscape:version="0.92.2 (5c3e80d, 2017-08-06)"
   sodipodi:docname="Logo+Patch_Sigma_200px.svg">
  <defs
     id="defs3370">
    <filter
       style="color-interpolation-filters:sRGB"
       inkscape:label="Duochrome"
       id="filter8580">
      <feColorMatrix
         type="luminanceToAlpha"
         result="colormatrix1"
         id="feColorMatrix8560" />
      <feFlood
         flood-opacity="1"
         flood-color="rgb(52,47,63)"
         result="flood1"
         id="feFlood8562" />
      <feComposite
         in2="colormatrix1"
         operator="out"
         result="composite1"
         id="feComposite8564" />
      <feFlood
         flood-opacity="1"
         flood-color="rgb(249,168,5)"
         result="flood2"
         id="feFlood8566" />
      <feComposite
         in2="colormatrix1"
         result="composite2"
         operator="in"
         id="feComposite8568" />
      <feComposite
         k4="0"
         k1="0"
         in="composite2"
         in2="composite1"
         k2="1"
         k3="1"
         operator="arithmetic"
         result="composite3"
         id="feComposite8570" />
      <feColorMatrix
         in="composite3"
         type="matrix"
         values="2 -1 0 0 0 0 2 -1 0 0 -1 0 2 0 0 0 0 0 1 0 "
         result="colormatrix2"
         id="feColorMatrix8572" />
      <feComposite
         k4="0"
         k3="0"
         k1="0"
         in="colormatrix2"
         in2="composite3"
         operator="arithmetic"
         k2="0"
         result="composite4"
         id="feComposite8574" />
      <feBlend
         in="composite4"
         in2="composite3"
         mode="normal"
         result="blend"
         id="feBlend8576" />
      <feComposite
         in2="SourceGraphic"
         operator="in"
         id="feComposite8578" />
    </filter>
  </defs>
  <sodipodi:namedview
     id="base"
     pagecolor="#ffffff"
     bordercolor="#666666"
     borderopacity="1.0"
     inkscape:pageopacity="0.0"
     inkscape:pageshadow="2"
     inkscape:zoom="0.98994949"
     inkscape:cx="-159.51449"
     inkscape:cy="194.79982"
     inkscape:document-units="mm"
     inkscape:current-layer="layer1"
     showgrid="false"
     inkscape:pagecheckerboard="true"
     units="px"
     fit-margin-left="5"
     fit-margin-top="5"
     fit-margin-right="5"
     fit-margin-bottom="5"
     inkscape:window-width="1920"
     inkscape:window-height="1017"
     inkscape:window-x="2391"
     inkscape:window-y="-9"
     inkscape:window-maximized="1" />
  <metadata
     id="metadata3373">
    <rdf:RDF>
      <cc:Work
         rdf:about="">
        <dc:format>image/svg+xml</dc:format>
        <dc:type
           rdf:resource="http://purl.org/dc/dcmitype/StillImage" />
        <dc:title></dc:title>
      </cc:Work>
    </rdf:RDF>
  </metadata>
  <g
     inkscape:label="Calque 1"
     inkscape:groupmode="layer"
     id="layer1"
     transform="translate(-78.292435,-118.30967)">
    <path
       style="color:#000000;font-style:normal;font-variant:normal;font-weight:normal;font-stretch:normal;font-size:medium;line-height:normal;font-family:sans-serif;font-variant-ligatures:normal;font-variant-position:normal;font-variant-caps:normal;font-variant-numeric:normal;font-variant-alternates:normal;font-feature-settings:normal;text-indent:0;text-align:start;text-decoration:none;text-decoration-line:none;text-decoration-style:solid;text-decoration-color:#000000;letter-spacing:normal;word-spacing:normal;text-transform:none;writing-mode:lr-tb;direction:ltr;text-orientation:mixed;dominant-baseline:auto;baseline-shift:baseline;text-anchor:start;white-space:normal;shape-padding:0;clip-rule:nonzero;display:inline;overflow:visible;visibility:visible;opacity:1;isolation:auto;mix-blend-mode:normal;color-interpolation:sRGB;color-interpolation-filters:linearRGB;solid-color:#000000;solid-opacity:1;vector-effect:none;fill:#ffffff;fill-opacity:1;fill-rule:nonzero;stroke:none;stroke-width:6.36251402;stroke-linecap:round;stroke-linejoin:round;stroke-miterlimit:4;stroke-dasharray:none;stroke-dashoffset:0;stroke-opacity:1;paint-order:fill markers stroke;color-rendering:auto;image-rendering:auto;shape-rendering:auto;text-rendering:auto;enable-background:accumulate"
       d="m 98.348712,119.63271 c -0.945776,0.0211 -1.900718,0.12896 -2.843873,0.38278 -0.271014,0.073 -0.526732,0.17677 -0.764011,0.30686 l -0.0016,8e-4 c -1.183756,0.64978 -2.172469,1.77426 -1.964022,3.68929 0.134545,1.23687 0.915829,2.12191 1.244632,2.43447 l -0.421918,-0.49238 c 1.734443,2.50006 1.910746,3.88641 1.883388,4.15035 -0.03162,0.30527 0.01379,0.31814 -0.876721,0.8689 -0.865802,0.53551 -2.430492,1.13288 -4.108076,1.8286 -1.637392,0.67905 -3.554238,1.44712 -5.097529,3.28381 -0.629222,0.69563 -1.15591,1.5804 -1.394928,2.60355 -0.620781,2.6573 0.75242,4.96137 2.310793,6.56369 0.90007,0.92544 2.001813,1.73871 3.203176,2.50806 -0.914591,0.90733 -1.736055,1.92245 -2.378902,3.10454 -1.509659,-0.16664 -3.059987,0.49255 -3.920997,1.81451 v 8.4e-4 l -2.979287,4.57462 h 0.0012 c -1.441383,2.2131 -0.256929,5.33038 2.206692,6.13394 0.0012,0.01 0.0012,0.0121 0.0016,0.022 0.06102,0.86716 0.143566,2.01534 0.232485,3.3566 0.177821,2.6822 0.380541,6.13347 0.484545,9.54612 0.103988,3.41155 0.101432,6.81515 -0.09393,9.21421 -0.08793,1.07968 -0.232722,1.87783 -0.340521,2.32959 -0.492069,0.43491 -0.911942,0.97389 -1.216449,1.69865 -0.481516,1.14608 -0.419493,2.27117 -0.267715,3.02078 0.287161,1.41856 0.962553,2.47181 1.604721,3.37148 1.346179,1.88599 3.257246,3.78134 5.52649,5.65801 4.511449,3.73094 10.235134,7.6455 16.372045,7.6455 6.13691,0 11.86137,-3.91458 16.37283,-7.6455 2.26914,-1.87658 4.18045,-3.77156 5.52649,-5.65723 v -8e-4 c 0.64168,-0.89898 1.31739,-1.95215 1.60473,-3.37148 0.15172,-0.74946 0.21385,-1.87462 -0.26772,-3.02078 -0.30493,-0.72581 -0.72504,-1.26474 -1.21723,-1.69943 -0.10768,-0.45159 -0.25183,-1.24923 -0.33974,-2.32881 -0.19536,-2.39905 -0.19868,-5.80264 -0.0947,-9.21421 0.10399,-3.41266 0.30749,-6.86395 0.48532,-9.54612 0.0889,-1.34124 0.17146,-2.48944 0.2325,-3.3566 9.5e-4,-0.01 9.5e-4,-0.0122 0.002,-0.022 2.46324,-0.80358 3.64858,-3.92078 2.20746,-6.13394 l -2.97929,-4.57462 c -0.4182,-0.64219 -1.01059,-1.12677 -1.68378,-1.44816 0.70664,-0.7301 1.29003,-1.60278 1.5507,-2.71862 0.3973,-1.70071 -0.15661,-3.09846 -0.31624,-3.57265 -0.003,-0.007 -0.005,-0.0125 -0.007,-0.0188 -0.002,-0.005 -0.004,-0.0105 -0.006,-0.0157 -0.004,-0.0101 -0.009,-0.0181 -0.0125,-0.0282 -0.0414,-0.11781 -0.0898,-0.23309 -0.14483,-0.34521 -1e-5,-3e-5 -0.0116,-0.0208 -0.0141,-0.0251 -1.39791,-3.51012 -4.36187,-5.25692 -6.59589,-7.12187 -2.33468,-1.94896 -3.95655,-3.72414 -4.29204,-5.5445 -0.76109,-4.12962 -3.74074,-7.30511 -7.22672,-9.48115 -2.48297,-1.54974 -5.35019,-2.58773 -8.353431,-2.70531 -0.334392,-0.0179 -0.468379,-0.016 -0.832175,-0.0235 z"
       id="rect7500"
       inkscape:connector-curvature="0"
       sodipodi:nodetypes="cccccccccccccccccccccscccccscsccccccsccccccccccccccsssccc" />
    <g
       transform="matrix(0.13841362,0,0,0.13841362,82.010592,85.763865)"
       id="g8346">
      <path
         style="color:#000000;font-style:normal;font-variant:normal;font-weight:normal;font-stretch:normal;font-size:medium;line-height:normal;font-family:sans-serif;font-variant-ligatures:normal;font-variant-position:normal;font-variant-caps:normal;font-variant-numeric:normal;font-variant-alternates:normal;font-feature-settings:normal;text-indent:0;text-align:start;text-decoration:none;text-decoration-line:none;text-decoration-style:solid;text-decoration-color:#000000;letter-spacing:normal;word-spacing:normal;text-transform:none;writing-mode:lr-tb;direction:ltr;text-orientation:mixed;dominant-baseline:auto;baseline-shift:baseline;text-anchor:start;white-space:normal;shape-padding:0;clip-rule:nonzero;display:inline;overflow:visible;visibility:visible;opacity:1;isolation:auto;mix-blend-mode:normal;color-interpolation:sRGB;color-interpolation-filters:linearRGB;solid-color:#000000;solid-opacity:1;vector-effect:none;fill:#6e59ad;fill-opacity:1;fill-rule:nonzero;stroke:none;stroke-width:13.22916698;stroke-linecap:round;stroke-linejoin:round;stroke-miterlimit:4;stroke-dasharray:none;stroke-dashoffset:0;stroke-opacity:1;color-rendering:auto;image-rendering:auto;shape-rendering:auto;text-rendering:auto;enable-background:accumulate"
         d="m 292.76072,494.25792 a 6.6152445,6.6152445 0 0 0 -2.8598,0.6718 c 0,0 -35.98109,17.3234 -77.57459,26.8438 -2.8852,7.4837 -5.6753,10.6133 -7.55721,1.6278 -0.011,0 -0.023,0 -0.034,0.01 -1.96331,3.5317 -4.7052,9.1093 -7.65481,14.9981 43.55971,-6.7596 82.82591,-24.2666 93.2811,-29.1621 l 13.4633,20.6763 c -0.90469,0.3713 -1.6084,0.5415 -2.54918,0.9937 -2.86041,1.3752 -5.8765,3.1208 -8.52141,5.7149 -2.64501,2.59421 -5.0524,6.45189 -5.0524,11.11361 0,0.25318 -0.25731,4.8002 -0.6879,10.91758 -0.4305,6.11751 -1.0206,14.35521 -1.65981,23.99652 -1.27838,19.28275 -2.74798,44.18073 -3.50779,69.11115 -0.7598,24.93028 -0.82441,49.85279 0.77309,69.47069 0.7987,9.80879 1.98281,18.26599 3.87882,25.03919 1.78779,6.38672 3.90128,12.03762 9.69348,14.90252 -0.0101,0.062 0,0.053 -0.014,0.12658 -0.3443,1.7005 -2.16591,5.65211 -5.44931,10.2521 -6.5669,9.20001 -18.52209,21.4789 -32.93959,33.40211 -28.8349,23.84621 -68.3292,46.1078 -93.4982,46.1078 -25.1689,0 -64.662805,-22.26159 -93.497607,-46.1078 -14.4174,-11.9231 -26.372801,-24.2021 -32.939601,-33.40211 -3.2834,-4.59999 -5.105,-8.5516 -5.4493,-10.2521 -0.014,-0.073 0,-0.063 -0.014,-0.12509 5.7932,-2.8646 7.905498,-8.51681 9.6935,-14.90401 1.895999,-6.7732 3.080099,-15.2304 3.878799,-25.03919 1.597502,-19.6179 1.535502,-44.54041 0.7757,-69.47069 -0.759801,-24.93042 -2.2294,-49.8284 -3.5078,-69.11115 -0.639199,-9.64131 -1.2319,-17.87901 -1.662499,-23.99652 -0.430501,-6.11738 -0.6852,-10.6644 -0.6852,-10.91758 0,-4.66172 -2.410002,-8.5194 -5.055002,-11.11361 -2.644998,-2.5941 -5.661098,-4.3397 -8.521398,-5.7149 -0.941,-0.4523 -1.6438,-0.6223 -2.5487,-0.9937 l 13.462699,-20.6763 c 10.435701,4.8864 49.583004,22.3415 93.051709,29.12689 -2.9548,-5.89959 -5.701,-11.48589 -7.662,-15.00829 -1.8864,9.0567 -4.6888,5.8913 -7.5856,-1.6418 -41.495381,-9.5316 -77.343083,-26.7911 -77.343083,-26.7911 a 6.6152445,6.6152445 0 0 0 -8.444999,2.3342 l -21.1661008,32.506 a 6.6152445,6.6152445 0 0 0 4.0544998,10.05469 c 0,0 4.342501,1.0374 8.449101,3.0117 2.0533,0.98721 3.9501,2.21781 4.9904,3.2381 1.0403,1.02021 1.0878,1.4161 1.0878,1.66812 0,2.20358 0.2871,5.7114 0.7188,11.84579 0.4317,6.13429 1.0218,14.3432 1.6583,23.94321 1.2729,19.20015 2.7324,43.95975 3.4845,68.63873 0.7522,24.67901 0.7845,49.31791 -0.7363,67.99382 -0.7605,9.33789 -1.94,17.21019 -3.4339,22.54689 -1.494,5.33681 -3.8013,7.1683 -2.8241,6.77741 -2.713,1.08519 -5.304901,3.39788 -6.490101,6.21879 -1.1852,2.8208 -1.108499,5.66441 -0.590099,8.22481 1.036599,5.1207 3.7972,9.91939 7.6465,15.31218 7.6986,10.78561 20.213199,23.45412 35.275399,35.91052 30.124408,24.91269 69.626403,49.1422 101.929713,49.1422 32.30329,0 71.8051,-24.22951 101.9297,-49.1422 15.0622,-12.4564 27.5767,-25.12502 35.27531,-35.91052 3.8494,-5.39279 6.61199,-10.19148 7.64868,-15.31218 0.51832,-2.5604 0.5955,-5.40401 -0.5897,-8.22481 -1.1851,-2.82091 -3.7796,-5.1336 -6.49259,-6.21879 0.97719,0.39089 -1.33022,-1.4406 -2.82411,-6.77741 -1.49389,-5.3367 -2.673,-13.209 -3.43339,-22.54689 -1.5208,-18.67591 -1.48849,-43.31481 -0.73641,-67.99382 0.7521,-24.67898 2.2116,-49.43858 3.48461,-68.63873 0.6364,-9.60001 1.226,-17.80892 1.6577,-23.94321 0.4318,-6.13439 0.71889,-9.64221 0.71889,-11.84579 0,-0.25202 0.048,-0.64791 1.08832,-1.66812 1.04018,-1.02029 2.93647,-2.25089 4.9898,-3.2381 4.10668,-1.9743 8.4491,-3.0117 8.4491,-3.0117 a 6.6152445,6.6152445 0 0 0 4.05709,-10.05469 l -21.16801,-32.506 a 6.6152445,6.6152445 0 0 0 -5.5857,-3.006 z"
         id="path8249"
         inkscape:connector-curvature="0"
         inkscape:export-xdpi="38.90226"
         inkscape:export-ydpi="38.90226" />
      <path
         style="display:inline;opacity:1;fill:#6e59ad;fill-opacity:1;stroke:none;stroke-width:3.96875;stroke-linecap:round;stroke-linejoin:round;stroke-miterlimit:4;stroke-dasharray:none;stroke-dashoffset:0;stroke-opacity:1;paint-order:markers stroke fill"
         d="m 235.44793,452.55142 c 0.1541,27.3426 -7.6125,49.0313 -12.7057,33.2641 -3.8522,11.7366 -13.4195,58.4539 -17.87591,37.0582 -1.56169,2.8051 -3.6307,6.9388 -5.89579,11.4758 32.7851,-5.6459 63.8568,-17.4209 80.72329,-24.5427 -6.62919,-29.1664 -23.43899,-51.2957 -44.24589,-57.2554 z m -142.312815,5.3e-4 c -20.806197,5.9603 -37.616197,28.0888 -44.245295,57.2544 16.8656,7.1216 47.936995,18.897 80.7217,24.5432 -2.265,-4.5369 -4.3336,-8.6708 -5.8953,-11.4758 -4.4564,21.39569 -14.0237,-25.3215 -17.8759,-37.0582 -5.0932,15.7672 -12.859105,-5.9212 -12.705205,-33.2636 z"
         id="path8251"
         inkscape:connector-curvature="0"
         inkscape:export-xdpi="38.90226"
         inkscape:export-ydpi="38.90226" />
      <path
         style="color:#000000;font-style:normal;font-variant:normal;font-weight:normal;font-stretch:normal;font-size:medium;line-height:normal;font-family:sans-serif;font-variant-ligatures:normal;font-variant-position:normal;font-variant-caps:normal;font-variant-numeric:normal;font-variant-alternates:normal;font-feature-settings:normal;text-indent:0;text-align:start;text-decoration:none;text-decoration-line:none;text-decoration-style:solid;text-decoration-color:#000000;letter-spacing:normal;word-spacing:normal;text-transform:none;writing-mode:lr-tb;direction:ltr;text-orientation:mixed;dominant-baseline:auto;baseline-shift:baseline;text-anchor:start;white-space:normal;shape-padding:0;clip-rule:nonzero;display:inline;overflow:visible;visibility:visible;opacity:1;isolation:auto;mix-blend-mode:normal;color-interpolation:sRGB;color-interpolation-filters:linearRGB;solid-color:#000000;solid-opacity:1;vector-effect:none;fill:#6e59ad;fill-opacity:1;fill-rule:nonzero;stroke:none;stroke-width:2.11666656;stroke-linecap:round;stroke-linejoin:round;stroke-miterlimit:4;stroke-dasharray:none;stroke-dashoffset:0;stroke-opacity:1;color-rendering:auto;image-rendering:auto;shape-rendering:auto;text-rendering:auto;enable-background:accumulate"
         d="m 121.09252,381.13102 c -1.4336,-0.033 -2.6234,-0.01 -3.59179,0.066 a 1.0584391,1.0584391 0 0 0 -0.1211,0 c -0.019,0 -0.032,0.01 -0.051,0.01 v 0 a 1.0584391,1.0584391 0 0 0 -0.035,0.01 c -0.45191,0.04 -0.86221,0.09 -1.2402,0.1817 -0.24001,0.058 -1.0199,0.2547 -1.4844,0.8887 -0.017,0.023 -0.057,0.08 -0.1016,0.1562 -2.7e-4,5.3e-4 0,0 0,0 -0.4655,0.8063 -1.06611,2.1727 -0.96481,3.9805 0.1008,1.7993 0.85731,3.9351 2.6738,6.4726 5.3e-4,7.9e-4 0,0 0,0 0,0 0,0 0,0 0.058,0.082 0.1206,0.1541 0.1875,0.2207 a 1.0584391,1.0584391 0 0 0 0.01,0 c 1.8566,1.8282 4.57709,2.6255 7.60739,3.0352 0.56891,0.077 1.1501,0.1338 1.73241,0.1816 a 1.0584391,1.0584391 0 0 0 0.77929,-0.2558 c 2.4584,-2.1273 5.59081,-3.4964 9.0684,-3.7207 a 1.0584391,1.0584391 0 0 0 0.029,0 c 3.60459,-0.2257 6.9792,0.8221 9.72459,2.7539 a 1.0584391,1.0584391 0 0 0 0.71091,0.1875 c 2.0189,-0.1976 3.72669,-0.3345 4.84379,-0.332 a 1.0584391,1.0584391 0 0 0 0.01,0 c 0.091,-2.6e-4 0.18209,-0.01 0.26759,-0.024 1.48411,-0.2343 2.5106,-1.3239 2.9707,-2.4902 0.43511,-1.103 0.5021,-2.2691 0.48831,-3.3672 0,-0.5869 -0.30171,-1.116 -0.77351,-1.4258 -4.6595,-3.0453 -13.6023,-4.6884 -21.79489,-5.6816 -4.09911,-0.497 -7.97341,-0.7847 -10.93751,-0.8535 z m -0.049,2.1172 c 2.8697,0.067 6.69509,0.3484 10.73239,0.8379 7.96751,0.966 16.7317,2.7834 20.67971,5.2539 -0.01,0.8778 -0.067,1.7189 -0.31251,2.3418 -0.24529,0.6218 -0.6861,1.0763 -1.334,1.1777 -5.3e-4,0 0,0 0,0 -1.21099,7.9e-4 -2.8422,0.1404 -4.70699,0.3204 -3.0484,-2.0238 -6.71901,-3.1736 -10.6446,-2.9278 h 0.1192 c 0,1e-4 -0.046,0 -0.088,0 a 1.0584391,1.0584391 0 0 0 -0.055,0 c -3.7602,0.2406 -7.1341,1.7305 -9.86331,3.9492 -0.44579,-0.04 -0.89119,-0.08 -1.3066,-0.1367 -2.81089,-0.38 -5.06469,-1.1454 -6.3848,-2.4336 -1.63119,-2.2891 -2.1911,-4.0303 -2.26369,-5.3261 -0.072,-1.276 0.32049,-2.1585 0.66999,-2.7696 0.075,-0.1099 -0.1204,0.013 0.2695,-0.082 0.237,-0.058 0.5736,-0.1066 1.0039,-0.1426 0.85791,-0.072 2.05121,-0.094 3.48631,-0.061 z"
         id="path8253"
         inkscape:connector-curvature="0"
         inkscape:export-xdpi="38.90226"
         inkscape:export-ydpi="38.90226" />
      <path
         style="color:#000000;font-style:normal;font-variant:normal;font-weight:normal;font-stretch:normal;font-size:medium;line-height:normal;font-family:sans-serif;font-variant-ligatures:normal;font-variant-position:normal;font-variant-caps:normal;font-variant-numeric:normal;font-variant-alternates:normal;font-feature-settings:normal;text-indent:0;text-align:start;text-decoration:none;text-decoration-line:none;text-decoration-style:solid;text-decoration-color:#000000;letter-spacing:normal;word-spacing:normal;text-transform:none;writing-mode:lr-tb;direction:ltr;text-orientation:mixed;dominant-baseline:auto;baseline-shift:baseline;text-anchor:start;white-space:normal;shape-padding:0;clip-rule:nonzero;display:inline;overflow:visible;visibility:visible;opacity:1;isolation:auto;mix-blend-mode:normal;color-interpolation:sRGB;color-interpolation-filters:linearRGB;solid-color:#000000;solid-opacity:1;vector-effect:none;fill:#6e59ad;fill-opacity:1;fill-rule:nonzero;stroke:none;stroke-width:2.64583325;stroke-linecap:round;stroke-linejoin:miter;stroke-miterlimit:4;stroke-dasharray:none;stroke-dashoffset:0;stroke-opacity:1;color-rendering:auto;image-rendering:auto;shape-rendering:auto;text-rendering:auto;enable-background:accumulate"
         d="m 167.76833,410.11542 a 1.3230489,1.3230489 0 0 0 -1.3418,1.3027 c 0,0 -0.1542,5.1032 0.31249,10.9493 0.46661,5.846 1.33081,12.3934 4.2871,15.875 l 0.018,0.021 0.019,0.02 c 0.5127,0.5548 0.8296,1.8623 0.082,3.0547 -0.7467,1.1909 -2.6473,2.4916 -6.8985,2.539 -4.2511,-0.047 -6.1499,-1.3482 -6.8965,-2.539 -0.7474,-1.1924 -0.4307,-2.4999 0.082,-3.0547 l 0.019,-0.02 0.018,-0.021 c 2.9564,-3.4816 3.8205,-10.029 4.2872,-15.875 0.4666,-5.8461 0.3125,-10.9493 0.3125,-10.9493 a 1.3230489,1.3230489 0 1 0 -2.6446,0.078 c 0,0 0.1485,4.9821 -0.3047,10.6601 -0.4532,5.6781 -1.7306,12.0938 -3.666,14.3731 l 0.035,-0.041 c -1.4172,1.5334 -1.741,4.0861 -0.3808,6.2558 1.3602,2.1697 4.3158,3.7292 9.125,3.7793 h 0.014 0.014 c 4.8092,-0.05 7.7666,-1.6096 9.1269,-3.7793 1.3603,-2.1697 1.0345,-4.7223 -0.3828,-6.2558 l 0.037,0.041 c -1.9354,-2.2793 -3.2128,-8.695 -3.666,-14.3731 -0.4532,-5.678 -0.3047,-10.6601 -0.3047,-10.6601 a 1.3230489,1.3230489 0 0 0 -1.3027,-1.3809 z"
         id="path8255"
         inkscape:connector-curvature="0"
         inkscape:export-xdpi="38.90226"
         inkscape:export-ydpi="38.90226" />
      <path
         id="path8257"
         style="display:inline;fill:#6e59ad;fill-opacity:1;stroke:none;stroke-width:1.32291663;stroke-linecap:round;stroke-linejoin:round;stroke-miterlimit:4;stroke-dasharray:none;stroke-opacity:1"
         d="m 164.24623,485.02682 c -32.90411,-0.8018 -30.23711,-12.5804 -28.39461,-19.0543 0.6761,-0.4244 1.219,-0.1906 1.219,-0.1906 -0.06,0.6083 0.2029,1.6707 3.28921,1.6175 3.08829,0.052 3.34869,-1.0119 3.43809,-1.0086 0.089,0 0.4206,1.0133 3.4246,0.9616 3.0049,0.05 3.33541,-0.9608 3.44041,-0.9593 0.105,0 0.48929,0.9623 3.4217,0.9117 2.93399,0.049 3.31789,-0.9128 3.44199,-0.9125 0.12421,2e-4 0.5569,0.9149 3.4206,0.8655 2.38401,0.04 3.0833,-0.5876 3.25141,-1.156 0.06,-0.1576 0.093,-5.3e-4 0.093,-5.3e-4 0.1679,0.568 0.867,1.1959 3.25139,1.1559 2.8637,0.049 3.2965,-0.8653 3.4206,-0.8655 0.1241,-2.6e-4 0.508,0.9617 3.44201,0.9125 2.93239,0.051 3.3167,-0.9102 3.4217,-0.9117 0.105,0 0.43549,1.0097 3.44049,0.9593 3.00391,0.052 3.3351,-0.9582 3.4245,-0.9616 0.089,0 0.3498,1.0604 3.43811,1.0086 3.08639,0.053 3.34919,-1.0092 3.2892,-1.6175 0,0 0.5429,-0.2338 1.21899,0.1906 1.8426,6.4739 4.5095,18.2524 -28.39459,19.0543"
         inkscape:connector-curvature="0"
         sodipodi:nodetypes="cccccccccccccccccccccc"
         inkscape:export-xdpi="38.90226"
         inkscape:export-ydpi="38.90226" />
      <path
         style="color:#000000;font-style:normal;font-variant:normal;font-weight:normal;font-stretch:normal;font-size:medium;line-height:normal;font-family:sans-serif;font-variant-ligatures:normal;font-variant-position:normal;font-variant-caps:normal;font-variant-numeric:normal;font-variant-alternates:normal;font-feature-settings:normal;text-indent:0;text-align:start;text-decoration:none;text-decoration-line:none;text-decoration-style:solid;text-decoration-color:#000000;letter-spacing:normal;word-spacing:normal;text-transform:none;writing-mode:lr-tb;direction:ltr;text-orientation:mixed;dominant-baseline:auto;baseline-shift:baseline;text-anchor:start;white-space:normal;shape-padding:0;clip-rule:nonzero;display:inline;overflow:visible;visibility:visible;opacity:1;isolation:auto;mix-blend-mode:normal;color-interpolation:sRGB;color-interpolation-filters:linearRGB;solid-color:#000000;solid-opacity:1;vector-effect:none;fill:#6e59ad;fill-opacity:1;fill-rule:nonzero;stroke:none;stroke-width:2.11666656;stroke-linecap:round;stroke-linejoin:miter;stroke-miterlimit:4;stroke-dasharray:none;stroke-dashoffset:0;stroke-opacity:1;color-rendering:auto;image-rendering:auto;shape-rendering:auto;text-rendering:auto;enable-background:accumulate"
         d="m 119.81903,417.81462 a 1.0584391,1.0584391 0 0 0 -0.38471,0.062 l -4.0762,1.4024 a 1.0586755,1.0586755 0 1 0 0.68951,2.0019 l 4.0761,-1.4023 a 1.0584391,1.0584391 0 0 0 -0.3047,-2.0645 z"
         id="path8259"
         inkscape:connector-curvature="0"
         inkscape:export-xdpi="38.90226"
         inkscape:export-ydpi="38.90226" />
      <path
         style="color:#000000;font-style:normal;font-variant:normal;font-weight:normal;font-stretch:normal;font-size:medium;line-height:normal;font-family:sans-serif;font-variant-ligatures:normal;font-variant-position:normal;font-variant-caps:normal;font-variant-numeric:normal;font-variant-alternates:normal;font-feature-settings:normal;text-indent:0;text-align:start;text-decoration:none;text-decoration-line:none;text-decoration-style:solid;text-decoration-color:#000000;letter-spacing:normal;word-spacing:normal;text-transform:none;writing-mode:lr-tb;direction:ltr;text-orientation:mixed;dominant-baseline:auto;baseline-shift:baseline;text-anchor:start;white-space:normal;shape-padding:0;clip-rule:nonzero;display:inline;overflow:visible;visibility:visible;opacity:1;isolation:auto;mix-blend-mode:normal;color-interpolation:sRGB;color-interpolation-filters:linearRGB;solid-color:#000000;solid-opacity:1;vector-effect:none;fill:#6e59ad;fill-opacity:1;fill-rule:nonzero;stroke:none;stroke-width:2.11666656;stroke-linecap:round;stroke-linejoin:miter;stroke-miterlimit:4;stroke-dasharray:none;stroke-dashoffset:0;stroke-opacity:1;color-rendering:auto;image-rendering:auto;shape-rendering:auto;text-rendering:auto;enable-background:accumulate"
         d="m 121.60812,422.83422 a 1.0584391,1.0584391 0 0 0 -0.56249,0.1953 l -5.0098,3.4746 a 1.0584391,1.0584391 0 1 0 1.2051,1.7402 l 5.01169,-3.4746 a 1.0584391,1.0584391 0 0 0 -0.6445,-1.9355 z"
         id="path8261"
         inkscape:connector-curvature="0"
         inkscape:export-xdpi="38.90226"
         inkscape:export-ydpi="38.90226" />
      <path
         style="color:#000000;font-style:normal;font-variant:normal;font-weight:normal;font-stretch:normal;font-size:medium;line-height:normal;font-family:sans-serif;font-variant-ligatures:normal;font-variant-position:normal;font-variant-caps:normal;font-variant-numeric:normal;font-variant-alternates:normal;font-feature-settings:normal;text-indent:0;text-align:start;text-decoration:none;text-decoration-line:none;text-decoration-style:solid;text-decoration-color:#000000;letter-spacing:normal;word-spacing:normal;text-transform:none;writing-mode:lr-tb;direction:ltr;text-orientation:mixed;dominant-baseline:auto;baseline-shift:baseline;text-anchor:start;white-space:normal;shape-padding:0;clip-rule:nonzero;display:inline;overflow:visible;visibility:visible;opacity:1;isolation:auto;mix-blend-mode:normal;color-interpolation:sRGB;color-interpolation-filters:linearRGB;solid-color:#000000;solid-opacity:1;vector-effect:none;fill:#6e59ad;fill-opacity:1;fill-rule:nonzero;stroke:none;stroke-width:2.11666656;stroke-linecap:round;stroke-linejoin:miter;stroke-miterlimit:4;stroke-dasharray:none;stroke-dashoffset:0;stroke-opacity:1;color-rendering:auto;image-rendering:auto;shape-rendering:auto;text-rendering:auto;enable-background:accumulate"
         d="m 208.75262,417.81462 a 1.0584391,1.0584391 0 0 0 -0.37889,2.0645 l 4.0762,1.4023 a 1.0586755,1.0586755 0 1 0 0.68949,-2.0019 l -4.0762,-1.4024 a 1.0584391,1.0584391 0 0 0 -0.3106,-0.062 z"
         id="path8263"
         inkscape:connector-curvature="0"
         inkscape:export-xdpi="38.90226"
         inkscape:export-ydpi="38.90226" />
      <path
         style="color:#000000;font-style:normal;font-variant:normal;font-weight:normal;font-stretch:normal;font-size:medium;line-height:normal;font-family:sans-serif;font-variant-ligatures:normal;font-variant-position:normal;font-variant-caps:normal;font-variant-numeric:normal;font-variant-alternates:normal;font-feature-settings:normal;text-indent:0;text-align:start;text-decoration:none;text-decoration-line:none;text-decoration-style:solid;text-decoration-color:#000000;letter-spacing:normal;word-spacing:normal;text-transform:none;writing-mode:lr-tb;direction:ltr;text-orientation:mixed;dominant-baseline:auto;baseline-shift:baseline;text-anchor:start;white-space:normal;shape-padding:0;clip-rule:nonzero;display:inline;overflow:visible;visibility:visible;opacity:1;isolation:auto;mix-blend-mode:normal;color-interpolation:sRGB;color-interpolation-filters:linearRGB;solid-color:#000000;solid-opacity:1;vector-effect:none;fill:#6e59ad;fill-opacity:1;fill-rule:nonzero;stroke:none;stroke-width:2.11666656;stroke-linecap:round;stroke-linejoin:miter;stroke-miterlimit:4;stroke-dasharray:none;stroke-dashoffset:0;stroke-opacity:1;color-rendering:auto;image-rendering:auto;shape-rendering:auto;text-rendering:auto;enable-background:accumulate"
         d="m 206.85813,422.83222 a 1.0584391,1.0584391 0 0 0 -0.61331,1.9375 l 5.01171,3.4746 a 1.0584391,1.0584391 0 1 0 1.2051,-1.7402 l -5.0097,-3.4746 a 1.0584391,1.0584391 0 0 0 -0.5938,-0.1973 z"
         id="path8265"
         inkscape:connector-curvature="0"
         inkscape:export-xdpi="38.90226"
         inkscape:export-ydpi="38.90226" />
      <path
         style="color:#000000;font-style:normal;font-variant:normal;font-weight:normal;font-stretch:normal;font-size:medium;line-height:normal;font-family:sans-serif;font-variant-ligatures:normal;font-variant-position:normal;font-variant-caps:normal;font-variant-numeric:normal;font-variant-alternates:normal;font-feature-settings:normal;text-indent:0;text-align:start;text-decoration:none;text-decoration-line:none;text-decoration-style:solid;text-decoration-color:#000000;letter-spacing:normal;word-spacing:normal;text-transform:none;writing-mode:lr-tb;direction:ltr;text-orientation:mixed;dominant-baseline:auto;baseline-shift:baseline;text-anchor:start;white-space:normal;shape-padding:0;clip-rule:nonzero;display:inline;overflow:visible;visibility:visible;opacity:1;isolation:auto;mix-blend-mode:normal;color-interpolation:sRGB;color-interpolation-filters:linearRGB;solid-color:#000000;solid-opacity:1;vector-effect:none;fill:#6e59ad;fill-opacity:1;fill-rule:nonzero;stroke:none;stroke-width:2.11666656;stroke-linecap:round;stroke-linejoin:miter;stroke-miterlimit:4;stroke-dasharray:none;stroke-dashoffset:0;stroke-opacity:1;color-rendering:auto;image-rendering:auto;shape-rendering:auto;text-rendering:auto;enable-background:accumulate"
         d="m 130.99682,409.06072 c -3.1067,0.1512 -4.68419,1.193 -5.459,1.5293 a 1.0584391,1.0584391 0 1 0 0.84181,1.9414 c 1.1708,-0.5083 2.01029,-1.2236 4.72069,-1.3554 2.7104,-0.1319 7.2081,0.4253 14.91011,2.9277 a 1.0584391,1.0584391 0 1 0 0.65429,-2.0117 c -7.8429,-2.5482 -12.5613,-3.1825 -15.6679,-3.0313 z"
         id="path8267"
         inkscape:connector-curvature="0"
         inkscape:export-xdpi="38.90226"
         inkscape:export-ydpi="38.90226" />
      <path
         style="color:#000000;font-style:normal;font-variant:normal;font-weight:normal;font-stretch:normal;font-size:medium;line-height:normal;font-family:sans-serif;font-variant-ligatures:normal;font-variant-position:normal;font-variant-caps:normal;font-variant-numeric:normal;font-variant-alternates:normal;font-feature-settings:normal;text-indent:0;text-align:start;text-decoration:none;text-decoration-line:none;text-decoration-style:solid;text-decoration-color:#000000;letter-spacing:normal;word-spacing:normal;text-transform:none;writing-mode:lr-tb;direction:ltr;text-orientation:mixed;dominant-baseline:auto;baseline-shift:baseline;text-anchor:start;white-space:normal;shape-padding:0;clip-rule:nonzero;display:inline;overflow:visible;visibility:visible;opacity:1;isolation:auto;mix-blend-mode:normal;color-interpolation:sRGB;color-interpolation-filters:linearRGB;solid-color:#000000;solid-opacity:1;vector-effect:none;fill:#6e59ad;fill-opacity:1;fill-rule:nonzero;stroke:none;stroke-width:2.11666656;stroke-linecap:round;stroke-linejoin:miter;stroke-miterlimit:4;stroke-dasharray:none;stroke-dashoffset:0;stroke-opacity:1;color-rendering:auto;image-rendering:auto;shape-rendering:auto;text-rendering:auto;enable-background:accumulate"
         d="m 130.86793,405.27952 c -1.3319,0.1201 -2.69701,0.5074 -4.04501,1.3808 a 1.0584391,1.0584391 0 1 0 1.15241,1.7754 c 2.10079,-1.3612 4.09199,-1.2146 6.4062,-0.8437 a 1.0591491,1.0591491 0 1 0 0.33399,-2.0918 c -1.21709,-0.1951 -2.5158,-0.3409 -3.84759,-0.2207 z"
         id="path8269"
         inkscape:connector-curvature="0"
         inkscape:export-xdpi="38.90226"
         inkscape:export-ydpi="38.90226" />
      <path
         style="color:#000000;font-style:normal;font-variant:normal;font-weight:normal;font-stretch:normal;font-size:medium;line-height:normal;font-family:sans-serif;font-variant-ligatures:normal;font-variant-position:normal;font-variant-caps:normal;font-variant-numeric:normal;font-variant-alternates:normal;font-feature-settings:normal;text-indent:0;text-align:start;text-decoration:none;text-decoration-line:none;text-decoration-style:solid;text-decoration-color:#000000;letter-spacing:normal;word-spacing:normal;text-transform:none;writing-mode:lr-tb;direction:ltr;text-orientation:mixed;dominant-baseline:auto;baseline-shift:baseline;text-anchor:start;white-space:normal;shape-padding:0;clip-rule:nonzero;display:inline;overflow:visible;visibility:visible;opacity:1;isolation:auto;mix-blend-mode:normal;color-interpolation:sRGB;color-interpolation-filters:linearRGB;solid-color:#000000;solid-opacity:1;vector-effect:none;fill:#6e59ad;fill-opacity:1;fill-rule:nonzero;stroke:none;stroke-width:2.11666656;stroke-linecap:round;stroke-linejoin:miter;stroke-miterlimit:4;stroke-dasharray:none;stroke-dashoffset:0;stroke-opacity:1;color-rendering:auto;image-rendering:auto;shape-rendering:auto;text-rendering:auto;enable-background:accumulate"
         d="m 145.19993,415.31462 a 1.0584391,1.0584391 0 0 0 -0.4805,0.1074 l -3.8086,1.8047 a 1.0584391,1.0584391 0 1 0 0.90629,1.9121 l 3.8086,-1.8027 a 1.0584391,1.0584391 0 0 0 -0.42579,-2.0215 z"
         id="path8271"
         inkscape:connector-curvature="0"
         inkscape:export-xdpi="38.90226"
         inkscape:export-ydpi="38.90226" />
      <path
         style="color:#000000;font-style:normal;font-variant:normal;font-weight:normal;font-stretch:normal;font-size:medium;line-height:normal;font-family:sans-serif;font-variant-ligatures:normal;font-variant-position:normal;font-variant-caps:normal;font-variant-numeric:normal;font-variant-alternates:normal;font-feature-settings:normal;text-indent:0;text-align:start;text-decoration:none;text-decoration-line:none;text-decoration-style:solid;text-decoration-color:#000000;letter-spacing:normal;word-spacing:normal;text-transform:none;writing-mode:lr-tb;direction:ltr;text-orientation:mixed;dominant-baseline:auto;baseline-shift:baseline;text-anchor:start;white-space:normal;shape-padding:0;clip-rule:nonzero;display:inline;overflow:visible;visibility:visible;opacity:1;isolation:auto;mix-blend-mode:normal;color-interpolation:sRGB;color-interpolation-filters:linearRGB;solid-color:#000000;solid-opacity:1;vector-effect:none;fill:#6e59ad;fill-opacity:1;fill-rule:nonzero;stroke:none;stroke-width:2.11666656;stroke-linecap:round;stroke-linejoin:miter;stroke-miterlimit:4;stroke-dasharray:none;stroke-dashoffset:0;stroke-opacity:1;color-rendering:auto;image-rendering:auto;shape-rendering:auto;text-rendering:auto;enable-background:accumulate"
         d="m 99.899115,441.52562 a 1.0584391,1.0584391 0 0 0 -1.08009,0.9218 c 0,0 -2.16791,15.1111 4.726595,34.7129 a 1.0584391,1.0584391 0 1 0 1.99611,-0.7031 c -6.736305,-19.1522 -4.62701,-33.709 -4.62701,-33.709 a 1.0584391,1.0584391 0 0 0 -1.015605,-1.2226 z"
         id="path8273"
         inkscape:connector-curvature="0"
         inkscape:export-xdpi="38.90226"
         inkscape:export-ydpi="38.90226" />
      <path
         style="color:#000000;font-style:normal;font-variant:normal;font-weight:normal;font-stretch:normal;font-size:medium;line-height:normal;font-family:sans-serif;font-variant-ligatures:normal;font-variant-position:normal;font-variant-caps:normal;font-variant-numeric:normal;font-variant-alternates:normal;font-feature-settings:normal;text-indent:0;text-align:start;text-decoration:none;text-decoration-line:none;text-decoration-style:solid;text-decoration-color:#000000;letter-spacing:normal;word-spacing:normal;text-transform:none;writing-mode:lr-tb;direction:ltr;text-orientation:mixed;dominant-baseline:auto;baseline-shift:baseline;text-anchor:start;white-space:normal;shape-padding:0;clip-rule:nonzero;display:inline;overflow:visible;visibility:visible;opacity:1;isolation:auto;mix-blend-mode:normal;color-interpolation:sRGB;color-interpolation-filters:linearRGB;solid-color:#000000;solid-opacity:1;vector-effect:none;fill:#6e59ad;fill-opacity:1;fill-rule:nonzero;stroke:none;stroke-width:2.11666656;stroke-linecap:round;stroke-linejoin:miter;stroke-miterlimit:4;stroke-dasharray:none;stroke-dashoffset:0;stroke-opacity:1;color-rendering:auto;image-rendering:auto;shape-rendering:auto;text-rendering:auto;enable-background:accumulate"
         d="m 213.83083,488.10952 a 1.0584391,1.0584391 0 0 0 -1.043,0.9629 c -1.0999,10.5 -2.7984,16.9119 -4.4082,20.8125 -1.60981,3.9007 -3.0799,5.2623 -3.8692,5.8555 a 1.0584391,1.0584391 0 1 0 1.2715,1.6914 c 1.0615,-0.7978 2.832,-2.5708 4.55279,-6.7402 1.72071,-4.1695 3.44451,-10.7632 4.55861,-21.3985 a 1.0584391,1.0584391 0 0 0 -1.0625,-1.1836 z"
         id="path8275"
         inkscape:connector-curvature="0"
         inkscape:export-xdpi="38.90226"
         inkscape:export-ydpi="38.90226" />
      <path
         style="color:#000000;font-style:normal;font-variant:normal;font-weight:normal;font-stretch:normal;font-size:medium;line-height:normal;font-family:sans-serif;font-variant-ligatures:normal;font-variant-position:normal;font-variant-caps:normal;font-variant-numeric:normal;font-variant-alternates:normal;font-feature-settings:normal;text-indent:0;text-align:start;text-decoration:none;text-decoration-line:none;text-decoration-style:solid;text-decoration-color:#000000;letter-spacing:normal;word-spacing:normal;text-transform:none;writing-mode:lr-tb;direction:ltr;text-orientation:mixed;dominant-baseline:auto;baseline-shift:baseline;text-anchor:start;white-space:normal;shape-padding:0;clip-rule:nonzero;display:inline;overflow:visible;visibility:visible;opacity:1;isolation:auto;mix-blend-mode:normal;color-interpolation:sRGB;color-interpolation-filters:linearRGB;solid-color:#000000;solid-opacity:1;vector-effect:none;fill:#6e59ad;fill-opacity:1;fill-rule:nonzero;stroke:none;stroke-width:2.11666656;stroke-linecap:round;stroke-linejoin:miter;stroke-miterlimit:4;stroke-dasharray:none;stroke-dashoffset:0;stroke-opacity:1;color-rendering:auto;image-rendering:auto;shape-rendering:auto;text-rendering:auto;enable-background:accumulate"
         d="m 158.96362,493.96312 a 1.0584391,1.0584391 0 0 0 -0.87309,0.4609 c -5.0352,7.1603 -9.59231,9.4008 -12.8183,9.9727 -3.22611,0.5718 -5.09181,-0.4688 -5.09181,-0.4688 a 1.0584391,1.0584391 0 1 0 -1,1.8652 c 0,0 2.6235,1.3677 6.4609,0.6875 3.8374,-0.6802 8.91711,-3.3535 14.1816,-10.8398 a 1.0584391,1.0584391 0 0 0 -0.8593,-1.6777 z"
         id="path8277"
         inkscape:connector-curvature="0"
         inkscape:export-xdpi="38.90226"
         inkscape:export-ydpi="38.90226" />
      <path
         style="color:#000000;font-style:normal;font-variant:normal;font-weight:normal;font-stretch:normal;font-size:medium;line-height:normal;font-family:sans-serif;font-variant-ligatures:normal;font-variant-position:normal;font-variant-caps:normal;font-variant-numeric:normal;font-variant-alternates:normal;font-feature-settings:normal;text-indent:0;text-align:start;text-decoration:none;text-decoration-line:none;text-decoration-style:solid;text-decoration-color:#000000;letter-spacing:normal;word-spacing:normal;text-transform:none;writing-mode:lr-tb;direction:ltr;text-orientation:mixed;dominant-baseline:auto;baseline-shift:baseline;text-anchor:start;white-space:normal;shape-padding:0;clip-rule:nonzero;display:inline;overflow:visible;visibility:visible;opacity:1;isolation:auto;mix-blend-mode:normal;color-interpolation:sRGB;color-interpolation-filters:linearRGB;solid-color:#000000;solid-opacity:1;vector-effect:none;fill:#6e59ad;fill-opacity:1;fill-rule:nonzero;stroke:none;stroke-width:2.11666656;stroke-linecap:round;stroke-linejoin:miter;stroke-miterlimit:4;stroke-dasharray:none;stroke-dashoffset:0;stroke-opacity:1;color-rendering:auto;image-rendering:auto;shape-rendering:auto;text-rendering:auto;enable-background:accumulate"
         d="m 146.92652,535.35762 a 1.0584391,1.0584391 0 0 0 -1.0039,0.7539 c -0.68939,2.188 0.10771,4.5802 1.4277,6.9356 1.32,2.3554 3.23941,4.73501 5.21481,6.8906 3.951,4.3112 8.1563,7.72459 8.1563,7.72459 a 1.0586325,1.0586325 0 1 0 1.3359,-1.64259 c 0,0 -4.1104,-3.34399 -7.9316,-7.51369 -1.91061,-2.08481 -3.7407,-4.37581 -4.92781,-6.49412 -1.187,-2.11828 -1.6551,-4.00259 -1.2578,-5.26369 a 1.0584391,1.0584391 0 0 0 -1.0136,-1.3906 z"
         id="path8279"
         inkscape:connector-curvature="0"
         inkscape:export-xdpi="38.90226"
         inkscape:export-ydpi="38.90226" />
      <path
         style="color:#000000;font-style:normal;font-variant:normal;font-weight:normal;font-stretch:normal;font-size:medium;line-height:normal;font-family:sans-serif;font-variant-ligatures:normal;font-variant-position:normal;font-variant-caps:normal;font-variant-numeric:normal;font-variant-alternates:normal;font-feature-settings:normal;text-indent:0;text-align:start;text-decoration:none;text-decoration-line:none;text-decoration-style:solid;text-decoration-color:#000000;letter-spacing:normal;word-spacing:normal;text-transform:none;writing-mode:lr-tb;direction:ltr;text-orientation:mixed;dominant-baseline:auto;baseline-shift:baseline;text-anchor:start;white-space:normal;shape-padding:0;clip-rule:nonzero;display:inline;overflow:visible;visibility:visible;opacity:1;isolation:auto;mix-blend-mode:normal;color-interpolation:sRGB;color-interpolation-filters:linearRGB;solid-color:#000000;solid-opacity:1;vector-effect:none;fill:#6e59ad;fill-opacity:1;fill-rule:nonzero;stroke:none;stroke-width:2.11666656;stroke-linecap:round;stroke-linejoin:miter;stroke-miterlimit:4;stroke-dasharray:none;stroke-dashoffset:0;stroke-opacity:1;color-rendering:auto;image-rendering:auto;shape-rendering:auto;text-rendering:auto;enable-background:accumulate"
         d="m 169.50262,493.96702 a 1.0584391,1.0584391 0 0 0 -0.82809,1.6777 c 5.2645,7.4863 10.34429,10.1597 14.1816,10.8399 3.8374,0.6802 6.46099,-0.6875 6.46099,-0.6875 a 1.0584391,1.0584391 0 1 0 -0.99999,-1.8653 c 0,0 -1.86571,1.0406 -5.0918,0.4688 -3.22611,-0.5719 -7.7831,-2.8124 -12.81841,-9.9727 a 1.0584391,1.0584391 0 0 0 -0.9043,-0.4609 z"
         id="path8281"
         inkscape:connector-curvature="0"
         inkscape:export-xdpi="38.90226"
         inkscape:export-ydpi="38.90226" />
      <path
         style="color:#000000;font-style:normal;font-variant:normal;font-weight:normal;font-stretch:normal;font-size:medium;line-height:normal;font-family:sans-serif;font-variant-ligatures:normal;font-variant-position:normal;font-variant-caps:normal;font-variant-numeric:normal;font-variant-alternates:normal;font-feature-settings:normal;text-indent:0;text-align:start;text-decoration:none;text-decoration-line:none;text-decoration-style:solid;text-decoration-color:#000000;letter-spacing:normal;word-spacing:normal;text-transform:none;writing-mode:lr-tb;direction:ltr;text-orientation:mixed;dominant-baseline:auto;baseline-shift:baseline;text-anchor:start;white-space:normal;shape-padding:0;clip-rule:nonzero;display:inline;overflow:visible;visibility:visible;opacity:1;isolation:auto;mix-blend-mode:normal;color-interpolation:sRGB;color-interpolation-filters:linearRGB;solid-color:#000000;solid-opacity:1;vector-effect:none;fill:#6e59ad;fill-opacity:1;fill-rule:nonzero;stroke:none;stroke-width:2.9192977;stroke-linecap:round;stroke-linejoin:round;stroke-miterlimit:4;stroke-dasharray:none;stroke-dashoffset:0;stroke-opacity:1;paint-order:markers stroke fill;color-rendering:auto;image-rendering:auto;shape-rendering:auto;text-rendering:auto;enable-background:accumulate"
         d="m 135.89763,397.58872 c -8.28071,0 -15.025,6.7443 -15.025,15.025 0,8.2806 6.74429,15.0244 15.025,15.0244 7.83519,0 14.29069,-6.039 14.96289,-13.7036 0.7991,0 1.61131,0 2.41481,0 1.83049,0.031 3.1968,-0.4869 4.0292,-1.3772 0.8323,-0.8903 1.08749,-1.869 1.3984,-2.5838 0.31099,-0.7148 0.57369,-1.1858 1.26349,-1.6035 0.6898,-0.4177 1.9446,-0.792 4.2803,-0.792 2.33581,0 3.59061,0.3743 4.2804,0.792 0.6898,0.4177 0.9525,0.8887 1.26351,1.6035 0.31089,0.7148 0.566,1.6935 1.39829,2.5838 0.83251,0.8903 2.19881,1.4086 4.0293,1.3772 0.8035,0 1.6157,0 2.41481,0 0.67219,7.6646 7.12769,13.7036 14.9629,13.7036 8.28069,0 15.02489,-6.7438 15.02489,-15.0244 0,-8.2807 -6.7442,-15.025 -15.02489,-15.025 v 0 c -7.8354,0 -14.29161,6.0392 -14.9635,13.7041 -0.80811,-0.01 -1.6343,-8e-4 -2.44741,0 h -0.01 c -1.3881,0.024 -1.7677,-0.2333 -2.0515,-0.5369 -0.2839,-0.3036 -0.5144,-0.9365 -0.9039,-1.8319 -0.3895,-0.8955 -1.0408,-2.0347 -2.3223,-2.8107 -1.2785,-0.7742 -3.0488,-1.1755 -5.6482,-1.1483 -2.5995,-0.027 -4.3698,0.3741 -5.6483,1.1483 -1.2815,0.776 -1.9328,1.9152 -2.3223,2.8107 -0.3895,0.8954 -0.6199,1.5283 -0.9038,1.8319 -0.2839,0.3036 -0.6635,0.5607 -2.0516,0.5369 h -0.01 c -0.8131,0 -1.6392,0 -2.4474,0 -0.6719,-7.6649 -7.128,-13.7041 -14.9634,-13.7041 z m 0.1441,3.219 c 7.01509,0 12.70189,5.3449 12.7021,11.9383 9e-5,6.5935 -5.6868,11.9387 -12.7021,11.9388 -7.01541,10e-5 -12.70271,-5.3451 -12.70251,-11.9388 1.1e-4,-6.5936 5.68731,-11.9385 12.70251,-11.9383 z m 56.41,0 c 7.0153,-2e-4 12.70239,5.3447 12.7026,11.9383 1e-4,6.5937 -5.6871,11.9389 -12.7026,11.9388 -7.0152,-10e-5 -12.7022,-5.3453 -12.70201,-11.9388 1.1e-4,-6.5934 5.687,-11.9383 12.70201,-11.9383 z"
         id="path8283"
         inkscape:connector-curvature="0"
         sodipodi:nodetypes="ssscccccccccccsssscccccscscccccssccccccccsc"
         inkscape:export-xdpi="38.90226"
         inkscape:export-ydpi="38.90226" />
      <path
         style="color:#000000;font-style:normal;font-variant:normal;font-weight:normal;font-stretch:normal;font-size:medium;line-height:normal;font-family:sans-serif;font-variant-ligatures:normal;font-variant-position:normal;font-variant-caps:normal;font-variant-numeric:normal;font-variant-alternates:normal;font-feature-settings:normal;text-indent:0;text-align:start;text-decoration:none;text-decoration-line:none;text-decoration-style:solid;text-decoration-color:#000000;letter-spacing:normal;word-spacing:normal;text-transform:none;writing-mode:lr-tb;direction:ltr;text-orientation:mixed;dominant-baseline:auto;baseline-shift:baseline;text-anchor:start;white-space:normal;shape-padding:0;clip-rule:nonzero;display:inline;overflow:visible;visibility:visible;opacity:1;isolation:auto;mix-blend-mode:normal;color-interpolation:sRGB;color-interpolation-filters:linearRGB;solid-color:#000000;solid-opacity:1;vector-effect:none;fill:#6e59ad;fill-opacity:1;fill-rule:nonzero;stroke:none;stroke-width:2.11666656;stroke-linecap:round;stroke-linejoin:miter;stroke-miterlimit:4;stroke-dasharray:none;stroke-dashoffset:0;stroke-opacity:1;color-rendering:auto;image-rendering:auto;shape-rendering:auto;text-rendering:auto;enable-background:accumulate"
         d="m 197.49683,409.06072 c -3.1067,-0.1512 -7.82511,0.4831 -15.668,3.0313 a 1.0584391,1.0584391 0 1 0 0.65429,2.0117 c 7.7021,-2.5024 12.1998,-3.0596 14.9102,-2.9277 2.71031,0.1318 3.54981,0.8471 4.72071,1.3554 a 1.0584391,1.0584391 0 1 0 0.8418,-1.9414 c -0.7748,-0.3363 -2.3524,-1.3781 -5.459,-1.5293 z"
         id="path8285"
         inkscape:connector-curvature="0"
         inkscape:export-xdpi="38.90226"
         inkscape:export-ydpi="38.90226" />
      <path
         style="color:#000000;font-style:normal;font-variant:normal;font-weight:normal;font-stretch:normal;font-size:medium;line-height:normal;font-family:sans-serif;font-variant-ligatures:normal;font-variant-position:normal;font-variant-caps:normal;font-variant-numeric:normal;font-variant-alternates:normal;font-feature-settings:normal;text-indent:0;text-align:start;text-decoration:none;text-decoration-line:none;text-decoration-style:solid;text-decoration-color:#000000;letter-spacing:normal;word-spacing:normal;text-transform:none;writing-mode:lr-tb;direction:ltr;text-orientation:mixed;dominant-baseline:auto;baseline-shift:baseline;text-anchor:start;white-space:normal;shape-padding:0;clip-rule:nonzero;display:inline;overflow:visible;visibility:visible;opacity:1;isolation:auto;mix-blend-mode:normal;color-interpolation:sRGB;color-interpolation-filters:linearRGB;solid-color:#000000;solid-opacity:1;vector-effect:none;fill:#6e59ad;fill-opacity:1;fill-rule:nonzero;stroke:none;stroke-width:2.11666656;stroke-linecap:round;stroke-linejoin:miter;stroke-miterlimit:4;stroke-dasharray:none;stroke-dashoffset:0;stroke-opacity:1;color-rendering:auto;image-rendering:auto;shape-rendering:auto;text-rendering:auto;enable-background:accumulate"
         d="m 197.62573,405.27952 c -1.33191,-0.1202 -2.6306,0.026 -3.8477,0.2207 a 1.0591491,1.0591491 0 1 0 0.334,2.0918 c 2.31419,-0.3709 4.3054,-0.5175 6.4063,0.8437 a 1.0584391,1.0584391 0 1 0 1.1523,-1.7754 c -1.34801,-0.8734 -2.7131,-1.2607 -4.0449,-1.3808 z"
         id="path8287"
         inkscape:connector-curvature="0"
         inkscape:export-xdpi="38.90226"
         inkscape:export-ydpi="38.90226" />
      <path
         style="color:#000000;font-style:normal;font-variant:normal;font-weight:normal;font-stretch:normal;font-size:medium;line-height:normal;font-family:sans-serif;font-variant-ligatures:normal;font-variant-position:normal;font-variant-caps:normal;font-variant-numeric:normal;font-variant-alternates:normal;font-feature-settings:normal;text-indent:0;text-align:start;text-decoration:none;text-decoration-line:none;text-decoration-style:solid;text-decoration-color:#000000;letter-spacing:normal;word-spacing:normal;text-transform:none;writing-mode:lr-tb;direction:ltr;text-orientation:mixed;dominant-baseline:auto;baseline-shift:baseline;text-anchor:start;white-space:normal;shape-padding:0;clip-rule:nonzero;display:inline;overflow:visible;visibility:visible;opacity:1;isolation:auto;mix-blend-mode:normal;color-interpolation:sRGB;color-interpolation-filters:linearRGB;solid-color:#000000;solid-opacity:1;vector-effect:none;fill:#6e59ad;fill-opacity:1;fill-rule:nonzero;stroke:none;stroke-width:2.11666656;stroke-linecap:round;stroke-linejoin:miter;stroke-miterlimit:4;stroke-dasharray:none;stroke-dashoffset:0;stroke-opacity:1;color-rendering:auto;image-rendering:auto;shape-rendering:auto;text-rendering:auto;enable-background:accumulate"
         d="m 183.26243,415.31462 a 1.0584391,1.0584391 0 0 0 -0.39451,2.0215 l 3.8086,1.8027 a 1.0584391,1.0584391 0 1 0 0.90621,-1.9121 l -3.80861,-1.8047 a 1.0584391,1.0584391 0 0 0 -0.51169,-0.1074 z"
         id="path8289"
         inkscape:connector-curvature="0"
         inkscape:export-xdpi="38.90226"
         inkscape:export-ydpi="38.90226" />
      <path
         style="color:#000000;font-style:normal;font-variant:normal;font-weight:normal;font-stretch:normal;font-size:medium;line-height:normal;font-family:sans-serif;font-variant-ligatures:normal;font-variant-position:normal;font-variant-caps:normal;font-variant-numeric:normal;font-variant-alternates:normal;font-feature-settings:normal;text-indent:0;text-align:start;text-decoration:none;text-decoration-line:none;text-decoration-style:solid;text-decoration-color:#000000;letter-spacing:normal;word-spacing:normal;text-transform:none;writing-mode:lr-tb;direction:ltr;text-orientation:mixed;dominant-baseline:auto;baseline-shift:baseline;text-anchor:start;white-space:normal;shape-padding:0;clip-rule:nonzero;display:inline;overflow:visible;visibility:visible;opacity:1;isolation:auto;mix-blend-mode:normal;color-interpolation:sRGB;color-interpolation-filters:linearRGB;solid-color:#000000;solid-opacity:1;vector-effect:none;fill:#6e59ad;fill-opacity:1;fill-rule:nonzero;stroke:none;stroke-width:3.9690001;stroke-linecap:butt;stroke-linejoin:round;stroke-miterlimit:4;stroke-dasharray:none;stroke-dashoffset:0;stroke-opacity:1;paint-order:markers stroke fill;color-rendering:auto;image-rendering:auto;shape-rendering:auto;text-rendering:auto;enable-background:accumulate"
         d="m 121.20583,272.56662 c -5.72361,-0.026 -11.3427,0.6359 -16.73051,2.0859 a 1.9846985,1.9846985 0 0 0 -0.43949,0.1758 c -1.42181,0.7805 -2.5336,2.3702 -2.36131,3.9531 0.1553,1.4268 0.9748,2.4369 1.9473,3.3614 13.9012,20.0373 18.3663,34.3291 17.291,44.705 -1.07579,10.3806 -7.54399,17.3283 -16.81839,23.0645 -9.274315,5.7362 -21.230715,10.0073 -32.421811,14.6484 -11.166501,4.6309 -21.632301,9.598 -27.9571,17.3418 -2.391301,2.5707 -4.068299,5.5117 -4.8261,8.7559 -1.945701,8.3286 2.299801,17.1885 10.6113,25.7344 8.258299,8.4911 20.707299,16.894 36.222596,24.6523 0.019,0.012 0.054,0.035 0.057,0.037 0.015,0.01 0.021,0.011 0.025,0.014 0.019,0.01 0.02,0.01 0.025,0.012 0.011,0.01 0.021,0.011 0.037,0.02 2.6e-4,2e-4 0,-9e-5 0,0 0.01,0 0.043,0.021 0.043,0.021 0.04,0.02 0.015,0.01 0.037,0.02 0.011,0.01 0.02,0.011 0.033,0.018 0,7.9e-4 5.3e-4,0 0,0 0,0 0.01,0 0.012,0 0,0 0.01,0 0.012,0.01 0,0 0,0 0.01,0.01 0.01,0 0.01,0 0.016,0.01 0.1625,0.082 0.4398,0.2209 0.8946,0.4492 l 1.7812,-3.5468 c -0.4484,-0.2252 -0.7191,-0.3601 -0.8808,-0.4414 0,0 0,0 0,0 -0.014,-0.01 -0.017,-0.01 -0.02,-0.01 -0.01,0 -0.01,0 -0.01,0 0,0 -0.01,0 -0.012,-0.01 0,0 -0.01,0 -0.01,0 0,0 0,0 0,0 -15.384402,-7.665 -27.605202,-15.9705 -35.433601,-24.0196 -7.828399,-8.0491 -11.101002,-15.6126 -9.5938,-22.0644 0.5911,-2.5304 1.8834,-4.8448 3.902401,-7.002 a 1.9846985,1.9846985 0 0 0 0.09,-0.1055 c 5.462201,-6.7179 15.39,-11.6409 26.447202,-16.2265 11.057298,-4.5856 23.175798,-8.8692 32.990303,-14.9395 9.8145,-6.0702 17.4496,-14.1815 18.6777,-26.0312 1.2278,-11.8496 -3.8021,-26.9534 -17.9924,-47.4003 a 1.9846985,1.9846985 0 0 0 -0.3047,-0.3477 c -0.6913,-0.62 -0.8375,-1.0355 -0.8633,-1.0605 19.9954,-5.3006 44.2411,1.0563 64.3105,13.584 20.1327,12.5671 35.9046,31.2765 39.2891,49.6406 4.3329,23.5107 22.0217,40.3048 39.6016,54.9805 17.5792,14.675 35.03551,27.4716 40.0175,41.7754 2.2e-4,5.3e-4 -10e-5,0 0,0 1.28932,3.8293 2.4274,7.0995 1.55282,10.8437 -1.4455,6.1876 -7.26782,11.3425 -17.0996,15.0781 -9.83192,3.7356 -23.45112,5.9174 -39.52742,6.295 l 0.094,3.9687 c 16.3791,-0.3847 30.3606,-2.5697 40.84381,-6.5527 10.48311,-3.9831 17.68869,-9.8992 19.55469,-17.8868 1.167,-4.9955 -0.38669,-9.2423 -1.66209,-13.0312 a 1.9846985,1.9846985 0 0 0 -0.0101,-0.019 c -5.65946,-16.25189 -23.78625,-28.96379 -41.22275,-43.51969 -17.4364,-14.5559 -34.1968,-30.7149 -38.2402,-52.6543 -3.69071,-20.0254 -20.2581,-39.2823 -41.09181,-52.2871 -15.6253,-9.7536 -33.73539,-16.0205 -50.90629,-16.0976 z m -15.25981,5.7422 -0.2715,0.1074 c -7.9e-4,2.9e-4 -0.053,-0.069 -0.053,-0.064 0.01,0.073 -0.2895,0.2939 0.32421,-0.043 z"
         id="path8291"
         inkscape:connector-curvature="0"
         inkscape:export-xdpi="38.90226"
         inkscape:export-ydpi="38.90226" />
      <path
         style="color:#000000;font-style:normal;font-variant:normal;font-weight:normal;font-stretch:normal;font-size:medium;line-height:normal;font-family:sans-serif;font-variant-ligatures:normal;font-variant-position:normal;font-variant-caps:normal;font-variant-numeric:normal;font-variant-alternates:normal;font-feature-settings:normal;text-indent:0;text-align:start;text-decoration:none;text-decoration-line:none;text-decoration-style:solid;text-decoration-color:#000000;letter-spacing:normal;word-spacing:normal;text-transform:none;writing-mode:lr-tb;direction:ltr;text-orientation:mixed;dominant-baseline:auto;baseline-shift:baseline;text-anchor:start;white-space:normal;shape-padding:0;clip-rule:nonzero;display:inline;overflow:visible;visibility:visible;opacity:1;isolation:auto;mix-blend-mode:normal;color-interpolation:sRGB;color-interpolation-filters:linearRGB;solid-color:#000000;solid-opacity:1;vector-effect:none;fill:#6e59ad;fill-opacity:1;fill-rule:nonzero;stroke:none;stroke-width:3.33956718;stroke-linecap:butt;stroke-linejoin:round;stroke-miterlimit:4;stroke-dasharray:none;stroke-dashoffset:0;stroke-opacity:1;paint-order:markers stroke fill;color-rendering:auto;image-rendering:auto;shape-rendering:auto;text-rendering:auto;enable-background:accumulate"
         d="m 105.37573,376.19162 c -5.898315,-0.047 -11.445615,0.1517 -16.574215,0.5898 -10.257195,0.8763 -18.845795,2.7037 -25.308595,5.5567 -6.462901,2.853 -10.9298,6.8318 -12.293002,12.041 -1.6393,6.2644 1.377201,12.9008 7.7012,19.207 6.324,6.3063 16.070501,12.519 28.747997,18.3379 l 1.3926,-3.0352 c -12.445396,-5.7124 -21.902697,-11.8039 -27.783196,-17.6679 -5.8805,-5.8641 -8.066699,-11.2629 -6.8281,-15.9961 1.0139,-3.8748 4.473401,-7.2104 10.412101,-9.832 5.9387,-2.6217 14.225299,-4.4292 24.244095,-5.2852 20.037605,-1.7119 46.993905,0.3414 76.443405,6.4668 29.3863,6.1122 59.13851,17.6348 80.83981,29.832 10.8507,6.0987 19.6909,12.3785 25.4258,18.1328 5.7349,5.7543 8.10538,10.8162 7.16799,14.3985 -0.52088,1.9905 -2.01718,3.8633 -4.50778,5.5957 -2.49061,1.7324 -5.92891,3.2688 -9.99811,4.5469 -8.1384,2.556 -18.77841,4.0999 -29.5391,4.7734 l 0.209,3.332 c 10.9387,-0.6846 21.7706,-2.231 30.3321,-4.9199 4.2807,-1.3445 7.99889,-2.9694 10.90431,-4.9902 2.90528,-2.0209 5.04507,-4.4926 5.82999,-7.4922 1.4397,-5.5017 -1.9484,-11.4962 -8.0332,-17.6016 -6.0848,-6.1054 -15.1276,-12.4899 -26.1543,-18.6875 -22.0534,-12.3951 -52.0325,-23.9986 -81.7968,-30.1894 -22.27551,-4.6332 -43.1391,-6.9726 -60.834,-7.1133 z"
         id="path8293"
         inkscape:connector-curvature="0"
         inkscape:export-xdpi="38.90226"
         inkscape:export-ydpi="38.90226" />
      <path
         style="color:#000000;font-style:normal;font-variant:normal;font-weight:normal;font-stretch:normal;font-size:medium;line-height:normal;font-family:sans-serif;font-variant-ligatures:normal;font-variant-position:normal;font-variant-caps:normal;font-variant-numeric:normal;font-variant-alternates:normal;font-feature-settings:normal;text-indent:0;text-align:start;text-decoration:none;text-decoration-line:none;text-decoration-style:solid;text-decoration-color:#000000;letter-spacing:normal;word-spacing:normal;text-transform:none;writing-mode:lr-tb;direction:ltr;text-orientation:mixed;dominant-baseline:auto;baseline-shift:baseline;text-anchor:start;white-space:normal;shape-padding:0;clip-rule:nonzero;display:inline;overflow:visible;visibility:visible;opacity:1;isolation:auto;mix-blend-mode:normal;color-interpolation:sRGB;color-interpolation-filters:linearRGB;solid-color:#000000;solid-opacity:1;vector-effect:none;fill:#6e59ad;fill-opacity:1;fill-rule:nonzero;stroke:none;stroke-width:2.11666656;stroke-linecap:round;stroke-linejoin:round;stroke-miterlimit:4;stroke-dasharray:none;stroke-dashoffset:0;stroke-opacity:1;paint-order:markers stroke fill;color-rendering:auto;image-rendering:auto;shape-rendering:auto;text-rendering:auto;enable-background:accumulate"
         d="m 182.68432,387.93772 a 1.0584391,1.0584391 0 0 0 -0.2813,0.047 c -4.19269,1.2293 -6.04359,2.2713 -8.30269,3.9629 -0.4557,0.3426 -0.71631,0.8916 -0.68561,1.4668 1e-4,5.3e-4 0,0 0,0 0.056,1.0976 0.1998,2.2575 0.70511,3.332 0.53409,1.1357 1.6304,2.1595 3.12889,2.2969 0.084,0.01 0.1738,0.011 0.26171,0.01 a 1.0584391,1.0584391 0 0 0 0.01,0 c 1.1147,-0.074 2.8262,-0.045 4.8536,0.023 a 1.0584391,1.0584391 0 0 0 0.6992,-0.2324 c 2.6166,-2.1031 5.9177,-3.3624 9.5293,-3.3672 a 1.0584391,1.0584391 0 0 0 0.022,0 v 0 c 3.4866,0 6.7008,1.1699 9.291,3.1368 a 1.0584391,1.0584391 0 0 0 0.7949,0.2031 c 0.57801,-0.085 1.15391,-0.1779 1.7168,-0.291 0.77311,-0.1553 1.0796,-0.2137 1.416,-0.3574 0.33641,-0.1438 0.42881,-0.235 0.9942,-0.5 a 1.0590121,1.0590121 0 1 0 -0.89849,-1.918 c -0.6405,0.3002 -0.86491,0.4438 -0.9277,0.4707 -0.063,0.027 -0.2373,0.075 -1.00201,0.2285 -0.41069,0.082 -0.8509,0.1527 -1.2929,0.2207 -2.86529,-2.0402 -6.32749,-3.3104 -10.0957,-3.3105 a 1.0584391,1.0584391 0 0 0 -0.062,0 c -0.047,0 -0.067,0.01 -0.045,0 h 0.084 c -3.9321,0.01 -7.52289,1.3866 -10.43559,3.5996 -1.87221,-0.061 -3.5101,-0.094 -4.71871,-0.018 -5.2e-4,0 0,-10e-5 0,0 -0.6531,-0.06 -1.1218,-0.4849 -1.4063,-1.0899 -0.287,-0.6103 -0.4064,-1.4504 -0.46679,-2.334 2.0505,-1.5192 3.50539,-2.3468 7.43169,-3.498 a 1.0584391,1.0584391 0 0 0 -0.3145,-2.0781 z"
         id="path8295"
         inkscape:connector-curvature="0"
         inkscape:export-xdpi="38.90226"
         inkscape:export-ydpi="38.90226" />
      <path
         style="color:#000000;font-style:normal;font-variant:normal;font-weight:normal;font-stretch:normal;font-size:medium;line-height:normal;font-family:sans-serif;font-variant-ligatures:normal;font-variant-position:normal;font-variant-caps:normal;font-variant-numeric:normal;font-variant-alternates:normal;font-feature-settings:normal;text-indent:0;text-align:start;text-decoration:none;text-decoration-line:none;text-decoration-style:solid;text-decoration-color:#000000;letter-spacing:normal;word-spacing:normal;text-transform:none;writing-mode:lr-tb;direction:ltr;text-orientation:mixed;dominant-baseline:auto;baseline-shift:baseline;text-anchor:start;white-space:normal;shape-padding:0;clip-rule:nonzero;display:inline;overflow:visible;visibility:visible;opacity:1;isolation:auto;mix-blend-mode:normal;color-interpolation:sRGB;color-interpolation-filters:linearRGB;solid-color:#000000;solid-opacity:1;vector-effect:none;fill:#6e59ad;fill-opacity:1;fill-rule:nonzero;stroke:none;stroke-width:2.64583325;stroke-linecap:round;stroke-linejoin:round;stroke-miterlimit:4;stroke-dasharray:none;stroke-dashoffset:0;stroke-opacity:1;color-rendering:auto;image-rendering:auto;shape-rendering:auto;text-rendering:auto;enable-background:accumulate"
         d="m 114.60423,377.16422 a 1.3230489,1.3230489 0 0 0 -0.80861,0.3203 c -1.9758,1.6642 -5.02169,5.3525 -6.6543,8.3262 -0.40819,0.7434 -0.72759,1.4345 -0.9023,2.1309 -0.1748,0.6964 -0.2807,1.6188 0.44331,2.3652 0.72409,0.7465 1.70589,0.6895 2.55669,0.4766 0.16841,-0.042 0.4267,-0.2042 0.6054,-0.2637 -1.4254,6.6191 -1.5406,11.0207 1.3555,19.2168 -0.83849,10.724 0.3814,23.6559 3.69731,32.5508 a 1.3230489,1.3230489 0 0 0 2.11519,0.5293 c 0.9858,-0.8718 1.74321,-1.2742 2.1562,-1.3789 0.4131,-0.1047 0.4348,-0.07 0.63871,0.1054 0.4078,0.3505 1.08299,2.0316 1.4746,4.2891 0.3917,2.2575 0.66509,5.0334 1.1172,7.6875 0.4029,2.3652 0.99259,4.5754 2.01759,6.4023 -1.84519,3.1855 -2.8865,6.6837 -3.32229,10.3555 -0.25581,2.1558 -1.70051,9.5777 -2.15041,14.8047 -0.1124,1.3068 -0.1667,2.4836 -0.11319,3.4746 0.053,0.9911 0.01,1.8176 0.8515,2.6524 0.42129,0.4173 1.25739,0.6126 1.8184,0.4453 0.56099,-0.1674 0.92119,-0.4795 1.2871,-0.8496 0.12869,-0.1302 0.2956,-0.4654 0.42579,-0.6192 0.3096,2.0349 0.75041,4.0642 1.7871,5.5918 0.4074,0.6004 0.94311,1.1425 1.66401,1.4571 0.721,0.3145 1.588,0.337 2.3907,0.086 1.60529,-0.5023 3.09499,-1.8544 4.95499,-4.2442 a 1.3230489,1.3230489 0 0 0 0.057,-0.076 c 1.22729,-1.8341 1.97019,-3.7859 2.4219,-5.7754 1.78739,3.5918 3.9111,6.3668 6.62699,7.7207 1.90541,0.9499 4.11951,1.0977 6.3144,0.2774 2.1079,-0.7878 4.21241,-2.4394 6.3907,-4.9082 1.08561,-0.5603 1.6899,-0.653 2.8183,-0.6231 1.17451,0.031 2.87641,0.2461 5.60941,0.2461 2.73299,0 4.43489,-0.2149 5.6094,-0.2461 1.1284,-0.03 1.7327,0.063 2.8183,0.6231 2.1783,2.4688 4.28269,4.1204 6.3906,4.9082 2.19499,0.8203 4.40909,0.6725 6.3145,-0.2774 2.7158,-1.3539 4.8396,-4.1289 6.627,-7.7207 0.4517,1.9895 1.1946,3.9413 2.4218,5.7754 a 1.3230489,1.3230489 0 0 0 0.057,0.076 c 1.86,2.3898 3.34969,3.7419 4.9551,4.2442 0.80269,0.2511 1.66969,0.2285 2.39059,-0.086 0.721,-0.3146 1.25671,-0.8567 1.66411,-1.4571 1.03669,-1.5276 1.4775,-3.5569 1.7871,-5.5918 0.1302,0.1538 0.2971,0.489 0.42579,0.6192 0.3659,0.3701 0.72611,0.6822 1.2871,0.8496 0.56101,0.1673 1.39711,-0.028 1.81841,-0.4453 0.8425,-0.8348 0.7981,-1.6613 0.85149,-2.6524 0.053,-0.991 -7.9e-4,-2.1678 -0.1133,-3.4746 -0.4499,-5.227 -1.89449,-12.6489 -2.15039,-14.8047 -0.4357,-3.6718 -1.477,-7.17 -3.3222,-10.3555 1.0249,-1.8269 1.61469,-4.0371 2.0176,-6.4023 0.45199,-2.6541 0.72549,-5.43 1.1171,-7.6875 0.3917,-2.2575 1.0668,-3.9386 1.4747,-4.2891 0.2039,-0.1752 0.2256,-0.2101 0.6386,-0.1054 0.41309,0.1047 1.1705,0.5071 2.1563,1.3789 a 1.3230489,1.3230489 0 0 0 2.11519,-0.5293 c 3.26141,-8.7484 5.31241,-20.7288 2.6543,-31.457 1.65031,-4.3408 2.70831,-7.9136 1.89261,-10.6641 a 1.3230988,1.3230988 0 1 0 -2.5371,0.7519 c 0.4099,1.3823 -0.2634,4.9602 -1.93751,9.3164 a 1.3230489,1.3230489 0 0 0 -0.045,0.8086 c 2.4779,9.494 0.8043,20.4677 -2.043,28.7969 -0.52721,-0.3202 -1.07681,-0.8328 -1.6055,-0.9668 -1.0725,-0.2718 -2.2416,0 -3.0117,0.6641 -1.54011,1.3233 -1.94151,3.433 -2.3594,5.8418 -0.4178,2.4088 -0.6874,5.174 -1.1171,7.6972 -0.2798,1.6423 -0.6794,3.0547 -1.1387,4.2813 -0.70991,-0.8861 -1.435,-1.7664 -2.33791,-2.5723 -1.0869,-1.1434 -2.6968,-1.616 -4.832,-2.0449 -2.1497,-0.4318 -4.84869,-0.712 -7.9922,-0.9043 -6.287,-0.3846 -14.33619,-0.4043 -22.94139,-0.4043 -8.60531,0 -16.6545,0.02 -22.9414,0.4043 -3.14351,0.1923 -5.8426,0.4725 -7.99221,0.9043 -2.13519,0.4289 -3.74519,0.9015 -4.8321,2.0449 -0.9029,0.8059 -1.62799,1.6862 -2.3379,2.5723 -0.4592,-1.2266 -0.85889,-2.639 -1.1386,-4.2813 -0.4298,-2.5232 -0.69929,-5.2884 -1.1172,-7.6972 -0.4179,-2.4088 -0.81929,-4.5185 -2.35939,-5.8418 -0.77001,-0.6617 -1.9392,-0.9359 -3.01171,-0.6641 -0.51949,0.1317 -1.0605,0.6377 -1.5781,0.9492 -2.7535,-8.3582 -3.8976,-20.3206 -3.09569,-30.1445 a 1.3230489,1.3230489 0 0 0 -0.072,-0.5547 c -3.28859,-9.1832 -2.80209,-12.2264 -0.8262,-20.5195 a 1.3230489,1.3230489 0 0 0 -1.9258,-1.4649 c -0.9182,0.5066 -1.47989,0.7093 -1.9648,0.8731 0.1173,-0.2935 0.19291,-0.5392 0.4062,-0.9277 1.3809,-2.5152 4.583,-6.3498 6.0391,-7.5762 a 1.3230489,1.3230489 0 0 0 -0.89649,-2.3438 z m -12.9668,0.2325 a 1.3230489,1.3230489 0 0 0 -1.13671,0.7265 c -0.3993,0.7628 -1.499805,2.4245 -2.722705,4.2735 -1.2228,1.8489 -2.58779,3.9318 -3.6308,5.8066 -0.5216,0.9374 -0.9642,1.8194 -1.2735,2.6348 -0.3093,0.8153 -0.5543,1.5356 -0.38079,2.4355 0.087,0.45 0.36219,0.981 0.81829,1.3008 0.45621,0.3198 0.9753,0.4013 1.43751,0.3848 0.26429,-0.01 0.60089,-0.2235 0.86919,-0.2832 -1.0366,6.9852 -0.8996,13.8292 1.4804,18.4355 -2.8472,1.151 -5.0204,3.9385 -6.6464,7.2988 -1.9196,3.9669 -3.1687,8.765 -3.7266,12.9864 -0.27899,2.1106 -0.3843,4.0721 -0.293,5.7402 0.091,1.6681 0.3038,3.0308 1.041,4.1191 0.3687,0.5442 0.9755,1.0487 1.7286,1.168 0.75301,0.1193 1.47151,-0.1399 2.0761,-0.5391 0.315,-0.2079 0.6154,-0.5849 0.91991,-0.8808 -0.99141,14.9121 0.37799,29.1429 2.879,38.1972 0.68719,2.4881 1.44919,4.591 2.29099,6.2481 0.8417,1.6571 1.7195,2.911 2.970715,3.6035 0.62549,0.3463 1.39009,0.5143 2.12689,0.3789 0.7369,-0.1354 1.387,-0.5387 1.9297,-1.0801 0.41721,-0.4161 0.7644,-0.999 1.11331,-1.5918 1.94449,6.783 4.72579,18.2273 7.7441,27.4414 0.8661,2.6439 1.73769,5.0363 2.6133,7.002 0.87559,1.9657 1.7052,3.4961 2.75,4.5215 0.52239,0.5127 1.15299,0.9465 1.96879,1.0176 0.8157,0.071 1.6344,-0.3429 2.16791,-0.9161 0.54109,-0.5812 0.95479,-1.3257 1.3067,-2.2714 3.7959,7.2227 9.31229,18.83599 14.2539,27.51761 1.38349,2.43049 2.70189,4.58369 3.9179,6.29488 1.21609,1.71112 2.25829,2.98231 3.46289,3.71481 0.6023,0.36631 1.36841,0.63669 2.18561,0.40039 0.8172,-0.23638 1.35779,-0.9244 1.65229,-1.63089 0.32171,-0.77139 0.47261,-1.74551 0.53711,-2.9023 1.26959,1.4133 2.48879,2.83131 3.9981,4.17381 2.34469,2.08568 5.4702,3.68948 10.18159,3.68948 4.71141,0 7.8369,-1.6038 10.18171,-3.68948 1.50929,-1.3425 2.72839,-2.76051 3.99799,-4.17381 0.065,1.15679 0.2154,2.13091 0.53711,2.9023 0.29459,0.70649 0.8352,1.39451 1.6524,1.63089 0.8172,0.2363 1.5832,-0.034 2.18549,-0.40039 1.2046,-0.7325 2.24691,-2.00369 3.46291,-3.71481 1.216,-1.71119 2.53449,-3.86439 3.918,-6.29488 4.94159,-8.68151 10.458,-20.29491 14.2539,-27.51761 0.3518,0.9457 0.7655,1.6902 1.3066,2.2714 0.5335,0.5732 1.3522,0.9872 2.168,0.9161 0.8157,-0.071 1.4463,-0.5049 1.9687,-1.0176 1.0449,-1.0254 1.8744,-2.5558 2.75,-4.5215 0.87569,-1.9657 1.74719,-4.3581 2.6133,-7.002 3.0184,-9.2141 5.7997,-20.6584 7.7442,-27.4414 0.3488,0.5928 0.6961,1.1757 1.1132,1.5918 0.5428,0.5414 1.1929,0.9447 1.92969,1.0801 0.73691,0.1354 1.50141,-0.033 2.12701,-0.3789 1.2511,-0.6925 2.1289,-1.9464 2.9707,-3.6035 0.8418,-1.6571 1.6037,-3.76 2.291,-6.2481 2.5014,-9.0558 3.8714,-23.2901 2.8789,-38.205 0.3707,0.3597 0.7347,0.7869 1.127,1.0156 0.654,0.3812 1.4803,0.5742 2.2402,0.3223 0.7598,-0.2519 1.26279,-0.8418 1.582,-1.4493 0.6384,-1.2148 0.8207,-2.7443 0.84769,-4.6015 0.027,-1.8573 -0.15839,-4.0194 -0.53519,-6.3008 -0.7536,-4.5628 -2.2592,-9.5857 -4.5371,-13.4121 -1.1389,-1.9132 -2.4731,-3.5406 -4.0996,-4.6231 -1.0349,-0.6887 -2.2354,-1.0071 -3.4805,-1.1152 1.0863,-2.9483 1.5753,-5.12 1.627,-6.6953 a 1.3230489,1.3230489 0 1 0 -2.6445,-0.086 c -0.054,1.6338 -0.3556,3.5924 -2.05471,7.5859 a 1.3230489,1.3230489 0 0 0 1.52541,1.8047 c 1.3184,-0.3162 2.4119,-0.057 3.56049,0.707 1.14871,0.7644 2.28671,2.085 3.29301,3.7754 2.0126,3.3808 3.4884,8.1847 4.1992,12.4883 0.3554,2.1518 0.5239,4.1831 0.49999,5.832 -0.024,1.6489 -0.29619,2.9387 -0.54299,3.4082 -0.1233,0.2348 -0.1714,0.2028 -0.072,0.1699 0.099,-0.033 0.155,0.039 -0.076,-0.096 -0.4623,-0.2694 -1.5718,-1.4325 -2.875,-3.6679 a 1.3230489,1.3230489 0 0 0 -2.459,0.7988 c 1.6148,16.1667 0.066,32.1574 -2.5527,41.6387 -0.65471,2.3703 -1.3774,4.3321 -2.09961,5.7539 -0.72219,1.4217 -1.48659,2.2625 -1.89449,2.4883 -0.204,0.1129 -0.2746,0.1088 -0.3672,0.092 -0.093,-0.017 -0.2682,-0.081 -0.53911,-0.3516 -0.5417,-0.5404 -1.31269,-1.8787 -2.01369,-4.0488 a 1.3230489,1.3230489 0 0 0 -2.5156,-0.01 c -1.9871,6.0541 -5.3144,20.5847 -8.71091,30.9531 -0.84909,2.5921 -1.7014,4.9178 -2.5176,6.75 -0.8162,1.8322 -1.6466,3.18 -2.18549,3.709 -0.26951,0.2645 -0.4125,0.2773 -0.3458,0.2715 0.067,-0.01 0.1622,0.09 0,-0.084 -0.32421,-0.3484 -1.0268,-1.8193 -1.56441,-4.4004 a 1.3230489,1.3230489 0 0 0 -2.4492,-0.3731 c -3.80149,6.828 -10.35209,20.9722 -15.7832,30.51371 -1.35779,2.38538 -2.64429,4.48048 -3.77539,6.07229 -1.13121,1.59171 -2.1781,2.67809 -2.6817,2.98429 -0.2517,0.15312 -0.2449,0.072 -0.076,0.1211 0.1689,0.049 0.1723,0.17251 0.055,-0.1093 -0.235,-0.5638 -0.4684,-2.32259 -0.32031,-5.11529 a 1.3230489,1.3230489 0 0 0 -2.19529,-1.06249 c -2.5268,2.22618 -4.2048,4.69889 -6.2187,6.49028 -2.0139,1.79131 -4.2765,3.02141 -8.4239,3.02141 -4.14731,0 -6.40991,-1.2301 -8.42381,-3.02141 -2.0139,-1.79139 -3.6919,-4.2641 -6.2187,-6.49028 a 1.3230489,1.3230489 0 0 0 -2.19529,1.06249 c 0.14809,2.7927 -0.085,4.55149 -0.3204,5.11529 -0.11751,0.28181 -0.11411,0.1582 0.055,0.1093 0.16889,-0.049 0.17569,0.032 -0.076,-0.1211 -0.5035,-0.3062 -1.55039,-1.39258 -2.6816,-2.98429 -1.1312,-1.59181 -2.41759,-3.68691 -3.77539,-6.07229 -5.43111,-9.54151 -11.98171,-23.68571 -15.7832,-30.51371 a 1.3230489,1.3230489 0 0 0 -2.4492,0.3731 c -0.53761,2.5811 -1.2402,4.052 -1.5645,4.4004 -0.16211,0.1741 -0.067,0.078 0,0.084 0.067,0.01 -0.076,-0.01 -0.34571,-0.2715 -0.53889,-0.529 -1.36939,-1.8768 -2.18549,-3.709 -0.81621,-1.8322 -1.66851,-4.1579 -2.5176,-6.75 -3.39651,-10.3684 -6.72381,-24.899 -8.71091,-30.9531 a 1.3230489,1.3230489 0 0 0 -2.5156,0.01 c -0.7011,2.1701 -1.47199,3.5084 -2.01369,4.0488 -0.27091,0.2702 -0.44641,0.3345 -0.53911,0.3516 -0.093,0.017 -0.1632,0.021 -0.3672,-0.092 -0.4079,-0.2258 -1.1723,-1.0666 -1.894505,-2.4883 -0.7222,-1.4218 -1.4449,-3.3836 -2.0996,-5.7539 -2.6189,-9.4813 -4.16749,-25.472 -2.5527,-41.6387 a 1.3230489,1.3230489 0 0 0 -2.459,-0.7988 c -1.234,2.1167 -2.2822,3.2787 -2.795,3.6172 -0.25629,0.1692 -0.2972,0.1198 -0.2031,0.1347 0.094,0.015 0.1425,0.1011 0.049,-0.037 -0.1873,-0.2764 -0.51099,-1.3412 -0.5898,-2.7812 -0.079,-1.4401 0.011,-3.2673 0.2734,-5.25 0.5241,-3.9655 1.73631,-8.5671 3.4844,-12.1797 1.7481,-3.6126 4.00301,-6.0499 6.2344,-6.3926 a 1.3230489,1.3230489 0 0 0 0.8808,-2.0703 c -2.53089,-3.5852 -2.8921,-12.022 -1.4472,-20.0801 a 1.3230489,1.3230489 0 0 0 -1.89259,-1.416 c -0.72621,0.3625 -1.00111,0.3982 -1.3418,0.4883 0.036,-0.1523 0.01,-0.1207 0.082,-0.3164 0.23411,-0.6173 0.6262,-1.4152 1.11131,-2.2871 0.97019,-1.7439 2.30829,-3.7926 3.52539,-5.6329 1.217115,-1.8402 2.293305,-3.4242 2.859405,-4.5058 a 1.3230489,1.3230489 0 0 0 -1.20709,-1.9531 z m 62.61129,76.6796 c 8.60071,0 16.62461,0.024 22.77931,0.4004 3.0774,0.1883 5.69129,0.469 7.63479,0.8594 1.94341,0.3904 3.19341,1.0044 3.44731,1.2754 a 1.3230489,1.3230489 0 0 0 0.09,0.088 c 4.252,3.7614 5.9304,8.449 6.5761,13.8906 0.30449,2.5658 1.7163,9.7655 2.14259,14.7188 0.095,1.1082 0.11561,2.0281 0.094,2.7793 -0.4015,-0.5243 -0.7838,-0.9811 -1.418,-2.1055 a 1.3230489,1.3230489 0 0 0 -2.4648,0.4883 c -0.3492,2.8635 -0.9552,6.5427 -1.8223,7.8203 -0.21671,0.3194 -0.4044,0.4623 -0.53121,0.5176 -0.12679,0.055 -0.22989,0.086 -0.54299,-0.012 -0.6213,-0.1944 -1.932,-1.1474 -3.623,-3.3086 -4.2007,-6.3264 -1.6916,-14.9774 -1.8496,-22.1426 a 1.3230489,1.3230489 0 0 0 -0.018,-0.1875 c -0.4201,-2.5395 -1.06449,-4.4499 -2.03319,-5.9063 -0.9688,-1.4563 -2.2943,-2.4037 -3.7676,-2.9101 -2.94661,-1.0128 -6.3597,-0.5758 -10.5567,-0.5801 a 1.3230489,1.3230489 0 0 0 -0.012,0 c -6.1843,0.05 -9.681,0.8223 -14.125,0.8223 -4.444,0 -7.9406,-0.7726 -14.125,-0.8223 a 1.3230489,1.3230489 0 0 0 -0.012,0 c -4.1969,0 -7.61,-0.4327 -10.5566,0.5801 -1.4733,0.5064 -2.7988,1.4538 -3.7676,2.9101 -0.9688,1.4564 -1.6132,3.3668 -2.0332,5.9063 a 1.3230489,1.3230489 0 0 0 -0.018,0.1875 c -0.158,7.1652 2.3511,15.8162 -1.8496,22.1426 -1.691,2.1612 -3.0017,3.1142 -3.623,3.3086 -0.3131,0.098 -0.4162,0.067 -0.543,0.012 -0.1268,-0.055 -0.3145,-0.1982 -0.5313,-0.5176 -0.867,-1.2776 -1.473,-4.9567 -1.8222,-7.8203 a 1.3230489,1.3230489 0 0 0 -2.4649,-0.4883 c -0.6342,1.1244 -1.0164,1.5812 -1.4179,2.1055 -0.022,-0.7512 0,-1.6711 0.094,-2.7793 0.4263,-4.9533 1.8381,-12.153 2.1425,-14.7188 0.6458,-5.4416 2.3242,-10.1292 6.5762,-13.8906 a 1.3230489,1.3230489 0 0 0 0.09,-0.088 c 0.2539,-0.271 1.5038,-0.885 3.4473,-1.2754 1.9434,-0.3904 4.5574,-0.6711 7.6347,-0.8594 6.1548,-0.3764 14.1787,-0.4004 22.7793,-0.4004 z m -19.8457,8.2872 c 1.62241,-0.02 3.5332,0.047 5.69921,0.045 h 0.014 c 5.9573,0.049 9.3962,0.8222 14.1329,0.8222 4.7366,0 8.1756,-0.7729 14.1328,-0.8222 4.345,0 7.6559,-0.2668 9.6992,0.4355 1.0217,0.3512 1.758,0.8663 2.4277,1.8731 0.6588,0.9902 1.2169,2.5245 1.5996,4.7773 0.063,3.4477 -0.6404,7.7766 -0.6093,12.2305 -2.0536,5.5585 -4.6761,9.545 -7.2969,10.8515 -1.3195,0.6578 -2.6122,0.7648 -4.209,0.168 -1.5968,-0.5968 -3.4863,-1.9838 -5.5762,-4.4141 a 1.3230489,1.3230489 0 0 0 -0.3808,-0.3046 c -1.5065,-0.8026 -2.8418,-1.0158 -4.2481,-0.9786 -1.4063,0.037 -2.947,0.2461 -5.539,0.2461 -2.5921,0 -4.1328,-0.2088 -5.5391,-0.2461 -1.4063,-0.037 -2.7416,0.176 -4.248,0.9786 a 1.3230489,1.3230489 0 0 0 -0.3809,0.3046 c -2.0899,2.4303 -3.9794,3.8173 -5.5762,4.4141 -1.5968,0.5968 -2.8895,0.4898 -4.209,-0.168 -2.6208,-1.3065 -5.2433,-5.293 -7.2968,-10.8515 0.031,-4.4539 -0.6723,-8.7828 -0.6094,-12.2305 0.3827,-2.2528 0.9428,-3.7871 1.6015,-4.7773 0.6697,-1.0068 1.4042,-1.5219 2.4258,-1.8731 1.0217,-0.3511 2.3601,-0.46 3.9864,-0.4804 z"
         id="path8297"
         inkscape:connector-curvature="0"
         inkscape:export-xdpi="38.90226"
         inkscape:export-ydpi="38.90226" />
      <path
         style="color:#000000;font-style:normal;font-variant:normal;font-weight:normal;font-stretch:normal;font-size:medium;line-height:normal;font-family:sans-serif;font-variant-ligatures:normal;font-variant-position:normal;font-variant-caps:normal;font-variant-numeric:normal;font-variant-alternates:normal;font-feature-settings:normal;text-indent:0;text-align:start;text-decoration:none;text-decoration-line:none;text-decoration-style:solid;text-decoration-color:#000000;letter-spacing:normal;word-spacing:normal;text-transform:none;writing-mode:lr-tb;direction:ltr;text-orientation:mixed;dominant-baseline:auto;baseline-shift:baseline;text-anchor:start;white-space:normal;shape-padding:0;clip-rule:nonzero;display:inline;overflow:visible;visibility:visible;opacity:1;isolation:auto;mix-blend-mode:normal;color-interpolation:sRGB;color-interpolation-filters:linearRGB;solid-color:#000000;solid-opacity:1;vector-effect:none;fill:#6e59ad;fill-opacity:1;fill-rule:nonzero;stroke:none;stroke-width:2.64583325;stroke-linecap:round;stroke-linejoin:round;stroke-miterlimit:4;stroke-dasharray:none;stroke-dashoffset:0;stroke-opacity:1;color-rendering:auto;image-rendering:auto;shape-rendering:auto;text-rendering:auto;enable-background:accumulate"
         d="m 106.22332,407.48062 a 1.3230489,1.3230489 0 0 0 0.023,2.6446 c 4.335,0.1773 9.5017,0.6105 13.8828,3.584 a 1.3231875,1.3231875 0 1 0 1.4864,-2.1895 c -5.0763,-3.4453 -10.8471,-3.8566 -15.2617,-4.0371 a 1.3230489,1.3230489 0 0 0 -0.1309,0 z"
         id="path8299"
         inkscape:connector-curvature="0"
         inkscape:export-xdpi="38.90226"
         inkscape:export-ydpi="38.90226" />
      <path
         style="color:#000000;font-style:normal;font-variant:normal;font-weight:normal;font-stretch:normal;font-size:medium;line-height:normal;font-family:sans-serif;font-variant-ligatures:normal;font-variant-position:normal;font-variant-caps:normal;font-variant-numeric:normal;font-variant-alternates:normal;font-feature-settings:normal;text-indent:0;text-align:start;text-decoration:none;text-decoration-line:none;text-decoration-style:solid;text-decoration-color:#000000;letter-spacing:normal;word-spacing:normal;text-transform:none;writing-mode:lr-tb;direction:ltr;text-orientation:mixed;dominant-baseline:auto;baseline-shift:baseline;text-anchor:start;white-space:normal;shape-padding:0;clip-rule:nonzero;display:inline;overflow:visible;visibility:visible;opacity:1;isolation:auto;mix-blend-mode:normal;color-interpolation:sRGB;color-interpolation-filters:linearRGB;solid-color:#000000;solid-opacity:1;vector-effect:none;fill:#6e59ad;fill-opacity:1;fill-rule:nonzero;stroke:none;stroke-width:2.11666656;stroke-linecap:round;stroke-linejoin:miter;stroke-miterlimit:4;stroke-dasharray:none;stroke-dashoffset:0;stroke-opacity:1;color-rendering:auto;image-rendering:auto;shape-rendering:auto;text-rendering:auto;enable-background:accumulate"
         d="m 105.33273,404.16032 a 1.0584391,1.0584391 0 0 0 -0.074,0.01 c 0,0 -0.73339,0.074 -1.4687,0.5313 -0.7354,0.4571 -1.5377,1.4277 -1.61139,2.8281 a 1.0591131,1.0591131 0 1 0 2.11529,0.1113 c 0.039,-0.7386 0.3072,-0.9504 0.6132,-1.1406 0.306,-0.1902 0.586,-0.2265 0.586,-0.2265 a 1.0587344,1.0587344 0 0 0 -0.1602,-2.1114 z"
         id="path8301"
         inkscape:connector-curvature="0"
         inkscape:export-xdpi="38.90226"
         inkscape:export-ydpi="38.90226" />
      <path
         style="color:#000000;font-style:normal;font-variant:normal;font-weight:normal;font-stretch:normal;font-size:medium;line-height:normal;font-family:sans-serif;font-variant-ligatures:normal;font-variant-position:normal;font-variant-caps:normal;font-variant-numeric:normal;font-variant-alternates:normal;font-feature-settings:normal;text-indent:0;text-align:start;text-decoration:none;text-decoration-line:none;text-decoration-style:solid;text-decoration-color:#000000;letter-spacing:normal;word-spacing:normal;text-transform:none;writing-mode:lr-tb;direction:ltr;text-orientation:mixed;dominant-baseline:auto;baseline-shift:baseline;text-anchor:start;white-space:normal;shape-padding:0;clip-rule:nonzero;display:inline;overflow:visible;visibility:visible;opacity:1;isolation:auto;mix-blend-mode:normal;color-interpolation:sRGB;color-interpolation-filters:linearRGB;solid-color:#000000;solid-opacity:1;vector-effect:none;fill:#6e59ad;fill-opacity:1;fill-rule:nonzero;stroke:none;stroke-width:2.64583325;stroke-linecap:round;stroke-linejoin:round;stroke-miterlimit:4;stroke-dasharray:none;stroke-dashoffset:0;stroke-opacity:1;color-rendering:auto;image-rendering:auto;shape-rendering:auto;text-rendering:auto;enable-background:accumulate"
         d="m 222.23113,407.48062 a 1.3230489,1.3230489 0 0 0 -0.092,0 c -4.4146,0.1805 -10.1854,0.5918 -15.2617,4.0371 a 1.3231455,1.3231455 0 1 0 1.48629,2.1894 c 4.38121,-2.9734 9.54791,-3.4067 13.88291,-3.584 a 1.3230489,1.3230489 0 0 0 -0.016,-2.6445 z"
         id="path8303"
         inkscape:connector-curvature="0"
         inkscape:export-xdpi="38.90226"
         inkscape:export-ydpi="38.90226" />
      <path
         style="color:#000000;font-style:normal;font-variant:normal;font-weight:normal;font-stretch:normal;font-size:medium;line-height:normal;font-family:sans-serif;font-variant-ligatures:normal;font-variant-position:normal;font-variant-caps:normal;font-variant-numeric:normal;font-variant-alternates:normal;font-feature-settings:normal;text-indent:0;text-align:start;text-decoration:none;text-decoration-line:none;text-decoration-style:solid;text-decoration-color:#000000;letter-spacing:normal;word-spacing:normal;text-transform:none;writing-mode:lr-tb;direction:ltr;text-orientation:mixed;dominant-baseline:auto;baseline-shift:baseline;text-anchor:start;white-space:normal;shape-padding:0;clip-rule:nonzero;display:inline;overflow:visible;visibility:visible;opacity:1;isolation:auto;mix-blend-mode:normal;color-interpolation:sRGB;color-interpolation-filters:linearRGB;solid-color:#000000;solid-opacity:1;vector-effect:none;fill:#6e59ad;fill-opacity:1;fill-rule:nonzero;stroke:none;stroke-width:2.11666656;stroke-linecap:round;stroke-linejoin:miter;stroke-miterlimit:4;stroke-dasharray:none;stroke-dashoffset:0;stroke-opacity:1;color-rendering:auto;image-rendering:auto;shape-rendering:auto;text-rendering:auto;enable-background:accumulate"
         d="m 223.12963,404.16032 a 1.0584391,1.0584391 0 0 0 -0.1289,2.1114 c 0,0 0.2799,0.036 0.58589,0.2265 0.30601,0.1902 0.57441,0.402 0.61331,1.1406 a 1.0590838,1.0590838 0 1 0 2.1152,-0.1113 c -0.074,-1.4004 -0.8759,-2.371 -1.61131,-2.8281 -0.73539,-0.4571 -1.46869,-0.5313 -1.46869,-0.5313 a 1.0584391,1.0584391 0 0 0 -0.1055,-0.01 z"
         id="path8305"
         inkscape:connector-curvature="0"
         inkscape:export-xdpi="38.90226"
         inkscape:export-ydpi="38.90226" />
      <path
         id="path8307"
         style="display:inline;fill:#6e59ad;fill-opacity:1;stroke:none;stroke-width:2.64583325;stroke-linecap:round;stroke-linejoin:round;stroke-miterlimit:4;stroke-dasharray:none;stroke-opacity:1"
         d="m 101.67242,378.73592 c -0.029,-0.8695 -0.069,0.1301 -0.108,0.2 -2.216305,3.9953 -13.298005,18.3094 -4.366095,13.8506 -1.47571,8.2298 -1.335,16.8221 1.6686,21.0769 -4.95281,0.7607 -8.45271,8.3429 -10.09221,15.5983 -0.031,0.1385 -0.3987,0.8068 -0.4287,0.945 -25.122896,-11.5314 -38.409496,-24.6075 -35.531596,-35.6051 2.844,-10.8678 21.574701,-16.6647 48.828911,-16.9352"
         inkscape:connector-curvature="0"
         sodipodi:nodetypes="csccsccc"
         inkscape:export-xdpi="38.90226"
         inkscape:export-ydpi="38.90226" />
      <path
         inkscape:connector-curvature="0"
         id="path8309"
         style="display:inline;fill:#6e59ad;fill-opacity:1;stroke:none;stroke-width:2.64583325;stroke-linecap:round;stroke-linejoin:round;stroke-miterlimit:4;stroke-dasharray:none;stroke-opacity:1"
         d="m 234.82063,465.24662 c 0.7536,-8.0058 0.8533,-17.2211 -0.08,-26.5211 10.8266,18.5717 6.2638,-27.7889 -7.15251,-24.5712 1.74011,-4.0895 2.10151,-6.2835 2.15991,-8.0607 l 1.0163,0.4706 c 30.9763,14.4207 52.7428,31.6034 49.81389,42.7961 -2.6116,9.9804 -23.85609,14.801 -45.55539,16.1591"
         sodipodi:nodetypes="ccccccc"
         inkscape:export-xdpi="38.90226"
         inkscape:export-ydpi="38.90226" />
      <g
         transform="translate(702.53003,388.89281)"
         aria-label="DUT INFO CALAIS"
         style="font-style:italic;font-variant:normal;font-weight:bold;font-stretch:normal;font-size:50.79999924px;line-height:1.25;font-family:'Carolina Hills Personal Use';-inkscape-font-specification:'Carolina Hills Personal Use Bold Italic';letter-spacing:0px;word-spacing:0px;display:inline;fill:#6e59ad;fill-opacity:1;stroke:none;stroke-width:0.26458332"
         id="g8338"
         inkscape:export-xdpi="38.90226"
         inkscape:export-ydpi="38.90226">
        <path
           d="m -645.25912,369.9027 5.56802,6.29932 q 1.93451,2.18859 2.61331,4.6057 0.6788,2.41712 -3.9e-4,4.67857 -0.6792,2.26145 -2.6965,4.04457 -2.01731,1.78311 -4.34504,2.17951 -2.32773,0.39639 -4.64322,-0.57404 -2.31548,-0.97044 -4.24999,-3.15903 l -5.56803,-6.29932 z m -4.88146,15.2645 q 1.51397,1.71281 3.39294,1.88258 1.89579,0.1888 3.60859,-1.32516 1.71281,-1.51396 1.7582,-3.41859 0.0622,-1.8856 -1.45175,-3.59841 l -2.10273,-2.3789 -7.30798,6.45958 z"
           style="font-style:normal;font-variant:normal;font-weight:800;font-stretch:normal;font-size:25.39999962px;font-family:Montserrat;-inkscape-font-specification:'Montserrat Ultra-Bold';fill:#6e59ad;fill-opacity:1;stroke-width:0.26458332"
           id="path8312"
           inkscape:connector-curvature="0" />
        <path
           d="m -637.49542,403.95041 q -2.94029,-2.65619 -3.13278,-5.7396 -0.17365,-3.06639 2.48253,-6.00668 l 6.60641,-7.31302 3.73191,3.37131 -6.50425,7.19994 q -2.86051,3.16646 -0.35372,5.43103 2.48793,2.24754 5.34844,-0.91892 l 6.50425,-7.19994 3.67536,3.32023 -6.60641,7.31303 q -2.65618,2.94028 -5.74324,3.06103 -3.06821,0.13777 -6.0085,-2.51841 z"
           style="font-style:normal;font-variant:normal;font-weight:800;font-stretch:normal;font-size:25.39999962px;font-family:Montserrat;-inkscape-font-specification:'Montserrat Ultra-Bold';fill:#6e59ad;fill-opacity:1;stroke-width:0.26458332"
           id="path8314"
           inkscape:connector-curvature="0" />
        <path
           d="m -615.13871,404.36044 -4.2945,-3.3734 2.46337,-3.13598 12.52395,9.83777 -2.46337,3.13598 -4.27452,-3.3577 -8.51979,10.8461 -3.95493,-3.10667 z"
           style="font-style:normal;font-variant:normal;font-weight:800;font-stretch:normal;font-size:25.39999962px;font-family:Montserrat;-inkscape-font-specification:'Montserrat Ultra-Bold';fill:#6e59ad;fill-opacity:1;stroke-width:0.26458332"
           id="path8316"
           inkscape:connector-curvature="0" />
        <path
           d="m -594.79408,414.44994 4.18707,2.78591 -9.84918,14.80277 -4.18707,-2.78591 z"
           style="font-style:normal;font-variant:normal;font-weight:800;font-stretch:normal;font-size:25.39999962px;font-family:Montserrat;-inkscape-font-specification:'Montserrat Ultra-Bold';fill:#6e59ad;fill-opacity:1;stroke-width:0.26458332"
           id="path8318"
           inkscape:connector-curvature="0" />
        <path
           d="m -571.41518,428.56614 -8.72116,15.49419 -3.60793,-2.03079 -2.19245,-12.10595 -4.64713,8.25619 -4.2941,-2.41701 8.72116,-15.49419 3.60793,2.03079 2.19245,12.10595 4.64713,-8.25619 z"
           style="font-style:normal;font-variant:normal;font-weight:800;font-stretch:normal;font-size:25.39999962px;font-family:Montserrat;-inkscape-font-specification:'Montserrat Ultra-Bold';fill:#6e59ad;fill-opacity:1;stroke-width:0.26458332"
           id="path8320"
           inkscape:connector-curvature="0" />
        <path
           d="m -564.92952,435.68929 -1.49754,3.61358 7.25062,3.00482 -1.48782,3.59012 -7.25062,-3.00482 -2.33384,5.63156 -4.64604,-1.92542 6.80703,-16.42537 12.88218,5.33865 -1.48782,3.59012 z"
           style="font-style:normal;font-variant:normal;font-weight:800;font-stretch:normal;font-size:25.39999962px;font-family:Montserrat;-inkscape-font-specification:'Montserrat Ultra-Bold';fill:#6e59ad;fill-opacity:1;stroke-width:0.26458332"
           id="path8322"
           inkscape:connector-curvature="0" />
        <path
           d="m -546.79619,456.01801 q -2.78872,-0.41481 -4.84908,-1.9282 -2.03524,-1.50967 -3.00638,-3.78551 -0.94601,-2.27211 -0.55736,-4.88496 0.38864,-2.61285 1.95499,-4.51126 1.59147,-1.89468 3.97798,-2.74663 2.41164,-0.84822 5.20036,-0.43342 2.78872,0.4148 4.82396,1.92447 2.06036,1.51339 3.00637,3.7855 0.97114,2.27585 0.58249,4.8887 -0.38864,2.61285 -1.98011,4.50753 -1.56635,1.89841 -3.97799,2.74663 -2.38651,0.85195 -5.17523,0.43715 z m 0.61286,-4.12027 q 1.33155,0.19806 2.50529,-0.26934 1.17374,-0.4674 1.96999,-1.50454 0.79999,-1.06226 1.02047,-2.54455 0.22049,-1.4823 -0.23944,-2.70628 -0.45619,-1.24911 -1.44308,-2.03789 -0.98689,-0.78878 -2.31844,-0.98684 -1.33155,-0.19806 -2.50529,0.26934 -1.17374,0.4674 -1.97373,1.52966 -0.79625,1.03714 -1.01674,2.51943 -0.22048,1.48229 0.23571,2.7314 0.45993,1.22399 1.44682,2.01277 0.98689,0.78878 2.31844,0.98684 z"
           style="font-style:normal;font-variant:normal;font-weight:800;font-stretch:normal;font-size:25.39999962px;font-family:Montserrat;-inkscape-font-specification:'Montserrat Ultra-Bold';fill:#6e59ad;fill-opacity:1;stroke-width:0.26458332"
           id="path8324"
           inkscape:connector-curvature="0" />
        <path
           d="m -510.27608,450.55162 q -2.6162,0.98076 -5.11931,0.67133 -2.48823,-0.34214 -4.41745,-1.87039 -1.92922,-1.52824 -2.8654,-4.02553 -0.93618,-2.49729 -0.48703,-4.91714 0.44915,-2.41985 2.1082,-4.28959 1.67391,-1.90245 4.29012,-2.88321 2.28323,-0.85594 4.41772,-0.73383 2.13449,0.12211 3.91809,1.18955 l -1.98032,3.83476 q -2.34841,-1.34397 -4.65543,-0.47912 -1.35567,0.50822 -2.20303,1.50403 -0.82358,0.9869 -1.00804,2.30385 -0.16959,1.28425 0.35646,2.68749 0.52605,1.40324 1.50699,2.2833 0.99582,0.84737 2.2652,1.04966 1.29317,0.19337 2.64884,-0.31485 2.30702,-0.86485 3.19319,-3.42141 l 4.01318,1.58793 q -0.64234,1.97687 -2.17054,3.47205 -1.5282,1.49518 -3.81144,2.35112 z"
           style="font-style:normal;font-variant:normal;font-weight:800;font-stretch:normal;font-size:25.39999962px;font-family:Montserrat;-inkscape-font-specification:'Montserrat Ultra-Bold';fill:#6e59ad;fill-opacity:1;stroke-width:0.26458332"
           id="path8326"
           inkscape:connector-curvature="0" />
        <path
           d="m -488.54395,435.71533 -6.57414,3.64788 0.45451,3.69837 -4.48641,2.48943 -1.76388,-19.35504 4.33093,-2.40316 15.51183,11.72653 -4.57524,2.53873 z m -3.08747,-2.52786 -4.75946,-3.86587 0.76167,6.08418 z"
           style="font-style:normal;font-variant:normal;font-weight:800;font-stretch:normal;font-size:25.39999962px;font-family:Montserrat;-inkscape-font-specification:'Montserrat Ultra-Bold';fill:#6e59ad;fill-opacity:1;stroke-width:0.26458332"
           id="path8328"
           inkscape:connector-curvature="0" />
        <path
           d="m -485.49626,417.03886 4.14512,-2.84796 7.81031,11.36767 6.99226,-4.80414 2.25824,3.28679 -11.13738,7.65209 z"
           style="font-style:normal;font-variant:normal;font-weight:800;font-stretch:normal;font-size:25.39999962px;font-family:Montserrat;-inkscape-font-specification:'Montserrat Ultra-Bold';fill:#6e59ad;fill-opacity:1;stroke-width:0.26458332"
           id="path8330"
           inkscape:connector-curvature="0" />
        <path
           d="m -450.97693,409.25612 -5.85468,4.71689 1.07936,3.56644 -3.99542,3.21896 -5.04301,-18.76958 3.85697,-3.10741 17.2864,8.90553 -4.07454,3.2827 z m -3.47378,-1.96353 -5.34967,-2.99638 1.7894,5.86476 z"
           style="font-style:normal;font-variant:normal;font-weight:800;font-stretch:normal;font-size:25.39999962px;font-family:Montserrat;-inkscape-font-specification:'Montserrat Ultra-Bold';fill:#6e59ad;fill-opacity:1;stroke-width:0.26458332"
           id="path8332"
           inkscape:connector-curvature="0" />
        <path
           d="m -450.41095,389.82832 3.68319,-3.42447 12.1067,13.02138 -3.68319,3.42446 z"
           style="font-style:normal;font-variant:normal;font-weight:800;font-stretch:normal;font-size:25.39999962px;font-family:Montserrat;-inkscape-font-specification:'Montserrat Ultra-Bold';fill:#6e59ad;fill-opacity:1;stroke-width:0.26458332"
           id="path8334"
           inkscape:connector-curvature="0" />
        <path
           d="m -423.69571,388.74203 q -1.435,1.6131 -3.18411,2.77677 -1.74911,1.16368 -3.25744,1.52168 l -1.67338,-3.69836 q 1.38177,-0.36859 2.78905,-1.22444 1.40728,-0.85584 2.42021,-1.9945 1.92458,-2.16344 0.84286,-3.12573 -0.56932,-0.50647 -1.39213,-0.11656 -0.82489,0.35405 -2.34406,1.45031 -1.65632,1.21223 -2.91165,1.89728 -1.27432,0.66817 -2.73188,0.66338 -1.45756,-0.005 -2.84292,-1.2372 -1.21457,-1.08047 -1.59155,-2.60568 -0.39595,-1.54209 0.1996,-3.35802 0.61244,-1.83489 2.31755,-3.75163 1.16488,-1.30945 2.59963,-2.31083 1.41578,-1.01827 2.8461,-1.47965 l 1.75988,3.63933 q -2.71301,0.98611 -4.29995,2.77 -0.99605,1.11968 -1.11028,1.93595 -0.1332,0.7994 0.39817,1.2721 0.53137,0.47271 1.33729,0.10178 0.80592,-0.37094 2.28923,-1.46511 1.6732,-1.2312 2.93063,-1.88039 1.25533,-0.68505 2.7129,-0.68026 1.45546,-0.0311 2.84083,1.20134 1.19558,1.06358 1.57256,2.58879 0.37697,1.52522 -0.21648,3.377 -0.61243,1.8349 -2.30066,3.73265 z"
           style="font-style:normal;font-variant:normal;font-weight:800;font-stretch:normal;font-size:25.39999962px;font-family:Montserrat;-inkscape-font-specification:'Montserrat Ultra-Bold';fill:#6e59ad;fill-opacity:1;stroke-width:0.26458332"
           id="path8336"
           inkscape:connector-curvature="0" />
      </g>
      <path
         style="color:#000000;font-style:normal;font-variant:normal;font-weight:normal;font-stretch:normal;font-size:medium;line-height:normal;font-family:sans-serif;font-variant-ligatures:normal;font-variant-position:normal;font-variant-caps:normal;font-variant-numeric:normal;font-variant-alternates:normal;font-feature-settings:normal;text-indent:0;text-align:start;text-decoration:none;text-decoration-line:none;text-decoration-style:solid;text-decoration-color:#000000;letter-spacing:normal;word-spacing:normal;text-transform:none;writing-mode:lr-tb;direction:ltr;text-orientation:mixed;dominant-baseline:auto;baseline-shift:baseline;text-anchor:start;white-space:normal;shape-padding:0;clip-rule:nonzero;display:inline;overflow:visible;visibility:visible;opacity:1;isolation:auto;mix-blend-mode:normal;color-interpolation:sRGB;color-interpolation-filters:linearRGB;solid-color:#000000;solid-opacity:1;vector-effect:none;fill:#6e59ad;fill-opacity:1;fill-rule:nonzero;stroke:none;stroke-width:28.82245827;stroke-linecap:round;stroke-linejoin:round;stroke-miterlimit:4;stroke-dasharray:none;stroke-dashoffset:0;stroke-opacity:1;color-rendering:auto;image-rendering:auto;shape-rendering:auto;text-rendering:auto;enable-background:accumulate"
         d="M 111.87702,764.55888 A 14.41267,14.41267 0 0 1 99.520315,742.73237 L 141.98382,671.95606 99.520315,601.18007 a 14.41267,14.41267 0 0 1 12.356705,-21.82675 h 104.44191 a 14.41267,14.41267 0 1 1 0,28.82276 h -78.9906 l 33.81809,56.36458 a 14.41267,14.41267 0 0 1 0,14.83122 l -33.81809,56.36459 h 78.9906 a 14.41267,14.41267 0 1 1 0,28.82241 z"
         id="path8340"
         inkscape:connector-curvature="0" />
      <path
         style="color:#000000;font-style:normal;font-variant:normal;font-weight:normal;font-stretch:normal;font-size:medium;line-height:normal;font-family:sans-serif;font-variant-ligatures:normal;font-variant-position:normal;font-variant-caps:normal;font-variant-numeric:normal;font-variant-alternates:normal;font-feature-settings:normal;text-indent:0;text-align:start;text-decoration:none;text-decoration-line:none;text-decoration-style:solid;text-decoration-color:#000000;letter-spacing:normal;word-spacing:normal;text-transform:none;writing-mode:lr-tb;direction:ltr;text-orientation:mixed;dominant-baseline:auto;baseline-shift:baseline;text-anchor:start;white-space:normal;shape-padding:0;clip-rule:nonzero;display:inline;overflow:visible;visibility:visible;opacity:1;isolation:auto;mix-blend-mode:normal;color-interpolation:sRGB;color-interpolation-filters:linearRGB;solid-color:#000000;solid-opacity:1;vector-effect:none;fill:#6e59ad;fill-opacity:1;fill-rule:nonzero;stroke:none;stroke-width:4.76249981;stroke-linecap:round;stroke-linejoin:round;stroke-miterlimit:4;stroke-dasharray:none;stroke-dashoffset:0;stroke-opacity:1;color-rendering:auto;image-rendering:auto;shape-rendering:auto;text-rendering:auto;enable-background:accumulate"
         d="m 50.747718,526.34747 c -1.298,0.0238 -2.3378,1.08267 -2.3379,2.38085 v 0.003 0.14063 l 5.699201,96.25782 1.8692,39.61921 c 5.29e-4,0.037 0.174601,15.3851 -0.2246,32.12891 -0.1999,8.38208 -0.543499,17.10378 -1.1211,24.369 -0.577699,7.2653 -1.543299,13.2874 -2.384801,15.29688 -1.3286,3.17302 0.059,6.48312 2.250001,10.18562 2.1908,3.7025 5.5582,7.9181 9.800799,12.49608 8.485201,9.15612 20.479097,19.69921 33.353497,29.31062 12.874405,9.61139 26.600005,18.2775 38.636705,23.60938 6.0184,2.66592 11.61111,4.50951 16.57821,5.17382 4.3239,0.5782 0,0 11.42379,1.80899 11.4238,-1.80899 7.09961,-1.23069 11.4238,-1.80899 4.9671,-0.66431 10.55981,-2.5079 16.57811,-5.17382 12.0368,-5.33188 25.7624,-13.99598 38.6368,-23.6075 12.8743,-9.61139 24.8683,-20.15638 33.3535,-29.3125 4.2426,-4.57798 7.61,-8.79358 9.8008,-12.49608 2.19069,-3.7024 3.57859,-7.0126 2.24999,-10.18562 -0.84148,-2.0094 -1.80719,-8.03158 -2.3848,-15.29688 -0.57769,-7.2653 -0.9213,-15.987 -1.12109,-24.369 -0.3991,-16.73992 -0.22511,-32.07631 -0.22461,-32.12121 v -0.01 l 1.23241,-39.6348 5.6992,-96.23628 v -0.14062 -0.004 c 0,-1.78833 -1.89931,-2.93751 -3.4843,-2.10937 -24.9669,13.05912 -58.5424,21.90446 -90.77351,30.62893 -0.5299,0.14285 -0.99419,0.46437 -1.3144,0.91014 -1.1059,1.54252 -1.9812,2.49121 -2.6348,2.88867 -0.2808,0.17084 -0.317,0.13785 -0.2871,0.1465 0.097,0.0281 -0.01,-0.008 -0.11329,-0.25585 v -0.004 c -0.019,-0.0451 -0.039,-0.10054 -0.061,-0.166 -0.40271,-1.1956 -1.6679,-1.86973 -2.8848,-1.53712 -1.2909,0.35274 -2.562,0.70543 -3.8359,1.05664 -0.376,0.10374 -0.72071,0.29826 -1.00391,0.56639 -0.17559,0.16608 -0.35299,0.3279 -0.53129,0.48636 -2.0075,1.78583 -4.4176,3.07967 -8.57031,3.08594 -0.03,-0.003 -0.06,-0.003 -0.09,-0.004 0.011,-8e-5 0,0 -0.023,0 -4.1712,0 -6.5851,-1.29567 -8.5977,-3.08592 -0.1798,-0.15994 -0.3554,-0.32392 -0.5292,-0.48831 -0.2834,-0.26747 -0.6282,-0.46127 -1.004,-0.56444 -1.2738,-0.3512 -2.545,-0.70392 -3.8359,-1.05664 -1.2192,-0.33321 -2.4864,0.34409 -2.8867,1.54297 -0.021,0.0624 -0.04,0.11491 -0.057,0.15428 v 0.006 c -0.1077,0.25847 -0.2139,0.28832 -0.1152,0.25977 0.03,-0.009 0,0.0222 -0.2852,-0.14843 -0.6531,-0.39712 -1.5287,-1.34597 -2.6348,-2.88867 -0.3197,-0.44543 -0.7833,-0.7669 -1.3125,-0.91017 -32.2311,-8.72524 -65.806505,-17.57053 -90.773406,-30.62964 -0.3536,-0.18442 -0.7478,-0.2771 -1.146501,-0.26953 z m 2.660201,6.28906 c 25.024601,12.33096 56.775101,20.75363 87.255811,29 1.02599,1.37814 2.05899,2.6143 3.47659,3.47655 0.92341,0.562 2.4204,1.13472 4.084,0.65431 0.97321,-0.28143 1.66141,-0.83981 2.20311,-1.47071 0.51759,0.14285 1.03579,0.28639 1.55469,0.42968 0.063,0.0573 0.12321,0.1147 0.1875,0.17188 2.60611,2.31825 6.33471,4.15859 11.37501,4.25587 0.14239,0.0262 0.2868,0.0392 0.43159,0.0391 h 0.043 c 5.25181,0 9.08671,-1.90979 11.7637,-4.29104 0.064,-0.0574 0.12241,-0.11462 0.1855,-0.1719 0.51941,-0.14338 1.03861,-0.28477 1.5567,-0.4277 0.54141,0.63003 1.22881,1.18957 2.2011,1.47069 v -0.003 c 1.66431,0.48138 3.16021,-0.0902 4.084,-0.65236 1.4185,-0.86257 2.4516,-2.09897 3.47851,-3.4785 30.4809,-8.24638 62.2312,-16.66701 87.2559,-28.99805 l -5.461,92.22269 c -2.7e-4,0.023 -2.7e-4,0.045 0,0.068 l -1.2363,39.6739 c -2e-4,0.0161 -2e-4,0.031 0,0.047 0,0 -0.1776,15.469 0.2246,32.336 0.2011,8.43338 0.5451,17.2171 1.1347,24.63279 0.5896,7.41571 1.271,13.25099 2.7403,16.75971 0.1862,0.44458 -0.055,2.7056 -1.9571,5.92 -1.902,3.2144 -5.0926,7.26059 -9.1933,11.68548 -8.2014,8.84992 -20.0376,19.27262 -32.709,28.7324 -12.67141,9.45991 -26.2078,17.9714 -37.71881,23.07032 -5.7554,2.5495 -11.00769,4.2355 -15.27919,4.80668 -10.79881,1.20362 -10.79881,1.2046 -21.58601,0 -4.2716,-0.57118 -9.52379,-2.25718 -15.27929,-4.80668 -11.511,-5.09892 -25.0474,-13.61231 -37.71871,-23.0722 -12.671405,-9.45991 -24.507601,-19.8806 -32.709001,-28.73052 -4.100701,-4.42489 -7.291401,-8.47108 -9.193401,-11.68548 -1.901999,-3.2144 -2.143199,-5.47542 -1.956998,-5.92 1.4693,-3.50872 2.150599,-9.344 2.740199,-16.75971 0.5896,-7.41569 0.933699,-16.19941 1.134801,-24.63279 0.402098,-16.867 0.224599,-32.336 0.224599,-32.336 5.29e-4,-0.028 5.29e-4,-0.056 0,-0.084 l -1.873001,-39.67961 c 1.01e-4,-0.0101 1.01e-4,-0.019 0,-0.029 z"
         id="path8342"
         inkscape:connector-curvature="0"
         sodipodi:nodetypes="cccccccccccsccccsccccccccccccccccccccccccccscccccccccccccccccccccccsccccccccccccssccccccccccscscccccc" />
      <path
         id="path8344"
         style="display:inline;fill:#6e59ad;fill-opacity:1;stroke:none;stroke-width:0.26458332px;stroke-linecap:butt;stroke-linejoin:miter;stroke-opacity:1"
         d="m 58.854118,375.24693 c 4.246501,-3.75904 68.497802,-8.97283 93.444712,-2.67584 22.2215,5.60907 17.7805,-17.90964 16.5901,-27.16476 -2.43231,-18.91112 -43.8664,-70.53731 -64.12861,-68.83781 -2.31399,0.1941 -1.6255,2.7382 0.2472,4.4178 46.5465,67.06851 -4.529,71.19361 -38.386302,87.80071"
         inkscape:connector-curvature="0"
         sodipodi:nodetypes="cssscc"
         inkscape:export-xdpi="38.90226"
         inkscape:export-ydpi="38.90226" />
    </g>
  </g>
</svg>
