<?xml version="1.0" encoding="UTF-8" standalone="no"?>
<!-- Created with Inkscape (http://www.inkscape.org/) -->

<svg
   xmlns:dc="http://purl.org/dc/elements/1.1/"
   xmlns:cc="http://creativecommons.org/ns#"
   xmlns:rdf="http://www.w3.org/1999/02/22-rdf-syntax-ns#"
   xmlns:svg="http://www.w3.org/2000/svg"
   xmlns="http://www.w3.org/2000/svg"
   xmlns:sodipodi="http://sodipodi.sourceforge.net/DTD/sodipodi-0.dtd"
   xmlns:inkscape="http://www.inkscape.org/namespaces/inkscape"
   width="200"
   height="369.67557"
   viewBox="0 0 52.916665 97.809993"
   version="1.1"
   id="svg3376"
   inkscape:version="0.92.2 (5c3e80d, 2017-08-06)"
   sodipodi:docname="Logo_Delta_200px.svg">
  <defs
     id="defs3370">
    <filter
       style="color-interpolation-filters:sRGB"
       inkscape:label="Duochrome"
       id="filter8580">
      <feColorMatrix
         type="luminanceToAlpha"
         result="colormatrix1"
         id="feColorMatrix8560" />
      <feFlood
         flood-opacity="1"
         flood-color="rgb(52,47,63)"
         result="flood1"
         id="feFlood8562" />
      <feComposite
         in2="colormatrix1"
         operator="out"
         result="composite1"
         id="feComposite8564" />
      <feFlood
         flood-opacity="1"
         flood-color="rgb(249,168,5)"
         result="flood2"
         id="feFlood8566" />
      <feComposite
         in2="colormatrix1"
         result="composite2"
         operator="in"
         id="feComposite8568" />
      <feComposite
         k4="0"
         k1="0"
         in="composite2"
         in2="composite1"
         k2="1"
         k3="1"
         operator="arithmetic"
         result="composite3"
         id="feComposite8570" />
      <feColorMatrix
         in="composite3"
         type="matrix"
         values="2 -1 0 0 0 0 2 -1 0 0 -1 0 2 0 0 0 0 0 1 0 "
         result="colormatrix2"
         id="feColorMatrix8572" />
      <feComposite
         k4="0"
         k3="0"
         k1="0"
         in="colormatrix2"
         in2="composite3"
         operator="arithmetic"
         k2="0"
         result="composite4"
         id="feComposite8574" />
      <feBlend
         in="composite4"
         in2="composite3"
         mode="normal"
         result="blend"
         id="feBlend8576" />
      <feComposite
         in2="SourceGraphic"
         operator="in"
         id="feComposite8578" />
    </filter>
  </defs>
  <sodipodi:namedview
     id="base"
     pagecolor="#ffffff"
     bordercolor="#666666"
     borderopacity="1.0"
     inkscape:pageopacity="0.0"
     inkscape:pageshadow="2"
     inkscape:zoom="0.98994949"
     inkscape:cx="49.986861"
     inkscape:cy="174.63786"
     inkscape:document-units="mm"
     inkscape:current-layer="layer1"
     showgrid="false"
     inkscape:pagecheckerboard="true"
     units="px"
     fit-margin-left="5"
     fit-margin-top="5"
     fit-margin-right="5"
     fit-margin-bottom="5"
     inkscape:window-width="1920"
     inkscape:window-height="1017"
     inkscape:window-x="2391"
     inkscape:window-y="-9"
     inkscape:window-maximized="1" />
  <metadata
     id="metadata3373">
    <rdf:RDF>
      <cc:Work
         rdf:about="">
        <dc:format>image/svg+xml</dc:format>
        <dc:type
           rdf:resource="http://purl.org/dc/dcmitype/StillImage" />
        <dc:title></dc:title>
      </cc:Work>
    </rdf:RDF>
  </metadata>
  <g
     inkscape:label="Calque 1"
     inkscape:groupmode="layer"
     id="layer1"
     transform="translate(-81.794799,-108.90771)">
    <g
       transform="matrix(0.16082245,0,0,0.16082245,-8.2795381,100.64366)"
       id="g9398">
      <path
         style="color:#000000;font-style:normal;font-variant:normal;font-weight:normal;font-stretch:normal;font-size:medium;line-height:normal;font-family:sans-serif;font-variant-ligatures:normal;font-variant-position:normal;font-variant-caps:normal;font-variant-numeric:normal;font-variant-alternates:normal;font-feature-settings:normal;text-indent:0;text-align:start;text-decoration:none;text-decoration-line:none;text-decoration-style:solid;text-decoration-color:#000000;letter-spacing:normal;word-spacing:normal;text-transform:none;writing-mode:lr-tb;direction:ltr;text-orientation:mixed;dominant-baseline:auto;baseline-shift:baseline;text-anchor:start;white-space:normal;shape-padding:0;clip-rule:nonzero;display:inline;overflow:visible;visibility:visible;opacity:1;isolation:auto;mix-blend-mode:normal;color-interpolation:sRGB;color-interpolation-filters:linearRGB;solid-color:#000000;solid-opacity:1;vector-effect:none;fill:#7531a8;fill-opacity:1;fill-rule:nonzero;stroke:none;stroke-width:13.22916698;stroke-linecap:round;stroke-linejoin:round;stroke-miterlimit:4;stroke-dasharray:none;stroke-dashoffset:0;stroke-opacity:1;color-rendering:auto;image-rendering:auto;shape-rendering:auto;text-rendering:auto;enable-background:accumulate"
         d="m 853.07358,281.30415 a 6.6152445,6.6152445 0 0 0 -2.8598,0.6718 c 0,0 -35.9811,17.3234 -77.5746,26.8438 -2.8852,7.48369 -5.6753,10.61329 -7.5572,1.6278 -0.011,0 -0.023,0 -0.034,0.01 -1.9633,3.53169 -4.7052,9.10929 -7.6548,14.99809 43.5597,-6.7596 82.82591,-24.26659 93.281,-29.16209 l 13.4634,20.6763 c -0.90469,0.37129 -1.6084,0.54149 -2.54921,0.99369 -2.86038,1.3752 -5.8765,3.12082 -8.52138,5.7149 -2.64501,2.59421 -5.05251,6.45191 -5.05251,11.11361 0,0.25321 -0.2572,4.8002 -0.68781,10.91761 -0.43048,6.11748 -1.02058,14.35518 -1.65989,23.99649 -1.27831,19.28275 -2.74791,44.18076 -3.50769,69.11115 -0.7598,24.93031 -0.82441,49.85279 0.77309,69.47069 0.7987,9.80882 1.98281,18.26602 3.87879,25.03922 1.78771,6.38669 3.90131,12.03759 9.69341,14.90249 -0.0101,0.062 0,0.053 -0.014,0.12661 -0.3443,1.7005 -2.1659,5.65208 -5.4493,10.2521 -6.5668,9.19998 -18.522,21.4789 -32.9396,33.40208 -28.8349,23.84621 -68.3292,46.1078 -93.4982,46.1078 -25.1689,0 -64.6628,-22.26159 -93.4976,-46.1078 -14.4174,-11.9231 -26.3728,-24.2021 -32.9396,-33.40208 -3.2834,-4.60002 -5.105,-8.5516 -5.4493,-10.2521 -0.014,-0.073 0,-0.063 -0.014,-0.1251 5.7932,-2.86462 7.9056,-8.5168 9.6935,-14.904 1.8961,-6.7732 3.0801,-15.2304 3.8788,-25.03922 1.59751,-19.6179 1.53551,-44.54038 0.7757,-69.47069 -0.75979,-24.93039 -2.2294,-49.8284 -3.5077,-69.11115 -0.6393,-9.64131 -1.2319,-17.87901 -1.6626,-23.99649 -0.4305,-6.11741 -0.68519,-10.6644 -0.68519,-10.91761 0,-4.66169 -2.41,-8.5194 -5.05491,-11.11361 -2.645,-2.59408 -5.6612,-4.3397 -8.5215,-5.7149 -0.941,-0.4523 -1.6438,-0.6223 -2.5487,-0.99369 l 13.4627,-20.6763 c 10.4357,4.8864 49.583,22.3415 93.0517,29.1269 -2.9548,-5.8996 -5.7009,-11.4859 -7.662,-15.0083 -1.8864,9.05669 -4.6888,5.89129 -7.5855,-1.6418 -41.49537,-9.5316 -77.34307,-26.7911 -77.34307,-26.7911 a 6.6152445,6.6152445 0 0 0 -8.445,2.3342 l -21.1661,32.50601 a 6.6152445,6.6152445 0 0 0 4.0545,10.05469 c 0,0 4.3425,1.03741 8.4491,3.0117 2.0533,0.98719 3.9501,2.21779 4.9904,3.23811 1.0403,1.02018 1.0878,1.4161 1.0878,1.66809 0,2.20361 0.2871,5.7114 0.7188,11.84579 0.4317,6.13431 1.0218,14.3432 1.6583,23.94321 1.2729,19.20015 2.7324,43.95975 3.4845,68.63876 0.7522,24.67898 0.7845,49.31788 -0.7363,67.99379 -0.7605,9.33791 -1.94,17.21019 -3.4339,22.54689 -1.494,5.33681 -3.8013,7.1683 -2.8241,6.77741 -2.713,1.08521 -5.3049,3.39791 -6.4901,6.21879 -1.1852,2.8208 -1.1085,5.66441 -0.5901,8.22481 1.0366,5.1207 3.7972,9.91939 7.6465,15.31221 7.6986,10.7856 20.2132,23.45409 35.2754,35.91049 30.1244,24.91269 69.6264,49.1422 101.9297,49.1422 32.3033,0 71.8051,-24.22951 101.9297,-49.1422 15.06221,-12.4564 27.57671,-25.12499 35.27529,-35.91049 3.8494,-5.39282 6.61202,-10.19151 7.64871,-15.31221 0.51829,-2.5604 0.5955,-5.40401 -0.5897,-8.22481 -1.1851,-2.82088 -3.7796,-5.13358 -6.49259,-6.21879 0.97719,0.39089 -1.33022,-1.4406 -2.82411,-6.77741 -1.49389,-5.3367 -2.673,-13.20898 -3.43339,-22.54689 -1.5208,-18.67591 -1.48852,-43.31481 -0.73641,-67.99379 0.7521,-24.67901 2.2116,-49.43861 3.48461,-68.63876 0.6364,-9.60001 1.226,-17.8089 1.6577,-23.94321 0.4318,-6.13439 0.71889,-9.64218 0.71889,-11.84579 0,-0.25199 0.048,-0.64791 1.08829,-1.66809 1.04021,-1.02032 2.9365,-2.25092 4.9898,-3.23811 4.10671,-1.97429 8.4491,-3.0117 8.4491,-3.0117 a 6.6152445,6.6152445 0 0 0 4.05712,-10.05469 l -21.16801,-32.50601 a 6.6152445,6.6152445 0 0 0 -5.5857,-3.00601 z"
         id="path9302"
         inkscape:connector-curvature="0"
         inkscape:export-xdpi="38.90226"
         inkscape:export-ydpi="38.90226" />
      <path
         style="display:inline;opacity:1;fill:#7531a8;fill-opacity:1;stroke:none;stroke-width:3.96875;stroke-linecap:round;stroke-linejoin:round;stroke-miterlimit:4;stroke-dasharray:none;stroke-dashoffset:0;stroke-opacity:1;paint-order:markers stroke fill"
         d="m 795.76078,239.59765 c 0.1541,27.3426 -7.6125,49.0313 -12.7057,33.2641 -3.8522,11.7366 -13.4195,58.45389 -17.8759,37.0582 -1.5617,2.8051 -3.6307,6.9388 -5.8958,11.47579 32.7851,-5.64589 63.8567,-17.42089 80.72319,-24.54269 -6.62908,-29.1664 -23.43889,-51.2957 -44.24579,-57.2554 z m -142.3128,5.3e-4 c -20.8062,5.9603 -37.6162,28.0888 -44.2453,57.2544 16.8656,7.12159 47.937,18.89698 80.7217,24.54319 -2.265,-4.53689 -4.3336,-8.6708 -5.8953,-11.47579 -4.4564,21.39568 -14.0237,-25.3215 -17.8759,-37.0582 -5.0932,15.7672 -12.8591,-5.9212 -12.7052,-33.2636 z"
         id="path9304"
         inkscape:connector-curvature="0"
         inkscape:export-xdpi="38.90226"
         inkscape:export-ydpi="38.90226" />
      <path
         style="color:#000000;font-style:normal;font-variant:normal;font-weight:normal;font-stretch:normal;font-size:medium;line-height:normal;font-family:sans-serif;font-variant-ligatures:normal;font-variant-position:normal;font-variant-caps:normal;font-variant-numeric:normal;font-variant-alternates:normal;font-feature-settings:normal;text-indent:0;text-align:start;text-decoration:none;text-decoration-line:none;text-decoration-style:solid;text-decoration-color:#000000;letter-spacing:normal;word-spacing:normal;text-transform:none;writing-mode:lr-tb;direction:ltr;text-orientation:mixed;dominant-baseline:auto;baseline-shift:baseline;text-anchor:start;white-space:normal;shape-padding:0;clip-rule:nonzero;display:inline;overflow:visible;visibility:visible;opacity:1;isolation:auto;mix-blend-mode:normal;color-interpolation:sRGB;color-interpolation-filters:linearRGB;solid-color:#000000;solid-opacity:1;vector-effect:none;fill:#7531a8;fill-opacity:1;fill-rule:nonzero;stroke:none;stroke-width:2.11666656;stroke-linecap:round;stroke-linejoin:round;stroke-miterlimit:4;stroke-dasharray:none;stroke-dashoffset:0;stroke-opacity:1;color-rendering:auto;image-rendering:auto;shape-rendering:auto;text-rendering:auto;enable-background:accumulate"
         d="m 681.40538,168.17725 c -1.4336,-0.033 -2.6234,-0.01 -3.5918,0.066 a 1.0584391,1.0584391 0 0 0 -0.1211,0 c -0.019,0 -0.032,0.01 -0.051,0.01 v 0 a 1.0584391,1.0584391 0 0 0 -0.035,0.01 c -0.4519,0.04 -0.8622,0.09 -1.2402,0.1817 -0.24,0.058 -1.0199,0.2547 -1.4844,0.8887 -0.017,0.023 -0.057,0.08 -0.1016,0.1562 -2.6e-4,5.3e-4 0,0 0,0 -0.4655,0.8063 -1.0661,2.1727 -0.9648,3.9805 0.1008,1.7993 0.8573,3.9351 2.6738,6.4726 5.3e-4,7.9e-4 0,0 0,0 0,0 0,0 0,0 0.058,0.082 0.1206,0.1541 0.1875,0.2207 a 1.0584391,1.0584391 0 0 0 0.01,0 c 1.8566,1.8282 4.5771,2.6255 7.6074,3.0352 0.5689,0.077 1.1501,0.1338 1.7324,0.1816 a 1.0584391,1.0584391 0 0 0 0.7793,-0.2558 c 2.4584,-2.1273 5.5908,-3.4964 9.0684,-3.7207 a 1.0584391,1.0584391 0 0 0 0.029,0 c 3.6046,-0.2257 6.9792,0.8221 9.7246,2.7539 a 1.0584391,1.0584391 0 0 0 0.7109,0.1875 c 2.0189,-0.1976 3.7267,-0.3345 4.8438,-0.332 a 1.0584391,1.0584391 0 0 0 0.01,0 c 0.091,-2.6e-4 0.1821,-0.01 0.2676,-0.024 1.4841,-0.2343 2.5106,-1.3239 2.9707,-2.4902 0.4351,-1.103 0.5021,-2.2691 0.4883,-3.3672 0,-0.5869 -0.3017,-1.116 -0.7735,-1.4258 -4.6595,-3.0453 -13.6023,-4.6884 -21.7949,-5.6816 -4.0991,-0.497 -7.9734,-0.7847 -10.9375,-0.8535 z m -0.049,2.1172 c 2.8697,0.067 6.6951,0.3484 10.7324,0.8379 7.9675,0.966 16.7317,2.7834 20.6797,5.2539 -0.01,0.8778 -0.067,1.7189 -0.3125,2.3418 -0.2453,0.6218 -0.6861,1.0763 -1.334,1.1777 -5.3e-4,0 0,0 0,0 -1.211,7.9e-4 -2.8422,0.1404 -4.707,0.3204 -3.0484,-2.0238 -6.719,-3.1736 -10.6446,-2.9278 h 0.1192 c 0,1e-4 -0.046,0 -0.088,0 a 1.0584391,1.0584391 0 0 0 -0.055,0 c -3.7602,0.2406 -7.1341,1.7305 -9.8633,3.9492 -0.4458,-0.04 -0.8912,-0.08 -1.3066,-0.1367 -2.8109,-0.38 -5.0647,-1.1454 -6.3848,-2.4336 -1.6312,-2.2891 -2.1911,-4.0303 -2.2637,-5.3261 -0.072,-1.276 0.3205,-2.1585 0.67,-2.7696 0.075,-0.1099 -0.1204,0.013 0.2695,-0.082 0.237,-0.058 0.5736,-0.1066 1.0039,-0.1426 0.8579,-0.072 2.0512,-0.094 3.4863,-0.061 z"
         id="path9306"
         inkscape:connector-curvature="0"
         inkscape:export-xdpi="38.90226"
         inkscape:export-ydpi="38.90226" />
      <path
         style="color:#000000;font-style:normal;font-variant:normal;font-weight:normal;font-stretch:normal;font-size:medium;line-height:normal;font-family:sans-serif;font-variant-ligatures:normal;font-variant-position:normal;font-variant-caps:normal;font-variant-numeric:normal;font-variant-alternates:normal;font-feature-settings:normal;text-indent:0;text-align:start;text-decoration:none;text-decoration-line:none;text-decoration-style:solid;text-decoration-color:#000000;letter-spacing:normal;word-spacing:normal;text-transform:none;writing-mode:lr-tb;direction:ltr;text-orientation:mixed;dominant-baseline:auto;baseline-shift:baseline;text-anchor:start;white-space:normal;shape-padding:0;clip-rule:nonzero;display:inline;overflow:visible;visibility:visible;opacity:1;isolation:auto;mix-blend-mode:normal;color-interpolation:sRGB;color-interpolation-filters:linearRGB;solid-color:#000000;solid-opacity:1;vector-effect:none;fill:#7531a8;fill-opacity:1;fill-rule:nonzero;stroke:none;stroke-width:2.64583325;stroke-linecap:round;stroke-linejoin:miter;stroke-miterlimit:4;stroke-dasharray:none;stroke-dashoffset:0;stroke-opacity:1;color-rendering:auto;image-rendering:auto;shape-rendering:auto;text-rendering:auto;enable-background:accumulate"
         d="m 728.08118,197.16165 a 1.3230489,1.3230489 0 0 0 -1.3418,1.3027 c 0,0 -0.1542,5.1032 0.3125,10.9493 0.4666,5.846 1.3308,12.3934 4.2871,15.875 l 0.018,0.021 0.019,0.02 c 0.5127,0.5548 0.8296,1.8623 0.082,3.0547 -0.7467,1.1909 -2.6473,2.4916 -6.8985,2.539 -4.2511,-0.047 -6.1499,-1.3482 -6.8965,-2.539 -0.74741,-1.1924 -0.4307,-2.4999 0.082,-3.0547 l 0.019,-0.02 0.018,-0.021 c 2.9564,-3.4816 3.8205,-10.029 4.2872,-15.875 0.4666,-5.8461 0.3125,-10.9493 0.3125,-10.9493 a 1.3230489,1.3230489 0 1 0 -2.6446,0.078 c 0,0 0.1485,4.9821 -0.3047,10.6601 -0.4532,5.6781 -1.7306,12.0938 -3.666,14.3731 l 0.035,-0.041 c -1.4172,1.5334 -1.741,4.0861 -0.3808,6.2558 1.3602,2.1697 4.3158,3.7292 9.125,3.7793 h 0.014 0.014 c 4.80919,-0.05 7.7666,-1.6096 9.1269,-3.7793 1.3603,-2.1697 1.0345,-4.7223 -0.38281,-6.2558 l 0.037,0.041 c -1.9354,-2.2793 -3.2128,-8.695 -3.666,-14.3731 -0.4532,-5.678 -0.3047,-10.6601 -0.3047,-10.6601 a 1.3230489,1.3230489 0 0 0 -1.3027,-1.3809 z"
         id="path9308"
         inkscape:connector-curvature="0"
         inkscape:export-xdpi="38.90226"
         inkscape:export-ydpi="38.90226" />
      <path
         id="path9310"
         style="display:inline;fill:#7531a8;fill-opacity:1;stroke:none;stroke-width:1.32291663;stroke-linecap:round;stroke-linejoin:round;stroke-miterlimit:4;stroke-dasharray:none;stroke-opacity:1"
         d="m 724.55908,272.07305 c -32.9041,-0.8018 -30.2371,-12.5804 -28.3946,-19.0543 0.6761,-0.4244 1.219,-0.1906 1.219,-0.1906 -0.06,0.6083 0.2029,1.6707 3.2892,1.6175 3.0883,0.052 3.3487,-1.0119 3.4381,-1.0086 0.089,0 0.4206,1.0133 3.4246,0.9616 3.0049,0.05 3.3354,-0.9608 3.4404,-0.9593 0.105,0 0.4893,0.9623 3.4217,0.9117 2.934,0.049 3.3179,-0.9128 3.442,-0.9125 0.1242,2e-4 0.5569,0.9149 3.4206,0.8655 2.384,0.04 3.0833,-0.5876 3.2514,-1.156 0.06,-0.1576 0.093,-5.3e-4 0.093,-5.3e-4 0.1679,0.568 0.867,1.1959 3.2514,1.1559 2.8637,0.049 3.2965,-0.8653 3.4206,-0.8655 0.1241,-2.6e-4 0.508,0.9617 3.442,0.9125 2.9324,0.051 3.3167,-0.9102 3.4217,-0.9117 0.105,0 0.4355,1.0097 3.4405,0.9593 3.0039,0.052 3.3351,-0.9582 3.4245,-0.9616 0.089,0 0.3498,1.0604 3.4381,1.0086 3.0864,0.053 3.3492,-1.0092 3.2892,-1.6175 0,0 0.5429,-0.2338 1.219,0.1906 1.8426,6.4739 4.5095,18.2524 -28.3946,19.0543"
         inkscape:connector-curvature="0"
         sodipodi:nodetypes="cccccccccccccccccccccc"
         inkscape:export-xdpi="38.90226"
         inkscape:export-ydpi="38.90226" />
      <path
         style="color:#000000;font-style:normal;font-variant:normal;font-weight:normal;font-stretch:normal;font-size:medium;line-height:normal;font-family:sans-serif;font-variant-ligatures:normal;font-variant-position:normal;font-variant-caps:normal;font-variant-numeric:normal;font-variant-alternates:normal;font-feature-settings:normal;text-indent:0;text-align:start;text-decoration:none;text-decoration-line:none;text-decoration-style:solid;text-decoration-color:#000000;letter-spacing:normal;word-spacing:normal;text-transform:none;writing-mode:lr-tb;direction:ltr;text-orientation:mixed;dominant-baseline:auto;baseline-shift:baseline;text-anchor:start;white-space:normal;shape-padding:0;clip-rule:nonzero;display:inline;overflow:visible;visibility:visible;opacity:1;isolation:auto;mix-blend-mode:normal;color-interpolation:sRGB;color-interpolation-filters:linearRGB;solid-color:#000000;solid-opacity:1;vector-effect:none;fill:#7531a8;fill-opacity:1;fill-rule:nonzero;stroke:none;stroke-width:2.11666656;stroke-linecap:round;stroke-linejoin:miter;stroke-miterlimit:4;stroke-dasharray:none;stroke-dashoffset:0;stroke-opacity:1;color-rendering:auto;image-rendering:auto;shape-rendering:auto;text-rendering:auto;enable-background:accumulate"
         d="m 680.13188,204.86085 a 1.0584391,1.0584391 0 0 0 -0.3847,0.062 l -4.0762,1.4024 a 1.0586755,1.0586755 0 1 0 0.6895,2.0019 l 4.0761,-1.4023 a 1.0584391,1.0584391 0 0 0 -0.3047,-2.0645 z"
         id="path9312"
         inkscape:connector-curvature="0"
         inkscape:export-xdpi="38.90226"
         inkscape:export-ydpi="38.90226" />
      <path
         style="color:#000000;font-style:normal;font-variant:normal;font-weight:normal;font-stretch:normal;font-size:medium;line-height:normal;font-family:sans-serif;font-variant-ligatures:normal;font-variant-position:normal;font-variant-caps:normal;font-variant-numeric:normal;font-variant-alternates:normal;font-feature-settings:normal;text-indent:0;text-align:start;text-decoration:none;text-decoration-line:none;text-decoration-style:solid;text-decoration-color:#000000;letter-spacing:normal;word-spacing:normal;text-transform:none;writing-mode:lr-tb;direction:ltr;text-orientation:mixed;dominant-baseline:auto;baseline-shift:baseline;text-anchor:start;white-space:normal;shape-padding:0;clip-rule:nonzero;display:inline;overflow:visible;visibility:visible;opacity:1;isolation:auto;mix-blend-mode:normal;color-interpolation:sRGB;color-interpolation-filters:linearRGB;solid-color:#000000;solid-opacity:1;vector-effect:none;fill:#7531a8;fill-opacity:1;fill-rule:nonzero;stroke:none;stroke-width:2.11666656;stroke-linecap:round;stroke-linejoin:miter;stroke-miterlimit:4;stroke-dasharray:none;stroke-dashoffset:0;stroke-opacity:1;color-rendering:auto;image-rendering:auto;shape-rendering:auto;text-rendering:auto;enable-background:accumulate"
         d="m 681.92098,209.88045 a 1.0584391,1.0584391 0 0 0 -0.5625,0.1953 l -5.0098,3.4746 a 1.0584391,1.0584391 0 1 0 1.2051,1.7402 l 5.0117,-3.4746 a 1.0584391,1.0584391 0 0 0 -0.6445,-1.9355 z"
         id="path9314"
         inkscape:connector-curvature="0"
         inkscape:export-xdpi="38.90226"
         inkscape:export-ydpi="38.90226" />
      <path
         style="color:#000000;font-style:normal;font-variant:normal;font-weight:normal;font-stretch:normal;font-size:medium;line-height:normal;font-family:sans-serif;font-variant-ligatures:normal;font-variant-position:normal;font-variant-caps:normal;font-variant-numeric:normal;font-variant-alternates:normal;font-feature-settings:normal;text-indent:0;text-align:start;text-decoration:none;text-decoration-line:none;text-decoration-style:solid;text-decoration-color:#000000;letter-spacing:normal;word-spacing:normal;text-transform:none;writing-mode:lr-tb;direction:ltr;text-orientation:mixed;dominant-baseline:auto;baseline-shift:baseline;text-anchor:start;white-space:normal;shape-padding:0;clip-rule:nonzero;display:inline;overflow:visible;visibility:visible;opacity:1;isolation:auto;mix-blend-mode:normal;color-interpolation:sRGB;color-interpolation-filters:linearRGB;solid-color:#000000;solid-opacity:1;vector-effect:none;fill:#7531a8;fill-opacity:1;fill-rule:nonzero;stroke:none;stroke-width:2.11666656;stroke-linecap:round;stroke-linejoin:miter;stroke-miterlimit:4;stroke-dasharray:none;stroke-dashoffset:0;stroke-opacity:1;color-rendering:auto;image-rendering:auto;shape-rendering:auto;text-rendering:auto;enable-background:accumulate"
         d="m 769.06548,204.86085 a 1.0584391,1.0584391 0 0 0 -0.3789,2.0645 l 4.0762,1.4023 a 1.0586755,1.0586755 0 1 0 0.6895,-2.0019 l -4.0762,-1.4024 a 1.0584391,1.0584391 0 0 0 -0.3106,-0.062 z"
         id="path9316"
         inkscape:connector-curvature="0"
         inkscape:export-xdpi="38.90226"
         inkscape:export-ydpi="38.90226" />
      <path
         style="color:#000000;font-style:normal;font-variant:normal;font-weight:normal;font-stretch:normal;font-size:medium;line-height:normal;font-family:sans-serif;font-variant-ligatures:normal;font-variant-position:normal;font-variant-caps:normal;font-variant-numeric:normal;font-variant-alternates:normal;font-feature-settings:normal;text-indent:0;text-align:start;text-decoration:none;text-decoration-line:none;text-decoration-style:solid;text-decoration-color:#000000;letter-spacing:normal;word-spacing:normal;text-transform:none;writing-mode:lr-tb;direction:ltr;text-orientation:mixed;dominant-baseline:auto;baseline-shift:baseline;text-anchor:start;white-space:normal;shape-padding:0;clip-rule:nonzero;display:inline;overflow:visible;visibility:visible;opacity:1;isolation:auto;mix-blend-mode:normal;color-interpolation:sRGB;color-interpolation-filters:linearRGB;solid-color:#000000;solid-opacity:1;vector-effect:none;fill:#7531a8;fill-opacity:1;fill-rule:nonzero;stroke:none;stroke-width:2.11666656;stroke-linecap:round;stroke-linejoin:miter;stroke-miterlimit:4;stroke-dasharray:none;stroke-dashoffset:0;stroke-opacity:1;color-rendering:auto;image-rendering:auto;shape-rendering:auto;text-rendering:auto;enable-background:accumulate"
         d="m 767.17098,209.87845 a 1.0584391,1.0584391 0 0 0 -0.6133,1.9375 l 5.0117,3.4746 a 1.0584391,1.0584391 0 1 0 1.2051,-1.7402 l -5.0097,-3.4746 a 1.0584391,1.0584391 0 0 0 -0.5938,-0.1973 z"
         id="path9318"
         inkscape:connector-curvature="0"
         inkscape:export-xdpi="38.90226"
         inkscape:export-ydpi="38.90226" />
      <path
         style="color:#000000;font-style:normal;font-variant:normal;font-weight:normal;font-stretch:normal;font-size:medium;line-height:normal;font-family:sans-serif;font-variant-ligatures:normal;font-variant-position:normal;font-variant-caps:normal;font-variant-numeric:normal;font-variant-alternates:normal;font-feature-settings:normal;text-indent:0;text-align:start;text-decoration:none;text-decoration-line:none;text-decoration-style:solid;text-decoration-color:#000000;letter-spacing:normal;word-spacing:normal;text-transform:none;writing-mode:lr-tb;direction:ltr;text-orientation:mixed;dominant-baseline:auto;baseline-shift:baseline;text-anchor:start;white-space:normal;shape-padding:0;clip-rule:nonzero;display:inline;overflow:visible;visibility:visible;opacity:1;isolation:auto;mix-blend-mode:normal;color-interpolation:sRGB;color-interpolation-filters:linearRGB;solid-color:#000000;solid-opacity:1;vector-effect:none;fill:#7531a8;fill-opacity:1;fill-rule:nonzero;stroke:none;stroke-width:2.11666656;stroke-linecap:round;stroke-linejoin:miter;stroke-miterlimit:4;stroke-dasharray:none;stroke-dashoffset:0;stroke-opacity:1;color-rendering:auto;image-rendering:auto;shape-rendering:auto;text-rendering:auto;enable-background:accumulate"
         d="m 691.30968,196.10695 c -3.1067,0.1512 -4.6842,1.193 -5.459,1.5293 a 1.0584391,1.0584391 0 1 0 0.8418,1.9414 c 1.1708,-0.5083 2.0103,-1.2236 4.7207,-1.3554 2.7104,-0.1319 7.2081,0.4253 14.9101,2.9277 a 1.0584391,1.0584391 0 1 0 0.6543,-2.0117 c -7.8429,-2.5482 -12.5613,-3.1825 -15.6679,-3.0313 z"
         id="path9320"
         inkscape:connector-curvature="0"
         inkscape:export-xdpi="38.90226"
         inkscape:export-ydpi="38.90226" />
      <path
         style="color:#000000;font-style:normal;font-variant:normal;font-weight:normal;font-stretch:normal;font-size:medium;line-height:normal;font-family:sans-serif;font-variant-ligatures:normal;font-variant-position:normal;font-variant-caps:normal;font-variant-numeric:normal;font-variant-alternates:normal;font-feature-settings:normal;text-indent:0;text-align:start;text-decoration:none;text-decoration-line:none;text-decoration-style:solid;text-decoration-color:#000000;letter-spacing:normal;word-spacing:normal;text-transform:none;writing-mode:lr-tb;direction:ltr;text-orientation:mixed;dominant-baseline:auto;baseline-shift:baseline;text-anchor:start;white-space:normal;shape-padding:0;clip-rule:nonzero;display:inline;overflow:visible;visibility:visible;opacity:1;isolation:auto;mix-blend-mode:normal;color-interpolation:sRGB;color-interpolation-filters:linearRGB;solid-color:#000000;solid-opacity:1;vector-effect:none;fill:#7531a8;fill-opacity:1;fill-rule:nonzero;stroke:none;stroke-width:2.11666656;stroke-linecap:round;stroke-linejoin:miter;stroke-miterlimit:4;stroke-dasharray:none;stroke-dashoffset:0;stroke-opacity:1;color-rendering:auto;image-rendering:auto;shape-rendering:auto;text-rendering:auto;enable-background:accumulate"
         d="m 691.18078,192.32575 c -1.3319,0.1201 -2.697,0.5074 -4.045,1.3808 a 1.0584391,1.0584391 0 1 0 1.1524,1.7754 c 2.1008,-1.3612 4.092,-1.2146 6.4062,-0.8437 a 1.0591491,1.0591491 0 1 0 0.334,-2.0918 c -1.2171,-0.1951 -2.5158,-0.3409 -3.8476,-0.2207 z"
         id="path9322"
         inkscape:connector-curvature="0"
         inkscape:export-xdpi="38.90226"
         inkscape:export-ydpi="38.90226" />
      <path
         style="color:#000000;font-style:normal;font-variant:normal;font-weight:normal;font-stretch:normal;font-size:medium;line-height:normal;font-family:sans-serif;font-variant-ligatures:normal;font-variant-position:normal;font-variant-caps:normal;font-variant-numeric:normal;font-variant-alternates:normal;font-feature-settings:normal;text-indent:0;text-align:start;text-decoration:none;text-decoration-line:none;text-decoration-style:solid;text-decoration-color:#000000;letter-spacing:normal;word-spacing:normal;text-transform:none;writing-mode:lr-tb;direction:ltr;text-orientation:mixed;dominant-baseline:auto;baseline-shift:baseline;text-anchor:start;white-space:normal;shape-padding:0;clip-rule:nonzero;display:inline;overflow:visible;visibility:visible;opacity:1;isolation:auto;mix-blend-mode:normal;color-interpolation:sRGB;color-interpolation-filters:linearRGB;solid-color:#000000;solid-opacity:1;vector-effect:none;fill:#7531a8;fill-opacity:1;fill-rule:nonzero;stroke:none;stroke-width:2.11666656;stroke-linecap:round;stroke-linejoin:miter;stroke-miterlimit:4;stroke-dasharray:none;stroke-dashoffset:0;stroke-opacity:1;color-rendering:auto;image-rendering:auto;shape-rendering:auto;text-rendering:auto;enable-background:accumulate"
         d="m 705.51278,202.36085 a 1.0584391,1.0584391 0 0 0 -0.4805,0.1074 l -3.8086,1.8047 a 1.0584391,1.0584391 0 1 0 0.9063,1.9121 l 3.8086,-1.8027 a 1.0584391,1.0584391 0 0 0 -0.4258,-2.0215 z"
         id="path9324"
         inkscape:connector-curvature="0"
         inkscape:export-xdpi="38.90226"
         inkscape:export-ydpi="38.90226" />
      <path
         style="color:#000000;font-style:normal;font-variant:normal;font-weight:normal;font-stretch:normal;font-size:medium;line-height:normal;font-family:sans-serif;font-variant-ligatures:normal;font-variant-position:normal;font-variant-caps:normal;font-variant-numeric:normal;font-variant-alternates:normal;font-feature-settings:normal;text-indent:0;text-align:start;text-decoration:none;text-decoration-line:none;text-decoration-style:solid;text-decoration-color:#000000;letter-spacing:normal;word-spacing:normal;text-transform:none;writing-mode:lr-tb;direction:ltr;text-orientation:mixed;dominant-baseline:auto;baseline-shift:baseline;text-anchor:start;white-space:normal;shape-padding:0;clip-rule:nonzero;display:inline;overflow:visible;visibility:visible;opacity:1;isolation:auto;mix-blend-mode:normal;color-interpolation:sRGB;color-interpolation-filters:linearRGB;solid-color:#000000;solid-opacity:1;vector-effect:none;fill:#7531a8;fill-opacity:1;fill-rule:nonzero;stroke:none;stroke-width:2.11666656;stroke-linecap:round;stroke-linejoin:miter;stroke-miterlimit:4;stroke-dasharray:none;stroke-dashoffset:0;stroke-opacity:1;color-rendering:auto;image-rendering:auto;shape-rendering:auto;text-rendering:auto;enable-background:accumulate"
         d="m 660.21198,228.57185 a 1.0584391,1.0584391 0 0 0 -1.0801,0.9218 c 0,0 -2.1679,15.1111 4.7266,34.7129 a 1.0584391,1.0584391 0 1 0 1.9961,-0.7031 c -6.7363,-19.1522 -4.627,-33.709 -4.627,-33.709 a 1.0584391,1.0584391 0 0 0 -1.0156,-1.2226 z"
         id="path9326"
         inkscape:connector-curvature="0"
         inkscape:export-xdpi="38.90226"
         inkscape:export-ydpi="38.90226" />
      <path
         style="color:#000000;font-style:normal;font-variant:normal;font-weight:normal;font-stretch:normal;font-size:medium;line-height:normal;font-family:sans-serif;font-variant-ligatures:normal;font-variant-position:normal;font-variant-caps:normal;font-variant-numeric:normal;font-variant-alternates:normal;font-feature-settings:normal;text-indent:0;text-align:start;text-decoration:none;text-decoration-line:none;text-decoration-style:solid;text-decoration-color:#000000;letter-spacing:normal;word-spacing:normal;text-transform:none;writing-mode:lr-tb;direction:ltr;text-orientation:mixed;dominant-baseline:auto;baseline-shift:baseline;text-anchor:start;white-space:normal;shape-padding:0;clip-rule:nonzero;display:inline;overflow:visible;visibility:visible;opacity:1;isolation:auto;mix-blend-mode:normal;color-interpolation:sRGB;color-interpolation-filters:linearRGB;solid-color:#000000;solid-opacity:1;vector-effect:none;fill:#7531a8;fill-opacity:1;fill-rule:nonzero;stroke:none;stroke-width:2.11666656;stroke-linecap:round;stroke-linejoin:miter;stroke-miterlimit:4;stroke-dasharray:none;stroke-dashoffset:0;stroke-opacity:1;color-rendering:auto;image-rendering:auto;shape-rendering:auto;text-rendering:auto;enable-background:accumulate"
         d="m 774.14368,275.15575 a 1.0584391,1.0584391 0 0 0 -1.043,0.9629 c -1.0999,10.5 -2.7984,16.9119 -4.4082,20.8125 -1.6098,3.9007 -3.0799,5.2623 -3.8692,5.8555 a 1.0584391,1.0584391 0 1 0 1.2715,1.6914 c 1.0615,-0.7978 2.832,-2.5708 4.5528,-6.7402 1.7207,-4.1695 3.4445,-10.7632 4.5586,-21.3985 a 1.0584391,1.0584391 0 0 0 -1.0625,-1.1836 z"
         id="path9328"
         inkscape:connector-curvature="0"
         inkscape:export-xdpi="38.90226"
         inkscape:export-ydpi="38.90226" />
      <path
         style="color:#000000;font-style:normal;font-variant:normal;font-weight:normal;font-stretch:normal;font-size:medium;line-height:normal;font-family:sans-serif;font-variant-ligatures:normal;font-variant-position:normal;font-variant-caps:normal;font-variant-numeric:normal;font-variant-alternates:normal;font-feature-settings:normal;text-indent:0;text-align:start;text-decoration:none;text-decoration-line:none;text-decoration-style:solid;text-decoration-color:#000000;letter-spacing:normal;word-spacing:normal;text-transform:none;writing-mode:lr-tb;direction:ltr;text-orientation:mixed;dominant-baseline:auto;baseline-shift:baseline;text-anchor:start;white-space:normal;shape-padding:0;clip-rule:nonzero;display:inline;overflow:visible;visibility:visible;opacity:1;isolation:auto;mix-blend-mode:normal;color-interpolation:sRGB;color-interpolation-filters:linearRGB;solid-color:#000000;solid-opacity:1;vector-effect:none;fill:#7531a8;fill-opacity:1;fill-rule:nonzero;stroke:none;stroke-width:2.11666656;stroke-linecap:round;stroke-linejoin:miter;stroke-miterlimit:4;stroke-dasharray:none;stroke-dashoffset:0;stroke-opacity:1;color-rendering:auto;image-rendering:auto;shape-rendering:auto;text-rendering:auto;enable-background:accumulate"
         d="m 719.27648,281.00935 a 1.0584391,1.0584391 0 0 0 -0.8731,0.4609 c -5.0352,7.1603 -9.5923,9.4008 -12.8183,9.9727 -3.2261,0.5718 -5.0918,-0.4688 -5.0918,-0.4688 a 1.0584391,1.0584391 0 1 0 -1,1.8652 c 0,0 2.6235,1.3677 6.4609,0.6875 3.8374,-0.6802 8.9171,-3.3535 14.1816,-10.8398 a 1.0584391,1.0584391 0 0 0 -0.8593,-1.6777 z"
         id="path9330"
         inkscape:connector-curvature="0"
         inkscape:export-xdpi="38.90226"
         inkscape:export-ydpi="38.90226" />
      <path
         style="color:#000000;font-style:normal;font-variant:normal;font-weight:normal;font-stretch:normal;font-size:medium;line-height:normal;font-family:sans-serif;font-variant-ligatures:normal;font-variant-position:normal;font-variant-caps:normal;font-variant-numeric:normal;font-variant-alternates:normal;font-feature-settings:normal;text-indent:0;text-align:start;text-decoration:none;text-decoration-line:none;text-decoration-style:solid;text-decoration-color:#000000;letter-spacing:normal;word-spacing:normal;text-transform:none;writing-mode:lr-tb;direction:ltr;text-orientation:mixed;dominant-baseline:auto;baseline-shift:baseline;text-anchor:start;white-space:normal;shape-padding:0;clip-rule:nonzero;display:inline;overflow:visible;visibility:visible;opacity:1;isolation:auto;mix-blend-mode:normal;color-interpolation:sRGB;color-interpolation-filters:linearRGB;solid-color:#000000;solid-opacity:1;vector-effect:none;fill:#7531a8;fill-opacity:1;fill-rule:nonzero;stroke:none;stroke-width:2.11666656;stroke-linecap:round;stroke-linejoin:miter;stroke-miterlimit:4;stroke-dasharray:none;stroke-dashoffset:0;stroke-opacity:1;color-rendering:auto;image-rendering:auto;shape-rendering:auto;text-rendering:auto;enable-background:accumulate"
         d="m 707.23938,322.40386 a 1.0584391,1.0584391 0 0 0 -1.0039,0.75388 c -0.6894,2.188 0.1077,4.5802 1.4277,6.9356 1.32,2.3554 3.2394,4.73501 5.2148,6.8906 3.951,4.3112 8.1563,7.72461 8.1563,7.72461 a 1.0586326,1.0586326 0 1 0 1.3359,-1.64261 c 0,0 -4.1104,-3.34399 -7.9316,-7.51369 -1.9106,-2.08481 -3.7407,-4.37581 -4.9278,-6.49409 -1.187,-2.11831 -1.6551,-4.00262 -1.2578,-5.2637 a 1.0584391,1.0584391 0 0 0 -1.0136,-1.3906 z"
         id="path9332"
         inkscape:connector-curvature="0"
         inkscape:export-xdpi="38.90226"
         inkscape:export-ydpi="38.90226" />
      <path
         style="color:#000000;font-style:normal;font-variant:normal;font-weight:normal;font-stretch:normal;font-size:medium;line-height:normal;font-family:sans-serif;font-variant-ligatures:normal;font-variant-position:normal;font-variant-caps:normal;font-variant-numeric:normal;font-variant-alternates:normal;font-feature-settings:normal;text-indent:0;text-align:start;text-decoration:none;text-decoration-line:none;text-decoration-style:solid;text-decoration-color:#000000;letter-spacing:normal;word-spacing:normal;text-transform:none;writing-mode:lr-tb;direction:ltr;text-orientation:mixed;dominant-baseline:auto;baseline-shift:baseline;text-anchor:start;white-space:normal;shape-padding:0;clip-rule:nonzero;display:inline;overflow:visible;visibility:visible;opacity:1;isolation:auto;mix-blend-mode:normal;color-interpolation:sRGB;color-interpolation-filters:linearRGB;solid-color:#000000;solid-opacity:1;vector-effect:none;fill:#7531a8;fill-opacity:1;fill-rule:nonzero;stroke:none;stroke-width:2.11666656;stroke-linecap:round;stroke-linejoin:miter;stroke-miterlimit:4;stroke-dasharray:none;stroke-dashoffset:0;stroke-opacity:1;color-rendering:auto;image-rendering:auto;shape-rendering:auto;text-rendering:auto;enable-background:accumulate"
         d="m 729.81548,281.01325 a 1.0584391,1.0584391 0 0 0 -0.8281,1.6777 c 5.2645,7.4863 10.3443,10.1597 14.1816,10.8399 3.8374,0.6802 6.461,-0.6875 6.461,-0.6875 a 1.0584391,1.0584391 0 1 0 -1,-1.8653 c 0,0 -1.8657,1.0406 -5.0918,0.4688 -3.2261,-0.5719 -7.7831,-2.8124 -12.8184,-9.9727 a 1.0584391,1.0584391 0 0 0 -0.9043,-0.4609 z"
         id="path9334"
         inkscape:connector-curvature="0"
         inkscape:export-xdpi="38.90226"
         inkscape:export-ydpi="38.90226" />
      <path
         style="color:#000000;font-style:normal;font-variant:normal;font-weight:normal;font-stretch:normal;font-size:medium;line-height:normal;font-family:sans-serif;font-variant-ligatures:normal;font-variant-position:normal;font-variant-caps:normal;font-variant-numeric:normal;font-variant-alternates:normal;font-feature-settings:normal;text-indent:0;text-align:start;text-decoration:none;text-decoration-line:none;text-decoration-style:solid;text-decoration-color:#000000;letter-spacing:normal;word-spacing:normal;text-transform:none;writing-mode:lr-tb;direction:ltr;text-orientation:mixed;dominant-baseline:auto;baseline-shift:baseline;text-anchor:start;white-space:normal;shape-padding:0;clip-rule:nonzero;display:inline;overflow:visible;visibility:visible;opacity:1;isolation:auto;mix-blend-mode:normal;color-interpolation:sRGB;color-interpolation-filters:linearRGB;solid-color:#000000;solid-opacity:1;vector-effect:none;fill:#7531a8;fill-opacity:1;fill-rule:nonzero;stroke:none;stroke-width:2.9192977;stroke-linecap:round;stroke-linejoin:round;stroke-miterlimit:4;stroke-dasharray:none;stroke-dashoffset:0;stroke-opacity:1;paint-order:markers stroke fill;color-rendering:auto;image-rendering:auto;shape-rendering:auto;text-rendering:auto;enable-background:accumulate"
         d="m 696.21048,184.63495 c -8.2807,0 -15.025,6.7443 -15.025,15.025 0,8.2806 6.7443,15.0244 15.025,15.0244 7.8352,0 14.2907,-6.039 14.9629,-13.7036 0.7991,0 1.6113,0 2.4148,0 1.8305,0.031 3.1968,-0.4869 4.0292,-1.3772 0.8323,-0.8903 1.0875,-1.869 1.3984,-2.5838 0.311,-0.7148 0.5737,-1.1858 1.2635,-1.6035 0.6898,-0.4177 1.9446,-0.792 4.2803,-0.792 2.3358,0 3.5906,0.3743 4.2804,0.792 0.6898,0.4177 0.9525,0.8887 1.2635,1.6035 0.3109,0.7148 0.566,1.6935 1.3983,2.5838 0.8325,0.8903 2.1988,1.4086 4.0293,1.3772 0.8035,0 1.6157,0 2.4148,0 0.6722,7.6646 7.1277,13.7036 14.9629,13.7036 8.2807,0 15.0249,-6.7438 15.0249,-15.0244 0,-8.2807 -6.7442,-15.025 -15.0249,-15.025 v 0 c -7.8354,0 -14.2916,6.0392 -14.9635,13.7041 -0.8081,-0.01 -1.6343,-8e-4 -2.4474,0 h -0.01 c -1.3881,0.024 -1.7677,-0.2333 -2.0515,-0.5369 -0.2839,-0.3036 -0.5144,-0.9365 -0.9039,-1.8319 -0.3895,-0.8955 -1.0408,-2.0347 -2.3223,-2.8107 -1.2785,-0.7742 -3.0488,-1.1755 -5.6482,-1.1483 -2.5995,-0.027 -4.3698,0.3741 -5.6483,1.1483 -1.2815,0.776 -1.9328,1.9152 -2.3223,2.8107 -0.3895,0.8954 -0.6199,1.5283 -0.9038,1.8319 -0.2839,0.3036 -0.6635,0.5607 -2.0516,0.5369 h -0.01 c -0.8131,0 -1.6392,0 -2.4474,0 -0.6719,-7.6649 -7.128,-13.7041 -14.9634,-13.7041 z m 0.1441,3.219 c 7.0151,0 12.7019,5.3449 12.7021,11.9383 10e-5,6.5935 -5.6868,11.9387 -12.7021,11.9388 -7.0154,1e-4 -12.7027,-5.3451 -12.7025,-11.9388 1e-4,-6.5936 5.6873,-11.9385 12.7025,-11.9383 z m 56.41,0 c 7.0153,-2e-4 12.7024,5.3447 12.7026,11.9383 10e-5,6.5937 -5.6871,11.9389 -12.7026,11.9388 -7.0152,-1e-4 -12.7022,-5.3453 -12.702,-11.9388 10e-5,-6.5934 5.687,-11.9383 12.702,-11.9383 z"
         id="path9336"
         inkscape:connector-curvature="0"
         sodipodi:nodetypes="ssscccccccccccsssscccccscscccccssccccccccsc"
         inkscape:export-xdpi="38.90226"
         inkscape:export-ydpi="38.90226" />
      <path
         style="color:#000000;font-style:normal;font-variant:normal;font-weight:normal;font-stretch:normal;font-size:medium;line-height:normal;font-family:sans-serif;font-variant-ligatures:normal;font-variant-position:normal;font-variant-caps:normal;font-variant-numeric:normal;font-variant-alternates:normal;font-feature-settings:normal;text-indent:0;text-align:start;text-decoration:none;text-decoration-line:none;text-decoration-style:solid;text-decoration-color:#000000;letter-spacing:normal;word-spacing:normal;text-transform:none;writing-mode:lr-tb;direction:ltr;text-orientation:mixed;dominant-baseline:auto;baseline-shift:baseline;text-anchor:start;white-space:normal;shape-padding:0;clip-rule:nonzero;display:inline;overflow:visible;visibility:visible;opacity:1;isolation:auto;mix-blend-mode:normal;color-interpolation:sRGB;color-interpolation-filters:linearRGB;solid-color:#000000;solid-opacity:1;vector-effect:none;fill:#7531a8;fill-opacity:1;fill-rule:nonzero;stroke:none;stroke-width:2.11666656;stroke-linecap:round;stroke-linejoin:miter;stroke-miterlimit:4;stroke-dasharray:none;stroke-dashoffset:0;stroke-opacity:1;color-rendering:auto;image-rendering:auto;shape-rendering:auto;text-rendering:auto;enable-background:accumulate"
         d="m 757.80968,196.10695 c -3.1067,-0.1512 -7.8251,0.4831 -15.668,3.0313 a 1.0584391,1.0584391 0 1 0 0.6543,2.0117 c 7.7021,-2.5024 12.1998,-3.0596 14.9102,-2.9277 2.7103,0.1318 3.5498,0.8471 4.7207,1.3554 a 1.0584391,1.0584391 0 1 0 0.8418,-1.9414 c -0.7748,-0.3363 -2.3524,-1.3781 -5.459,-1.5293 z"
         id="path9338"
         inkscape:connector-curvature="0"
         inkscape:export-xdpi="38.90226"
         inkscape:export-ydpi="38.90226" />
      <path
         style="color:#000000;font-style:normal;font-variant:normal;font-weight:normal;font-stretch:normal;font-size:medium;line-height:normal;font-family:sans-serif;font-variant-ligatures:normal;font-variant-position:normal;font-variant-caps:normal;font-variant-numeric:normal;font-variant-alternates:normal;font-feature-settings:normal;text-indent:0;text-align:start;text-decoration:none;text-decoration-line:none;text-decoration-style:solid;text-decoration-color:#000000;letter-spacing:normal;word-spacing:normal;text-transform:none;writing-mode:lr-tb;direction:ltr;text-orientation:mixed;dominant-baseline:auto;baseline-shift:baseline;text-anchor:start;white-space:normal;shape-padding:0;clip-rule:nonzero;display:inline;overflow:visible;visibility:visible;opacity:1;isolation:auto;mix-blend-mode:normal;color-interpolation:sRGB;color-interpolation-filters:linearRGB;solid-color:#000000;solid-opacity:1;vector-effect:none;fill:#7531a8;fill-opacity:1;fill-rule:nonzero;stroke:none;stroke-width:2.11666656;stroke-linecap:round;stroke-linejoin:miter;stroke-miterlimit:4;stroke-dasharray:none;stroke-dashoffset:0;stroke-opacity:1;color-rendering:auto;image-rendering:auto;shape-rendering:auto;text-rendering:auto;enable-background:accumulate"
         d="m 757.93858,192.32575 c -1.3319,-0.1202 -2.6306,0.026 -3.8477,0.2207 a 1.0591491,1.0591491 0 1 0 0.334,2.0918 c 2.3142,-0.3709 4.3054,-0.5175 6.4063,0.8437 a 1.0584391,1.0584391 0 1 0 1.1523,-1.7754 c -1.348,-0.8734 -2.7131,-1.2607 -4.0449,-1.3808 z"
         id="path9340"
         inkscape:connector-curvature="0"
         inkscape:export-xdpi="38.90226"
         inkscape:export-ydpi="38.90226" />
      <path
         style="color:#000000;font-style:normal;font-variant:normal;font-weight:normal;font-stretch:normal;font-size:medium;line-height:normal;font-family:sans-serif;font-variant-ligatures:normal;font-variant-position:normal;font-variant-caps:normal;font-variant-numeric:normal;font-variant-alternates:normal;font-feature-settings:normal;text-indent:0;text-align:start;text-decoration:none;text-decoration-line:none;text-decoration-style:solid;text-decoration-color:#000000;letter-spacing:normal;word-spacing:normal;text-transform:none;writing-mode:lr-tb;direction:ltr;text-orientation:mixed;dominant-baseline:auto;baseline-shift:baseline;text-anchor:start;white-space:normal;shape-padding:0;clip-rule:nonzero;display:inline;overflow:visible;visibility:visible;opacity:1;isolation:auto;mix-blend-mode:normal;color-interpolation:sRGB;color-interpolation-filters:linearRGB;solid-color:#000000;solid-opacity:1;vector-effect:none;fill:#7531a8;fill-opacity:1;fill-rule:nonzero;stroke:none;stroke-width:2.11666656;stroke-linecap:round;stroke-linejoin:miter;stroke-miterlimit:4;stroke-dasharray:none;stroke-dashoffset:0;stroke-opacity:1;color-rendering:auto;image-rendering:auto;shape-rendering:auto;text-rendering:auto;enable-background:accumulate"
         d="m 743.57528,202.36085 a 1.0584391,1.0584391 0 0 0 -0.3945,2.0215 l 3.8086,1.8027 a 1.0584391,1.0584391 0 1 0 0.9062,-1.9121 l -3.8086,-1.8047 a 1.0584391,1.0584391 0 0 0 -0.5117,-0.1074 z"
         id="path9342"
         inkscape:connector-curvature="0"
         inkscape:export-xdpi="38.90226"
         inkscape:export-ydpi="38.90226" />
      <path
         style="color:#000000;font-style:normal;font-variant:normal;font-weight:normal;font-stretch:normal;font-size:medium;line-height:normal;font-family:sans-serif;font-variant-ligatures:normal;font-variant-position:normal;font-variant-caps:normal;font-variant-numeric:normal;font-variant-alternates:normal;font-feature-settings:normal;text-indent:0;text-align:start;text-decoration:none;text-decoration-line:none;text-decoration-style:solid;text-decoration-color:#000000;letter-spacing:normal;word-spacing:normal;text-transform:none;writing-mode:lr-tb;direction:ltr;text-orientation:mixed;dominant-baseline:auto;baseline-shift:baseline;text-anchor:start;white-space:normal;shape-padding:0;clip-rule:nonzero;display:inline;overflow:visible;visibility:visible;opacity:1;isolation:auto;mix-blend-mode:normal;color-interpolation:sRGB;color-interpolation-filters:linearRGB;solid-color:#000000;solid-opacity:1;vector-effect:none;fill:#7531a8;fill-opacity:1;fill-rule:nonzero;stroke:none;stroke-width:3.9690001;stroke-linecap:butt;stroke-linejoin:round;stroke-miterlimit:4;stroke-dasharray:none;stroke-dashoffset:0;stroke-opacity:1;paint-order:markers stroke fill;color-rendering:auto;image-rendering:auto;shape-rendering:auto;text-rendering:auto;enable-background:accumulate"
         d="m 681.51868,59.612839 c -5.7236,-0.026 -11.3427,0.6359 -16.7305,2.0859 a 1.9846985,1.9846985 0 0 0 -0.4395,0.1758 c -1.4218,0.7805 -2.5336,2.3702 -2.3613,3.9531 0.1553,1.4268 0.9748,2.4369 1.9473,3.3614 13.9012,20.03731 18.3663,34.329111 17.291,44.705011 -1.0758,10.3806 -7.544,17.3283 -16.8184,23.0645 -9.2743,5.7362 -21.2307,10.0073 -32.4218,14.6484 -11.1665,4.6309 -21.6323,9.598 -27.9571,17.3418 -2.3913,2.5707 -4.0683,5.5117 -4.8261,8.7559 -1.9457,8.3286 2.2998,17.1885 10.6113,25.7344 8.2583,8.4911 20.7073,16.894 36.2226,24.6523 0.019,0.012 0.054,0.035 0.057,0.037 0.015,0.01 0.021,0.011 0.025,0.014 0.019,0.01 0.02,0.01 0.025,0.012 0.011,0.01 0.021,0.011 0.037,0.02 2e-4,2e-4 0,-1e-4 0,0 0.01,0 0.043,0.021 0.043,0.021 0.04,0.02 0.015,0.01 0.037,0.02 0.011,0.01 0.02,0.011 0.033,0.018 0,8e-4 5.3e-4,0 0,0 0,0 0.01,0 0.012,0 0,0 0.01,0 0.012,0.01 0,0 0,0 0.01,0.01 0.01,0 0.01,0 0.016,0.01 0.1625,0.082 0.4398,0.2209 0.8946,0.4492 l 1.7812,-3.5468 c -0.4484,-0.2252 -0.7191,-0.3601 -0.8808,-0.4414 0,0 0,0 0,0 -0.014,-0.01 -0.017,-0.01 -0.02,-0.01 -0.01,0 -0.01,0 -0.01,0 0,0 -0.01,0 -0.012,-0.01 0,0 -0.01,0 -0.01,0 0,0 0,0 0,0 -15.3844,-7.665 -27.6052,-15.97049 -35.4336,-24.0196 -7.8284,-8.0491 -11.101,-15.61259 -9.5938,-22.0644 0.5911,-2.53039 1.8834,-4.84479 3.9024,-7.002 a 1.9846985,1.9846985 0 0 0 0.09,-0.1055 c 5.4622,-6.7179 15.39,-11.64089 26.4472,-16.2265 11.0573,-4.5856 23.1758,-8.8692 32.9903,-14.9395 9.8145,-6.0702 17.4496,-14.1815 18.6777,-26.0312 1.2278,-11.8496 -3.8021,-26.953401 -17.9924,-47.400301 a 1.9846985,1.9846985 0 0 0 -0.3047,-0.3477 c -0.6913,-0.62 -0.8375,-1.0355 -0.8633,-1.0605 19.9954,-5.3006 44.2411,1.0563 64.3105,13.584 20.1327,12.5671 35.9046,31.276501 39.2891,49.640601 4.3329,23.5107 22.0217,40.30481 39.6016,54.9805 17.5792,14.67501 35.03552,27.47161 40.01751,41.77541 1.9e-4,5.3e-4 -10e-5,0 0,0 1.28929,3.82929 2.4274,7.09949 1.55279,10.8437 -1.4455,6.18759 -7.26779,11.34249 -17.0996,15.07809 -9.8319,3.73561 -23.4511,5.91741 -39.5274,6.29501 l 0.094,3.96869 c 16.3791,-0.38469 30.3606,-2.56969 40.84382,-6.5527 10.48308,-3.9831 17.68858,-9.8992 19.55458,-17.88679 1.16711,-4.9955 -0.38658,-9.2423 -1.66198,-13.0312 a 1.9846985,1.9846985 0 0 0 -0.0101,-0.019 c -5.65946,-16.25191 -23.78626,-28.96381 -41.22276,-43.51971 -17.4364,-14.5559 -34.1968,-30.7149 -38.2402,-52.6543 -3.6907,-20.0254 -20.2581,-39.282301 -41.0918,-52.287111 -15.6253,-9.7536 -33.7354,-16.0205 -50.9063,-16.0976 z m -15.2598,5.7422 -0.2715,0.1074 c -7.9e-4,2.9e-4 -0.053,-0.069 -0.053,-0.064 0.01,0.073 -0.2895,0.2939 0.3242,-0.043 z"
         id="path9344"
         inkscape:connector-curvature="0"
         inkscape:export-xdpi="38.90226"
         inkscape:export-ydpi="38.90226" />
      <path
         style="color:#000000;font-style:normal;font-variant:normal;font-weight:normal;font-stretch:normal;font-size:medium;line-height:normal;font-family:sans-serif;font-variant-ligatures:normal;font-variant-position:normal;font-variant-caps:normal;font-variant-numeric:normal;font-variant-alternates:normal;font-feature-settings:normal;text-indent:0;text-align:start;text-decoration:none;text-decoration-line:none;text-decoration-style:solid;text-decoration-color:#000000;letter-spacing:normal;word-spacing:normal;text-transform:none;writing-mode:lr-tb;direction:ltr;text-orientation:mixed;dominant-baseline:auto;baseline-shift:baseline;text-anchor:start;white-space:normal;shape-padding:0;clip-rule:nonzero;display:inline;overflow:visible;visibility:visible;opacity:1;isolation:auto;mix-blend-mode:normal;color-interpolation:sRGB;color-interpolation-filters:linearRGB;solid-color:#000000;solid-opacity:1;vector-effect:none;fill:#7531a8;fill-opacity:1;fill-rule:nonzero;stroke:none;stroke-width:3.33956718;stroke-linecap:butt;stroke-linejoin:round;stroke-miterlimit:4;stroke-dasharray:none;stroke-dashoffset:0;stroke-opacity:1;paint-order:markers stroke fill;color-rendering:auto;image-rendering:auto;shape-rendering:auto;text-rendering:auto;enable-background:accumulate"
         d="m 665.68858,163.23785 c -5.8983,-0.047 -11.4456,0.1517 -16.5742,0.5898 -10.2572,0.8763 -18.8458,2.7037 -25.3086,5.5567 -6.4629,2.853 -10.9298,6.8318 -12.293,12.041 -1.6393,6.2644 1.3772,12.9008 7.7012,19.207 6.324,6.3063 16.0705,12.519 28.748,18.3379 l 1.3926,-3.0352 c -12.4454,-5.7124 -21.9027,-11.8039 -27.7832,-17.6679 -5.8805,-5.8641 -8.0667,-11.2629 -6.8281,-15.9961 1.0139,-3.8748 4.4734,-7.2104 10.4121,-9.832 5.9387,-2.6217 14.2253,-4.4292 24.2441,-5.2852 20.0376,-1.7119 46.9939,0.3414 76.4434,6.4668 29.3863,6.1122 59.1385,17.6348 80.8398,29.832 10.8507,6.0987 19.6909,12.3785 25.4258,18.1328 5.73491,5.7543 8.10539,10.8162 7.1679,14.3985 -0.52081,1.9905 -2.01711,3.8633 -4.50771,5.5957 -2.49059,1.7324 -5.92899,3.2688 -9.99809,4.5469 -8.1384,2.556 -18.7784,4.0999 -29.5391,4.7734 l 0.209,3.332 c 10.9387,-0.6846 21.7705,-2.231 30.3321,-4.9199 4.2807,-1.3445 7.9988,-2.9694 10.90429,-4.9902 2.90521,-2.0209 5.0451,-4.4926 5.82991,-7.4922 1.43981,-5.5017 -1.94831,-11.4962 -8.0332,-17.6016 -6.0847,-6.1054 -15.1276,-12.4899 -26.1542,-18.6875 -22.0534,-12.3951 -52.0325,-23.9986 -81.7968,-30.1894 -22.2755,-4.6332 -43.1391,-6.9726 -60.834,-7.1133 z"
         id="path9346"
         inkscape:connector-curvature="0"
         inkscape:export-xdpi="38.90226"
         inkscape:export-ydpi="38.90226" />
      <path
         style="color:#000000;font-style:normal;font-variant:normal;font-weight:normal;font-stretch:normal;font-size:medium;line-height:normal;font-family:sans-serif;font-variant-ligatures:normal;font-variant-position:normal;font-variant-caps:normal;font-variant-numeric:normal;font-variant-alternates:normal;font-feature-settings:normal;text-indent:0;text-align:start;text-decoration:none;text-decoration-line:none;text-decoration-style:solid;text-decoration-color:#000000;letter-spacing:normal;word-spacing:normal;text-transform:none;writing-mode:lr-tb;direction:ltr;text-orientation:mixed;dominant-baseline:auto;baseline-shift:baseline;text-anchor:start;white-space:normal;shape-padding:0;clip-rule:nonzero;display:inline;overflow:visible;visibility:visible;opacity:1;isolation:auto;mix-blend-mode:normal;color-interpolation:sRGB;color-interpolation-filters:linearRGB;solid-color:#000000;solid-opacity:1;vector-effect:none;fill:#7531a8;fill-opacity:1;fill-rule:nonzero;stroke:none;stroke-width:2.11666656;stroke-linecap:round;stroke-linejoin:round;stroke-miterlimit:4;stroke-dasharray:none;stroke-dashoffset:0;stroke-opacity:1;paint-order:markers stroke fill;color-rendering:auto;image-rendering:auto;shape-rendering:auto;text-rendering:auto;enable-background:accumulate"
         d="m 742.99718,174.98395 a 1.0584391,1.0584391 0 0 0 -0.2813,0.047 c -4.1927,1.2293 -6.0436,2.2713 -8.3027,3.9629 -0.4557,0.3426 -0.7163,0.8916 -0.6856,1.4668 10e-5,5.3e-4 0,0 0,0 0.056,1.0976 0.1998,2.2575 0.7051,3.332 0.5341,1.1357 1.6304,2.1595 3.1289,2.2969 0.084,0.01 0.1738,0.011 0.2617,0.01 a 1.0584391,1.0584391 0 0 0 0.01,0 c 1.1147,-0.074 2.8262,-0.045 4.8536,0.023 a 1.0584391,1.0584391 0 0 0 0.6992,-0.2324 c 2.6166,-2.1031 5.9177,-3.3624 9.5293,-3.3672 a 1.0584391,1.0584391 0 0 0 0.022,0 v 0 c 3.4866,0 6.7007,1.1699 9.291,3.1368 a 1.0584391,1.0584391 0 0 0 0.7948,0.2031 c 0.5781,-0.085 1.154,-0.1779 1.7169,-0.291 0.7731,-0.1553 1.0795,-0.2137 1.416,-0.3574 0.3364,-0.1438 0.4288,-0.235 0.9941,-0.5 a 1.0590125,1.0590125 0 1 0 -0.8984,-1.918 c -0.6405,0.3002 -0.865,0.4438 -0.9277,0.4707 -0.063,0.027 -0.2373,0.075 -1.0021,0.2285 -0.4106,0.082 -0.8509,0.1527 -1.2928,0.2207 -2.8653,-2.0402 -6.3275,-3.3104 -10.0957,-3.3105 a 1.0584391,1.0584391 0 0 0 -0.062,0 c -0.047,0 -0.067,0.01 -0.045,0 h 0.084 c -3.9321,0.01 -7.5229,1.3866 -10.4356,3.5996 -1.8722,-0.061 -3.5101,-0.094 -4.7187,-0.018 -5.3e-4,0 0,-1e-4 0,0 -0.6532,-0.06 -1.1218,-0.4849 -1.4064,-1.0899 -0.2869,-0.6103 -0.4064,-1.4504 -0.4667,-2.334 2.0505,-1.5192 3.5053,-2.3468 7.4316,-3.498 a 1.0584391,1.0584391 0 0 0 -0.3145,-2.0781 z"
         id="path9348"
         inkscape:connector-curvature="0"
         inkscape:export-xdpi="38.90226"
         inkscape:export-ydpi="38.90226" />
      <path
         style="color:#000000;font-style:normal;font-variant:normal;font-weight:normal;font-stretch:normal;font-size:medium;line-height:normal;font-family:sans-serif;font-variant-ligatures:normal;font-variant-position:normal;font-variant-caps:normal;font-variant-numeric:normal;font-variant-alternates:normal;font-feature-settings:normal;text-indent:0;text-align:start;text-decoration:none;text-decoration-line:none;text-decoration-style:solid;text-decoration-color:#000000;letter-spacing:normal;word-spacing:normal;text-transform:none;writing-mode:lr-tb;direction:ltr;text-orientation:mixed;dominant-baseline:auto;baseline-shift:baseline;text-anchor:start;white-space:normal;shape-padding:0;clip-rule:nonzero;display:inline;overflow:visible;visibility:visible;opacity:1;isolation:auto;mix-blend-mode:normal;color-interpolation:sRGB;color-interpolation-filters:linearRGB;solid-color:#000000;solid-opacity:1;vector-effect:none;fill:#7531a8;fill-opacity:1;fill-rule:nonzero;stroke:none;stroke-width:2.64583325;stroke-linecap:round;stroke-linejoin:round;stroke-miterlimit:4;stroke-dasharray:none;stroke-dashoffset:0;stroke-opacity:1;color-rendering:auto;image-rendering:auto;shape-rendering:auto;text-rendering:auto;enable-background:accumulate"
         d="m 674.91708,164.21045 a 1.3230489,1.3230489 0 0 0 -0.8086,0.3203 c -1.9758,1.6642 -5.0217,5.3525 -6.6543,8.3262 -0.4082,0.7434 -0.7276,1.4345 -0.9023,2.1309 -0.1748,0.6964 -0.2807,1.6188 0.4433,2.3652 0.7241,0.7465 1.7059,0.6895 2.5567,0.4766 0.1684,-0.042 0.4267,-0.2042 0.6054,-0.2637 -1.4254,6.6191 -1.5406,11.0207 1.3555,19.2168 -0.8385,10.724 0.3814,23.6559 3.6973,32.5508 a 1.3230489,1.3230489 0 0 0 2.1152,0.5293 c 0.9858,-0.8718 1.7432,-1.2742 2.1562,-1.3789 0.4131,-0.1047 0.4348,-0.07 0.6387,0.1054 0.4078,0.3505 1.083,2.0316 1.4746,4.2891 0.3917,2.2575 0.6651,5.0334 1.1172,7.6875 0.4029,2.3652 0.9926,4.5754 2.0176,6.4023 -1.8452,3.1855 -2.8865,6.6837 -3.3223,10.3555 -0.2558,2.1558 -1.7005,9.5777 -2.1504,14.8047 -0.1124,1.3068 -0.1667,2.4836 -0.1132,3.4746 0.053,0.9911 0.01,1.8176 0.8515,2.6524 0.4213,0.4173 1.2574,0.6126 1.8184,0.4453 0.561,-0.1674 0.9212,-0.4795 1.2871,-0.8496 0.1287,-0.1302 0.2956,-0.4654 0.4258,-0.6192 0.3096,2.0349 0.7504,4.0642 1.7871,5.5918 0.4074,0.6004 0.9431,1.1425 1.664,1.4571 0.721,0.3145 1.588,0.337 2.3907,0.086 1.6053,-0.5023 3.095,-1.8544 4.955,-4.2442 a 1.3230489,1.3230489 0 0 0 0.057,-0.076 c 1.2273,-1.8341 1.9702,-3.7859 2.4219,-5.7754 1.7874,3.5918 3.9111,6.3668 6.627,7.7207 1.9054,0.9499 4.1195,1.0977 6.3144,0.2774 2.1079,-0.7878 4.2124,-2.4394 6.3907,-4.9082 1.0856,-0.5603 1.6899,-0.653 2.8183,-0.6231 1.1745,0.031 2.8764,0.2461 5.6094,0.2461 2.733,0 4.4349,-0.2149 5.6094,-0.2461 1.1284,-0.03 1.7327,0.063 2.8183,0.6231 2.1783,2.4688 4.2827,4.1204 6.3906,4.9082 2.195,0.8203 4.4091,0.6725 6.3145,-0.2774 2.7158,-1.3539 4.8396,-4.1289 6.627,-7.7207 0.4517,1.9895 1.1946,3.9413 2.4218,5.7754 a 1.3230489,1.3230489 0 0 0 0.057,0.076 c 1.86,2.3898 3.3497,3.7419 4.9551,4.2442 0.8027,0.2511 1.6697,0.2285 2.3906,-0.086 0.721,-0.3146 1.2567,-0.8567 1.6641,-1.4571 1.0367,-1.5276 1.4775,-3.5569 1.7871,-5.5918 0.1302,0.1538 0.2971,0.489 0.4258,0.6192 0.3659,0.3701 0.7261,0.6822 1.2871,0.8496 0.561,0.1673 1.3971,-0.028 1.8184,-0.4453 0.8425,-0.8348 0.7981,-1.6613 0.8515,-2.6524 0.053,-0.991 -7.9e-4,-2.1678 -0.1133,-3.4746 -0.4499,-5.227 -1.8945,-12.6489 -2.1504,-14.8047 -0.4357,-3.6718 -1.477,-7.17 -3.3222,-10.3555 1.0249,-1.8269 1.6147,-4.0371 2.0176,-6.4023 0.452,-2.6541 0.7255,-5.43 1.1171,-7.6875 0.3917,-2.2575 1.0668,-3.9386 1.4747,-4.2891 0.2039,-0.1752 0.2256,-0.2101 0.6386,-0.1054 0.4131,0.1047 1.1705,0.5071 2.1563,1.3789 a 1.3230489,1.3230489 0 0 0 2.1152,-0.5293 c 3.2614,-8.7484 5.3124,-20.7288 2.6543,-31.457 1.6503,-4.3408 2.7083,-7.9136 1.8926,-10.6641 a 1.3230988,1.3230988 0 1 0 -2.5371,0.7519 c 0.4099,1.3823 -0.2634,4.9602 -1.9375,9.3164 a 1.3230489,1.3230489 0 0 0 -0.045,0.8086 c 2.4779,9.494 0.8043,20.4677 -2.043,28.7969 -0.5272,-0.3202 -1.0768,-0.8328 -1.6055,-0.9668 -1.0725,-0.2718 -2.2416,0 -3.0117,0.6641 -1.5401,1.3233 -1.9415,3.433 -2.3594,5.8418 -0.4178,2.4088 -0.6874,5.174 -1.1171,7.6972 -0.2798,1.6423 -0.6794,3.0547 -1.1387,4.2813 -0.7099,-0.8861 -1.435,-1.7664 -2.3379,-2.5723 -1.0869,-1.1434 -2.6968,-1.616 -4.832,-2.0449 -2.1497,-0.4318 -4.8487,-0.712 -7.9922,-0.9043 -6.287,-0.3846 -14.3362,-0.4043 -22.9414,-0.4043 -8.6053,0 -16.6545,0.02 -22.9414,0.4043 -3.1435,0.1923 -5.8426,0.4725 -7.9922,0.9043 -2.1352,0.4289 -3.7452,0.9015 -4.8321,2.0449 -0.9029,0.8059 -1.628,1.6862 -2.3379,2.5723 -0.4592,-1.2266 -0.8589,-2.639 -1.1386,-4.2813 -0.4298,-2.5232 -0.6993,-5.2884 -1.1172,-7.6972 -0.4179,-2.4088 -0.8193,-4.5185 -2.3594,-5.8418 -0.77,-0.6617 -1.9392,-0.9359 -3.0117,-0.6641 -0.5195,0.1317 -1.0605,0.6377 -1.5781,0.9492 -2.7535,-8.3582 -3.8976,-20.3206 -3.0957,-30.1445 a 1.3230489,1.3230489 0 0 0 -0.072,-0.5547 c -3.2886,-9.1832 -2.8021,-12.2264 -0.8262,-20.5195 a 1.3230489,1.3230489 0 0 0 -1.9258,-1.4649 c -0.9182,0.5066 -1.4799,0.7093 -1.9648,0.8731 0.1173,-0.2935 0.1929,-0.5392 0.4062,-0.9277 1.3809,-2.5152 4.583,-6.3498 6.0391,-7.5762 a 1.3230489,1.3230489 0 0 0 -0.8965,-2.3438 z m -12.9668,0.2325 a 1.3230489,1.3230489 0 0 0 -1.1367,0.7265 c -0.3993,0.7628 -1.4998,2.4245 -2.7227,4.2735 -1.2228,1.8489 -2.5878,3.9318 -3.6308,5.8066 -0.5216,0.9374 -0.9642,1.8194 -1.2735,2.6348 -0.3093,0.8153 -0.5543,1.5356 -0.3808,2.4355 0.087,0.45 0.3622,0.981 0.8183,1.3008 0.4562,0.3198 0.9753,0.4013 1.4375,0.3848 0.2643,-0.01 0.6009,-0.2235 0.8692,-0.2832 -1.0366,6.9852 -0.8996,13.8292 1.4804,18.4355 -2.8472,1.151 -5.0204,3.9385 -6.6464,7.2988 -1.9196,3.9669 -3.1687,8.765 -3.7266,12.9864 -0.279,2.1106 -0.3843,4.0721 -0.293,5.7402 0.091,1.6681 0.3038,3.0308 1.041,4.1191 0.3687,0.5442 0.9755,1.0487 1.7286,1.168 0.753,0.1193 1.4715,-0.1399 2.0761,-0.5391 0.315,-0.2079 0.6154,-0.5849 0.9199,-0.8808 -0.9914,14.9121 0.378,29.1429 2.879,38.1972 0.6872,2.4881 1.4492,4.591 2.291,6.2481 0.8417,1.6571 1.7195,2.911 2.9707,3.6035 0.6255,0.3463 1.3901,0.5143 2.1269,0.3789 0.7369,-0.1354 1.387,-0.5387 1.9297,-1.0801 0.4172,-0.4161 0.7644,-0.999 1.1133,-1.5918 1.9445,6.783 4.7258,18.2273 7.7441,27.4414 0.8661,2.6439 1.7377,5.0363 2.6133,7.002 0.8756,1.9657 1.7052,3.4961 2.75,4.5215 0.5224,0.51269 1.153,0.9465 1.9688,1.01759 0.8157,0.071 1.6344,-0.3429 2.1679,-0.91609 0.5411,-0.58121 0.9548,-1.3257 1.3067,-2.2714 3.7959,7.2227 9.3123,18.83601 14.2539,27.5176 1.3835,2.43049 2.7019,4.58369 3.9179,6.29491 1.2161,1.71109 2.2583,2.98228 3.4629,3.71478 0.6023,0.36631 1.3684,0.63672 2.1856,0.40042 0.8172,-0.23641 1.3578,-0.9244 1.6523,-1.63092 0.3217,-0.77139 0.4726,-1.74548 0.5371,-2.9023 1.2696,1.4133 2.4888,2.83131 3.9981,4.17381 2.3447,2.08571 5.4702,3.68951 10.1816,3.68951 4.7114,0 7.8369,-1.6038 10.1817,-3.68951 1.5093,-1.3425 2.7284,-2.76051 3.998,-4.17381 0.065,1.15682 0.2154,2.13091 0.5371,2.9023 0.2946,0.70652 0.8352,1.39451 1.6524,1.63092 0.8172,0.2363 1.5832,-0.034 2.1855,-0.40042 1.2046,-0.7325 2.2469,-2.00369 3.4629,-3.71478 1.216,-1.71122 2.5345,-3.86442 3.918,-6.29491 4.9416,-8.68151 10.458,-20.2949 14.2539,-27.5176 0.3518,0.9457 0.7655,1.69019 1.3066,2.2714 0.5335,0.57319 1.3522,0.98718 2.168,0.91609 0.8157,-0.071 1.4463,-0.5049 1.9687,-1.01759 1.0449,-1.0254 1.8744,-2.5558 2.75,-4.5215 0.8757,-1.9657 1.7472,-4.3581 2.6133,-7.002 3.0184,-9.2141 5.7997,-20.6584 7.7442,-27.4414 0.3488,0.5928 0.6961,1.1757 1.1132,1.5918 0.5428,0.5414 1.1929,0.9447 1.9297,1.0801 0.7369,0.1354 1.5014,-0.033 2.127,-0.3789 1.2511,-0.6925 2.1289,-1.9464 2.9707,-3.6035 0.8418,-1.6571 1.6037,-3.76 2.291,-6.2481 2.5014,-9.0558 3.8714,-23.2901 2.8789,-38.205 0.3707,0.3597 0.7347,0.7869 1.127,1.0156 0.654,0.3812 1.4803,0.5742 2.2402,0.3223 0.7598,-0.2519 1.2628,-0.8418 1.582,-1.4493 0.6384,-1.2148 0.8207,-2.7443 0.8477,-4.6015 0.027,-1.8573 -0.1584,-4.0194 -0.5352,-6.3008 -0.7536,-4.5628 -2.2592,-9.5857 -4.5371,-13.4121 -1.1389,-1.9132 -2.4731,-3.5406 -4.0996,-4.6231 -1.0349,-0.6887 -2.2354,-1.0071 -3.4805,-1.1152 1.0863,-2.9483 1.5753,-5.12 1.627,-6.6953 a 1.3230489,1.3230489 0 1 0 -2.6445,-0.086 c -0.054,1.6338 -0.3556,3.5924 -2.0547,7.5859 a 1.3230489,1.3230489 0 0 0 1.5254,1.8047 c 1.3184,-0.3162 2.4119,-0.057 3.5605,0.707 1.1487,0.7644 2.2867,2.085 3.293,3.7754 2.0126,3.3808 3.4884,8.1847 4.1992,12.4883 0.3554,2.1518 0.5239,4.1831 0.5,5.832 -0.024,1.6489 -0.2962,2.9387 -0.543,3.4082 -0.1233,0.2348 -0.1714,0.2028 -0.072,0.1699 0.099,-0.033 0.155,0.039 -0.076,-0.096 -0.4623,-0.2694 -1.5718,-1.4325 -2.875,-3.6679 a 1.3230489,1.3230489 0 0 0 -2.459,0.7988 c 1.6148,16.1667 0.066,32.1574 -2.5527,41.6387 -0.6547,2.3703 -1.3774,4.3321 -2.0996,5.7539 -0.7222,1.4217 -1.4866,2.2625 -1.8945,2.4883 -0.204,0.1129 -0.2746,0.1088 -0.3672,0.092 -0.093,-0.017 -0.2682,-0.081 -0.5391,-0.3516 -0.5417,-0.5404 -1.3127,-1.8787 -2.0137,-4.0488 a 1.3230489,1.3230489 0 0 0 -2.5156,-0.01 c -1.9871,6.0541 -5.3144,20.5847 -8.7109,30.9531 -0.8491,2.5921 -1.7014,4.9178 -2.5176,6.75 -0.8162,1.8322 -1.6466,3.18 -2.1855,3.709 -0.2695,0.2645 -0.4125,0.2773 -0.3458,0.2715 0.067,-0.01 0.1622,0.09 0,-0.084 -0.3242,-0.3484 -1.0268,-1.8193 -1.5644,-4.4004 a 1.3230489,1.3230489 0 0 0 -2.4492,-0.3731 c -3.8015,6.82799 -10.3521,20.97219 -15.7832,30.5137 -1.3578,2.38541 -2.6443,4.48051 -3.7754,6.07229 -1.1312,1.59171 -2.1781,2.67812 -2.6817,2.98432 -0.2517,0.15309 -0.2449,0.072 -0.076,0.1211 0.1689,0.049 0.1723,0.17248 0.055,-0.1093 -0.235,-0.5638 -0.4684,-2.32262 -0.3203,-5.11532 a 1.3230489,1.3230489 0 0 0 -2.1953,-1.06249 c -2.5268,2.2262 -4.2048,4.69889 -6.2187,6.49031 -2.0139,1.79128 -4.2765,3.02138 -8.4239,3.02138 -4.1473,0 -6.4099,-1.2301 -8.4238,-3.02138 -2.0139,-1.79142 -3.6919,-4.26411 -6.2187,-6.49031 a 1.3230489,1.3230489 0 0 0 -2.1953,1.06249 c 0.1481,2.7927 -0.085,4.55152 -0.3204,5.11532 -0.1175,0.28178 -0.1141,0.15819 0.055,0.1093 0.1689,-0.049 0.1757,0.032 -0.076,-0.1211 -0.5035,-0.3062 -1.5504,-1.39261 -2.6816,-2.98432 -1.1312,-1.59178 -2.4176,-3.68688 -3.7754,-6.07229 -5.4311,-9.54151 -11.9817,-23.68571 -15.7832,-30.5137 a 1.3230489,1.3230489 0 0 0 -2.4492,0.3731 c -0.5376,2.5811 -1.2402,4.052 -1.5645,4.4004 -0.1621,0.1741 -0.067,0.078 0,0.084 0.067,0.01 -0.076,-0.01 -0.3457,-0.2715 -0.5389,-0.529 -1.3694,-1.8768 -2.1855,-3.709 -0.8162,-1.8322 -1.6685,-4.1579 -2.5176,-6.75 -3.3965,-10.3684 -6.7238,-24.899 -8.7109,-30.9531 a 1.3230489,1.3230489 0 0 0 -2.5156,0.01 c -0.7011,2.1701 -1.472,3.5084 -2.0137,4.0488 -0.2709,0.2702 -0.4464,0.3345 -0.5391,0.3516 -0.093,0.017 -0.1632,0.021 -0.3672,-0.092 -0.4079,-0.2258 -1.1723,-1.0666 -1.8945,-2.4883 -0.7222,-1.4218 -1.4449,-3.3836 -2.0996,-5.7539 -2.6189,-9.4813 -4.1675,-25.472 -2.5527,-41.6387 a 1.3230489,1.3230489 0 0 0 -2.459,-0.7988 c -1.234,2.1167 -2.2822,3.2787 -2.795,3.6172 -0.2563,0.1692 -0.2972,0.1198 -0.2031,0.1347 0.094,0.015 0.1425,0.1011 0.049,-0.037 -0.1873,-0.2764 -0.511,-1.3412 -0.5898,-2.7812 -0.079,-1.4401 0.011,-3.2673 0.2734,-5.25 0.5241,-3.9655 1.7363,-8.5671 3.4844,-12.1797 1.7481,-3.6126 4.003,-6.0499 6.2344,-6.3926 a 1.3230489,1.3230489 0 0 0 0.8808,-2.0703 c -2.5309,-3.5852 -2.8921,-12.022 -1.4472,-20.0801 a 1.3230489,1.3230489 0 0 0 -1.8926,-1.416 c -0.7262,0.3625 -1.0011,0.3982 -1.3418,0.4883 0.036,-0.1523 0.01,-0.1207 0.082,-0.3164 0.2341,-0.6173 0.6262,-1.4152 1.1113,-2.2871 0.9702,-1.7439 2.3083,-3.7926 3.5254,-5.6329 1.2171,-1.8402 2.2933,-3.4242 2.8594,-4.5058 a 1.3230489,1.3230489 0 0 0 -1.2071,-1.9531 z m 62.6113,76.6796 c 8.6007,0 16.6246,0.024 22.7793,0.4004 3.0774,0.1883 5.6913,0.469 7.6348,0.8594 1.9434,0.3904 3.1934,1.0044 3.4473,1.2754 a 1.3230489,1.3230489 0 0 0 0.09,0.088 c 4.252,3.7614 5.9304,8.449 6.5761,13.8906 0.3045,2.5658 1.7163,9.7655 2.1426,14.7188 0.095,1.1082 0.1156,2.0281 0.094,2.7793 -0.4015,-0.5243 -0.7838,-0.9811 -1.418,-2.1055 a 1.3230489,1.3230489 0 0 0 -2.4648,0.4883 c -0.3492,2.8635 -0.9552,6.5427 -1.8223,7.8203 -0.2167,0.3194 -0.4044,0.4623 -0.5312,0.5176 -0.1268,0.055 -0.2299,0.086 -0.543,-0.012 -0.6213,-0.1944 -1.932,-1.1474 -3.623,-3.3086 -4.2007,-6.3264 -1.6916,-14.9774 -1.8496,-22.1426 a 1.3230489,1.3230489 0 0 0 -0.018,-0.1875 c -0.4201,-2.5395 -1.0645,-4.4499 -2.0332,-5.9063 -0.9688,-1.4563 -2.2943,-2.4037 -3.7676,-2.9101 -2.9466,-1.0128 -6.3597,-0.5758 -10.5567,-0.5801 a 1.3230489,1.3230489 0 0 0 -0.012,0 c -6.1843,0.05 -9.681,0.8223 -14.125,0.8223 -4.444,0 -7.9406,-0.7726 -14.125,-0.8223 a 1.3230489,1.3230489 0 0 0 -0.012,0 c -4.1969,0 -7.61,-0.4327 -10.5566,0.5801 -1.4733,0.5064 -2.7988,1.4538 -3.7676,2.9101 -0.9688,1.4564 -1.6132,3.3668 -2.0332,5.9063 a 1.3230489,1.3230489 0 0 0 -0.018,0.1875 c -0.158,7.1652 2.3511,15.8162 -1.8496,22.1426 -1.691,2.1612 -3.0017,3.1142 -3.623,3.3086 -0.3131,0.098 -0.4162,0.067 -0.543,0.012 -0.1268,-0.055 -0.3145,-0.1982 -0.5313,-0.5176 -0.867,-1.2776 -1.473,-4.9567 -1.8222,-7.8203 a 1.3230489,1.3230489 0 0 0 -2.4649,-0.4883 c -0.6342,1.1244 -1.0164,1.5812 -1.4179,2.1055 -0.022,-0.7512 0,-1.6711 0.094,-2.7793 0.4263,-4.9533 1.8381,-12.153 2.1425,-14.7188 0.6458,-5.4416 2.3242,-10.1292 6.5762,-13.8906 a 1.3230489,1.3230489 0 0 0 0.09,-0.088 c 0.2539,-0.271 1.5038,-0.885 3.4473,-1.2754 1.9434,-0.3904 4.5574,-0.6711 7.6347,-0.8594 6.1548,-0.3764 14.1787,-0.4004 22.7793,-0.4004 z m -19.8457,8.2872 c 1.6224,-0.02 3.5332,0.047 5.6992,0.045 h 0.014 c 5.9573,0.049 9.3962,0.8222 14.1329,0.8222 4.7366,0 8.1756,-0.7729 14.1328,-0.8222 4.345,0 7.6559,-0.2668 9.6992,0.4355 1.0217,0.3512 1.758,0.8663 2.4277,1.8731 0.6588,0.9902 1.2169,2.5245 1.5996,4.7773 0.063,3.4477 -0.6404,7.7766 -0.6093,12.2305 -2.0536,5.5585 -4.6761,9.545 -7.2969,10.8515 -1.3195,0.6578 -2.6122,0.7648 -4.209,0.168 -1.5968,-0.5968 -3.4863,-1.9838 -5.5762,-4.4141 a 1.3230489,1.3230489 0 0 0 -0.3808,-0.3046 c -1.5065,-0.8026 -2.8418,-1.0158 -4.2481,-0.9786 -1.4063,0.037 -2.947,0.2461 -5.539,0.2461 -2.5921,0 -4.1328,-0.2088 -5.5391,-0.2461 -1.4063,-0.037 -2.7416,0.176 -4.248,0.9786 a 1.3230489,1.3230489 0 0 0 -0.3809,0.3046 c -2.0899,2.4303 -3.9794,3.8173 -5.5762,4.4141 -1.5968,0.5968 -2.8895,0.4898 -4.209,-0.168 -2.6208,-1.3065 -5.2433,-5.293 -7.2968,-10.8515 0.031,-4.4539 -0.6723,-8.7828 -0.6094,-12.2305 0.3827,-2.2528 0.9428,-3.7871 1.6015,-4.7773 0.6697,-1.0068 1.4042,-1.5219 2.4258,-1.8731 1.0217,-0.3511 2.3601,-0.46 3.9864,-0.4804 z"
         id="path9350"
         inkscape:connector-curvature="0"
         inkscape:export-xdpi="38.90226"
         inkscape:export-ydpi="38.90226" />
      <path
         style="color:#000000;font-style:normal;font-variant:normal;font-weight:normal;font-stretch:normal;font-size:medium;line-height:normal;font-family:sans-serif;font-variant-ligatures:normal;font-variant-position:normal;font-variant-caps:normal;font-variant-numeric:normal;font-variant-alternates:normal;font-feature-settings:normal;text-indent:0;text-align:start;text-decoration:none;text-decoration-line:none;text-decoration-style:solid;text-decoration-color:#000000;letter-spacing:normal;word-spacing:normal;text-transform:none;writing-mode:lr-tb;direction:ltr;text-orientation:mixed;dominant-baseline:auto;baseline-shift:baseline;text-anchor:start;white-space:normal;shape-padding:0;clip-rule:nonzero;display:inline;overflow:visible;visibility:visible;opacity:1;isolation:auto;mix-blend-mode:normal;color-interpolation:sRGB;color-interpolation-filters:linearRGB;solid-color:#000000;solid-opacity:1;vector-effect:none;fill:#7531a8;fill-opacity:1;fill-rule:nonzero;stroke:none;stroke-width:2.64583325;stroke-linecap:round;stroke-linejoin:round;stroke-miterlimit:4;stroke-dasharray:none;stroke-dashoffset:0;stroke-opacity:1;color-rendering:auto;image-rendering:auto;shape-rendering:auto;text-rendering:auto;enable-background:accumulate"
         d="m 666.53618,194.52685 a 1.3230489,1.3230489 0 0 0 0.023,2.6446 c 4.335,0.1773 9.5017,0.6105 13.8828,3.584 a 1.3231875,1.3231875 0 1 0 1.4864,-2.1895 c -5.0763,-3.4453 -10.8471,-3.8566 -15.2617,-4.0371 a 1.3230489,1.3230489 0 0 0 -0.1309,0 z"
         id="path9352"
         inkscape:connector-curvature="0"
         inkscape:export-xdpi="38.90226"
         inkscape:export-ydpi="38.90226" />
      <path
         style="color:#000000;font-style:normal;font-variant:normal;font-weight:normal;font-stretch:normal;font-size:medium;line-height:normal;font-family:sans-serif;font-variant-ligatures:normal;font-variant-position:normal;font-variant-caps:normal;font-variant-numeric:normal;font-variant-alternates:normal;font-feature-settings:normal;text-indent:0;text-align:start;text-decoration:none;text-decoration-line:none;text-decoration-style:solid;text-decoration-color:#000000;letter-spacing:normal;word-spacing:normal;text-transform:none;writing-mode:lr-tb;direction:ltr;text-orientation:mixed;dominant-baseline:auto;baseline-shift:baseline;text-anchor:start;white-space:normal;shape-padding:0;clip-rule:nonzero;display:inline;overflow:visible;visibility:visible;opacity:1;isolation:auto;mix-blend-mode:normal;color-interpolation:sRGB;color-interpolation-filters:linearRGB;solid-color:#000000;solid-opacity:1;vector-effect:none;fill:#7531a8;fill-opacity:1;fill-rule:nonzero;stroke:none;stroke-width:2.11666656;stroke-linecap:round;stroke-linejoin:miter;stroke-miterlimit:4;stroke-dasharray:none;stroke-dashoffset:0;stroke-opacity:1;color-rendering:auto;image-rendering:auto;shape-rendering:auto;text-rendering:auto;enable-background:accumulate"
         d="m 665.64558,191.20655 a 1.0584391,1.0584391 0 0 0 -0.074,0.01 c 0,0 -0.7334,0.074 -1.4687,0.5313 -0.7354,0.4571 -1.5377,1.4277 -1.6114,2.8281 a 1.0591131,1.0591131 0 1 0 2.1153,0.1113 c 0.039,-0.7386 0.3072,-0.9504 0.6132,-1.1406 0.306,-0.1902 0.586,-0.2265 0.586,-0.2265 a 1.0587351,1.0587351 0 0 0 -0.1602,-2.1114 z"
         id="path9354"
         inkscape:connector-curvature="0"
         inkscape:export-xdpi="38.90226"
         inkscape:export-ydpi="38.90226" />
      <path
         style="color:#000000;font-style:normal;font-variant:normal;font-weight:normal;font-stretch:normal;font-size:medium;line-height:normal;font-family:sans-serif;font-variant-ligatures:normal;font-variant-position:normal;font-variant-caps:normal;font-variant-numeric:normal;font-variant-alternates:normal;font-feature-settings:normal;text-indent:0;text-align:start;text-decoration:none;text-decoration-line:none;text-decoration-style:solid;text-decoration-color:#000000;letter-spacing:normal;word-spacing:normal;text-transform:none;writing-mode:lr-tb;direction:ltr;text-orientation:mixed;dominant-baseline:auto;baseline-shift:baseline;text-anchor:start;white-space:normal;shape-padding:0;clip-rule:nonzero;display:inline;overflow:visible;visibility:visible;opacity:1;isolation:auto;mix-blend-mode:normal;color-interpolation:sRGB;color-interpolation-filters:linearRGB;solid-color:#000000;solid-opacity:1;vector-effect:none;fill:#7531a8;fill-opacity:1;fill-rule:nonzero;stroke:none;stroke-width:2.64583325;stroke-linecap:round;stroke-linejoin:round;stroke-miterlimit:4;stroke-dasharray:none;stroke-dashoffset:0;stroke-opacity:1;color-rendering:auto;image-rendering:auto;shape-rendering:auto;text-rendering:auto;enable-background:accumulate"
         d="m 782.54398,194.52685 a 1.3230489,1.3230489 0 0 0 -0.092,0 c -4.4146,0.1805 -10.1854,0.5918 -15.2617,4.0371 a 1.3231455,1.3231455 0 1 0 1.4863,2.1894 c 4.3812,-2.9734 9.5479,-3.4067 13.8829,-3.584 a 1.3230489,1.3230489 0 0 0 -0.016,-2.6445 z"
         id="path9356"
         inkscape:connector-curvature="0"
         inkscape:export-xdpi="38.90226"
         inkscape:export-ydpi="38.90226" />
      <path
         style="color:#000000;font-style:normal;font-variant:normal;font-weight:normal;font-stretch:normal;font-size:medium;line-height:normal;font-family:sans-serif;font-variant-ligatures:normal;font-variant-position:normal;font-variant-caps:normal;font-variant-numeric:normal;font-variant-alternates:normal;font-feature-settings:normal;text-indent:0;text-align:start;text-decoration:none;text-decoration-line:none;text-decoration-style:solid;text-decoration-color:#000000;letter-spacing:normal;word-spacing:normal;text-transform:none;writing-mode:lr-tb;direction:ltr;text-orientation:mixed;dominant-baseline:auto;baseline-shift:baseline;text-anchor:start;white-space:normal;shape-padding:0;clip-rule:nonzero;display:inline;overflow:visible;visibility:visible;opacity:1;isolation:auto;mix-blend-mode:normal;color-interpolation:sRGB;color-interpolation-filters:linearRGB;solid-color:#000000;solid-opacity:1;vector-effect:none;fill:#7531a8;fill-opacity:1;fill-rule:nonzero;stroke:none;stroke-width:2.11666656;stroke-linecap:round;stroke-linejoin:miter;stroke-miterlimit:4;stroke-dasharray:none;stroke-dashoffset:0;stroke-opacity:1;color-rendering:auto;image-rendering:auto;shape-rendering:auto;text-rendering:auto;enable-background:accumulate"
         d="m 783.44248,191.20655 a 1.0584391,1.0584391 0 0 0 -0.1289,2.1114 c 0,0 0.2799,0.036 0.5859,0.2265 0.306,0.1902 0.5744,0.402 0.6133,1.1406 a 1.0590838,1.0590838 0 1 0 2.1152,-0.1113 c -0.074,-1.4004 -0.8759,-2.371 -1.6113,-2.8281 -0.7354,-0.4571 -1.4687,-0.5313 -1.4687,-0.5313 a 1.0584391,1.0584391 0 0 0 -0.1055,-0.01 z"
         id="path9358"
         inkscape:connector-curvature="0"
         inkscape:export-xdpi="38.90226"
         inkscape:export-ydpi="38.90226" />
      <path
         id="path9360"
         style="display:inline;fill:#7531a8;fill-opacity:1;stroke:none;stroke-width:2.64583325;stroke-linecap:round;stroke-linejoin:round;stroke-miterlimit:4;stroke-dasharray:none;stroke-opacity:1"
         d="m 661.98528,165.78215 c -0.029,-0.8695 -0.069,0.1301 -0.108,0.2 -2.2163,3.9953 -13.298,18.3094 -4.3661,13.8506 -1.4757,8.2298 -1.335,16.8221 1.6686,21.0769 -4.9528,0.7607 -8.4527,8.3429 -10.0922,15.5983 -0.031,0.1385 -0.3987,0.8068 -0.4287,0.945 -25.1229,-11.5314 -38.4095,-24.6075 -35.5316,-35.6051 2.844,-10.8678 21.5747,-16.6647 48.8289,-16.9352"
         inkscape:connector-curvature="0"
         sodipodi:nodetypes="csccsccc"
         inkscape:export-xdpi="38.90226"
         inkscape:export-ydpi="38.90226" />
      <path
         inkscape:connector-curvature="0"
         id="path9362"
         style="display:inline;fill:#7531a8;fill-opacity:1;stroke:none;stroke-width:2.64583325;stroke-linecap:round;stroke-linejoin:round;stroke-miterlimit:4;stroke-dasharray:none;stroke-opacity:1"
         d="m 795.13348,252.29285 c 0.7536,-8.0058 0.8533,-17.2211 -0.08,-26.5211 10.8266,18.5717 6.2638,-27.7889 -7.1525,-24.5712 1.7401,-4.0895 2.1015,-6.2835 2.1599,-8.0607 l 1.0163,0.4706 c 30.9762,14.4207 52.74281,31.6034 49.8139,42.7961 -2.61171,9.9804 -23.8561,14.801 -45.5554,16.1591"
         sodipodi:nodetypes="ccccccc"
         inkscape:export-xdpi="38.90226"
         inkscape:export-ydpi="38.90226" />
      <g
         transform="translate(1262.8428,175.93904)"
         aria-label="DUT INFO CALAIS"
         style="font-style:italic;font-variant:normal;font-weight:bold;font-stretch:normal;font-size:50.79999924px;line-height:1.25;font-family:'Carolina Hills Personal Use';-inkscape-font-specification:'Carolina Hills Personal Use Bold Italic';letter-spacing:0px;word-spacing:0px;display:inline;fill:#7531a8;fill-opacity:1;stroke:none;stroke-width:0.26458332"
         id="g9390"
         inkscape:export-xdpi="38.90226"
         inkscape:export-ydpi="38.90226">
        <path
           d="m -645.25912,369.9027 5.56802,6.29932 q 1.93451,2.18859 2.61331,4.6057 0.6788,2.41712 -3.9e-4,4.67857 -0.6792,2.26145 -2.6965,4.04457 -2.01731,1.78311 -4.34504,2.17951 -2.32773,0.39639 -4.64322,-0.57404 -2.31548,-0.97044 -4.24999,-3.15903 l -5.56803,-6.29932 z m -4.88146,15.2645 q 1.51397,1.71281 3.39294,1.88258 1.89579,0.1888 3.60859,-1.32516 1.71281,-1.51396 1.7582,-3.41859 0.0622,-1.8856 -1.45175,-3.59841 l -2.10273,-2.3789 -7.30798,6.45958 z"
           style="font-style:normal;font-variant:normal;font-weight:800;font-stretch:normal;font-size:25.39999962px;font-family:Montserrat;-inkscape-font-specification:'Montserrat Ultra-Bold';fill:#7531a8;fill-opacity:1;stroke-width:0.26458332"
           id="path9364"
           inkscape:connector-curvature="0" />
        <path
           d="m -637.49542,403.95041 q -2.94029,-2.65619 -3.13278,-5.7396 -0.17365,-3.06639 2.48253,-6.00668 l 6.60641,-7.31302 3.73191,3.37131 -6.50425,7.19994 q -2.86051,3.16646 -0.35372,5.43103 2.48793,2.24754 5.34844,-0.91892 l 6.50425,-7.19994 3.67536,3.32023 -6.60641,7.31303 q -2.65618,2.94028 -5.74324,3.06103 -3.06821,0.13777 -6.0085,-2.51841 z"
           style="font-style:normal;font-variant:normal;font-weight:800;font-stretch:normal;font-size:25.39999962px;font-family:Montserrat;-inkscape-font-specification:'Montserrat Ultra-Bold';fill:#7531a8;fill-opacity:1;stroke-width:0.26458332"
           id="path9366"
           inkscape:connector-curvature="0" />
        <path
           d="m -615.13871,404.36044 -4.2945,-3.3734 2.46337,-3.13598 12.52395,9.83777 -2.46337,3.13598 -4.27452,-3.3577 -8.51979,10.8461 -3.95493,-3.10667 z"
           style="font-style:normal;font-variant:normal;font-weight:800;font-stretch:normal;font-size:25.39999962px;font-family:Montserrat;-inkscape-font-specification:'Montserrat Ultra-Bold';fill:#7531a8;fill-opacity:1;stroke-width:0.26458332"
           id="path9368"
           inkscape:connector-curvature="0" />
        <path
           d="m -594.79408,414.44994 4.18707,2.78591 -9.84918,14.80277 -4.18707,-2.78591 z"
           style="font-style:normal;font-variant:normal;font-weight:800;font-stretch:normal;font-size:25.39999962px;font-family:Montserrat;-inkscape-font-specification:'Montserrat Ultra-Bold';fill:#7531a8;fill-opacity:1;stroke-width:0.26458332"
           id="path9370"
           inkscape:connector-curvature="0" />
        <path
           d="m -571.41518,428.56614 -8.72116,15.49419 -3.60793,-2.03079 -2.19245,-12.10595 -4.64713,8.25619 -4.2941,-2.41701 8.72116,-15.49419 3.60793,2.03079 2.19245,12.10595 4.64713,-8.25619 z"
           style="font-style:normal;font-variant:normal;font-weight:800;font-stretch:normal;font-size:25.39999962px;font-family:Montserrat;-inkscape-font-specification:'Montserrat Ultra-Bold';fill:#7531a8;fill-opacity:1;stroke-width:0.26458332"
           id="path9372"
           inkscape:connector-curvature="0" />
        <path
           d="m -564.92952,435.68929 -1.49754,3.61358 7.25062,3.00482 -1.48782,3.59012 -7.25062,-3.00482 -2.33384,5.63156 -4.64604,-1.92542 6.80703,-16.42537 12.88218,5.33865 -1.48782,3.59012 z"
           style="font-style:normal;font-variant:normal;font-weight:800;font-stretch:normal;font-size:25.39999962px;font-family:Montserrat;-inkscape-font-specification:'Montserrat Ultra-Bold';fill:#7531a8;fill-opacity:1;stroke-width:0.26458332"
           id="path9374"
           inkscape:connector-curvature="0" />
        <path
           d="m -546.79619,456.01801 q -2.78872,-0.41481 -4.84908,-1.9282 -2.03524,-1.50967 -3.00638,-3.78551 -0.94601,-2.27211 -0.55736,-4.88496 0.38864,-2.61285 1.95499,-4.51126 1.59147,-1.89468 3.97798,-2.74663 2.41164,-0.84822 5.20036,-0.43342 2.78872,0.4148 4.82396,1.92447 2.06036,1.51339 3.00637,3.7855 0.97114,2.27585 0.58249,4.8887 -0.38864,2.61285 -1.98011,4.50753 -1.56635,1.89841 -3.97799,2.74663 -2.38651,0.85195 -5.17523,0.43715 z m 0.61286,-4.12027 q 1.33155,0.19806 2.50529,-0.26934 1.17374,-0.4674 1.96999,-1.50454 0.79999,-1.06226 1.02047,-2.54455 0.22049,-1.4823 -0.23944,-2.70628 -0.45619,-1.24911 -1.44308,-2.03789 -0.98689,-0.78878 -2.31844,-0.98684 -1.33155,-0.19806 -2.50529,0.26934 -1.17374,0.4674 -1.97373,1.52966 -0.79625,1.03714 -1.01674,2.51943 -0.22048,1.48229 0.23571,2.7314 0.45993,1.22399 1.44682,2.01277 0.98689,0.78878 2.31844,0.98684 z"
           style="font-style:normal;font-variant:normal;font-weight:800;font-stretch:normal;font-size:25.39999962px;font-family:Montserrat;-inkscape-font-specification:'Montserrat Ultra-Bold';fill:#7531a8;fill-opacity:1;stroke-width:0.26458332"
           id="path9376"
           inkscape:connector-curvature="0" />
        <path
           d="m -510.27608,450.55162 q -2.6162,0.98076 -5.11931,0.67133 -2.48823,-0.34214 -4.41745,-1.87039 -1.92922,-1.52824 -2.8654,-4.02553 -0.93618,-2.49729 -0.48703,-4.91714 0.44915,-2.41985 2.1082,-4.28959 1.67391,-1.90245 4.29012,-2.88321 2.28323,-0.85594 4.41772,-0.73383 2.13449,0.12211 3.91809,1.18955 l -1.98032,3.83476 q -2.34841,-1.34397 -4.65543,-0.47912 -1.35567,0.50822 -2.20303,1.50403 -0.82358,0.9869 -1.00804,2.30385 -0.16959,1.28425 0.35646,2.68749 0.52605,1.40324 1.50699,2.2833 0.99582,0.84737 2.2652,1.04966 1.29317,0.19337 2.64884,-0.31485 2.30702,-0.86485 3.19319,-3.42141 l 4.01318,1.58793 q -0.64234,1.97687 -2.17054,3.47205 -1.5282,1.49518 -3.81144,2.35112 z"
           style="font-style:normal;font-variant:normal;font-weight:800;font-stretch:normal;font-size:25.39999962px;font-family:Montserrat;-inkscape-font-specification:'Montserrat Ultra-Bold';fill:#7531a8;fill-opacity:1;stroke-width:0.26458332"
           id="path9378"
           inkscape:connector-curvature="0" />
        <path
           d="m -488.54395,435.71533 -6.57414,3.64788 0.45451,3.69837 -4.48641,2.48943 -1.76388,-19.35504 4.33093,-2.40316 15.51183,11.72653 -4.57524,2.53873 z m -3.08747,-2.52786 -4.75946,-3.86587 0.76167,6.08418 z"
           style="font-style:normal;font-variant:normal;font-weight:800;font-stretch:normal;font-size:25.39999962px;font-family:Montserrat;-inkscape-font-specification:'Montserrat Ultra-Bold';fill:#7531a8;fill-opacity:1;stroke-width:0.26458332"
           id="path9380"
           inkscape:connector-curvature="0" />
        <path
           d="m -485.49626,417.03886 4.14512,-2.84796 7.81031,11.36767 6.99226,-4.80414 2.25824,3.28679 -11.13738,7.65209 z"
           style="font-style:normal;font-variant:normal;font-weight:800;font-stretch:normal;font-size:25.39999962px;font-family:Montserrat;-inkscape-font-specification:'Montserrat Ultra-Bold';fill:#7531a8;fill-opacity:1;stroke-width:0.26458332"
           id="path9382"
           inkscape:connector-curvature="0" />
        <path
           d="m -450.97693,409.25612 -5.85468,4.71689 1.07936,3.56644 -3.99542,3.21896 -5.04301,-18.76958 3.85697,-3.10741 17.2864,8.90553 -4.07454,3.2827 z m -3.47378,-1.96353 -5.34967,-2.99638 1.7894,5.86476 z"
           style="font-style:normal;font-variant:normal;font-weight:800;font-stretch:normal;font-size:25.39999962px;font-family:Montserrat;-inkscape-font-specification:'Montserrat Ultra-Bold';fill:#7531a8;fill-opacity:1;stroke-width:0.26458332"
           id="path9384"
           inkscape:connector-curvature="0" />
        <path
           d="m -450.41095,389.82832 3.68319,-3.42447 12.1067,13.02138 -3.68319,3.42446 z"
           style="font-style:normal;font-variant:normal;font-weight:800;font-stretch:normal;font-size:25.39999962px;font-family:Montserrat;-inkscape-font-specification:'Montserrat Ultra-Bold';fill:#7531a8;fill-opacity:1;stroke-width:0.26458332"
           id="path9386"
           inkscape:connector-curvature="0" />
        <path
           d="m -423.69571,388.74203 q -1.435,1.6131 -3.18411,2.77677 -1.74911,1.16368 -3.25744,1.52168 l -1.67338,-3.69836 q 1.38177,-0.36859 2.78905,-1.22444 1.40728,-0.85584 2.42021,-1.9945 1.92458,-2.16344 0.84286,-3.12573 -0.56932,-0.50647 -1.39213,-0.11656 -0.82489,0.35405 -2.34406,1.45031 -1.65632,1.21223 -2.91165,1.89728 -1.27432,0.66817 -2.73188,0.66338 -1.45756,-0.005 -2.84292,-1.2372 -1.21457,-1.08047 -1.59155,-2.60568 -0.39595,-1.54209 0.1996,-3.35802 0.61244,-1.83489 2.31755,-3.75163 1.16488,-1.30945 2.59963,-2.31083 1.41578,-1.01827 2.8461,-1.47965 l 1.75988,3.63933 q -2.71301,0.98611 -4.29995,2.77 -0.99605,1.11968 -1.11028,1.93595 -0.1332,0.7994 0.39817,1.2721 0.53137,0.47271 1.33729,0.10178 0.80592,-0.37094 2.28923,-1.46511 1.6732,-1.2312 2.93063,-1.88039 1.25533,-0.68505 2.7129,-0.68026 1.45546,-0.0311 2.84083,1.20134 1.19558,1.06358 1.57256,2.58879 0.37697,1.52522 -0.21648,3.377 -0.61243,1.8349 -2.30066,3.73265 z"
           style="font-style:normal;font-variant:normal;font-weight:800;font-stretch:normal;font-size:25.39999962px;font-family:Montserrat;-inkscape-font-specification:'Montserrat Ultra-Bold';fill:#7531a8;fill-opacity:1;stroke-width:0.26458332"
           id="path9388"
           inkscape:connector-curvature="0" />
      </g>
      <path
         style="color:#000000;font-style:normal;font-variant:normal;font-weight:normal;font-stretch:normal;font-size:medium;line-height:normal;font-family:sans-serif;font-variant-ligatures:normal;font-variant-position:normal;font-variant-caps:normal;font-variant-numeric:normal;font-variant-alternates:normal;font-feature-settings:normal;text-indent:0;text-align:start;text-decoration:none;text-decoration-line:none;text-decoration-style:solid;text-decoration-color:#000000;letter-spacing:normal;word-spacing:normal;text-transform:none;writing-mode:lr-tb;direction:ltr;text-orientation:mixed;dominant-baseline:auto;baseline-shift:baseline;text-anchor:start;white-space:normal;shape-padding:0;clip-rule:nonzero;display:inline;overflow:visible;visibility:visible;opacity:1;isolation:auto;mix-blend-mode:normal;color-interpolation:sRGB;color-interpolation-filters:linearRGB;solid-color:#000000;solid-opacity:1;vector-effect:none;fill:#7531a8;fill-opacity:1;fill-rule:nonzero;stroke:none;stroke-width:27.03666306;stroke-linecap:round;stroke-linejoin:round;stroke-miterlimit:4;stroke-dasharray:none;stroke-dashoffset:0;stroke-opacity:1;paint-order:markers stroke fill;color-rendering:auto;image-rendering:auto;shape-rendering:auto;text-rendering:auto;enable-background:accumulate"
         d="m 723.88018,367.73659 a 13.519683,13.519683 0 0 1 12.3409,6.74484 l 83.6846,144.94187 a 13.519683,13.519683 0 0 1 -11.7092,20.27769 h -167.3628 a 13.519683,13.519683 0 0 1 -11.7091,-20.27769 l 83.6847,-144.94187 a 13.519683,13.519683 0 0 1 11.0709,-6.74484 z m 0.6348,40.53581 -60.2692,104.3927 h 120.5389 z"
         id="path9392"
         inkscape:connector-curvature="0" />
      <path
         sodipodi:nodetypes="cccccccccccsccccsccccccccccccccccccccccccccscccccccccccccccccccccccsccccccccccccssccccccccccscscccccc"
         inkscape:connector-curvature="0"
         id="path9394"
         d="m 611.06048,313.3937 c -1.298,0.0238 -2.3378,1.08267 -2.3379,2.38085 v 0.003 0.14063 l 5.6992,96.25784 1.8692,39.61918 c 5.3e-4,0.037 0.1746,15.3851 -0.2246,32.12891 -0.1999,8.38211 -0.5435,17.1038 -1.1211,24.369 -0.5777,7.2653 -1.5433,13.2874 -2.3848,15.29691 -1.3286,3.17299 0.059,6.48309 2.25,10.18559 2.1908,3.7025 5.5582,7.9181 9.8008,12.49611 8.4852,9.15609 20.4791,19.69918 33.3535,29.31059 12.8744,9.61139 26.6,18.2775 38.6367,23.60941 6.0184,2.66589 11.6111,4.5095 16.5782,5.17379 4.3239,0.5782 0,0 11.4238,1.80901 11.4238,-1.80901 7.0996,-1.23071 11.4238,-1.80901 4.9671,-0.66429 10.5598,-2.5079 16.5781,-5.17379 12.0368,-5.33191 25.7624,-13.99601 38.6368,-23.6075 12.8743,-9.61142 24.8683,-20.15641 33.3535,-29.3125 4.2426,-4.57801 7.61,-8.79361 9.8008,-12.49611 2.1907,-3.7024 3.5786,-7.0126 2.24999,-10.18559 -0.84148,-2.0094 -1.80718,-8.03161 -2.38479,-15.29691 -0.5777,-7.2653 -0.92131,-15.987 -1.1211,-24.369 -0.3991,-16.7399 -0.2251,-32.07631 -0.2246,-32.12121 v -0.01 l 1.2324,-39.6348 5.69921,-96.23626 v -0.14063 -0.004 c 0,-1.78833 -1.89932,-2.93751 -3.4843,-2.10937 -24.96691,13.05911 -58.54241,21.90445 -90.77351,30.62892 -0.5299,0.14288 -0.9942,0.46437 -1.3144,0.91014 -1.1059,1.54252 -1.9812,2.49124 -2.6348,2.88867 -0.2808,0.17084 -0.317,0.13785 -0.2871,0.1465 0.097,0.0281 -0.01,-0.008 -0.1133,-0.25585 v -0.004 c -0.019,-0.0451 -0.039,-0.10057 -0.061,-0.16603 -0.4027,-1.1956 -1.6679,-1.86973 -2.8848,-1.53709 -1.2909,0.35274 -2.562,0.70543 -3.8359,1.05664 -0.376,0.10374 -0.7207,0.29823 -1.0039,0.56639 -0.1756,0.16605 -0.353,0.32787 -0.5313,0.48633 -2.0075,1.78583 -4.4176,3.07967 -8.5703,3.08594 -0.03,-0.003 -0.06,-0.003 -0.09,-0.004 0.011,-8e-5 0,0 -0.023,0 -4.1712,0 -6.5851,-1.29569 -8.5977,-3.08594 -0.1798,-0.15991 -0.3554,-0.3239 -0.5292,-0.48829 -0.2834,-0.26746 -0.6282,-0.4613 -1.004,-0.56446 -1.2738,-0.35118 -2.545,-0.7039 -3.8359,-1.05664 -1.2192,-0.33319 -2.4864,0.34409 -2.8867,1.54297 -0.021,0.0624 -0.04,0.11491 -0.057,0.15431 v 0.006 c -0.1077,0.25847 -0.2139,0.28832 -0.1152,0.2598 0.03,-0.009 0,0.0222 -0.2852,-0.14846 -0.6531,-0.39711 -1.5287,-1.34596 -2.6348,-2.88864 -0.3197,-0.44546 -0.7833,-0.76692 -1.3125,-0.9102 -32.2311,-8.72521 -65.8065,-17.57053 -90.7734,-30.62963 -0.3536,-0.18442 -0.7478,-0.27709 -1.1465,-0.26953 z m 2.6602,6.28906 c 25.0246,12.33095 56.7751,20.75362 87.2558,28.99999 1.026,1.37814 2.059,2.6143 3.4766,3.47655 0.9234,0.562 2.4204,1.13472 4.084,0.65431 0.9732,-0.28143 1.6614,-0.83981 2.2031,-1.47071 0.5176,0.14285 1.0358,0.28639 1.5547,0.42968 0.063,0.0573 0.1232,0.1147 0.1875,0.17188 2.6061,2.31825 6.3347,4.15859 11.375,4.25587 0.1424,0.0262 0.2868,0.0392 0.4316,0.0391 h 0.043 c 5.2518,0 9.0867,-1.90979 11.7637,-4.29101 0.064,-0.0574 0.1224,-0.11465 0.1855,-0.1719 0.5194,-0.14341 1.0386,-0.28478 1.5567,-0.42773 0.5414,0.63005 1.2288,1.18957 2.2011,1.47071 v -0.003 c 1.6643,0.48139 3.1602,-0.0902 4.084,-0.65235 1.4185,-0.86257 2.4516,-2.09897 3.4785,-3.47851 30.4809,-8.24637 62.2312,-16.667 87.25591,-28.99803 l -5.46101,92.22271 c -2.6e-4,0.023 -2.6e-4,0.045 0,0.068 l -1.2363,39.6739 c -2e-4,0.0159 -2e-4,0.031 0,0.047 0,0 -0.1776,15.46899 0.2246,32.33599 0.2011,8.43341 0.5451,17.2171 1.1347,24.63282 0.5896,7.41569 1.271,13.25099 2.7403,16.75969 0.1862,0.4446 -0.055,2.7056 -1.9571,5.92 -1.902,3.21439 -5.0926,7.26059 -9.1933,11.6855 -8.2014,8.84989 -20.0376,19.2726 -32.709,28.7324 -12.6714,9.45989 -26.2078,17.9714 -37.7188,23.0703 -5.7554,2.54949 -11.0077,4.2355 -15.2792,4.80671 -10.7988,1.20359 -10.7988,1.20459 -21.586,0 -4.2716,-0.57121 -9.5238,-2.25722 -15.2793,-4.80671 -11.511,-5.0989 -25.0474,-13.61231 -37.7187,-23.0722 -12.6714,-9.45991 -24.5076,-19.88061 -32.709,-28.7305 -4.1007,-4.42491 -7.2914,-8.47111 -9.1934,-11.6855 -1.902,-3.2144 -2.1432,-5.4754 -1.957,-5.92 1.4693,-3.5087 2.1506,-9.344 2.7402,-16.75969 0.5896,-7.41572 0.9337,-16.19941 1.1348,-24.63282 0.4021,-16.867 0.2246,-32.33599 0.2246,-32.33599 5.3e-4,-0.028 5.3e-4,-0.056 0,-0.084 l -1.873,-39.67959 c 10e-5,-0.01 10e-5,-0.019 0,-0.029 z"
         style="color:#000000;font-style:normal;font-variant:normal;font-weight:normal;font-stretch:normal;font-size:medium;line-height:normal;font-family:sans-serif;font-variant-ligatures:normal;font-variant-position:normal;font-variant-caps:normal;font-variant-numeric:normal;font-variant-alternates:normal;font-feature-settings:normal;text-indent:0;text-align:start;text-decoration:none;text-decoration-line:none;text-decoration-style:solid;text-decoration-color:#000000;letter-spacing:normal;word-spacing:normal;text-transform:none;writing-mode:lr-tb;direction:ltr;text-orientation:mixed;dominant-baseline:auto;baseline-shift:baseline;text-anchor:start;white-space:normal;shape-padding:0;clip-rule:nonzero;display:inline;overflow:visible;visibility:visible;opacity:1;isolation:auto;mix-blend-mode:normal;color-interpolation:sRGB;color-interpolation-filters:linearRGB;solid-color:#000000;solid-opacity:1;vector-effect:none;fill:#7531a8;fill-opacity:1;fill-rule:nonzero;stroke:none;stroke-width:4.76249981;stroke-linecap:round;stroke-linejoin:round;stroke-miterlimit:4;stroke-dasharray:none;stroke-dashoffset:0;stroke-opacity:1;color-rendering:auto;image-rendering:auto;shape-rendering:auto;text-rendering:auto;enable-background:accumulate" />
      <path
         inkscape:export-ydpi="38.90226"
         inkscape:export-xdpi="38.90226"
         sodipodi:nodetypes="cssscc"
         inkscape:connector-curvature="0"
         d="m 619.16688,162.29316 c 4.2465,-3.75904 68.4978,-8.97283 93.4447,-2.67584 22.2215,5.60907 17.7805,-17.90964 16.5901,-27.16476 -2.4323,-18.91112 -43.8664,-70.537311 -64.1286,-68.837811 -2.314,0.1941 -1.6255,2.7382 0.2472,4.4178 46.5465,67.068511 -4.529,71.193611 -38.3863,87.800711"
         style="display:inline;fill:#7531a8;fill-opacity:1;stroke:none;stroke-width:0.26458332px;stroke-linecap:butt;stroke-linejoin:miter;stroke-opacity:1"
         id="path9396" />
    </g>
  </g>
</svg>
