<?xml version="1.0" encoding="UTF-8" standalone="no"?>
<!-- Created with Inkscape (http://www.inkscape.org/) -->

<svg
   xmlns:dc="http://purl.org/dc/elements/1.1/"
   xmlns:cc="http://creativecommons.org/ns#"
   xmlns:rdf="http://www.w3.org/1999/02/22-rdf-syntax-ns#"
   xmlns:svg="http://www.w3.org/2000/svg"
   xmlns="http://www.w3.org/2000/svg"
   xmlns:xlink="http://www.w3.org/1999/xlink"
   xmlns:sodipodi="http://sodipodi.sourceforge.net/DTD/sodipodi-0.dtd"
   xmlns:inkscape="http://www.inkscape.org/namespaces/inkscape"
   width="3652.9822"
   height="765.14703"
   viewBox="0 0 966.51821 202.44514"
   version="1.1"
   id="svg5387"
   inkscape:version="0.92.2 (5c3e80d, 2017-08-06)"
   sodipodi:docname="AEICSHOP.svg"
   inkscape:export-filename="C:\Users\LordAzyks\Documents\Creative\AEIC\AEICSHOP.png"
   inkscape:export-xdpi="43.486027"
   inkscape:export-ydpi="43.486027">
  <defs
     id="defs5381">
    <linearGradient
       inkscape:collect="always"
       id="linearGradient849">
      <stop
         style="stop-color:#362c6d;stop-opacity:1"
         offset="0"
         id="stop845" />
      <stop
         style="stop-color:#00c59d;stop-opacity:1"
         offset="1"
         id="stop847" />
    </linearGradient>
    <filter
       inkscape:collect="always"
       style="color-interpolation-filters:sRGB"
       id="filter841"
       x="-0.024"
       width="1.048"
       y="-0.024"
       height="1.048">
      <feGaussianBlur
         inkscape:collect="always"
         stdDeviation="5.1"
         id="feGaussianBlur843" />
    </filter>
    <linearGradient
       inkscape:collect="always"
       xlink:href="#linearGradient849"
       id="linearGradient851"
       x1="-904.73688"
       y1="135.15237"
       x2="-24.552229"
       y2="244.93523"
       gradientUnits="userSpaceOnUse" />
  </defs>
  <sodipodi:namedview
     id="base"
     pagecolor="#ffffff"
     bordercolor="#666666"
     borderopacity="1.0"
     inkscape:pageopacity="0.0"
     inkscape:pageshadow="2"
     inkscape:zoom="0.35"
     inkscape:cx="1789.2507"
     inkscape:cy="-9.6502315"
     inkscape:document-units="mm"
     inkscape:current-layer="layer1"
     showgrid="false"
     fit-margin-top="300"
     fit-margin-left="5"
     fit-margin-right="5"
     fit-margin-bottom="5"
     inkscape:pagecheckerboard="true"
     inkscape:snap-global="true"
     inkscape:window-width="1920"
     inkscape:window-height="1017"
     inkscape:window-x="-9"
     inkscape:window-y="-9"
     inkscape:window-maximized="1"
     units="px" />
  <metadata
     id="metadata5384">
    <rdf:RDF>
      <cc:Work
         rdf:about="">
        <dc:format>image/svg+xml</dc:format>
        <dc:type
           rdf:resource="http://purl.org/dc/dcmitype/StillImage" />
        <dc:title></dc:title>
      </cc:Work>
    </rdf:RDF>
  </metadata>
  <g
     inkscape:label="Calque 1"
     inkscape:groupmode="layer"
     id="layer1"
     transform="translate(956.60606,-52.301792)"
     style="opacity:1">
    <g
       aria-label="AEIC SH   P"
       style="font-style:italic;font-variant:normal;font-weight:bold;font-stretch:normal;font-size:165.18385315px;line-height:1.25;font-family:Montserrat;-inkscape-font-specification:'Montserrat Bold Italic';letter-spacing:0px;word-spacing:0px;writing-mode:lr-tb;fill:#000000;fill-opacity:1;stroke:none;stroke-width:8.8491354"
       id="text827" />
    <path
       id="rect3075"
       transform="translate(4.25e-6,3.5833334e-6)"
       style="display:inline;opacity:1;fill:url(#linearGradient851);fill-opacity:1;stroke:none;stroke-width:1.21233141;stroke-linecap:round;stroke-linejoin:round;stroke-miterlimit:4;stroke-dasharray:none;stroke-dashoffset:0;stroke-opacity:1;paint-order:markers stroke fill"
       d="m -170.39088,131.67681 c -0.27599,-0.003 -0.3292,0.30564 -0.0769,0.41885 3.24951,1.68516 7.12342,3.48547 8.85523,5.12211 0.20673,0.16378 0.29127,0.20951 0.47877,0.25169 24.71996,5.56449 43.32081,27.4487 43.71214,53.91466 0.20107,13.59897 -4.43956,26.13086 -12.32885,35.95558 -0.81383,-8.30325 -3.79057,-15.67748 -8.15838,-21.09836 1.84786,-0.36772 3.52923,-0.83286 5.01651,-1.39798 3.84515,-1.46093 6.48798,-3.631 7.1724,-6.56079 0.42806,-1.83236 -0.14165,-3.38995 -0.60946,-4.77971 -0.002,-0.003 -0.003,-0.005 -0.004,-0.008 -2.076,-5.96106 -8.72476,-10.62374 -15.12036,-15.96276 -6.39559,-5.33902 -12.54325,-11.26599 -14.02635,-19.31325 -1.35373,-7.34522 -7.43053,-14.40867 -15.0722,-19.17876 -5.73126,-3.57756 -12.37411,-5.87635 -18.67228,-5.90465 v 4.6e-4 c -2.0994,-0.01 -4.16049,0.23318 -6.13671,0.76504 -0.0561,0.015 -0.11012,0.0368 -0.16102,0.0646 -0.52155,0.28629 -0.92936,0.86921 -0.86615,1.44983 0.0569,0.5233 0.35744,0.89386 0.71412,1.23293 5.09891,7.34959 6.73649,12.59194 6.34201,16.39773 -0.39459,3.80756 -2.76714,6.3558 -6.16891,8.4598 -3.40179,2.104 -7.78736,3.67074 -11.89221,5.37309 -4.09579,1.69859 -7.9345,3.52058 -10.25439,6.36096 -0.87715,0.94291 -1.4922,2.02155 -1.77019,3.21148 -0.71363,3.05492 0.84362,6.30457 3.89224,9.43915 3.02912,3.11452 7.59522,6.19683 13.28617,9.04253 0.008,0.005 0.0201,0.013 0.0211,0.0134 0.006,0.003 0.009,0.005 0.01,0.006 0.008,0.004 0.008,0.004 0.01,0.005 0.004,0.002 0.009,0.004 0.0139,0.008 0,5e-5 0.002,0 0.002,0 0.003,0.002 0.0156,0.008 0.0155,0.008 0.0148,0.008 0.006,0.003 0.0138,0.008 0.005,0.002 0.008,0.005 0.0122,0.007 0.002,0 3e-5,0 0.002,0.002 -0.002,0 0.003,0 0.005,0.002 0.002,0.002 0.003,0.002 0.005,0.003 0.002,0.002 0.002,0.002 0.004,0.003 0.003,0.002 0.003,0.002 0.006,0.003 0.0478,0.024 0.14933,0.0749 0.26353,0.13235 0.0574,0.22765 0.13996,0.43394 0.2645,0.61779 0.13521,0.19954 0.35763,0.38435 0.63386,0.42835 0.27623,0.0438 0.53994,-0.0514 0.76173,-0.19774 0.11552,-0.0763 0.2257,-0.21464 0.33742,-0.32321 -0.0704,1.05901 -0.10799,2.10815 -0.11673,3.13646 -9.22297,4.30252 -16.07572,15.18795 -17.40331,28.45795 -7.50392,-9.38407 -12.06217,-21.24393 -12.25379,-34.2029 -0.31497,-21.30111 11.24855,-39.98449 28.57053,-49.74633 0.24939,-0.15643 0.17299,-0.26109 0.12052,-0.47712 -0.4275,-1.75733 -0.99734,-3.14125 -2.07374,-3.51434 -0.071,-0.0162 -0.0766,-0.008 -0.099,0.003 v 4.5e-4 c -18.78343,10.53705 -31.36054,30.77521 -31.02006,53.80148 0.49456,33.44718 28.05853,60.20826 61.50569,59.71371 33.44718,-0.49458 60.20829,-28.05897 59.71373,-61.50616 -0.47454,-32.09214 -25.86997,-58.0288 -57.47139,-59.64079 z m -18.77527,2.92876 v 4.6e-4 c 5.94042,0.051 12.32298,2.22417 17.84401,5.67049 7.38453,4.60958 13.16969,11.47209 14.4111,18.20794 1.58932,8.62361 8.07729,14.78367 14.52549,20.16663 6.44798,5.38272 12.85106,10.07619 14.67846,15.32272 v 0.002 c 0.47286,1.4046 0.89029,2.60411 0.56947,3.9775 -0.53021,2.26958 -2.66589,4.16039 -6.27217,5.53055 -1.60233,0.60883 -3.48028,1.10418 -5.58833,1.47991 -0.402,-0.44658 -0.81387,-0.87798 -1.23577,-1.2926 1.3992,-0.26027 2.72164,-0.57543 3.92185,-0.95235 1.57016,-0.49316 2.93385,-1.0891 3.99952,-1.83035 1.06566,-0.74122 1.85071,-1.64786 2.13861,-2.7481 0.52808,-2.01798 -0.71467,-4.21669 -2.94653,-6.45613 -2.23186,-2.23959 -5.54874,-4.58134 -9.59327,-6.85458 -8.08909,-4.54649 -19.08543,-8.80268 -30.00286,-11.07342 -8.17052,-1.69943 -15.82311,-2.55751 -22.31353,-2.60913 -2.16346,-0.0172 -4.19826,0.0558 -6.07941,0.21644 -3.76228,0.32142 -6.91231,0.99153 -9.28286,2.03799 -2.37053,1.04645 -4.00907,2.50603 -4.50907,4.41671 -0.60128,2.29778 0.50522,4.73193 2.82481,7.04503 2.27936,2.27295 5.77322,4.51236 10.30579,6.61455 -0.0379,0.22021 -0.072,0.43833 -0.10017,0.65186 -0.0606,0.45787 -0.098,0.89581 -0.11224,1.30445 -5.40663,-2.74077 -9.71185,-5.69274 -12.49742,-8.55689 -2.87144,-2.95236 -4.07191,-5.72677 -3.51909,-8.09327 0.21683,-0.92812 0.6908,-1.7769 1.43137,-2.56815 0.0113,-0.0127 0.0223,-0.0255 0.033,-0.0388 1.49549,-1.83925 2.65781,-2.89595 5.4695,-4.22391 11.12537,-2.01372 20.14887,-2.72921 31.94353,-0.32997 9.56551,1.94578 8.0226,-7.61278 7.47283,-9.76796 -0.98178,-6.29024 -13.50848,-22.56587 -21.35407,-24.9648 1.24866,-0.20271 2.53235,-0.29484 3.83755,-0.28366 z m -6.6683,37.76413 v 4.6e-4 c 0.99929,-0.003 2.03049,0.0162 3.08908,0.0542 -0.59571,0.66572 -1.23372,1.51521 -1.63734,2.25039 -0.14973,0.27268 -0.26692,0.52596 -0.33103,0.7814 -0.0641,0.25541 -0.10291,0.59378 0.16268,0.86756 0.26557,0.27379 0.62582,0.25307 0.93788,0.17499 0.0618,-0.0154 0.15654,-0.0749 0.2221,-0.0968 -0.47934,2.22589 -0.55229,3.77127 0.25714,6.32923 -0.54251,-0.0602 -1.06173,-0.0879 -1.53742,-0.10728 -0.016,-0.002 -0.0321,-0.002 -0.048,-0.002 v 0 c -0.62273,0.0285 -0.61462,0.95212 0.009,0.96987 0.56926,0.0233 1.17789,0.0596 1.79814,0.14537 -0.2646,3.87551 0.18808,8.4677 1.37501,11.65166 0.11899,0.31876 0.52056,0.41927 0.7757,0.19417 0.36158,-0.31981 0.63935,-0.4674 0.79086,-0.50579 0.15149,-0.0385 0.15962,-0.0257 0.23441,0.0385 0.14959,0.12854 0.39717,0.74518 0.54081,1.57318 0.14366,0.82808 0.24405,1.84631 0.40987,2.81986 0.14777,0.86753 0.364,1.67812 0.73994,2.34819 -0.6768,1.1684 -1.05865,2.45161 -1.21847,3.79848 -0.0938,0.79073 -0.62396,3.51294 -0.78898,5.43016 -0.0411,0.47933 -0.061,0.91106 -0.0414,1.27461 0.0195,0.36349 0.004,0.66652 0.31257,0.97269 0.15451,0.15286 0.46102,0.22478 0.66678,0.16339 0.20576,-0.0614 0.33817,-0.17584 0.47239,-0.31162 0.0471,-0.0477 0.10826,-0.17067 0.15604,-0.22707 0.11355,0.74638 0.2754,1.49068 0.65565,2.05103 0.14944,0.2202 0.3455,0.41908 0.60994,0.53441 0.26443,0.11546 0.58263,0.12358 0.87704,0.0315 0.58888,-0.1842 1.13508,-0.68003 1.81732,-1.5566 0.008,-0.01 0.0144,-0.0183 0.0211,-0.028 0.45013,-0.67274 0.72269,-1.38879 0.8884,-2.11851 0.65561,1.31749 1.43444,2.33532 2.43059,2.83195 0.69888,0.3484 1.51111,0.4027 2.31622,0.1018 0.77315,-0.28894 1.54492,-0.89471 2.34391,-1.80026 0.39821,-0.2056 0.61987,-0.23949 1.0338,-0.22851 0.43078,0.0115 1.05521,0.0904 2.05765,0.0904 1.00245,0 1.62661,-0.0788 2.05741,-0.0904 0.41391,-0.0109 0.63559,0.023 1.0338,0.22851 0.79899,0.90555 1.57073,1.51132 2.34392,1.80026 0.80508,0.3009 1.61733,0.2466 2.31621,-0.1018 0.99615,-0.49661 1.77521,-1.51446 2.43081,-2.83195 0.16572,0.72972 0.43802,1.44577 0.88819,2.11851 0.007,0.01 0.0135,0.0189 0.0209,0.028 0.68223,0.87658 1.22869,1.3724 1.81755,1.5566 0.29441,0.092 0.61238,0.0838 0.87681,-0.0315 0.26443,-0.11533 0.46097,-0.31421 0.61043,-0.53441 0.38025,-0.56035 0.54184,-1.30466 0.65542,-2.05103 0.0478,0.0563 0.10906,0.17929 0.15626,0.22707 0.13423,0.13578 0.26617,0.25022 0.47192,0.31162 0.20578,0.0614 0.51249,-0.0103 0.66702,-0.16339 0.30911,-0.30617 0.29271,-0.6092 0.31232,-0.97269 0.0195,-0.36356 0,-0.79528 -0.0414,-1.27461 -0.16504,-1.91722 -0.6949,-4.63943 -0.78874,-5.43016 -0.15982,-1.34687 -0.5419,-2.63007 -1.21871,-3.79848 0.37593,-0.67007 0.5924,-1.48066 0.74018,-2.34819 0.16581,-0.97355 0.26597,-1.99178 0.40963,-2.81986 0.14364,-0.828 0.39145,-1.44464 0.54105,-1.57318 0.0747,-0.0642 0.0827,-0.0769 0.23417,-0.0385 0.15149,0.0384 0.42928,0.18598 0.79086,0.50579 0.25518,0.22534 0.65699,0.12478 0.77593,-0.19417 1.19629,-3.20888 1.94839,-7.60313 0.97344,-11.53824 0.008,-0.0186 0.013,-0.0361 0.0201,-0.0547 0.75092,-0.12991 1.49281,-0.17589 2.17793,-0.20387 0.62245,-0.0272 0.61705,-0.94998 -0.006,-0.96987 v 0 c -0.0111,0 -0.0223,0 -0.0336,0.002 -0.54302,0.0221 -1.14273,0.055 -1.76925,0.13497 0.2133,-0.65458 0.36111,-1.25234 0.3985,-1.78937 0.47521,0.1961 0.94597,0.39437 1.41242,0.59456 -0.17707,0.24218 -0.0242,0.58512 0.27419,0.6154 0,0 0.10253,0.0134 0.21476,0.0832 0.11224,0.0698 0.2107,0.14747 0.22495,0.41839 0.0266,0.51784 0.80365,0.47706 0.77595,-0.0406 -0.01,-0.17783 -0.052,-0.33548 -0.11343,-0.47427 0.28623,0.12769 0.57038,0.25577 0.85265,0.38477 -0.0656,0.52771 -0.2418,1.21011 -0.71839,2.33021 -0.15615,0.36671 0.1719,0.75488 0.55952,0.66205 0.4836,-0.11599 0.88453,-0.0211 1.30586,0.25927 0.42132,0.28039 0.83873,0.76492 1.20782,1.38495 0.73826,1.24007 1.27958,3.00203 1.54028,4.58059 0.13037,0.78926 0.19231,1.53429 0.18352,2.13908 -0.01,0.60482 -0.10864,1.078 -0.19915,1.25022 -0.0102,0.0193 -0.0182,0.0321 -0.0253,0.0425 -0.01,-0.005 -0.01,-0.004 -0.0293,-0.0156 -0.16955,-0.0989 -0.57637,-0.52545 -1.05437,-1.34542 -0.26268,-0.45075 -0.95437,-0.22617 -0.90216,0.2929 0.5923,5.92985 0.0246,11.79533 -0.936,15.27301 -0.24015,0.86941 -0.50535,1.58922 -0.77026,2.1107 -0.26492,0.52147 -0.54556,0.82949 -0.69519,0.91231 -0.0747,0.0412 -0.10026,0.0401 -0.13426,0.0336 -0.034,-0.007 -0.0984,-0.0297 -0.19771,-0.12882 -0.19871,-0.19821 -0.48187,-0.68911 -0.73901,-1.4851 -0.14581,-0.44595 -0.7767,-0.44595 -0.9225,0 -0.72887,2.22063 -1.94936,7.55043 -3.19516,11.35353 -0.31145,0.95077 -0.6241,1.80375 -0.92345,2.47581 -0.29935,0.672 -0.60405,1.1665 -0.80175,1.36055 -0.0514,0.0503 -0.0891,0.0754 -0.11106,0.088 -0.005,-0.006 -0.002,-0.004 -0.0156,-0.0195 -0.11894,-0.12779 -0.37677,-0.66716 -0.57397,-1.6139 -0.0927,-0.43831 -0.67909,-0.52767 -0.89813,-0.13687 -1.39436,2.5045 -3.79724,7.69276 -5.78935,11.19252 -0.498,0.87494 -0.9698,1.6431 -1.38471,2.22696 -0.41491,0.58387 -0.7989,0.98233 -0.98359,1.09465 -0.004,0.005 -0.005,0.005 -0.009,0.005 -0.0862,-0.20678 -0.17179,-0.85191 -0.11746,-1.87627 0.0225,-0.42921 -0.48271,-0.67377 -0.80531,-0.38974 -0.92682,0.81656 -1.54224,1.72351 -2.28092,2.38061 -0.73868,0.65707 -1.56855,1.1084 -3.08977,1.1084 -1.52126,0 -2.35136,-0.45133 -3.09005,-1.1084 -0.73867,-0.6571 -1.35411,-1.56405 -2.28094,-2.38061 -0.32259,-0.28362 -0.82746,-0.0393 -0.80506,0.38974 0.0543,1.02436 -0.0314,1.66949 -0.11767,1.87627 -0.004,0 -0.005,0 -0.009,-0.005 -0.18468,-0.11232 -0.5687,-0.51078 -0.98359,-1.09465 -0.41491,-0.58386 -0.88668,-1.35202 -1.38471,-2.22696 -1.99211,-3.49976 -4.395,-8.68802 -5.78936,-11.19252 -0.21891,-0.39125 -0.80589,-0.30182 -0.89836,0.13687 -0.19718,0.94674 -0.45478,1.48611 -0.57372,1.6139 -0.0147,0.0147 -0.0109,0.0135 -0.0156,0.0195 -0.0219,-0.0127 -0.06,-0.0377 -0.11129,-0.088 -0.19767,-0.19405 -0.50214,-0.68855 -0.8015,-1.36055 -0.29937,-0.67206 -0.61199,-1.52504 -0.92346,-2.47581 -1.24583,-3.8031 -2.4663,-9.1329 -3.19516,-11.35353 -0.14559,-0.44643 -0.77715,-0.44643 -0.92274,0 -0.25713,0.79599 -0.53982,1.28689 -0.73853,1.4851 -0.0993,0.099 -0.16372,0.1224 -0.19771,0.12882 -0.034,0.007 -0.0599,0.009 -0.13473,-0.0336 -0.14963,-0.0829 -0.43006,-0.39084 -0.69496,-0.91231 -0.26491,-0.52148 -0.53011,-1.24129 -0.77026,-2.1107 -0.96057,-3.47768 -1.52854,-9.34316 -0.93625,-15.27301 0.0517,-0.51854 -0.639,-0.74282 -0.90189,-0.2929 -0.45262,0.77642 -0.83695,1.20255 -1.02505,1.32672 -0.0245,0.0163 -0.0438,0.0267 -0.0581,0.0338 -0.0688,-0.10387 -0.18623,-0.49273 -0.215,-1.01817 -0.0288,-0.52817 0.005,-1.19849 0.10015,-1.92575 0.19225,-1.45454 0.63697,-3.14207 1.27817,-4.46716 0.64119,-1.32509 1.46839,-2.21942 2.28685,-2.3451 0.35603,-0.0548 0.53043,-0.46465 0.32296,-0.75915 -0.9283,-1.31502 -1.06082,-4.4095 -0.53087,-7.36515 0.0702,-0.39277 -0.33715,-0.69776 -0.69423,-0.51972 -0.26636,0.13295 -0.36707,0.1462 -0.49204,0.17923 0.0131,-0.0559 0.003,-0.0439 0.0298,-0.11578 0.0859,-0.2264 0.22958,-0.51934 0.4075,-0.83917 0.35584,-0.63962 0.8469,-1.39094 1.29332,-2.06594 0.42277,-0.63925 0.79719,-1.19248 1.01224,-1.58644 0.0539,-4.6e-4 0.10667,-8.9e-4 0.16077,-0.002 z m 4.38689,0.11034 v 0 c 5.56609,0.27959 11.8505,1.09522 18.48119,2.47439 1.54063,0.32044 3.08423,0.68256 4.6213,1.07902 -0.56925,0.25757 -1.00082,0.53493 -1.47729,0.89173 h -0.002 c -0.16714,0.12565 -0.26269,0.32697 -0.25147,0.53797 3e-5,0 0,4.6e-4 0,8.9e-4 0.0207,0.40258 0.0735,0.82794 0.25882,1.22204 0.19589,0.41656 0.59803,0.79206 1.14769,0.84248 0.031,0.003 0.0635,0.005 0.0959,0.003 0.002,-4.5e-4 0.002,-4.5e-4 0.003,-8.9e-4 0.40885,-0.0271 1.03674,-0.0165 1.78037,0.01 0.0929,0.004 0.18394,-0.027 0.25644,-0.0854 0.95976,-0.77141 2.17069,-1.23321 3.4954,-1.23505 0.003,-4.6e-4 0.006,-4.6e-4 0.009,-9e-4 h 0.002 c 1.27886,4.6e-4 2.45794,0.4291 3.40801,1.15054 0.0833,0.0631 0.18825,0.0899 0.29149,0.0744 0.212,-0.0311 0.42314,-0.0653 0.62961,-0.10678 0.28356,-0.0569 0.39611,-0.0783 0.51948,-0.13094 0.01,-0.005 0.0143,-0.008 0.0224,-0.0111 1.22126,0.44284 2.42343,0.90257 3.60242,1.37596 0.005,0.5252 -0.16946,1.37228 -0.50861,2.38062 -0.83209,0.18936 -1.68257,0.49361 -2.49238,0.99637 -0.28124,-2.77611 -2.63402,-4.95208 -5.48272,-4.95208 -2.87397,0 -5.24219,2.21499 -5.48864,5.02645 -0.29642,-0.003 -0.59942,0 -0.89765,-0.002 h -0.004 c -0.50917,0.01 -0.6484,-0.0855 -0.7525,-0.19677 -0.10415,-0.11136 -0.18863,-0.34356 -0.33148,-0.67197 -0.14287,-0.32847 -0.38169,-0.74634 -0.85173,-1.03096 -0.46897,-0.28402 -1.11841,-0.43125 -2.07186,-0.42125 -0.95348,-0.0101 -1.60266,0.13723 -2.07162,0.42125 -0.47004,0.28462 -0.70908,0.70249 -0.85193,1.03096 -0.14288,0.32841 -0.22739,0.56061 -0.3315,0.67197 -0.10413,0.11138 -0.24337,0.20549 -0.75251,0.19677 h -0.004 c -0.29825,0.002 -0.60121,-0.002 -0.89765,0.002 -0.24645,-2.81144 -2.61463,-5.02645 -5.48863,-5.02645 h -0.002 c -2.84862,0 -5.20136,2.17583 -5.48272,4.95185 -0.8927,-0.55422 -1.83505,-0.86776 -2.74742,-1.05131 -1.07504,-3.1103 -0.88855,-4.25799 -0.18846,-7.19633 0.0974,-0.40969 -0.33751,-0.74049 -0.70633,-0.53727 -0.33678,0.18582 -0.54291,0.26007 -0.72077,0.32014 0.043,-0.10763 0.0707,-0.19774 0.14894,-0.34026 0.46865,-0.85363 1.5082,-2.12014 2.08417,-2.66121 z m 1.8043,0.47216 c -0.36113,-0.002 -0.67298,0.01 -0.93931,0.0296 -0.0148,-4.6e-4 -0.0299,-4.6e-4 -0.0448,9e-4 -0.008,8.9e-4 -0.0117,0.003 -0.0184,0.003 v -8.9e-4 c -0.005,4.6e-4 -0.009,0.002 -0.0128,0.003 -0.16573,0.0148 -0.31618,0.033 -0.45484,0.0666 v 8.9e-4 c -0.0881,0.0214 -0.37422,0.0935 -0.54461,0.32605 -0.007,0.009 -0.021,0.0292 -0.0373,0.0573 0,4.6e-4 -0.002,4.6e-4 -0.002,9e-4 -0.17075,0.29574 -0.39115,0.79693 -0.35399,1.46001 0.037,0.65997 0.31447,1.44349 0.98075,2.37423 0,4.6e-4 0,4.6e-4 0.002,8.8e-4 0.002,4.6e-4 0,9e-4 0.002,0.002 0.0213,0.0299 0.0442,0.0565 0.0686,0.0811 0.002,4.6e-4 0.002,9e-4 0.003,0.002 0.68098,0.67056 1.67898,0.96307 2.7905,1.11335 0.20866,0.0283 0.4217,0.0493 0.63529,0.0667 0.10402,0.009 0.20703,-0.0255 0.28579,-0.094 0.9017,-0.78027 2.05076,-1.28229 3.32633,-1.36458 0.004,-4.6e-4 0.008,-4.6e-4 0.0106,-8.9e-4 1.32216,-0.0828 2.55991,0.30153 3.5669,1.01012 0.076,0.0534 0.16855,0.0777 0.26094,0.0686 0.74054,-0.0724 1.36684,-0.12263 1.77658,-0.12172 0.002,0 0.002,0 0.003,0 0.0333,0 0.0667,-0.004 0.098,-0.01 0.54438,-0.0859 0.92095,-0.48571 1.08968,-0.9135 0.15959,-0.40459 0.18409,-0.83231 0.17901,-1.23507 -0.002,-0.21528 -0.11065,-0.40943 -0.28367,-0.52305 h -0.002 c -1.70909,-1.11699 -4.9893,-1.71962 -7.9943,-2.08393 -1.50351,-0.1823 -2.92461,-0.28779 -4.01181,-0.31303 v -4.6e-4 c -0.13138,-0.003 -0.25736,-0.005 -0.37768,-0.006 z m -0.0179,0.77616 c 0.11996,4.6e-4 0.24607,0.003 0.37766,0.006 v 4.7e-4 c 1.05258,0.0244 2.45566,0.1278 3.93653,0.30734 2.92244,0.3543 6.13725,1.021 7.58536,1.92718 -0.002,0.32196 -0.0247,0.63033 -0.11485,0.85882 -0.0901,0.22807 -0.25156,0.39491 -0.48918,0.43212 h -0.002 c -0.44417,4.6e-4 -1.04236,0.0515 -1.72637,0.11744 -1.10995,-0.73688 -2.44512,-1.15732 -3.87308,-1.07522 -0.007,-4.6e-4 -0.0104,-4.6e-4 -0.0198,-4.6e-4 -0.007,0 -0.0135,4.6e-4 -0.0201,9e-4 -1.37924,0.0881 -2.61676,0.63458 -3.61782,1.44841 -0.16352,-0.0146 -0.32685,-0.0293 -0.47925,-0.0499 -1.03098,-0.1394 -1.85758,-0.42016 -2.34179,-0.89268 -0.5983,-0.83964 -0.80378,-1.47837 -0.83039,-1.9537 -0.0263,-0.46802 0.1176,-0.79165 0.24578,-1.01579 0.0275,-0.0402 -0.0443,0.005 0.0987,-0.0301 0.0869,-0.0211 0.21038,-0.0392 0.3682,-0.0523 0.23601,-0.0199 0.54127,-0.0295 0.90119,-0.0278 z m 22.59813,2.64368 v 0 c 1.24552,0.33787 2.48487,0.6987 3.71395,1.07879 -1.32044,0.0685 -2.52573,0.55835 -3.51671,1.31131 -0.68671,-0.0221 -1.28732,-0.0344 -1.73065,-0.007 0,0 0,-1e-5 -0.002,0 -0.23954,-0.0219 -0.41159,-0.17779 -0.51593,-0.3997 -0.1053,-0.22388 -0.14908,-0.53213 -0.1712,-0.85622 0.65699,-0.48678 1.14776,-0.77995 2.22126,-1.12779 z m -16.71903,3.80299 c 2.57309,3e-5 4.65912,1.96044 4.6592,4.37884 4e-5,2.41849 -2.08603,4.37904 -4.6592,4.37907 -2.57322,0 -4.65926,-1.96053 -4.6592,-4.37907 4e-5,-2.41846 2.08606,-4.37891 4.6592,-4.37884 z m 20.69084,0 c 2.57318,0 4.65935,1.96038 4.65943,4.37884 3e-5,2.41854 -2.08618,4.37914 -4.65943,4.37907 -2.57313,-3e-5 -4.65902,-1.96058 -4.65895,-4.37907 3e-5,-2.4184 2.08589,-4.37881 4.65895,-4.37884 z m -31.92552,1.22819 c -0.005,0 -0.01,4.6e-4 -0.0132,4.6e-4 -0.006,4.6e-4 -0.0105,4.6e-4 -0.0158,9e-4 -0.01,4.6e-4 -0.0181,0.002 -0.0272,0.003 0,0 -0.26919,0.0272 -0.5389,0.19485 -0.26971,0.16768 -0.56399,0.5237 -0.59102,1.03736 -0.0281,0.51808 0.74959,0.55889 0.77593,0.0406 0.0143,-0.27093 0.11272,-0.3484 0.22497,-0.41816 0.11223,-0.0698 0.21499,-0.0832 0.21499,-0.0832 0.50691,-0.0292 0.47807,-0.78538 -0.0296,-0.77594 z m 9.7008,0.39615 c -0.12034,4e-5 -0.24182,0.005 -0.36395,0.0158 -0.48851,0.0442 -0.98925,0.18612 -1.48369,0.50649 -0.44032,0.2806 -0.0125,0.93932 0.4229,0.65115 0.77058,-0.49929 1.50076,-0.4455 2.34962,-0.30948 0.51694,0.0895 0.6417,-0.69096 0.12264,-0.76717 -0.3348,-0.0538 -0.68654,-0.0971 -1.04752,-0.0968 z m 23.75884,0 c -0.36098,-4.6e-4 -0.71271,0.0432 -1.04752,0.0968 -0.50207,0.0883 -0.3822,0.83947 0.12242,0.76717 0.84885,-0.13602 1.57929,-0.18981 2.34983,0.30948 0.43719,0.29661 0.87155,-0.3726 0.42266,-0.65115 -0.49444,-0.32037 -0.99518,-0.46239 -1.48368,-0.50649 -0.12213,-0.011 -0.24337,-0.0158 -0.36371,-0.0158 z m -11.87941,0.85999 c 0.85674,0 1.31686,0.13708 1.56987,0.2903 0.25302,0.15321 0.34955,0.32597 0.46362,0.58816 0.11405,0.2622 0.20758,0.6213 0.51287,0.94786 0.30535,0.32656 0.80634,0.51656 1.47776,0.50506 0.29472,0 0.59271,0.002 0.88581,-0.002 0.24657,2.81135 2.61449,5.02645 5.48841,5.02645 2.87339,0 5.24105,-2.214 5.48841,-5.02456 0.10487,0.005 0.20838,-0.025 0.29503,-0.0843 0.61904,-0.42016 1.28113,-0.70091 1.9518,-0.89243 0.87689,3.46261 0.26535,7.44677 -0.77049,10.47695 -0.19337,-0.11743 -0.395,-0.30555 -0.58889,-0.3547 -0.39339,-0.0997 -0.82215,0.002 -1.10459,0.24366 -0.56491,0.48539 -0.71216,1.25908 -0.86544,2.14264 -0.15328,0.88352 -0.252,1.89788 -0.40964,2.82342 -0.10261,0.60234 -0.24923,1.12044 -0.41768,1.57034 -0.26037,-0.32499 -0.52646,-0.64798 -0.85764,-0.94358 -0.39865,-0.41939 -0.98914,-0.59255 -1.77232,-0.7499 -0.78848,-0.15836 -1.77837,-0.26121 -2.93137,-0.33173 -2.30604,-0.14118 -5.25847,-0.14846 -8.41482,-0.14846 -3.15638,0 -6.10879,0.008 -8.41482,0.14846 -1.153,0.0705 -2.14314,0.17337 -2.93162,0.33173 -0.78318,0.15735 -1.37366,0.33051 -1.77231,0.7499 -0.33117,0.2956 -0.59728,0.61859 -0.85763,0.94358 -0.16848,-0.4499 -0.31484,-0.968 -0.41745,-1.57034 -0.15764,-0.92554 -0.2566,-1.9399 -0.40988,-2.82342 -0.15328,-0.88356 -0.30051,-1.65725 -0.86544,-2.14264 -0.28246,-0.24274 -0.71119,-0.34337 -1.1046,-0.24366 -0.19054,0.0483 -0.38906,0.23407 -0.57894,0.34831 -0.96513,-2.92969 -1.38952,-7.06494 -1.16876,-10.57098 0.80199,0.18902 1.60081,0.49178 2.33872,0.99261 0.0867,0.0587 0.19034,0.0877 0.29502,0.0826 0.24647,2.81143 2.61463,5.02644 5.48865,5.02644 2.87392,0 5.24162,-2.2151 5.48817,-5.02644 0.2931,0.002 0.59108,0.002 0.8858,0.002 0.67142,0.0114 1.17268,-0.1785 1.478,-0.50505 0.3053,-0.32657 0.39884,-0.68568 0.51287,-0.94787 0.11407,-0.26219 0.21038,-0.43496 0.4634,-0.58816 0.25301,-0.15322 0.7134,-0.2903 1.57012,-0.2903 z m -11.97533,0.53584 c -0.076,0.002 -0.14947,0.004 -0.2207,0.008 -1.13951,0.0555 -1.71805,0.43756 -2.00222,0.56096 -0.49671,0.19693 -0.17446,0.94 0.30875,0.71199 0.42946,-0.18643 0.73721,-0.44886 1.73136,-0.49724 0.99417,-0.0484 2.64394,0.15595 5.46901,1.07381 0.50467,0.18583 0.75747,-0.59104 0.24009,-0.7378 -2.69696,-0.87624 -4.38671,-1.13554 -5.52629,-1.11883 z m 23.73019,0 c -1.13447,0.0178 -2.77745,0.29733 -5.30584,1.11881 -0.51899,0.14574 -0.2656,0.92511 0.23987,0.73782 2.82508,-0.91786 4.47482,-1.12219 5.46899,-1.07381 0.99413,0.0484 1.30213,0.3108 1.73159,0.49723 0.48322,0.228 0.80546,-0.51505 0.30877,-0.712 -0.28417,-0.12338 -0.86299,-0.50549 -2.00248,-0.56095 -0.0712,-0.004 -0.14471,-0.007 -0.22068,-0.008 -0.0712,-0.002 -0.14459,-0.002 -0.22022,0 z m -13.05884,0.39258 c -0.26899,0.0109 -0.47767,0.23875 -0.46504,0.50767 0,0 0.0545,1.82755 -0.11176,3.91024 -0.16622,2.08249 -0.6347,4.43577 -1.34448,5.272 -0.50842,0.56396 -0.62148,1.49054 -0.12689,2.27951 0.49892,0.79586 1.58297,1.36781 3.34693,1.38613 h 0.006 0.006 c 1.76399,-0.0183 2.8487,-0.59027 3.34765,-1.38613 0.49897,-0.79582 0.37943,-1.7322 -0.1404,-2.29467 l 0.0137,0.0151 c -0.7099,-0.83601 -1.17845,-3.18931 -1.3447,-5.272 -0.16624,-2.08269 -0.11176,-3.91024 -0.11176,-3.91024 0.012,-0.27334 -0.20425,-0.50253 -0.47784,-0.50647 -0.26782,-0.004 -0.48816,0.20998 -0.49226,0.47781 0,0 -0.0565,1.8718 0.1146,4.01609 0.17115,2.14432 0.48813,4.54597 1.57248,5.823 l 0.007,0.009 0.008,0.008 c 0.18804,0.20351 0.30429,0.68286 0.0301,1.12022 -0.27385,0.43683 -0.97095,0.91409 -2.53024,0.9315 -1.55931,-0.0173 -2.25598,-0.4947 -2.52981,-0.9315 -0.2742,-0.43735 -0.15799,-0.9167 0.0301,-1.12022 l 0.008,-0.008 0.007,-0.009 c 1.08437,-1.27703 1.40132,-3.67868 1.57247,-5.823 0.17118,-2.14429 0.1146,-4.01609 0.1146,-4.01609 -0.004,-0.27345 -0.2318,-0.49017 -0.50505,-0.47901 z m -5.68233,1.90824 c -0.0611,-0.002 -0.12155,0.0126 -0.1764,0.0397 l -1.39679,0.66181 c -0.49016,0.21321 -0.14326,0.94556 0.33221,0.70136 l 1.39702,-0.6611 c 0.37766,-0.17178 0.25883,-0.73658 -0.15604,-0.74161 z m 13.961,0 c -0.40907,0.0163 -0.51765,0.57275 -0.14469,0.74161 l 1.39704,0.6611 c 0.47442,0.24129 0.81956,-0.48685 0.33244,-0.70135 l -1.39703,-0.66181 c -0.0583,-0.0287 -0.12287,-0.0424 -0.18776,-0.0396 z m -23.27062,0.91708 c -0.048,-0.002 -0.0959,0.007 -0.14112,0.0229 l -1.49505,0.51428 c -0.49681,0.16502 -0.24017,0.91016 0.25288,0.73426 l 1.49506,-0.51429 c 0.4154,-0.13547 0.32506,-0.74755 -0.11177,-0.75722 z m 32.58164,0 c -0.43115,0.0212 -0.51094,0.62467 -0.10013,0.75723 l 1.49503,0.51429 c 0.49305,0.17589 0.74968,-0.56925 0.25289,-0.73426 l -1.49506,-0.51429 c -0.0366,-0.0132 -0.0749,-0.0211 -0.11388,-0.023 -0.0129,-0.002 -0.0259,-0.002 -0.0389,0 z m -0.65612,1.84051 c -0.388,-0.01 -0.54729,0.49444 -0.22493,0.71059 l 1.83814,1.27437 c 0.42802,0.30939 0.88216,-0.34617 0.44208,-0.63813 l -1.83719,-1.27461 c -0.0636,-0.0455 -0.13978,-0.0706 -0.2181,-0.0721 z m -31.23055,0 h -0.0388 c -0.0743,0.004 -0.14574,0.0286 -0.20624,0.0715 l -1.83767,1.2746 c -0.44007,0.29198 0.014,0.94754 0.44207,0.63813 l 1.8384,-1.27436 c 0.31028,-0.20827 0.17601,-0.69171 -0.19725,-0.71012 z m -8.02887,6.85606 c -0.1889,0.009 -0.34467,0.15063 -0.3689,0.33814 0,0 -0.79511,5.5427 1.73373,12.73256 0.16356,0.50521 0.92128,0.23834 0.73213,-0.25786 -2.47085,-7.02492 -1.69703,-12.36437 -1.69703,-12.36437 0.0364,-0.23128 -0.13865,-0.44195 -0.37269,-0.44847 z m 23.63031,4.60355 v 0 c 3.15454,0 6.09764,0.01 8.35512,0.14681 1.12877,0.0691 2.08735,0.17219 2.80021,0.31538 0.71283,0.14325 1.1713,0.36823 1.26442,0.46767 0.0105,0.0111 0.0216,0.0219 0.0332,0.032 1.55962,1.37966 2.17528,3.09914 2.41212,5.09513 0.11168,0.9411 0.6295,3.58183 0.78588,5.39864 0.0349,0.40653 0.0422,0.7441 0.0341,1.01961 -0.14729,-0.19233 -0.28761,-0.35997 -0.52022,-0.7724 -0.23023,-0.40718 -0.84657,-0.28499 -0.90405,0.17925 -0.12809,1.05034 -0.35041,2.39975 -0.66843,2.86841 -0.0795,0.11715 -0.14836,0.16973 -0.19488,0.18989 -0.0466,0.0196 -0.0843,0.0312 -0.19912,-0.005 -0.2279,-0.0713 -0.7086,-0.42078 -1.32884,-1.21352 -1.5408,-2.3205 -0.62042,-5.49375 -0.67838,-8.1219 0,-0.023 -0.003,-0.046 -0.007,-0.0686 -0.15406,-0.93145 -0.39028,-1.63212 -0.74563,-2.16633 -0.35535,-0.53418 -0.84171,-0.88171 -1.3821,-1.06744 -1.0808,-0.37144 -2.33269,-0.21284 -3.87212,-0.21284 h -0.005 c -2.2684,0.0182 -3.55079,0.30164 -5.18083,0.30164 -1.63004,0 -2.91267,-0.28334 -5.18104,-0.30164 h -0.005 c -1.53944,0.002 -2.79133,-0.1586 -3.87213,0.21284 -0.5404,0.18573 -1.02653,0.53326 -1.38186,1.06744 -0.35535,0.53421 -0.59157,1.23488 -0.74564,2.16633 -0.004,0.0227 -0.007,0.0456 -0.007,0.0686 -0.0581,2.62815 0.8624,5.8014 -0.67839,8.1219 -0.62024,0.79274 -1.10093,1.14221 -1.32882,1.21352 -0.11484,0.0362 -0.15262,0.0251 -0.19913,0.005 -0.0466,-0.0203 -0.11538,-0.0727 -0.19488,-0.18989 -0.31801,-0.46866 -0.54035,-1.81807 -0.66844,-2.86841 -0.0575,-0.46422 -0.6738,-0.58641 -0.90404,-0.17925 -0.23262,0.41243 -0.37316,0.58007 -0.52044,0.7724 -0.009,-0.27551 -0.002,-0.61308 0.0344,-1.01961 0.15637,-1.81681 0.67418,-4.45754 0.78589,-5.39864 0.23684,-1.99599 0.85249,-3.71547 2.4121,-5.09513 0.0116,-0.0101 0.0224,-0.0208 0.033,-0.032 0.0931,-0.0994 0.55184,-0.32442 1.26466,-0.46767 0.71285,-0.14319 1.67146,-0.24632 2.80022,-0.31538 2.25748,-0.1381 5.20056,-0.14681 8.35515,-0.14681 z m -6.81323,3.0391 c 0.48542,0.004 1.02869,0.0171 1.62457,0.0171 h 0.006 c 2.18507,0.018 3.44652,0.30165 5.18391,0.30165 1.73737,0 2.99883,-0.28378 5.18389,-0.30165 1.59375,0.002 2.80797,-0.0978 3.55743,0.15982 0.37475,0.1288 0.64492,0.31764 0.89054,0.68692 0.10806,0.16242 0.208,0.36746 0.29884,0.6154 -0.0894,0.19166 -0.37138,0.38217 -1.17114,0.36843 -1.13278,0.019 -1.22847,-0.37009 -1.2611,-0.37009 -0.0329,0.002 -0.15432,0.3718 -1.25615,0.35257 -1.10221,0.0185 -1.22328,-0.35162 -1.26181,-0.35162 -0.0385,0 -0.1796,0.35266 -1.2552,0.33432 -1.07617,0.018 -1.21678,-0.33488 -1.26229,-0.3348 -0.0454,1e-4 -0.20434,0.3354 -1.25471,0.31753 -0.87458,0.0147 -1.13109,-0.21549 -1.19267,-0.42385 0,0 -0.0123,-0.0579 -0.0341,0 -0.0617,0.20848 -0.31824,0.43875 -1.19268,0.42409 -1.05039,0.018 -1.20893,-0.31744 -1.25449,-0.31753 -0.0455,-9e-5 -0.18634,0.35267 -1.26252,0.3348 -1.07559,0.0185 -1.21666,-0.33456 -1.25519,-0.33456 -0.0386,0 -0.15963,0.37041 -1.26183,0.35208 -1.10183,0.019 -1.2235,-0.35279 -1.25613,-0.35279 -0.0329,-0.002 -0.12833,0.38864 -1.2611,0.36985 -0.79505,0.0136 -1.07832,-0.17436 -1.16948,-0.36489 0.0913,-0.24956 0.19215,-0.45572 0.30071,-0.61894 0.24564,-0.36928 0.51486,-0.55812 0.88959,-0.68692 0.37475,-0.12879 0.86565,-0.16907 1.46216,-0.17641 h 0.46598 z m 16.86634,5.5133 c -0.0352,0.51849 -0.0615,1.05042 -0.0579,1.58881 -0.75325,2.03881 -1.71506,3.50109 -2.67636,3.98032 -0.48397,0.2413 -0.95811,0.28046 -1.54382,0.0616 -0.58569,-0.21892 -1.27877,-0.72748 -2.04534,-1.61889 -0.0392,-0.0455 -0.0866,-0.0836 -0.13971,-0.11175 -0.55256,-0.29441 -1.04243,-0.37271 -1.55827,-0.35896 -0.51582,0.0136 -1.08086,0.0902 -2.0316,0.0902 -0.95075,0 -1.51602,-0.0766 -2.03184,-0.0902 -0.51581,-0.0137 -1.00547,0.0645 -1.55804,0.35896 -0.0531,0.0284 -0.10046,0.0661 -0.1397,0.11175 -0.76656,0.89141 -1.45964,1.39997 -2.04534,1.61889 -0.58569,0.2189 -1.05984,0.17974 -1.54381,-0.0616 -0.9613,-0.47923 -1.92312,-1.94151 -2.67637,-3.98032 0.004,-0.53702 -0.0228,-1.06754 -0.0579,-1.58479 1.14057,1.45062 3.90177,2.64628 10.05192,2.79616 h -0.002 c 6.1554,-0.15001 8.91597,-1.34764 10.05477,-2.79995 z m 8.13351,3.93083 c -0.19934,0.003 -0.36471,0.15475 -0.38264,0.35328 -0.40343,3.85138 -1.02629,6.20315 -1.61678,7.6339 -0.59045,1.43075 -1.12978,1.93005 -1.41927,2.14764 -0.43372,0.30798 0.0502,0.95152 0.46647,0.62036 0.38934,-0.29262 1.03861,-0.94295 1.66979,-2.47225 0.63116,-1.52937 1.26355,-3.94799 1.67218,-7.84891 0.0277,-0.23262 -0.1555,-0.43658 -0.38975,-0.43402 z m -20.12493,2.14692 c -0.1282,1e-4 -0.24809,0.0634 -0.32039,0.16931 -1.84688,2.62637 -3.51826,3.44806 -4.70157,3.65781 -1.18331,0.20976 -1.86775,-0.17189 -1.86775,-0.17189 -0.46156,-0.26324 -0.84147,0.44532 -0.36677,0.68406 0,0 0.96221,0.50167 2.36973,0.25217 1.40752,-0.24948 3.27089,-1.23014 5.20189,-3.97605 0.18537,-0.25691 0.002,-0.61568 -0.31514,-0.61541 z m 3.86547,0 c -0.3113,0.01 -0.48573,0.36257 -0.30356,0.61516 1.93101,2.74593 3.79415,3.72658 5.20167,3.97607 1.40753,0.24949 2.36974,-0.25218 2.36974,-0.25218 0.47469,-0.23874 0.0948,-0.9473 -0.36679,-0.68407 0,0 -0.68419,0.38164 -1.8675,0.17191 -1.18331,-0.20977 -2.85492,-1.03151 -4.70182,-3.65782 -0.0744,-0.10918 -0.19958,-0.17288 -0.33174,-0.16907 z m -8.28078,15.18165 c -0.17007,0.002 -0.31931,0.11369 -0.36822,0.27657 -0.25284,0.80255 0.0397,1.67981 0.52378,2.54376 0.48417,0.86395 1.18813,1.73675 1.91273,2.52743 1.4492,1.5813 2.99176,2.83335 2.99176,2.83335 0.40301,0.34099 0.90588,-0.27731 0.48992,-0.60237 0,0 -1.50777,-1.22654 -2.90937,-2.75593 -0.7008,-0.7647 -1.37195,-1.605 -1.80737,-2.38204 -0.4354,-0.77698 -0.607,-1.46813 -0.46125,-1.93072 0.0835,-0.25257 -0.10601,-0.51235 -0.37198,-0.51005 z m 135.685194,-94.37264 q 16.022834,0 27.916072,5.28589 11.8932368,5.28588 18.3354071,15.19691 6.4421702,9.91103 6.4421702,23.12574 0,13.21471 -6.4421702,23.12574 -6.4421703,9.91103 -18.3354071,15.19692 -11.893238,5.28588 -27.916072,5.28588 h -16.683569 v 28.41162 h -38.983389 v -115.6287 z m -2.477757,57.15362 q 7.928825,0 11.893237,-3.46886 3.964413,-3.63405 3.964413,-10.07622 0,-6.44217 -3.964413,-9.91103 -3.964412,-3.63404 -11.893237,-3.63404 H -60.788025 V 192.306 Z M -245.44683,135.15238 v 115.6287 h -38.98339 v -42.61743 h -36.01008 v 42.61743 h -38.98339 v -115.6287 h 38.98339 v 40.9656 h 36.01008 v -40.9656 z m -179.26579,118.27164 q -14.371,0 -28.08126,-3.13849 -13.54507,-3.30368 -22.29982,-8.75474 l 12.55397,-28.41163 q 8.2592,4.79034 18.5006,7.76364 10.24139,2.80813 19.65687,2.80813 8.09401,0 11.56287,-1.48665 3.46886,-1.65184 3.46886,-4.79034 0,-3.63404 -4.62514,-5.45106 -4.45997,-1.81703 -14.86655,-3.96442 -13.37989,-2.80812 -22.29982,-5.94661 -8.91993,-3.30368 -15.52728,-10.57177 -6.60736,-7.43327 -6.60736,-19.98725 0,-10.90213 6.11181,-19.82206 6.1118,-8.91993 18.17022,-14.04063 12.22361,-5.1207 29.56791,-5.1207 11.89324,0 23.29092,2.64294 11.56287,2.47776 20.31762,7.43328 l -11.72806,28.24644 q -17.01393,-8.58956 -32.21085,-8.58956 -15.03173,0 -15.03173,7.26809 0,3.46886 4.45997,5.28588 4.45996,1.65184 14.70136,3.63404 13.21471,2.47776 22.29982,5.78144 9.08511,3.13849 15.69246,10.40658 6.77254,7.26809 6.77254,19.82206 0,10.90214 -6.1118,19.82207 -6.1118,8.75474 -18.33541,14.04062 -12.05842,5.1207 -29.40272,5.1207 z m -155.92065,0 q -18.33541,0 -33.03677,-7.59845 -14.70137,-7.76364 -23.12574,-21.4739 -8.25919,-13.87545 -8.25919,-31.38494 0,-17.50948 8.25919,-31.21974 8.42437,-13.87545 23.12574,-21.47391 14.70136,-7.76364 33.03677,-7.76364 16.84875,0 30.06346,5.94662 13.21471,5.94662 21.80427,17.17912 l -24.6124,21.96946 q -10.73695,-13.54508 -25.27313,-13.54508 -12.2236,0 -19.65687,7.92882 -7.43328,7.76365 -7.43328,20.97835 0,13.21471 7.43328,21.14354 7.43327,7.76364 19.65687,7.76364 14.53618,0 25.27313,-13.54508 l 24.6124,21.96945 q -8.58956,11.23251 -21.80427,17.17913 -13.21471,5.94661 -30.06346,5.94661 z M -698.17964,135.15238 h 38.98339 v 115.6287 h -38.98339 z m -15.16853,86.22598 v 29.40272 h -96.137 v -115.6287 h 93.98961 v 29.40273 h -55.66696 v 13.54508 h 48.89442 v 28.08125 h -48.89442 v 15.19692 z m -150.58831,9.25029 h -43.9389 l -7.76364,20.15243 h -39.64413 l 50.54626,-115.6287 h 38.32266 l 50.54626,115.6287 h -40.30486 z m -10.73695,-28.08125 -11.2325,-29.07236 -11.2325,29.07236 z"
       inkscape:connector-curvature="0" />
  </g>
  <g
     inkscape:groupmode="layer"
     id="layer2"
     inkscape:label="Cache"
     style="display:none"
     transform="translate(715.34869,72.222262)">
    <path
       id="path819"
       transform="matrix(0.26458333,0,0,0.26458333,-3.40625e-6,-3.40625e-6)"
       d="M 256,1 A 255,255 0 0 0 1,256 255,255 0 0 0 256,511 255,255 0 0 0 511,256 255,255 0 0 0 256,1 Z m 11.8418,26.033203 0.0195,0.0293 C 387.29974,33.155064 483.2826,131.18343 485.07614,252.47656 486.94535,378.89114 385.80123,483.07213 259.38669,484.94141 132.97226,486.81057 28.793031,385.66649 26.923828,259.25195 25.636975,172.22353 73.173524,95.731321 144.16602,55.90625 c 0.0847,-0.04158 0.1047,-0.07295 0.37304,-0.01172 4.06829,1.410104 6.22215,6.639373 7.83789,13.28125 0.19831,0.816492 0.4875,1.213456 -0.45507,1.804688 C 86.452974,107.87561 42.749015,178.48991 43.939453,258.99805 c 0.724233,48.97878 17.951228,93.80218 46.3125,129.26953 5.017663,-50.15433 30.918877,-91.29515 65.777347,-107.55664 0.033,-3.88653 0.17337,-7.85096 0.43945,-11.85352 -0.42225,0.41035 -0.83683,0.93233 -1.27344,1.2207 -0.83826,0.5531 -1.83684,0.9136 -2.88086,0.74805 -1.04402,-0.1663 -1.8835,-0.86497 -2.39453,-1.61914 -0.4707,-0.69486 -0.78305,-1.47553 -1,-2.33594 -0.43162,-0.21713 -0.81543,-0.40929 -0.99609,-0.5 -0.0113,-0.004 -0.0121,-0.004 -0.0234,-0.0117 -0.008,-0.004 -0.006,-0.004 -0.0137,-0.0117 -0.008,-0.004 -0.012,-0.002 -0.0195,-0.01 -0.008,-0.008 -0.0271,-0.008 -0.0195,-0.008 -0.007,-0.008 0.002,-0.008 -0.006,-0.008 -0.0159,-0.008 -0.028,-0.0198 -0.0469,-0.0274 -0.0295,-0.0189 0.003,9.4e-4 -0.0527,-0.0293 3.8e-4,0 -0.0473,-0.0237 -0.0586,-0.0312 0,0 -0.008,1.8e-4 -0.008,0 -0.0185,-0.0151 -0.0376,-0.0217 -0.0527,-0.0293 l -0.0371,-0.0195 c -0.004,-0.004 -0.0144,-0.0101 -0.0371,-0.0215 -0.004,-0.002 -0.0498,-0.0319 -0.0801,-0.0508 -21.5091,-10.7554 -38.7662,-22.40632 -50.214844,-34.17773 -11.522343,-11.84723 -17.408122,-24.12963 -14.710937,-35.67578 1.050671,-4.49738 3.37424,-8.57297 6.689453,-12.13672 8.768088,-10.7353 23.277658,-17.62115 38.757808,-24.04102 15.5144,-6.43408 32.08816,-12.35647 44.94532,-20.30859 12.85708,-7.95213 21.82504,-17.58383 23.3164,-31.97461 1.49095,-14.38409 -4.69728,-34.196633 -23.96875,-61.974611 -1.34808,-1.281525 -2.48416,-2.68233 -2.69922,-4.660157 -0.2389,-2.194469 1.30223,-4.398427 3.27344,-5.480468 0.19238,-0.105071 0.39539,-0.187448 0.60742,-0.244141 7.46918,-2.010179 15.26058,-2.92842 23.19532,-2.890625 v -0.002 c 23.8041,0.106961 48.91081,8.79492 70.57226,22.316406 28.8819,18.028687 51.84839,44.724867 56.96485,72.486326 5.60541,30.41484 28.84136,52.81712 53.01367,72.99609 24.17234,20.17898 49.30018,37.80204 57.14648,60.33203 0.004,0.0113 0.008,0.018 0.0156,0.0293 1.7681,5.25264 3.92255,11.139 2.30468,18.06445 -2.58678,11.07323 -12.57652,19.27525 -27.10937,24.79688 -5.62122,2.13589 -11.97495,3.89535 -18.95898,5.28516 16.50825,20.48836 27.75809,48.35787 30.83398,79.74023 29.81779,-37.1328 47.35761,-84.49685 46.59766,-135.89453 -1.4788,-100.02819 -71.78092,-182.739702 -165.21069,-203.770846 -0.70866,-0.15942 -1.02921,-0.33216 -1.81055,-0.951172 -6.54542,-6.185725 -21.18714,-12.990266 -33.46875,-19.359374 -0.95357,-0.427881 -0.75209,-1.595323 0.29102,-1.583985 z m -70.96094,11.072266 v 0.002 c -4.93304,-0.04225 -9.78456,0.306117 -14.50391,1.072266 29.65263,9.066822 76.99637,70.581335 80.70703,94.355475 2.07788,8.14556 7.91093,44.27209 -28.24218,36.91796 -44.57825,-9.06799 -78.68378,-6.36286 -120.73242,1.24805 -10.62686,5.01906 -15.019634,9.0114 -20.67188,15.96289 -0.04044,0.0503 -0.08229,0.0985 -0.125,0.14649 -2.799005,2.99055 -4.590641,6.19917 -5.410156,9.70703 -2.089399,8.94425 2.448094,19.43132 13.300776,30.58984 10.52814,10.82514 26.79987,21.98103 47.23438,32.33985 0.0538,-1.54447 0.19479,-3.19916 0.42383,-4.92969 0.10647,-0.80704 0.23566,-1.63256 0.3789,-2.46485 -17.13097,-7.94528 -30.33626,-16.40737 -38.95117,-24.99804 -8.76695,-8.74243 -12.948333,-17.94243 -10.675779,-26.62696 1.889769,-7.22146 8.081529,-12.73827 17.041019,-16.69335 8.95956,-3.95513 20.86629,-6.48831 35.08593,-7.70313 7.10986,-0.60714 14.79971,-0.88337 22.97657,-0.81836 24.53072,0.1951 53.45523,3.43829 84.33593,9.86133 41.26273,8.58232 82.82355,24.66798 113.39649,41.85156 15.28641,8.59177 27.82243,17.44361 36.25781,25.9082 8.43538,8.46403 13.13261,16.77338 11.13672,24.4004 -1.08813,4.15838 -4.05629,7.58525 -8.08398,10.38671 -4.02773,2.80158 -9.18078,5.05406 -15.11524,6.91797 -4.53623,1.42458 -9.5359,2.61591 -14.82422,3.59961 1.59459,1.56707 3.15251,3.19691 4.67188,4.88477 7.96743,-1.42008 15.06504,-3.29071 21.12109,-5.5918 13.63004,-5.17856 21.70114,-12.32636 23.70508,-20.9043 1.21255,-5.19076 -0.36516,-9.72447 -2.15234,-15.0332 v -0.006 C 422.25931,242.65888 398.05977,224.91836 373.68945,204.57422 349.3183,184.22917 324.79594,160.94669 318.78906,128.35352 314.09712,102.89518 292.2323,76.959144 264.32227,59.537109 243.45538,46.511648 219.33284,38.298225 196.88086,38.105469 Z M 171.66992,180.83203 c -0.20447,0.004 -0.4037,0.006 -0.60742,0.008 -0.81279,1.48899 -2.2283,3.58003 -3.82617,5.9961 -1.68726,2.55118 -3.54377,5.39113 -4.88867,7.80859 -0.67246,1.20881 -1.2144,2.31619 -1.53907,3.17188 -0.10129,0.27167 -0.0638,0.22622 -0.11328,0.4375 0.47233,-0.12484 0.85266,-0.17525 1.85938,-0.67774 1.34959,-0.67291 2.89032,0.48036 2.625,1.96485 -2.00296,11.17096 -1.50268,22.86578 2.00586,27.83593 0.78414,1.11307 0.12492,2.66203 -1.22071,2.86914 -3.09339,0.47501 -6.21918,3.85507 -8.64257,8.86329 -2.42344,5.00821 -4.10542,11.38729 -4.83204,16.88476 -0.35962,2.7487 -0.48775,5.28111 -0.3789,7.27734 0.10874,1.98592 0.55247,3.45508 0.8125,3.84766 0.054,-0.0268 0.1281,-0.0654 0.2207,-0.12695 0.71093,-0.46931 2.16236,-2.07917 3.87305,-5.01367 0.9936,-1.70049 3.60556,-0.85437 3.41015,1.10546 -2.23857,22.41204 -0.0914,44.58063 3.53907,57.72461 0.90765,3.28596 1.90892,6.00757 2.91015,7.97852 1.0012,1.97091 2.06143,3.13394 2.62696,3.44727 0.28282,0.161 0.38126,0.1534 0.50976,0.12695 0.12847,-0.0243 0.37079,-0.11216 0.7461,-0.48633 0.75103,-0.74914 1.81918,-2.60482 2.79101,-5.61328 0.55026,-1.6873 2.93802,-1.6873 3.48828,0 2.75475,8.39293 7.36753,28.53819 12.07617,42.91211 1.17721,3.59346 2.35876,6.81735 3.49024,9.35742 1.13144,2.53984 2.2822,4.40721 3.0293,5.14063 0.19385,0.19011 0.33715,0.28598 0.41992,0.33398 0.0178,-0.0227 0.005,-0.0187 0.0605,-0.0742 0.44954,-0.48299 1.42273,-2.52138 2.16797,-6.09961 0.3495,-1.65804 2.56716,-1.99632 3.39453,-0.51758 5.27003,9.46583 14.35163,29.0753 21.88086,42.30274 1.88232,3.30686 3.66621,6.2093 5.23438,8.41601 1.56809,2.20676 3.01879,3.71416 3.7168,4.13868 0.0151,0.0189 0.02,0.0176 0.0351,0.0176 0.32606,-0.78153 0.64859,-3.2202 0.44336,-7.09179 -0.0847,-1.62157 1.82373,-2.54461 3.04297,-1.47266 3.50298,3.08621 5.82927,6.51452 8.62109,8.99805 2.7919,2.48341 5.93005,4.18945 11.67969,4.18945 5.74949,0 8.88587,-1.70604 11.67774,-4.18945 2.79186,-2.48353 5.11815,-5.91184 8.62109,-8.99805 1.21927,-1.0735 3.12801,-0.14955 3.04297,1.47266 -0.20534,3.87159 0.11756,6.31026 0.44336,7.09179 0.0151,0 0.02,0.001 0.0351,-0.0176 0.69804,-0.42452 2.14864,-1.93192 3.7168,-4.13868 1.56816,-2.20671 3.35217,-5.10915 5.23438,-8.41601 7.52923,-13.22744 16.61083,-32.83691 21.88086,-42.30274 0.82786,-1.47704 3.04416,-1.13902 3.39453,0.51758 0.74532,3.57823 1.71843,5.61662 2.16797,6.09961 0.0514,0.0586 0.0416,0.0515 0.0605,0.0742 0.083,-0.0476 0.22566,-0.14387 0.41992,-0.33398 0.74722,-0.73342 1.8979,-2.60079 3.0293,-5.14063 1.1314,-2.54007 2.3131,-5.76396 3.49024,-9.35742 4.70853,-14.37392 9.32138,-34.51918 12.07617,-42.91211 0.55105,-1.68548 2.93523,-1.68548 3.48633,0 0.97186,3.00846 2.04193,4.86414 2.79296,5.61328 0.37535,0.37463 0.61955,0.45987 0.74805,0.48633 0.1285,0.0246 0.22548,0.0288 0.50781,-0.12695 0.56553,-0.31303 1.62568,-1.47636 2.62696,-3.44727 1.00123,-1.97095 2.0025,-4.69256 2.91015,-7.97852 3.63062,-13.14398 5.77768,-35.31257 3.53907,-57.72461 -0.19733,-1.96183 2.41539,-2.80909 3.4082,-1.10546 1.80661,3.09909 3.34551,4.71018 3.98633,5.08398 0.0729,0.0438 0.0735,0.0397 0.11132,0.0586 0.0268,-0.0393 0.0552,-0.0872 0.0937,-0.16015 0.34209,-0.65091 0.71612,-2.43868 0.75391,-4.72461 0.0332,-2.28582 -0.20062,-5.10291 -0.69336,-8.08594 -0.98532,-5.96621 -3.03199,-12.62562 -5.82226,-17.3125 -1.39499,-2.34342 -2.97207,-4.17463 -4.56446,-5.23437 -1.59243,-1.05967 -3.10776,-1.41691 -4.93554,-0.97852 -1.46502,0.35085 -2.70541,-1.11792 -2.11524,-2.50391 1.80129,-4.23345 2.46691,-6.81214 2.71485,-8.80664 -1.06685,-0.48756 -2.14085,-0.97051 -3.22266,-1.45312 0.23218,0.52456 0.39189,1.1189 0.42969,1.79101 0.10469,1.95651 -2.83306,2.11149 -2.9336,0.1543 -0.0539,-1.02395 -0.42539,-1.31822 -0.84961,-1.58203 -0.42417,-0.26381 -0.8125,-0.31445 -0.8125,-0.31445 -1.12777,-0.11445 -1.70439,-1.4089 -1.03515,-2.32422 -1.76296,-0.75663 -3.54182,-1.50688 -5.33789,-2.24805 -0.14132,2.02972 -0.70164,4.28967 -1.50782,6.76367 2.36795,-0.30225 4.63514,-0.42819 6.6875,-0.51172 0.0427,-0.008 0.085,-0.006 0.12696,-0.006 2.35483,0.0752 2.376,3.56126 0.0234,3.66407 -2.58943,0.10575 -5.39429,0.28048 -8.23242,0.77148 -0.0268,0.0703 -0.0459,0.13673 -0.0762,0.20703 3.68485,14.87286 0.84368,31.48133 -3.67773,43.60938 -0.44954,1.20548 -1.96914,1.5841 -2.9336,0.73242 -1.3666,-1.20873 -2.41572,-1.76502 -2.98828,-1.91016 -0.57248,-0.14513 -0.60243,-0.0981 -0.88476,0.14453 -0.56542,0.48582 -1.50203,2.81587 -2.04493,5.94532 -0.54296,3.12975 -0.92214,6.97864 -1.54882,10.6582 -0.55854,3.27885 -1.37799,6.34245 -2.79883,8.875 2.55802,4.41604 4.00338,9.26689 4.60742,14.35742 0.35467,2.98859 2.35669,13.27725 2.98047,20.52344 0.15647,1.81164 0.22995,3.44232 0.15625,4.81641 -0.0741,1.37382 -0.0114,2.5186 -1.17969,3.67578 -0.58405,0.5786 -1.74373,0.8512 -2.52148,0.61914 -0.77764,-0.23207 -1.27588,-0.66455 -1.78321,-1.17774 -0.17839,-0.18058 -0.40918,-0.64658 -0.58984,-0.85937 -0.42928,2.82092 -1.04135,5.63409 -2.47852,7.75195 -0.56488,0.83225 -1.30722,1.58364 -2.30664,2.01953 -0.99942,0.43578 -2.20172,0.46686 -3.31445,0.11914 -2.22561,-0.69619 -4.29063,-2.56975 -6.86914,-5.88281 -0.028,-0.0344 -0.0517,-0.0677 -0.0781,-0.10547 -1.70143,-2.54264 -2.73107,-5.24981 -3.35742,-8.00781 -2.47786,4.97949 -5.42252,8.82617 -9.1875,10.70312 -2.64143,1.31679 -5.71108,1.52203 -8.7539,0.38477 -2.9223,-1.09206 -5.83957,-3.38018 -8.85938,-6.80273 -1.50504,-0.77674 -2.34186,-0.90448 -3.90625,-0.86329 -1.62822,0.0439 -3.98856,0.3418 -7.77734,0.3418 -3.78875,0 -6.1492,-0.29833 -7.77735,-0.3418 -1.56446,-0.0415 -2.4012,0.0862 -3.90625,0.86329 -3.0198,3.42255 -5.93723,5.71067 -8.85937,6.80273 -3.04294,1.13726 -6.11247,0.93202 -8.75391,-0.38477 -3.76497,-1.87702 -6.7096,-5.72363 -9.1875,-10.70312 -0.6263,2.758 -1.65614,5.46517 -3.35742,8.00781 -0.0253,0.0367 -0.0498,0.0677 -0.0801,0.10547 -2.57854,3.31302 -4.6415,5.18662 -6.86718,5.88281 -1.11274,0.34802 -2.31504,0.31725 -3.31446,-0.11914 -0.99946,-0.43589 -1.74183,-1.18728 -2.30664,-2.01953 -1.43716,-2.11786 -2.0474,-4.93099 -2.47656,-7.75195 -0.18059,0.21316 -0.41183,0.67909 -0.58984,0.85937 -0.50729,0.51319 -1.00944,0.94567 -1.78711,1.17774 -0.77768,0.23202 -1.93556,-0.0414 -2.51954,-0.61914 -1.16624,-1.15718 -1.10794,-2.30196 -1.18164,-3.67578 -0.0741,-1.37405 9.2e-4,-3.00477 0.15625,-4.81641 0.6237,-7.24619 2.62791,-17.53485 2.98243,-20.52344 0.60404,-5.09053 2.04748,-9.94142 4.60546,-14.35742 -1.42087,-2.53255 -2.23837,-5.59615 -2.79687,-8.875 -0.62672,-3.67956 -1.00586,-7.52845 -1.54883,-10.6582 -0.54289,-3.12945 -1.47954,-5.4595 -2.04492,-5.94532 -0.28267,-0.24264 -0.31221,-0.29004 -0.88477,-0.14453 -0.57263,0.1451 -1.62363,0.70143 -2.99023,1.91016 -0.96431,0.85077 -2.48192,0.47234 -2.93164,-0.73242 -4.48604,-12.03387 -6.19538,-29.39147 -5.19531,-44.03906 -2.34426,-0.32418 -4.64534,-0.46077 -6.79688,-0.54883 -2.35699,-0.0671 -2.38683,-3.5583 -0.0332,-3.66602 0.0601,0 0.11921,2.5e-4 0.17969,0.008 1.79788,0.0733 3.76206,0.17873 5.8125,0.40625 -3.05927,-9.66788 -2.78434,-15.50906 -0.97266,-23.92187 -0.24779,0.0828 -0.60627,0.30703 -0.83984,0.36523 -1.17944,0.29511 -2.5412,0.37269 -3.54493,-0.66211 -1.0038,-1.03476 -0.8575,-2.31201 -0.61523,-3.27734 0.2423,-0.96544 0.68604,-1.92252 1.25195,-2.95312 1.5255,-2.77864 3.936,-5.98976 6.1875,-8.50586 -4.00097,-0.14363 -7.89698,-0.21642 -11.67383,-0.20508 v -0.002 z m 16.58789,0.41992 -0.002,0.006 c -2.1769,2.04499 -6.10568,6.83228 -7.87695,10.0586 -0.29571,0.53865 -0.39998,0.87836 -0.5625,1.28515 0.67222,-0.22703 1.45174,-0.50667 2.72461,-1.20898 1.39396,-0.76808 3.03804,0.48281 2.66992,2.03125 -2.64601,11.10554 -3.35221,15.4418 0.71094,27.19726 3.44832,0.69374 7.01078,1.87992 10.38476,3.97461 1.06341,-10.49204 9.95622,-18.71679 20.72266,-18.71679 h 0.008 c 10.86236,0 19.81268,8.37213 20.74414,18.99804 1.1204,-0.0151 2.26533,-2.5e-4 3.39258,-0.008 h 0.0137 c 1.92431,0.033 2.45214,-0.32318 2.8457,-0.74414 0.39349,-0.42089 0.71194,-1.29783 1.25196,-2.53906 0.5399,-1.24146 1.44417,-2.82076 3.2207,-3.89649 1.77245,-1.07346 4.22637,-1.62997 7.83008,-1.59179 3.60359,-0.0378 6.05759,0.51833 7.83008,1.59179 1.77652,1.07573 2.67876,2.65503 3.21875,3.89649 0.5399,1.24123 0.86026,2.11817 1.2539,2.53906 0.39345,0.42055 0.91933,0.78194 2.84375,0.74414 h 0.0137 c 1.12717,0.008 2.27421,-0.004 3.39453,0.008 0.93147,-10.62599 9.8819,-18.99804 20.74415,-18.99804 10.76674,0 19.65774,8.22441 20.7207,18.71679 3.0607,-1.90019 6.27501,-3.04993 9.41992,-3.76562 1.28183,-3.81105 1.94273,-7.01304 1.92383,-8.99805 -4.45603,-1.78919 -8.99945,-3.52549 -13.61524,-5.19922 -0.0306,0.0117 -0.0481,0.0221 -0.0859,0.041 -0.46628,0.19895 -0.89117,0.27908 -1.96289,0.49414 -0.78036,0.15677 -1.57765,0.28675 -2.37891,0.4043 -0.3902,0.0586 -0.78673,-0.0428 -1.10156,-0.28125 -3.59082,-2.72671 -8.04738,-4.34592 -12.88086,-4.34766 h -0.008 c -0.0113,0.002 -0.0238,2.1e-4 -0.0352,0.002 -5.00678,0.007 -9.5835,1.75241 -13.21094,4.66797 -0.27401,0.22073 -0.61763,0.33934 -0.96875,0.32422 -2.81057,-0.10016 -5.18325,-0.14149 -6.72851,-0.0391 -0.004,0.002 -0.004,0.002 -0.0117,0.004 -0.12246,0.008 -0.24612,-3.8e-4 -0.36328,-0.0117 -2.07746,-0.19056 -3.59557,-1.60919 -4.33594,-3.18359 -0.70042,-1.48951 -0.90028,-3.09758 -0.97852,-4.61914 0,-0.002 1.2e-4,-0.004 0,-0.004 -0.0424,-0.79748 0.31751,-1.5583 0.94922,-2.0332 h 0.008 c 1.80084,-1.34853 3.43249,-2.39565 5.58399,-3.36914 -5.8094,-1.49843 -11.64394,-2.86701 -17.4668,-4.07812 -25.06087,-5.21262 -48.81242,-8.29485 -69.84961,-9.35157 z m 6.81836,1.78321 h 0.006 c 0.45475,0.004 0.93118,0.0121 1.42774,0.0234 v 0.002 c 4.1091,0.0954 9.47955,0.49458 15.16211,1.18359 11.35748,1.37692 23.75529,3.65331 30.21484,7.875 h 0.008 c 0.65394,0.42943 1.06471,1.16291 1.07227,1.97656 0.0192,1.52225 -0.0726,3.13881 -0.67578,4.66797 -0.63772,1.61685 -2.06165,3.12847 -4.11914,3.45313 -0.1183,0.0227 -0.24524,0.0391 -0.3711,0.0391 h -0.01 c -1.54863,-0.003 -3.91596,0.18535 -6.71485,0.45898 -0.34919,0.0344 -0.69908,-0.0579 -0.98633,-0.25976 -3.80594,-2.67814 -8.48528,-4.12935 -13.48242,-3.81641 -0.01,0.002 -0.0239,2.2e-4 -0.0391,0.002 -4.82105,0.31102 -9.16427,2.20916 -12.57227,5.15821 -0.29767,0.2589 -0.68693,0.38948 -1.08007,0.35547 -0.80727,-0.0658 -1.61176,-0.145 -2.4004,-0.25196 -4.20102,-0.56798 -7.97309,-1.67458 -10.54687,-4.20898 -0.004,-0.004 -0.004,-0.004 -0.0117,-0.006 -0.0922,-0.093 -0.17926,-0.19363 -0.25976,-0.30664 -0.008,-0.004 -2.6e-4,-0.006 -0.008,-0.008 -0.008,-0.002 -0.008,-0.002 -0.008,-0.004 -2.51822,-3.51776 -3.56523,-6.47828 -3.70508,-8.97266 -0.14044,-2.50612 0.69254,-4.40177 1.33789,-5.51953 0,-0.002 0.006,-2.1e-4 0.006,-0.002 0.0616,-0.1062 0.11612,-0.18278 0.14258,-0.2168 0.64399,-0.87893 1.72562,-1.15154 2.05859,-1.23242 v -0.004 c 0.52407,-0.127 1.09237,-0.19602 1.71875,-0.25196 0.0144,-0.004 0.028,-0.01 0.0469,-0.0117 v 0.004 c 0.0253,0 0.0401,-0.008 0.0703,-0.0117 0.0563,-0.005 0.11399,-0.006 0.16992,-0.004 1.00661,-0.0741 2.18393,-0.11888 3.54883,-0.11132 z m -0.0664,2.93359 -0.006,0.004 c -1.36033,-0.006 -2.51229,0.0283 -3.4043,0.10351 -0.59649,0.0495 -1.06414,0.11947 -1.39258,0.19922 -0.54047,0.13266 -0.26911,-0.0387 -0.37305,0.11328 -0.48446,0.84715 -1.02908,2.07095 -0.92968,3.83985 0.10057,1.79652 0.87738,4.20937 3.13867,7.38281 1.83008,1.7859 4.95494,2.84813 8.85156,3.375 0.576,0.0779 1.19252,0.13232 1.81055,0.1875 3.78353,-3.07589 8.46095,-5.14163 13.67383,-5.47461 0.0249,-0.002 0.0497,-0.002 0.0762,-0.002 0.0355,0 0.0478,-0.002 0.0742,0 5.39701,-0.3103 10.44358,1.27939 14.63867,4.06445 2.58523,-0.24922 4.84664,-0.44162 6.52539,-0.44336 h 0.008 c 0.89809,-0.14064 1.50908,-0.77082 1.84961,-1.63281 0.34073,-0.86359 0.42604,-2.02924 0.4336,-3.2461 -5.47318,-3.42493 -17.62448,-5.94607 -28.66993,-7.28515 -5.59699,-0.67858 -10.89869,-1.06794 -14.87695,-1.16016 v -0.002 c -0.49735,-0.0113 -0.97434,-0.0217 -1.42773,-0.0234 z m 85.40429,9.99023 c -4.05732,1.31468 -5.91142,2.42192 -8.39453,4.26172 0.0836,1.22491 0.2485,2.39017 0.64649,3.23633 0.39435,0.83872 1.04582,1.42895 1.95117,1.51172 0.008,-4e-5 0.008,0 0.008,0 1.67558,-0.10356 3.94558,-0.0581 6.54102,0.0254 3.74543,-2.84583 8.30037,-4.69618 13.29101,-4.95508 -4.64534,-1.43656 -9.32963,-2.80113 -14.03711,-4.07812 z m -63.18359,14.375 c -9.72525,-2.6e-4 -17.61118,7.41015 -17.61133,16.55079 -2.3e-4,9.14093 7.88577,16.55078 17.61133,16.55078 9.72537,-1.2e-4 17.60952,-7.41003 17.60937,-16.55078 -3e-4,-9.14041 -7.88431,-16.55067 -17.60937,-16.55079 z m 78.20117,0 c -9.72495,1.2e-4 -17.60926,7.41038 -17.60937,16.55079 -2.7e-4,9.14075 7.88415,16.55066 17.60937,16.55078 9.72567,2.6e-4 17.60949,-7.40985 17.60938,-16.55078 -3.1e-4,-9.14064 -7.88397,-16.55079 -17.60938,-16.55079 z m -120.66406,4.64258 c 1.91875,-0.0357 2.02916,2.82128 0.11328,2.93164 0,0 -0.38832,0.0507 -0.8125,0.31446 -0.42425,0.26366 -0.79752,0.55609 -0.85156,1.58007 -0.0996,1.9589 -3.03785,1.80576 -2.93164,-0.15234 0.10216,-1.94139 1.21499,-3.28812 2.23437,-3.92187 1.01938,-0.63364 2.03516,-0.73633 2.03516,-0.73633 0.0344,-0.004 0.0657,-0.008 0.10351,-0.01 0.02,-0.002 0.0379,-0.002 0.0606,-0.004 0.0121,0 0.0299,-0.002 0.0488,-0.002 z m 36.66406,1.49805 c 1.36433,-0.001 2.6936,0.1619 3.95898,0.36523 1.96181,0.28804 1.4909,3.23671 -0.46289,2.89844 -3.20829,-0.51409 -5.96843,-0.71716 -8.88085,1.16992 -1.64561,1.08915 -3.26186,-1.4004 -1.59766,-2.46093 1.86875,-1.21085 3.76108,-1.74701 5.60742,-1.91407 0.46159,-0.0408 0.92017,-0.0584 1.375,-0.0586 z m 89.79688,0 c 0.45482,0 0.9134,0.017 1.375,0.0586 1.84629,0.16668 3.73867,0.70322 5.60742,1.91407 1.69659,1.05278 0.0547,3.58198 -1.59766,2.46093 -2.91228,-1.88708 -5.67261,-1.68401 -8.88086,-1.16992 -1.90722,0.27326 -2.36048,-2.5647 -0.46289,-2.89844 1.26542,-0.20258 2.59465,-0.36697 3.95899,-0.36523 z m -44.89844,3.25 c -3.238,0 -4.97734,0.5166 -5.9336,1.0957 -0.95629,0.57903 -1.32082,1.23366 -1.75195,2.22461 -0.43098,0.99096 -0.78361,2.34775 -1.9375,3.58203 -1.15396,1.23421 -3.04829,1.95129 -5.58594,1.90821 -1.1139,0 -2.23987,-2.6e-4 -3.34765,-0.008 -0.93185,10.62554 -9.88208,18.99805 -20.74414,18.99805 -10.86244,0 -19.8126,-8.37217 -20.74414,-18.99805 -0.39564,0.0193 -0.78755,-0.0906 -1.11524,-0.3125 -2.78895,-1.8929 -5.80675,-3.03559 -8.83789,-3.75 -0.83437,13.25118 0.76828,28.88028 4.41602,39.95313 0.71765,-0.43177 1.4693,-1.13386 2.18945,-1.31641 1.4869,-0.37685 3.10626,0.002 4.17383,0.91992 2.13517,1.83455 2.69216,4.75822 3.27148,8.09766 0.57933,3.33929 0.95303,7.17377 1.54883,10.67188 0.38782,2.27656 0.94135,4.23513 1.57813,5.93554 0.984,-1.22831 1.98856,-2.44918 3.24023,-3.5664 1.50671,-1.5851 3.73917,-2.23928 6.69922,-2.83399 2.98008,-0.59852 6.72228,-0.98745 11.08008,-1.2539 8.7157,-0.53088 19.87506,-0.56055 31.80468,-0.56055 11.92952,0 23.087,0.0269 31.80274,0.56055 4.35779,0.26653 8.09999,0.65538 11.08008,1.2539 2.96005,0.59471 5.19251,1.24889 6.69922,2.83399 1.2517,1.11722 2.25615,2.33809 3.24023,3.5664 0.63666,-1.70041 1.19226,-3.65898 1.58008,-5.93554 0.5958,-3.49811 0.96755,-7.33259 1.54687,-10.67188 0.57933,-3.33944 1.13639,-6.26311 3.27149,-8.09766 1.06749,-0.91336 2.687,-1.29674 4.17383,-0.91992 0.73281,0.18577 1.49571,0.89602 2.22656,1.33985 3.91498,-11.45265 6.22634,-26.51063 2.91211,-39.59766 -2.53482,0.72386 -5.03728,1.78504 -7.37696,3.37305 -0.32749,0.22412 -0.71887,0.33725 -1.11523,0.31836 -0.9349,10.62259 -9.88408,18.99023 -20.74414,18.99023 -10.86206,0 -19.81027,-8.37247 -20.74219,-18.99805 -1.10778,0.0151 -2.23375,0.008 -3.34765,0.008 -2.53765,0.0435 -4.43186,-0.67396 -5.58594,-1.90821 -1.15385,-1.23424 -1.5084,-2.59104 -1.93946,-3.58203 -0.43113,-0.99095 -0.79565,-1.64555 -1.75195,-2.22461 -0.95626,-0.5791 -2.69552,-1.0957 -5.93359,-1.0957 z m 44.42773,2.02148 c 0.28585,-0.008 0.56488,-0.008 0.83399,0 0.28713,0.004 0.56488,0.0142 0.83398,0.0293 4.30674,0.20961 6.49433,1.65478 7.56836,2.12109 1.87725,0.74438 0.65838,3.55314 -1.16797,2.69141 -1.62315,-0.70462 -2.78758,-1.69793 -6.54492,-1.88086 -3.75749,-0.18285 -9.99245,0.58952 -20.66992,4.05859 -1.91044,0.70787 -2.86779,-2.23628 -0.90625,-2.7871 9.55612,-3.10481 15.76497,-4.16124 20.05273,-4.22852 z m -89.6875,0.004 v 0.002 c 4.30708,-0.0632 10.69349,0.91675 20.88672,4.22852 1.95545,0.55468 0.99921,3.49141 -0.9082,2.78906 -10.67743,-3.46908 -16.91243,-4.24152 -20.66992,-4.05859 -3.75742,0.18285 -4.91982,1.17429 -6.54297,1.8789 -1.82631,0.86177 -3.0453,-1.94515 -1.16797,-2.68945 1.07403,-0.46639 3.26155,-1.91133 7.56836,-2.12109 0.26921,-0.0151 0.54674,-0.0217 0.83398,-0.0293 z m 40.33203,1.48242 h 0.0176 c 1.03276,-0.0422 1.89309,0.77704 1.9082,1.81055 0,0 0.21339,7.07528 -0.43359,15.17969 -0.64686,8.10451 -1.84495,17.18124 -5.94336,22.00781 l -0.0254,0.0332 -0.0312,0.0312 c -0.71089,0.76921 -1.14963,2.5814 -0.11328,4.23438 1.03495,1.65089 3.66709,3.45414 9.56055,3.51953 5.89338,-0.0658 8.52943,-1.86852 9.56445,-3.51953 1.03631,-1.65302 0.59547,-3.46521 -0.11523,-4.23438 l -0.0293,-0.0312 -0.0273,-0.0332 c -4.09834,-4.82657 -5.29455,-13.9033 -5.94141,-22.00781 -0.64668,-8.10441 -0.43359,-15.17969 -0.43359,-15.17969 0.0155,-1.01227 0.84714,-1.81981 1.85937,-1.80469 1.03404,0.0149 1.85199,0.88097 1.80664,1.91406 0,0 -0.20643,6.90576 0.42188,14.77735 0.62834,7.87158 2.39894,16.76606 5.08203,19.92578 l -0.0508,-0.0566 c 1.96471,2.12587 2.41712,5.666 0.53125,8.67383 -1.8858,3.00797 -5.9853,5.16911 -12.65235,5.23828 h -0.0234 -0.0234 c -6.66694,-0.0692 -10.76276,-2.23031 -12.64844,-5.23828 -1.86932,-2.98194 -1.44307,-6.48569 0.47851,-8.61719 2.68264,-3.16056 4.4538,-12.05495 5.08204,-19.92578 0.62838,-7.87159 0.42187,-14.77735 0.42187,-14.77735 -0.0477,-1.01639 0.74116,-1.87872 1.75781,-1.91992 z m -21.47656,7.21289 c 1.56801,0.019 2.01722,2.15349 0.58984,2.80274 l -5.27929,2.5 c -1.79705,0.92296 -3.10843,-1.84651 -1.25586,-2.65235 l 5.2793,-2.5 c 0.2073,-0.10242 0.43508,-0.15795 0.66601,-0.15039 z m 52.76563,0 c 0.24525,-0.0106 0.49059,0.0419 0.71093,0.15039 l 5.2793,2.5 c 1.84108,0.81071 0.53722,3.56236 -1.25586,2.65039 l -5.28125,-2.49804 c -1.40961,-0.63821 -0.99922,-2.74113 0.54688,-2.80274 z m -87.95118,3.4668 c 1.65102,0.0365 1.9919,2.34931 0.42188,2.86133 l -5.65039,1.94336 c -1.8635,0.66482 -2.83279,-2.1517 -0.95508,-2.77539 l 5.65039,-1.94336 c 0.17091,-0.0601 0.35179,-0.0935 0.5332,-0.0859 z m 123.14258,0 c 0.0491,-0.008 0.0977,-0.008 0.14649,0 0.14732,0.007 0.29331,0.036 0.43164,0.0859 l 5.65039,1.94336 c 1.87763,0.62366 0.90646,3.44017 -0.95703,2.77539 l -5.65039,-1.94336 c -1.55267,-0.50102 -1.25064,-2.7812 0.3789,-2.86133 z m -120.66211,6.95508 h 0.14649 0.002 c 1.41075,0.0696 1.91685,1.89643 0.74414,2.68359 l -6.94726,4.81641 c -1.61791,1.16942 -3.33514,-1.30857 -1.67188,-2.41211 l 6.94727,-4.81641 c 0.22866,-0.16214 0.49847,-0.25636 0.77929,-0.27148 z m 118.18164,0 c 0.29602,0.006 0.5858,0.10147 0.82618,0.27343 l 6.94336,4.81836 c 1.66329,1.10348 -0.0542,3.57951 -1.67188,2.41016 l -6.94727,-4.81641 c -1.21836,-0.81694 -0.61684,-2.72334 0.84961,-2.68554 z m -148.38086,25.91406 h 0.10352 c 0.88456,0.0246 1.54578,0.81923 1.4082,1.69336 0,0 -2.92458,20.18154 6.41407,46.73242 0.71489,1.8754 -2.1494,2.88407 -2.76758,0.97461 -9.55782,-27.17427 -6.55274,-48.12305 -6.55274,-48.12305 0.0916,-0.7087 0.68058,-1.24332 1.39453,-1.27734 z m 89.30079,17.39844 c -11.92286,0 -23.04787,0.0327 -31.58008,0.55469 -4.26618,0.26101 -7.8878,0.65021 -10.58203,1.1914 -2.69413,0.54142 -4.42938,1.39189 -4.78125,1.76758 -0.0401,0.0423 -0.0792,0.0829 -0.12305,0.12109 -5.89459,5.21447 -8.22204,11.71392 -9.11719,19.25782 -0.42221,3.55691 -2.3797,13.53761 -2.9707,20.40429 -0.13758,1.53649 -0.16488,2.81222 -0.13086,3.85352 0.55665,-0.72692 1.08956,-1.36113 1.96875,-2.91992 0.8702,-1.53888 3.19869,-1.0768 3.41602,0.67773 0.48411,3.96979 1.32541,9.07048 2.52734,10.8418 0.30047,0.44292 0.5602,0.64007 0.73633,0.71679 0.17578,0.076 0.31791,0.11925 0.75195,-0.0176 0.86132,-0.26952 2.67727,-1.59171 5.02148,-4.58789 5.82346,-8.7704 2.34487,-20.76215 2.56446,-30.69532 0,-0.0869 0.0122,-0.17397 0.0273,-0.25976 0.58231,-3.52044 1.47531,-6.16844 2.81836,-8.1875 1.34298,-2.01895 3.1802,-3.33319 5.22266,-4.03516 4.08491,-1.40387 8.81641,-0.79713 14.63476,-0.80469 h 0.0176 c 8.57337,0.0692 13.42125,1.14063 19.58203,1.14063 6.16078,0 11.00855,-1.07184 19.58203,-1.14063 h 0.0195 c 5.81832,0 10.54986,-0.59918 14.63477,0.80469 2.04242,0.70197 3.8796,2.01621 5.22266,4.03516 1.34305,2.01906 2.23608,4.66706 2.81836,8.1875 0.0151,0.0854 0.0254,0.17283 0.0254,0.25976 0.21906,9.93317 -3.25905,21.92492 2.56445,30.69532 2.34421,2.99618 4.16208,4.31841 5.02344,4.58789 0.43396,0.13682 0.57582,0.0916 0.75195,0.0176 0.17582,-0.0762 0.43586,-0.27402 0.73633,-0.71679 1.20196,-1.77132 2.04322,-6.87201 2.52734,-10.8418 0.21725,-1.75461 2.54586,-2.21668 3.41602,-0.67773 0.87915,1.55879 1.41011,2.193 1.96679,2.91992 0.0306,-1.0413 0.003,-2.31703 -0.1289,-3.85352 -0.59104,-6.86668 -2.54861,-16.84738 -2.97071,-20.40429 -0.89514,-7.5439 -3.22256,-14.04335 -9.11718,-19.25782 -0.0439,-0.0382 -0.0853,-0.0791 -0.125,-0.12109 -0.35195,-0.37584 -2.08514,-1.22616 -4.7793,-1.76758 -2.69427,-0.54119 -6.31777,-0.93024 -10.58398,-1.1914 -8.53221,-0.51708 -19.65546,-0.55469 -31.57813,-0.55469 z m -25.74024,11.48633 0.004,0.002 h -1.76172 c -2.25453,0.0277 -4.10901,0.17925 -5.52539,0.66601 -1.4163,0.48681 -2.43488,1.20196 -3.36328,2.59766 -0.41031,0.6169 -0.79165,1.39467 -1.13672,2.33789 0.34454,0.72011 1.41501,1.43031 4.41992,1.37891 4.28134,0.071 4.64323,-1.40405 4.76758,-1.39649 0.12332,0 0.58365,1.40385 4.74805,1.33203 4.16579,0.0693 4.62168,-1.33007 4.76757,-1.33007 0.14563,0 0.67892,1.33554 4.74414,1.26562 4.06746,0.0675 4.59952,-1.26596 4.77149,-1.26562 0.17219,3.4e-4 0.77221,1.26725 4.74219,1.19921 3.30497,0.0554 4.27461,-0.81555 4.50781,-1.60351 0.0824,-0.21884 0.1289,0 0.1289,0 0.23275,0.7875 1.20232,1.65907 4.50782,1.60351 3.9699,0.0675 4.57059,-1.20079 4.74218,-1.20117 0.17201,-3e-4 0.70407,1.33366 4.77149,1.26563 4.06526,0.0693 4.59863,-1.26367 4.74414,-1.26367 0.14562,0 0.60174,1.4 4.76758,1.33007 4.16439,0.0727 4.6237,-1.32642 4.74804,-1.33398 0.12333,0 0.48621,1.47025 4.76758,1.39844 3.02272,0.0519 4.08789,-0.6682 4.42578,-1.39258 -0.34333,-0.9371 -0.72049,-1.71035 -1.1289,-2.32422 -0.92833,-1.3957 -1.95081,-2.11085 -3.36719,-2.59766 -2.8326,-0.97368 -7.42169,-0.59595 -13.44531,-0.60351 -8.2585,0.0675 -13.02536,1.14062 -19.5918,1.14062 -6.56651,0 -11.33522,-1.07259 -19.59375,-1.14062 h -0.0215 c -2.25215,0 -4.30597,-0.0493 -6.14063,-0.0645 z m 63.74219,20.83789 c -4.30375,5.48857 -14.73584,10.01638 -37.9961,10.58398 -23.24324,-0.56669 -33.67954,-5.08586 -37.99023,-10.56836 0.13266,1.95496 0.23387,3.9586 0.21875,5.98828 2.84693,7.70574 6.48198,13.23366 10.11524,15.04492 1.82917,0.91216 3.62035,1.05976 5.83398,0.23243 2.21367,-0.82742 4.83323,-2.75004 7.73047,-6.11914 0.14831,-0.17254 0.3286,-0.31454 0.52929,-0.42188 2.08846,-1.11292 3.93916,-1.4092 5.88868,-1.35742 1.94955,0.0514 4.0863,0.3418 7.67968,0.3418 3.59335,0 5.72818,-0.2904 7.67774,-0.3418 1.94963,-0.052 3.80025,0.24469 5.88867,1.35742 0.20073,0.10639 0.38114,0.24991 0.5293,0.42188 2.89727,3.3691 5.51683,5.29172 7.73047,6.11914 2.2137,0.82718 4.0048,0.67957 5.83398,-0.23243 3.63326,-1.81126 7.26831,-7.33918 10.11524,-15.04492 -0.0136,-2.03486 0.0857,-4.04426 0.21874,-6.0039 z m 30.74609,14.85547 c 0.88536,-0.01 1.57735,0.76143 1.47266,1.64062 -1.54443,14.74363 -3.93483,23.88572 -6.32031,29.66602 -2.38557,5.78003 -4.83903,8.23778 -6.31055,9.34375 -1.5733,1.25162 -3.40293,-1.17974 -1.76367,-2.34375 1.09413,-0.82239 3.13166,-2.70963 5.36328,-8.11719 2.23177,-5.40756 4.58655,-14.29712 6.11133,-28.85352 0.0678,-0.75035 0.69385,-1.3246 1.44726,-1.33593 z m -76.06445,8.11523 c 1.19864,-10e-4 1.89202,1.35517 1.19141,2.32617 -7.29827,10.37824 -14.3404,14.08443 -19.66016,15.02734 -5.31976,0.943 -8.95703,-0.95312 -8.95703,-0.95312 -1.79414,-0.90232 -0.35776,-3.58086 1.38672,-2.58594 0,0 2.58624,1.44319 7.05859,0.65039 4.47235,-0.79275 10.7892,-3.89778 17.76953,-13.82422 0.27326,-0.40029 0.7264,-0.64024 1.21094,-0.64062 z m 14.61133,0 c 0.4995,-0.0144 0.97271,0.22602 1.2539,0.63867 6.98041,9.92621 13.29718,13.03139 17.76953,13.82422 4.47236,0.79268 7.0586,-0.64844 7.0586,-0.64844 1.74459,-0.99488 3.18082,1.68362 1.38672,2.58594 0,0 -3.63724,1.89608 -8.95703,0.95312 -5.31976,-0.94295 -12.36185,-4.65097 -19.66016,-15.02929 -0.68852,-0.95467 -0.0281,-2.28643 1.14844,-2.32422 z m -31.29883,57.37891 c 1.00524,-0.009 1.72184,0.97313 1.40625,1.92773 -0.55087,1.74837 0.0985,4.36026 1.74414,7.29687 1.64568,2.93685 4.18139,6.11371 6.83008,9.00391 5.29738,5.78037 10.99609,10.41602 10.99609,10.41602 1.57213,1.22857 -0.32837,3.56612 -1.85156,2.27734 0,0 -5.82935,-4.73242 -11.30664,-10.70898 -2.73865,-2.9884 -5.40054,-6.28742 -7.23047,-9.55274 -1.82959,-3.26532 -2.93413,-6.58197 -1.97852,-9.61523 0.18486,-0.61561 0.74785,-1.03737 1.39063,-1.04492 z"
       style="opacity:1;fill:#000000;fill-opacity:1;stroke:none;stroke-width:13.89777279;stroke-linecap:round;stroke-linejoin:round;stroke-miterlimit:4;stroke-dasharray:none;stroke-dashoffset:0;stroke-opacity:1;paint-order:fill markers stroke;filter:url(#filter841)"
       inkscape:connector-curvature="0" />
  </g>
</svg>
